<svg xmlns="http://www.w3.org/2000/svg" xmlns:xlink="http://www.w3.org/1999/xlink" fill="none" version="1.1" width="46" height="46" viewBox="0 0 46 46"><defs><mask id="master_svg0_0_1404"><g style="mix-blend-mode:passthrough"><path d="M0 0C0 0 0 0 0 0L46 0C46 0 46 0 46 0L46 46C46 46 46 46 46 46L0 46C0 46 0 46 0 46Z" fill="#FFFFFF" fill-opacity="1"/></g></mask></defs><g style="mix-blend-mode:passthrough"><g><g style="mix-blend-mode:passthrough"></g></g><g mask="url(#master_svg0_0_1404)"><g style="mix-blend-mode:passthrough"><path d="M42.16333325386047,23.003333253860475C42.16333325386047,12.413333253860474,33.583333253860474,3.8333332538604736,23.003333253860475,3.8333332538604736C12.413333253860474,3.8333332538604736,3.8333332538604736,12.413333253860474,3.8333332538604736,23.003333253860475C3.8333332538604736,33.583333253860474,12.413333253860474,42.16333325386047,23.003333253860475,42.16333325386047C33.583333253860474,42.16333325386047,42.16333325386047,33.583333253860474,42.16333325386047,23.003333253860475Z" fill-rule="evenodd" fill="#D8D8D8" fill-opacity="0.009999999776482582"/><path d="M23.003333253860475,40.66333325386047Q26.596433253860475,40.66333325386047,29.876133253860473,39.27593325386047Q33.045033253860474,37.93533325386047,35.49013325386048,35.49013325386048Q37.93533325386047,33.04493325386048,39.27593325386047,29.876133253860473Q40.66333325386047,26.596533253860475,40.66333325386047,23.003333253860475Q40.66333325386047,19.406433253860474,39.275833253860476,16.124433253860474Q37.935233253860474,12.953713253860474,35.48993325386047,10.507553253860474Q33.045033253860474,8.061673253860473,29.876033253860474,6.720863253860474Q26.596633253860475,5.333333253860474,23.003333253860475,5.333333253860474Q19.406233253860474,5.333333253860474,16.124533253860474,6.720993253860474Q12.953703253860473,8.061783253860472,10.507743253860474,10.507743253860474Q8.061783253860472,12.953703253860473,6.720993253860474,16.124533253860474Q5.333333253860474,19.406233253860474,5.333333253860474,23.003333253860475Q5.333333253860474,26.596633253860475,6.720863253860474,29.876033253860474Q8.061673253860473,33.04493325386048,10.507553253860474,35.48993325386047Q12.953703253860473,37.935233253860474,16.124433253860474,39.275833253860476Q19.406433253860474,40.66333325386047,23.003333253860475,40.66333325386047ZM23.003333253860475,43.66333325386047Q18.798233253860474,43.66333325386047,14.956233253860473,42.039033253860474Q11.246573253860474,40.47063325386048,8.386613253860475,37.61173325386047Q5.5268432538604735,34.752933253860476,3.957991253860474,31.045033253860474Q2.3333332538604736,27.205233253860474,2.3333332538604736,23.003333253860475Q2.3333332538604736,18.798033253860474,3.9578632538604737,14.956133253860473Q5.526603253860474,11.246243253860474,8.386423253860475,8.386423253860475Q11.246243253860474,5.526603253860474,14.956133253860473,3.9578632538604737Q18.798033253860474,2.3333332538604736,23.003333253860475,2.3333332538604736Q27.205233253860474,2.3333332538604736,31.045033253860474,3.9579922538604735Q34.752933253860476,5.5268432538604735,37.61173325386047,8.386613253860475Q40.47063325386048,11.246563253860474,42.039033253860474,14.956233253860473Q43.66333325386047,18.798333253860473,43.66333325386047,23.003333253860475Q43.66333325386047,27.204933253860474,42.038833253860474,31.044933253860474Q40.47043325386047,34.75263325386047,37.61153325386047,37.61153325386047Q34.75263325386047,40.470333253860474,31.044933253860474,42.038833253860474Q27.204933253860474,43.66333325386047,23.003333253860475,43.66333325386047Z" fill="#FFFFFF" fill-opacity="1"/></g><g style="mix-blend-mode:passthrough"><path d="M27.78833396911621,17.248332061767577C27.78833396911621,14.608332061767578,25.648333969116212,12.458332061767578,22.99833396911621,12.458332061767578C20.35833396911621,12.458332061767578,18.20833396911621,14.608332061767578,18.20833396911621,17.248332061767577C18.20833396911621,19.89833206176758,20.35833396911621,22.038332061767576,22.99833396911621,22.038332061767576C25.648333969116212,22.038332061767576,27.78833396911621,19.89833206176758,27.78833396911621,17.248332061767577Z" fill-rule="evenodd" fill="#D8D8D8" fill-opacity="0.009999999776482582"/><path d="M22.99833396911621,20.538332061767576Q24.36451396911621,20.538332061767576,25.32642396911621,19.576422061767577Q26.28833396911621,18.614512061767577,26.28833396911621,17.248332061767577Q26.28833396911621,15.887292061767578,25.32566396911621,14.923232061767578Q24.36215396911621,13.958332061767578,22.99833396911621,13.958332061767578Q21.63965396911621,13.958332061767578,20.67399396911621,14.923992061767578Q19.70833396911621,15.889652061767578,19.70833396911621,17.248332061767577Q19.70833396911621,18.612152061767578,20.67323396911621,19.575662061767577Q21.63729396911621,20.538332061767576,22.99833396911621,20.538332061767576ZM22.99833396911621,23.538332061767576Q20.39591396911621,23.538332061767576,18.55343896911621,21.698502061767577Q16.70833396911621,19.856062061767577,16.70833396911621,17.248332061767577Q16.70833396911621,14.647012061767578,18.55267396911621,12.802672061767579Q20.397013969116212,10.958332061767578,22.99833396911621,10.958332061767578Q25.60606396911621,10.958332061767578,27.448513969116213,12.803437061767578Q29.28833396911621,14.645922061767578,29.28833396911621,17.248332061767577Q29.28833396911621,19.85715206176758,27.44774396911621,21.697742061767578Q25.60715396911621,23.538332061767576,22.99833396911621,23.538332061767576Z" fill="#FFFFFF" fill-opacity="1"/></g><g style="mix-blend-mode:passthrough"><path d="M34.897916847229006,36.81383603088379Q34.682216847229,33.65459603088379,32.361916847229004,31.47819603088379Q30.030916847229005,29.29166603088379,26.834416847229004,29.29166603088379L19.164416847229006,29.29166603088379Q15.961646847229005,29.29166603088379,13.630636847229004,31.48325603088379Q11.310526847229005,33.66460603088379,11.101146847229003,36.83064603088379Q11.096286847229004,36.90417603088379,11.084236847229004,36.97687603088379Q11.072196847229003,37.04957603088379,11.053076847229004,37.12074603088379Q11.033966847229005,37.191906030883786,11.007966847229003,37.26086603088379Q10.981966847229003,37.32981603088379,10.949336847229004,37.39588603088379Q10.916706847229005,37.46195603088379,10.877756847229003,37.52451603088379Q10.838806847229003,37.58706603088379,10.793906847229003,37.64550603088379Q10.749016847229004,37.70393603088379,10.698606847229003,37.75769603088379Q10.648206847229003,37.81146603088379,10.592773847229005,37.85996603088379Q10.537342847229004,37.90856603088379,10.477418847229004,37.95146603088379Q10.417494847229005,37.99436603088379,10.353654847229004,38.03116603088379Q10.289815847229004,38.06796603088379,10.222675847229004,38.09836603088379Q10.155536847229005,38.12866603088379,10.085742847229003,38.15236603088379Q10.015949847229004,38.175966030883785,9.944174847229004,38.192666030883785Q9.872399847229003,38.209366030883785,9.799333847229004,38.21896603088379Q9.726268847229004,38.22856603088379,9.652616547229004,38.23086603088379Q9.578964247229004,38.23326603088379,9.505434647229004,38.22836603088379Q9.431904847229005,38.22356603088379,9.359205847229005,38.21146603088379Q9.286506847229004,38.19946603088379,9.215338847229004,38.18036603088379Q9.144170847229004,38.16116603088379,9.075218847229005,38.13516603088379Q9.006266847229004,38.10916603088379,8.940194847229003,38.07656603088379Q8.874123847229004,38.04396603088379,8.811568847229005,38.00496603088379Q8.749012847229004,37.96606603088379,8.690576847229003,37.92116603088379Q8.632140847229003,37.87626603088379,8.578386847229003,37.82586603088379Q8.524636847229004,37.77545603088379,8.476076847229004,37.72002603088379Q8.427526847229004,37.664596030883786,8.384636847229004,37.60466603088379Q8.341746847229004,37.544746030883786,8.304936847229005,37.48090603088379Q8.268126847229004,37.41706603088379,8.237756847229004,37.34992603088379Q8.207386847229003,37.28278603088379,8.183736847229003,37.21299603088379Q8.160096847229005,37.143196030883786,8.143406847229004,37.071426030883785Q8.126706847229004,36.99964603088379,8.117136847229004,36.92658603088379Q8.107556847229004,36.85351603088379,8.105186847229003,36.77986603088379Q8.102826847229004,36.70621603088379,8.107686847229004,36.63268603088379Q8.248696847229004,34.50042603088379,9.170857847229003,32.58026603088379Q10.065458847229005,30.71748603088379,11.575686847229004,29.29757603088379Q13.091086847229004,27.87282033088379,15.011626847229003,27.096212030883787Q17.001256847229005,26.29166603088379,19.164416847229006,26.29166603088379L26.834416847229004,26.29166603088379Q28.993616847229003,26.29166603088379,30.980916847229004,27.09423703088379Q32.899216847229,27.86890023088379,34.414416847229006,29.29013603088379Q35.924516847229,30.70661603088379,36.821216847229,32.56516603088379Q37.745616847229,34.48125603088379,37.89091684722901,36.60949603088379Q37.895916847229,36.68301603088379,37.893716847229,36.75666603088379Q37.891516847229,36.83032603088379,37.882116847229,36.90340603088379Q37.872716847229,36.97649603088379,37.856116847229,37.04830603088379Q37.839616847229,37.12011603088379,37.816116847229004,37.18996603088379Q37.792616847229,37.25980603088379,37.762416847229005,37.32700603088379Q37.73211684722901,37.39421603088379,37.695516847229,37.45812603088379Q37.658816847229005,37.522046030883786,37.616016847229005,37.58206603088379Q37.57331684722901,37.642076030883786,37.524816847229005,37.69761603088379Q37.476416847229004,37.75314603088379,37.422816847229,37.80366603088379Q37.36911684722901,37.85416603088379,37.310816847229006,37.89916603088379Q37.252416847229,37.94426603088379,37.190016847229,37.98326603088379Q37.127516847229,38.02236603088379,37.061516847229,38.05516603088379Q36.995516847229005,38.08796603088379,36.926616847229,38.11406603088379Q36.857716847229,38.14026603088379,36.786616847229006,38.15946603088379Q36.71541684722901,38.17876603088379,36.642816847229,38.190966030883786Q36.570116847229,38.20316603088379,36.49661684722901,38.20816603088379Q36.423116847229004,38.21316603088379,36.34941684722901,38.21096603088379Q36.275716847229006,38.20876603088379,36.202616847229,38.19936603088379Q36.129616847229,38.18996603088379,36.057816847229006,38.17336603088379Q35.98591684722901,38.15686603088379,35.916116847229006,38.13336603088379Q35.846316847229005,38.109866030883786,35.779116847229005,38.079666030883786Q35.711816847229,38.04936603088379,35.647916847229006,38.01276603088379Q35.58401684722901,37.976066030883786,35.52401684722901,37.933266030883786Q35.464016847229004,37.89056603088379,35.408416847229006,37.842066030883785Q35.352916847229004,37.79366603088379,35.302416847229004,37.74002603088379Q35.251916847229005,37.68637603088379,35.206916847229,37.62803603088379Q35.161816847229005,37.56969603088379,35.122816847229004,37.507226030883785Q35.083716847229,37.44475603088379,35.050916847229004,37.37874603088379Q35.018116847229,37.31274603088379,34.992016847229,37.24385603088379Q34.96581684722901,37.17495603088379,34.946616847229,37.10382603088379Q34.92731684722901,37.03270603088379,34.915116847229,36.96002603088379Q34.90291684722901,36.88735603088379,34.897916847229006,36.81383603088379ZM37.894416847229,36.71166603088379Q37.894416847229,36.78535603088379,37.887216847229006,36.85869603088379Q37.880016847229,36.93202603088379,37.865616847229006,37.00429603088379Q37.851216847229004,37.076576030883786,37.829816847229004,37.14708603088379Q37.808416847229005,37.217606030883786,37.780216847229,37.28568603088379Q37.752016847229,37.35376603088379,37.717316847229,37.41875603088379Q37.682516847229,37.48374603088379,37.641616847229,37.54501603088379Q37.60071684722901,37.60629603088379,37.553916847229004,37.66325603088379Q37.507216847229,37.72021603088379,37.45511684722901,37.77232603088379Q37.403016847229004,37.82446603088379,37.346016847229,37.871166030883785Q37.28901684722901,37.91796603088379,37.22781684722901,37.95886603088379Q37.166516847229005,37.99976603088379,37.10151684722901,38.03456603088379Q37.036516847229,38.06926603088379,36.96841684722901,38.09746603088379Q36.90031684722901,38.12566603088379,36.829816847229004,38.14706603088379Q36.759316847229,38.16846603088379,36.687016847229,38.18286603088379Q36.61481684722901,38.19726603088379,36.541416847229,38.20446603088379Q36.468116847229005,38.21166603088379,36.394416847229,38.21166603088379Q36.32071684722901,38.21166603088379,36.247416847229005,38.20446603088379Q36.174016847229005,38.19726603088379,36.101816847229,38.18286603088379Q36.029516847229004,38.16846603088379,35.95901684722901,38.14706603088379Q35.888516847229,38.12566603088379,35.820416847229005,38.09746603088379Q35.752316847229004,38.06926603088379,35.687316847229,38.03456603088379Q35.622316847229,37.99976603088379,35.561016847229006,37.95886603088379Q35.499816847229,37.91796603088379,35.442816847229004,37.871166030883785Q35.38581684722901,37.82446603088379,35.333716847229,37.77232603088379Q35.281616847229,37.72021603088379,35.234916847229,37.66325603088379Q35.188116847229004,37.60629603088379,35.147216847229004,37.54501603088379Q35.106316847229,37.48374603088379,35.071516847229006,37.41875603088379Q35.036816847229005,37.35376603088379,35.00861684722901,37.28568603088379Q34.98041684722901,37.217606030883786,34.95901684722901,37.14709603088379Q34.93761684722901,37.076576030883786,34.923216847229,37.00429603088379Q34.908816847229005,36.93202603088379,34.90161684722901,36.85868603088379Q34.894416847229,36.78535603088379,34.894416847229,36.71166603088379Q34.894416847229,36.63797603088379,34.90161684722901,36.56463603088379Q34.908816847229005,36.49130603088379,34.923216847229,36.419026030883785Q34.93761684722901,36.34675603088379,34.95901684722901,36.27623603088379Q34.98041684722901,36.20571603088379,35.00861684722901,36.13763603088379Q35.036816847229005,36.06955603088379,35.071516847229006,36.00456603088379Q35.106316847229,35.939576030883785,35.147216847229004,35.87830603088379Q35.188116847229004,35.81703603088379,35.234916847229,35.76007603088379Q35.281616847229,35.70311603088379,35.333716847229,35.65100603088379Q35.38581684722901,35.598896030883786,35.442816847229004,35.55214603088379Q35.499816847229,35.50539603088379,35.561016847229006,35.46445603088379Q35.622316847229,35.42351603088379,35.687316847229,35.38878603088379Q35.752316847229004,35.35404603088379,35.820416847229005,35.32584603088379Q35.888516847229,35.29764603088379,35.95901684722901,35.276256030883786Q36.029516847229004,35.25486603088379,36.101816847229,35.24048603088379Q36.174016847229005,35.22611603088379,36.247416847229005,35.21888603088379Q36.32071684722901,35.21166603088379,36.394416847229,35.21166603088379Q36.468116847229005,35.21166603088379,36.541416847229,35.21888603088379Q36.61481684722901,35.22611603088379,36.687016847229,35.24048603088379Q36.759316847229,35.25486603088379,36.829816847229004,35.276256030883786Q36.90031684722901,35.29764603088379,36.96841684722901,35.32584603088379Q37.036516847229,35.35404603088379,37.10151684722901,35.38878603088379Q37.166516847229005,35.42351603088379,37.22781684722901,35.46445603088379Q37.28901684722901,35.50539603088379,37.346016847229,35.55214603088379Q37.403016847229004,35.598896030883786,37.45511684722901,35.65100603088379Q37.507216847229,35.70311603088379,37.553916847229004,35.76007603088379Q37.60071684722901,35.81703603088379,37.641616847229,35.87830603088379Q37.682516847229,35.93958603088379,37.717316847229,36.00456603088379Q37.752016847229,36.06955603088379,37.780216847229,36.13763603088379Q37.808416847229005,36.20571603088379,37.829816847229004,36.27623603088379Q37.851216847229004,36.34675603088379,37.865616847229006,36.419026030883785Q37.880016847229,36.49130603088379,37.887216847229006,36.56463603088379Q37.894416847229,36.63797603088379,37.894416847229,36.71166603088379ZM11.104416847229004,36.73166603088379Q11.104416847229004,36.805356030883786,11.097196847229004,36.87869603088379Q11.089966847229004,36.952026030883786,11.075596847229004,37.02429603088379Q11.061216847229003,37.09657603088379,11.039826847229005,37.16709603088379Q11.018436847229005,37.23760603088379,10.990236847229005,37.30568603088379Q10.962036847229005,37.37377603088379,10.927296847229004,37.43875603088379Q10.892556847229004,37.50374603088379,10.851616847229003,37.56501603088379Q10.810676847229004,37.62629603088379,10.763936847229004,37.68325603088379Q10.717186847229003,37.740216030883786,10.665076847229004,37.79236603088379Q10.612966847229004,37.84446603088379,10.556006847229003,37.89116603088379Q10.499043847229004,37.937966030883786,10.437771847229003,37.97886603088379Q10.376500847229003,38.01976603088379,10.311511847229005,38.05456603088379Q10.246522847229004,38.08926603088379,10.178441847229005,38.11746603088379Q10.110360847229003,38.14566603088379,10.039843847229005,38.16706603088379Q9.969326847229004,38.18846603088379,9.897051847229005,38.20286603088379Q9.824777847229004,38.21726603088379,9.751442847229004,38.22446603088379Q9.678107147229005,38.23166603088379,9.604416847229004,38.23166603088379Q9.530726547229003,38.23166603088379,9.457390847229004,38.22446603088379Q9.384055847229003,38.21726603088379,9.311781847229003,38.20286603088379Q9.239506847229004,38.18846603088379,9.168989847229003,38.16706603088379Q9.098472847229004,38.14566603088379,9.030391847229003,38.11746603088379Q8.962310847229004,38.08926603088379,8.897321847229003,38.05456603088379Q8.832332847229004,38.01976603088379,8.771061847229005,37.97886603088379Q8.709789847229004,37.937966030883786,8.652826847229004,37.89116603088379Q8.595866847229004,37.84446603088379,8.543756847229004,37.79236603088379Q8.491646847229005,37.740216030883786,8.444896847229003,37.68325603088379Q8.398156847229004,37.62629603088379,8.357216847229004,37.56501603088379Q8.316276847229004,37.50374603088379,8.281536847229004,37.43875603088379Q8.246796847229003,37.37377603088379,8.218596847229003,37.30568603088379Q8.190396847229003,37.23760603088379,8.169006847229003,37.16709603088379Q8.147616847229004,37.09657603088379,8.133236847229004,37.02429603088379Q8.118866847229004,36.952026030883786,8.111636847229004,36.87869603088379Q8.104416847229004,36.805356030883786,8.104416847229004,36.73166603088379Q8.104416847229004,36.65797603088379,8.111636847229004,36.584636030883786Q8.118866847229004,36.51130603088379,8.133236847229004,36.43902603088379Q8.147616847229004,36.36675603088379,8.169006847229003,36.29623603088379Q8.190396847229003,36.22571603088379,8.218596847229003,36.15763603088379Q8.246796847229003,36.08955603088379,8.281536847229004,36.02456603088379Q8.316276847229004,35.95958603088379,8.357216847229004,35.89830603088379Q8.398156847229004,35.83703603088379,8.444896847229003,35.78007603088379Q8.491646847229005,35.72311603088379,8.543756847229004,35.67100603088379Q8.595866847229004,35.61889603088379,8.652826847229004,35.572146030883786Q8.709789847229004,35.52540603088379,8.771061847229005,35.48445603088379Q8.832332847229004,35.443516030883785,8.897321847229003,35.40878603088379Q8.962310847229004,35.37404603088379,9.030391847229003,35.34584603088379Q9.098472847229004,35.317646030883786,9.168989847229003,35.29625603088379Q9.239506847229004,35.274866030883786,9.311781847229003,35.26048603088379Q9.384055847229003,35.24611603088379,9.457390847229004,35.23888603088379Q9.530726547229003,35.23166603088379,9.604416847229004,35.23166603088379Q9.678107147229005,35.23166603088379,9.751442847229004,35.23888603088379Q9.824777847229004,35.24611603088379,9.897051847229005,35.26048603088379Q9.969326847229004,35.274866030883786,10.039843847229005,35.29625603088379Q10.110360847229003,35.317646030883786,10.178441847229005,35.34584603088379Q10.246522847229004,35.37404603088379,10.311511847229005,35.40878603088379Q10.376500847229003,35.443516030883785,10.437771847229003,35.48445603088379Q10.499043847229004,35.52540603088379,10.556006847229003,35.572146030883786Q10.612966847229004,35.61889603088379,10.665076847229004,35.67100603088379Q10.717186847229003,35.72311603088379,10.763936847229004,35.78007603088379Q10.810676847229004,35.83703603088379,10.851616847229003,35.89830603088379Q10.892556847229004,35.95958603088379,10.927296847229004,36.02456603088379Q10.962036847229005,36.08955603088379,10.990236847229005,36.15763603088379Q11.018436847229005,36.22571603088379,11.039826847229005,36.29623603088379Q11.061216847229003,36.36675603088379,11.075596847229004,36.43902603088379Q11.089966847229004,36.51130603088379,11.097196847229004,36.584636030883786Q11.104416847229004,36.65797603088379,11.104416847229004,36.73166603088379Z" fill="#FFFFFF" fill-opacity="1"/></g></g></g></svg>