<!-- Exported by Character Map UWP -->
<svg height="100%" viewBox="288 128 416 768" width="100%" xmlns="http://www.w3.org/2000/svg" xmlns:xlink="http://www.w3.org/1999/xlink">
  <path d="M288,512C288,503.333 291.167,495.833 297.5,489.5L649.5,137.5C655.833,131.167 663.333,128 672,128C680.667,128 688.167,131.167 694.5,137.5C700.833,143.833 704,151.333 704,160C704,168.667 700.833,176.167 694.5,182.5L365.5,512L694.5,841.5C700.833,847.833 704,855.333 704,864C704,872.667 700.833,880.167 694.5,886.5C688.167,892.833 680.667,896 672,896C663.333,896 655.833,892.833 649.5,886.5L297.5,534.5C291.167,528.167 288,520.667 288,512Z" fill="#FFFFFF" fill-opacity="1">
  </path>
</svg>