<svg xmlns="http://www.w3.org/2000/svg" xmlns:xlink="http://www.w3.org/1999/xlink" fill="none" version="1.1" width="46" height="46" viewBox="0 0 46 46"><defs><mask id="master_svg0_0_1397"><g style="mix-blend-mode:passthrough"><rect x="0" y="0" width="46" height="46" rx="0" fill="#FFFFFF" fill-opacity="1"/></g></mask></defs><g style="mix-blend-mode:passthrough" transform="matrix(6.123234262925839e-17,1,-1,6.123234262925839e-17,0,0)" mask="url(#master_svg0_0_1397)"><g style="mix-blend-mode:passthrough"></g><g style="mix-blend-mode:passthrough"><path d="M42.16333325386047,23.003333253860475C42.16333325386047,12.413333253860474,33.583333253860474,3.8333332538604736,23.003333253860475,3.8333332538604736C12.413333253860474,3.8333332538604736,3.8333332538604736,12.413333253860474,3.8333332538604736,23.003333253860475C3.8333332538604736,33.583333253860474,12.413333253860474,42.16333325386047,23.003333253860475,42.16333325386047C33.583333253860474,42.16333325386047,42.16333325386047,33.583333253860474,42.16333325386047,23.003333253860475Z" fill-rule="evenodd" fill="#D8D8D8" fill-opacity="0.009999999776482582"/><path d="M23.003333253860475,40.66333325386047Q26.596433253860475,40.66333325386047,29.876133253860473,39.27593325386047Q33.04493325386048,37.93533325386047,35.49013325386048,35.49013325386048Q37.93533325386047,33.04493325386048,39.27593325386047,29.876133253860473Q40.66333325386047,26.596533253860475,40.66333325386047,23.003333253860475Q40.66333325386047,19.406433253860474,39.275833253860476,16.124433253860474Q37.935233253860474,12.953713253860474,35.48993325386047,10.507553253860474Q33.045033253860474,8.061673253860473,29.876033253860474,6.720863253860474Q26.596633253860475,5.333333253860474,23.003333253860475,5.333333253860474Q19.406233253860474,5.333333253860474,16.124533253860474,6.720993253860474Q12.953703253860473,8.061783253860472,10.507743253860474,10.507743253860474Q8.061783253860472,12.953703253860473,6.720993253860474,16.124533253860474Q5.333333253860474,19.406233253860474,5.333333253860474,23.003333253860475Q5.333333253860474,26.596633253860475,6.720863253860474,29.876033253860474Q8.061673253860473,33.04493325386048,10.507553253860474,35.48993325386047Q12.953703253860473,37.935233253860474,16.124433253860474,39.275833253860476Q19.406433253860474,40.66333325386047,23.003333253860475,40.66333325386047ZM23.003333253860475,43.66333325386047Q18.798233253860474,43.66333325386047,14.956233253860473,42.039033253860474Q11.246573253860474,40.47063325386048,8.386613253860475,37.61173325386047Q5.5268432538604735,34.752933253860476,3.957991253860474,31.045033253860474Q2.3333332538604736,27.205233253860474,2.3333332538604736,23.003333253860475Q2.3333332538604736,18.798033253860474,3.9578632538604737,14.956133253860473Q5.526603253860474,11.246243253860474,8.386423253860475,8.386423253860475Q11.246243253860474,5.526603253860474,14.956133253860473,3.9578632538604737Q18.798033253860474,2.3333332538604736,23.003333253860475,2.3333332538604736Q27.205233253860474,2.3333332538604736,31.045033253860474,3.9579922538604735Q34.752933253860476,5.5268432538604735,37.61173325386047,8.386613253860475Q40.47063325386048,11.246563253860474,42.039033253860474,14.956233253860473Q43.66333325386047,18.798333253860473,43.66333325386047,23.003333253860475Q43.66333325386047,27.204933253860474,42.038833253860474,31.044933253860474Q40.47043325386047,34.75263325386047,37.61153325386047,37.61153325386047Q34.75263325386047,40.470333253860474,31.044933253860474,42.038833253860474Q27.204933253860474,43.66333325386047,23.003333253860475,43.66333325386047Z" fill="#FFFFFF" fill-opacity="1"/></g><g style="mix-blend-mode:passthrough"><path d="" fill="#D8D8D8" fill-opacity="0.009999999776482582"/><path d="M12.355583190917969,31.625L12.355583190917969,25.875Q12.355583190917969,25.8013097,12.362803190917969,25.727974Q12.370033190917969,25.654639,12.384403190917968,25.582365Q12.39878319091797,25.51009,12.420173190917968,25.439573Q12.441563190917968,25.369056,12.469763190917968,25.300975Q12.497963190917968,25.232894,12.53270319091797,25.167905Q12.567443190917968,25.102916,12.60838319091797,25.041645Q12.649323190917968,24.980373,12.696063190917968,24.92341Q12.74281319091797,24.86645,12.794923190917968,24.81434Q12.84703319091797,24.76223,12.90399319091797,24.71548Q12.960956190917969,24.66874,13.02222819091797,24.6278Q13.08349919091797,24.58686,13.148488190917968,24.55212Q13.213477190917969,24.51738,13.281558190917968,24.48918Q13.34963919091797,24.46098,13.420156190917968,24.43959Q13.490673190917969,24.4182,13.562948190917968,24.40382Q13.635222190917968,24.38945,13.708557190917968,24.38222Q13.781892890917968,24.375,13.855583190917969,24.375Q13.97460319091797,24.375,14.092133190917968,24.39377Q14.209663190917968,24.41254,14.32276319091797,24.44961Q14.43586219091797,24.48668,14.54170119091797,24.54112Q14.647540190917969,24.59556,14.743469190917969,24.66601Q14.839398190917969,24.73646,14.923013190917969,24.82116Q15.006633190917968,24.905854,15.075853190917968,25.002677Q15.145063190917968,25.099501,15.19814319091797,25.206028Q15.251223190917969,25.312556,15.286843190917969,25.426121Q16.067993190917967,27.91682,18.17147319091797,29.48661Q20.313283190917968,31.085,22.99558319091797,31.085Q25.68498319091797,31.085,27.82888319091797,29.48627Q29.93308319091797,27.91721,30.714283190917968,25.426122Q30.73638319091797,25.355808,30.76518319091797,25.287995Q30.79408319091797,25.220182,30.82938319091797,25.155522Q30.86478319091797,25.090861,30.906283190917968,25.029977Q30.947783190917967,24.969093,30.99508319091797,24.912571Q31.042283190917967,24.85605,31.09488319091797,24.80443Q31.147483190917967,24.75282,31.20488319091797,24.70661Q31.26228319091797,24.66039,31.323983190917968,24.62003Q31.38558319091797,24.57967,31.45098319091797,24.54554Q31.516283190917967,24.51141,31.584583190917968,24.48385Q31.65288319091797,24.45629,31.723683190917967,24.43557Q31.79438319091797,24.41484,31.866783190917968,24.40114Q31.93918319091797,24.38744,32.012583190917965,24.38091Q32.08598319091797,24.37437,32.15968319091797,24.37507Q32.23338319091797,24.37576,32.30658319091797,24.38367Q32.379883190917965,24.39158,32.45198319091797,24.40663Q32.52418319091797,24.421689999999998,32.59448319091797,24.44374Q32.66478319091797,24.46579,32.732583190917964,24.49463Q32.80038319091797,24.52347,32.86508319091797,24.55881Q32.92968319091797,24.59416,32.990583190917974,24.63567Q33.05148319091797,24.67718,33.10798319091797,24.72447Q33.164583190917966,24.77175,33.216183190917974,24.82434Q33.26778319091797,24.876935,33.313983190917966,24.934334Q33.360183190917965,24.991734,33.40058319091797,25.053387Q33.44088319091797,25.115039,33.47508319091797,25.180352Q33.509183190917966,25.245664,33.53668319091797,25.314006Q33.56428319091797,25.382349,33.58498319091797,25.453064Q33.60578319091797,25.523779,33.61948319091797,25.596185Q33.63318319091797,25.668591,33.639683190917964,25.741991Q33.64618319091797,25.8153912,33.64548319091797,25.8890782Q33.64478319091797,25.9627653,33.63688319091797,26.03603Q33.628983190917964,26.109294,33.61398319091797,26.181431Q33.598883190917974,26.253567,33.57688319091797,26.32388Q32.50498319091797,29.74162,29.62228319091797,31.89123Q26.68038319091797,34.085,22.99558319091797,34.085Q19.317253190917967,34.085,16.377193190917968,31.89089Q13.495902190917969,29.74064,12.424323190917969,26.323879L13.855583190917969,25.875L15.355583190917969,25.875L15.355583190917969,31.625Q15.355583190917969,31.69869,15.348363190917969,31.77203Q15.341133190917969,31.84536,15.32676319091797,31.91763Q15.312383190917968,31.989910000000002,15.29099319091797,32.06043Q15.26960319091797,32.13094,15.24140319091797,32.19902Q15.21320319091797,32.26711,15.178463190917968,32.33209Q15.143723190917969,32.39708,15.102783190917968,32.45835Q15.061843190917969,32.51963,15.01510319091797,32.57659Q14.968353190917968,32.63355,14.91624319091797,32.68566Q14.864133190917968,32.73777,14.807173190917968,32.78452Q14.750210190917969,32.83126,14.688938190917968,32.8722Q14.627667190917968,32.91314,14.56267819091797,32.94788Q14.497689190917969,32.98262,14.42960819091797,33.01082Q14.361527190917968,33.03902,14.29101019091797,33.06041Q14.220493190917969,33.0818,14.14821819091797,33.096180000000004Q14.07594419091797,33.11055,14.002609190917969,33.117779999999996Q13.92927349091797,33.125,13.855583190917969,33.125Q13.781892890917968,33.125,13.708557190917968,33.117779999999996Q13.635222190917968,33.11055,13.562948190917968,33.096180000000004Q13.490673190917969,33.0818,13.420156190917968,33.06041Q13.34963919091797,33.03902,13.281558190917968,33.01082Q13.213477190917969,32.98262,13.148488190917968,32.94788Q13.08349919091797,32.91314,13.02222819091797,32.8722Q12.960956190917969,32.83126,12.90399319091797,32.78451Q12.84703319091797,32.73777,12.794923190917968,32.68566Q12.74281319091797,32.63355,12.696063190917968,32.57659Q12.649323190917968,32.51963,12.60838319091797,32.45835Q12.567443190917968,32.39708,12.53270319091797,32.33209Q12.497963190917968,32.26711,12.469763190917968,32.19902Q12.441563190917968,32.13094,12.420173190917968,32.06043Q12.39878319091797,31.989910000000002,12.384403190917968,31.91763Q12.370033190917969,31.84536,12.362803190917969,31.77203Q12.355583190917969,31.69869,12.355583190917969,31.625ZM15.355583190917969,31.625Q15.355583190917969,31.69869,15.348363190917969,31.77203Q15.341133190917969,31.84536,15.32676319091797,31.91763Q15.312383190917968,31.989910000000002,15.29099319091797,32.06043Q15.26960319091797,32.13094,15.24140319091797,32.19902Q15.21320319091797,32.26711,15.178463190917968,32.33209Q15.143723190917969,32.39708,15.102783190917968,32.45835Q15.061843190917969,32.51963,15.01510319091797,32.57659Q14.968353190917968,32.63355,14.91624319091797,32.68566Q14.864133190917968,32.73777,14.807173190917968,32.78452Q14.750210190917969,32.83126,14.688938190917968,32.8722Q14.627667190917968,32.91314,14.56267819091797,32.94788Q14.497689190917969,32.98262,14.42960819091797,33.01082Q14.361527190917968,33.03902,14.29101019091797,33.06041Q14.220493190917969,33.0818,14.14821819091797,33.096180000000004Q14.07594419091797,33.11055,14.002609190917969,33.117779999999996Q13.92927349091797,33.125,13.855583190917969,33.125Q13.781892890917968,33.125,13.708557190917968,33.117779999999996Q13.635222190917968,33.11055,13.562948190917968,33.096180000000004Q13.490673190917969,33.0818,13.420156190917968,33.06041Q13.34963919091797,33.03902,13.281558190917968,33.01082Q13.213477190917969,32.98262,13.148488190917968,32.94788Q13.08349919091797,32.91314,13.02222819091797,32.8722Q12.960956190917969,32.83126,12.90399319091797,32.78451Q12.84703319091797,32.73777,12.794923190917968,32.68566Q12.74281319091797,32.63355,12.696063190917968,32.57659Q12.649323190917968,32.51963,12.60838319091797,32.45835Q12.567443190917968,32.39708,12.53270319091797,32.33209Q12.497963190917968,32.26711,12.469763190917968,32.19902Q12.441563190917968,32.13094,12.420173190917968,32.06043Q12.39878319091797,31.989910000000002,12.384403190917968,31.91763Q12.370033190917969,31.84536,12.362803190917969,31.77203Q12.355583190917969,31.69869,12.355583190917969,31.625Q12.355583190917969,31.55131,12.362803190917969,31.47797Q12.370033190917969,31.40464,12.384403190917968,31.33236Q12.39878319091797,31.260089999999998,12.420173190917968,31.18957Q12.441563190917968,31.11906,12.469763190917968,31.05097Q12.497963190917968,30.98289,12.53270319091797,30.9179Q12.567443190917968,30.85292,12.60838319091797,30.79164Q12.649323190917968,30.73037,12.696063190917968,30.67341Q12.74281319091797,30.61645,12.794923190917968,30.56434Q12.84703319091797,30.51223,12.90399319091797,30.46548Q12.960956190917969,30.41874,13.02222819091797,30.37779Q13.08349919091797,30.33685,13.148488190917968,30.302120000000002Q13.213477190917969,30.26738,13.281558190917968,30.23918Q13.34963919091797,30.21098,13.420156190917968,30.18959Q13.490673190917969,30.1682,13.562948190917968,30.15382Q13.635222190917968,30.13945,13.708557190917968,30.13222Q13.781892890917968,30.125,13.855583190917969,30.125Q13.92927349091797,30.125,14.002609190917969,30.13222Q14.07594419091797,30.13945,14.14821819091797,30.15382Q14.220493190917969,30.1682,14.29101019091797,30.18959Q14.361527190917968,30.21098,14.42960819091797,30.23918Q14.497689190917969,30.26738,14.56267819091797,30.302120000000002Q14.627667190917968,30.33685,14.688938190917968,30.37779Q14.750210190917969,30.41874,14.807173190917968,30.46548Q14.864133190917968,30.51223,14.91624319091797,30.56434Q14.968353190917968,30.61645,15.01510319091797,30.67341Q15.061843190917969,30.73037,15.102783190917968,30.79164Q15.143723190917969,30.85292,15.178463190917968,30.9179Q15.21320319091797,30.98289,15.24140319091797,31.05097Q15.26960319091797,31.11906,15.29099319091797,31.18957Q15.312383190917968,31.260089999999998,15.32676319091797,31.33236Q15.341133190917969,31.40464,15.348363190917969,31.47797Q15.355583190917969,31.55131,15.355583190917969,31.625ZM33.64558319091797,25.875Q33.64558319091797,25.9486903,33.63838319091797,26.022026Q33.631183190917966,26.095361,33.61678319091797,26.167635Q33.60238319091797,26.23991,33.58098319091797,26.310427Q33.55958319091797,26.380944,33.531383190917964,26.449025Q33.503183190917966,26.517106,33.468483190917965,26.582095Q33.43368319091797,26.647084,33.39278319091797,26.708355Q33.351883190917974,26.769627,33.30508319091797,26.82659Q33.25838319091797,26.88355,33.20628319091797,26.93566Q33.15418319091797,26.98777,33.09718319091797,27.03452Q33.04018319091797,27.08126,32.97898319091797,27.1222Q32.91768319091797,27.16314,32.85268319091797,27.19788Q32.78768319091797,27.23262,32.71958319091797,27.26082Q32.65148319091797,27.28902,32.58098319091797,27.31041Q32.51048319091797,27.3318,32.43818319091797,27.34618Q32.36598319091797,27.36055,32.292583190917966,27.36778Q32.21928319091797,27.375,32.14558319091797,27.375Q32.07188319091797,27.375,31.99858319091797,27.36778Q31.92518319091797,27.36055,31.852983190917968,27.34618Q31.78068319091797,27.3318,31.71018319091797,27.31041Q31.639683190917967,27.28902,31.57158319091797,27.26082Q31.50348319091797,27.23262,31.438483190917967,27.19788Q31.37348319091797,27.16314,31.31218319091797,27.1222Q31.250983190917967,27.08126,31.19398319091797,27.03452Q31.13698319091797,26.98777,31.084883190917967,26.93566Q31.032783190917968,26.88355,30.98608319091797,26.82659Q30.93928319091797,26.769627,30.89838319091797,26.708355Q30.857483190917968,26.647084,30.822683190917967,26.582095Q30.78798319091797,26.517106,30.759783190917968,26.449025Q30.73158319091797,26.380944,30.71018319091797,26.310427Q30.68878319091797,26.23991,30.67438319091797,26.167635Q30.65998319091797,26.095361,30.65278319091797,26.022026Q30.645583190917968,25.9486903,30.645583190917968,25.875Q30.645583190917968,25.8013097,30.65278319091797,25.727974Q30.65998319091797,25.654639,30.67438319091797,25.582365Q30.68878319091797,25.51009,30.71018319091797,25.439573Q30.73158319091797,25.369056,30.759783190917968,25.300975Q30.78798319091797,25.232894,30.822683190917967,25.167905Q30.857483190917968,25.102916,30.89838319091797,25.041645Q30.93928319091797,24.980373,30.98608319091797,24.92341Q31.032783190917968,24.86645,31.084883190917967,24.81434Q31.13698319091797,24.76223,31.19398319091797,24.71548Q31.250983190917967,24.66874,31.31218319091797,24.6278Q31.37348319091797,24.58686,31.438483190917967,24.55212Q31.50348319091797,24.51738,31.57158319091797,24.48918Q31.639683190917967,24.46098,31.71018319091797,24.43959Q31.78068319091797,24.4182,31.852983190917968,24.40382Q31.92518319091797,24.38945,31.99858319091797,24.38222Q32.07188319091797,24.375,32.14558319091797,24.375Q32.21928319091797,24.375,32.292583190917966,24.38222Q32.36598319091797,24.38945,32.43818319091797,24.40382Q32.51048319091797,24.4182,32.58098319091797,24.43959Q32.65148319091797,24.46098,32.71958319091797,24.48918Q32.78768319091797,24.51738,32.85268319091797,24.55212Q32.91768319091797,24.58686,32.97898319091797,24.6278Q33.04018319091797,24.66874,33.09718319091797,24.71548Q33.15418319091797,24.76223,33.20628319091797,24.81434Q33.25838319091797,24.86645,33.30508319091797,24.92341Q33.351883190917974,24.980373,33.39278319091797,25.041645Q33.43368319091797,25.102916,33.468483190917965,25.167905Q33.503183190917966,25.232894,33.531383190917964,25.300975Q33.55958319091797,25.369056,33.58098319091797,25.439573Q33.60238319091797,25.51009,33.61678319091797,25.582365Q33.631183190917966,25.654639,33.63838319091797,25.727974Q33.64558319091797,25.8013097,33.64558319091797,25.875Z" fill="#FFFFFF" fill-opacity="1"/></g><g style="mix-blend-mode:passthrough"><path d="" fill="#D8D8D8" fill-opacity="0.009999999776482582"/><path d="M12.424323190917969,19.677786984558104Q13.495902190917969,16.261026984558107,16.377193190917968,14.110773984558106Q19.317253190917967,11.916666984558105,22.99558319091797,11.916666984558105Q26.68038319091797,11.916666984558105,29.62228319091797,14.110437984558105Q32.50498319091797,16.260046984558105,33.57688319091797,19.677786984558104L32.14558319091797,20.126666984558106L30.645583190917968,20.126666984558106L30.645583190917968,14.376666984558106Q30.645583190917968,14.302976984558105,30.65278319091797,14.229640984558106Q30.65998319091797,14.156305984558106,30.67438319091797,14.084030984558105Q30.68878319091797,14.011756984558106,30.71018319091797,13.941239984558106Q30.73158319091797,13.870722984558105,30.759783190917968,13.802641984558106Q30.78798319091797,13.734560984558106,30.822683190917967,13.669571984558106Q30.857483190917968,13.604582984558105,30.89838319091797,13.543311984558105Q30.93928319091797,13.482040384558106,30.98608319091797,13.425077044558105Q31.032783190917968,13.368113684558105,31.084883190917967,13.316006984558106Q31.13698319091797,13.263899984558105,31.19398319091797,13.217150984558106Q31.250983190917967,13.170402984558105,31.31218319091797,13.129462984558106Q31.37348319091797,13.088521984558106,31.438483190917967,13.053784984558105Q31.50348319091797,13.019047984558105,31.57158319091797,12.990847984558105Q31.639683190917967,12.962647984558105,31.71018319091797,12.941256984558105Q31.78068319091797,12.919864984558105,31.852983190917968,12.905488984558106Q31.92518319091797,12.891112984558106,31.99858319091797,12.883889984558106Q32.07188319091797,12.876666984558106,32.14558319091797,12.876666984558106Q32.21928319091797,12.876666984558106,32.292583190917966,12.883889984558106Q32.36598319091797,12.891112984558106,32.43818319091797,12.905488984558106Q32.51048319091797,12.919864984558105,32.58098319091797,12.941256984558105Q32.65148319091797,12.962647984558105,32.71958319091797,12.990847984558105Q32.78768319091797,13.019047984558105,32.85268319091797,13.053784984558105Q32.91768319091797,13.088521984558106,32.97898319091797,13.129462984558106Q33.04018319091797,13.170402984558105,33.09718319091797,13.217150984558106Q33.15418319091797,13.263899984558105,33.20628319091797,13.316006984558106Q33.25838319091797,13.368113684558105,33.30508319091797,13.425077024558105Q33.351883190917974,13.482040384558106,33.39278319091797,13.543311984558105Q33.43368319091797,13.604582984558105,33.468483190917965,13.669571984558106Q33.503183190917966,13.734560984558106,33.531383190917964,13.802641984558106Q33.55958319091797,13.870722984558105,33.58098319091797,13.941239984558106Q33.60238319091797,14.011756984558106,33.61678319091797,14.084030984558105Q33.631183190917966,14.156305984558106,33.63838319091797,14.229640984558106Q33.64558319091797,14.302976984558105,33.64558319091797,14.376666984558106L33.64558319091797,20.126666984558106Q33.64558319091797,20.245686984558105,33.62678319091797,20.363216984558107Q33.60808319091797,20.480746984558106,33.57098319091797,20.593846984558105Q33.53388319091797,20.706946984558105,33.47948319091797,20.812786984558105Q33.42498319091797,20.918626984558106,33.354583190917964,21.014556984558105Q33.28408319091797,21.110486984558104,33.19938319091797,21.194096984558104Q33.11468319091797,21.277716984558104,33.01788319091797,21.346936984558106Q32.92108319091797,21.416146984558104,32.81458319091797,21.469226984558105Q32.70798319091797,21.522306984558107,32.59448319091797,21.557926984558108Q32.52418319091797,21.579976984558105,32.45198319091797,21.595036984558106Q32.379883190917965,21.610086984558105,32.30658319091797,21.617996984558104Q32.23338319091797,21.625906984558107,32.15968319091797,21.626596984558105Q32.08598319091797,21.627286984558104,32.012583190917965,21.620756984558106Q31.93918319091797,21.614226984558105,31.866783190917968,21.600526984558105Q31.79438319091797,21.586826984558105,31.723683190917967,21.566096984558108Q31.65288319091797,21.545376984558104,31.584583190917968,21.517816984558106Q31.516283190917967,21.490256984558105,31.45098319091797,21.456126984558104Q31.38558319091797,21.421996984558106,31.323983190917968,21.381636984558106Q31.26228319091797,21.341276984558107,31.20488319091797,21.295056984558105Q31.147483190917967,21.248846984558106,31.09488319091797,21.197236984558106Q31.042283190917967,21.145616984558107,30.99508319091797,21.089096984558104Q30.947783190917967,21.032576984558105,30.906283190917968,20.971686984558104Q30.86478319091797,20.910806984558107,30.82938319091797,20.846146984558104Q30.79408319091797,20.781486984558107,30.76518319091797,20.713676984558106Q30.73638319091797,20.645856984558105,30.714283190917968,20.575546984558105Q29.93308319091797,18.084456984558106,27.82888319091797,16.515396984558105Q25.68498319091797,14.916666984558105,22.99558319091797,14.916666984558105Q20.313283190917968,14.916666984558105,18.17147319091797,16.515056984558107Q16.067993190917967,18.084846984558105,15.286843190917969,20.575546984558105Q15.264793190917969,20.645856984558105,15.235953190917968,20.713676984558106Q15.207113190917969,20.781486984558107,15.17177319091797,20.846146984558104Q15.136423190917968,20.910806984558107,15.09491319091797,20.971686984558104Q15.053403190917969,21.032576984558105,15.006113190917969,21.089096984558104Q14.958833190917968,21.145616984558107,14.90624319091797,21.197236984558106Q14.853649190917968,21.248846984558106,14.796249190917969,21.295056984558105Q14.738850190917969,21.341276984558107,14.677197190917969,21.381636984558106Q14.61554419091797,21.421996984558106,14.550232190917969,21.456126984558104Q14.484920190917968,21.490256984558105,14.41657719091797,21.517816984558106Q14.348235190917968,21.545376984558104,14.277520190917969,21.566096984558108Q14.206805190917969,21.586826984558105,14.13439919091797,21.600526984558105Q14.061993190917969,21.614226984558105,13.98859319091797,21.620756984558106Q13.915193090917969,21.627286984558104,13.841506090917969,21.626596984558105Q13.76781909091797,21.625906984558107,13.69455419091797,21.617996984558104Q13.62129019091797,21.610086984558105,13.54915419091797,21.595036984558106Q13.477018190917969,21.579976984558105,13.406704190917969,21.557926984558108Q13.336391190917968,21.535876984558108,13.26857819091797,21.507036984558106Q13.200764190917969,21.478196984558103,13.136104190917969,21.442856984558105Q13.071444190917969,21.407506984558104,13.01056019091797,21.365996984558105Q12.949675190917969,21.324476984558103,12.89315319091797,21.277196984558106Q12.836633190917969,21.229916984558105,12.785013190917969,21.177326984558107Q12.733403190917969,21.124736984558105,12.687183190917969,21.067336984558104Q12.640973190917968,21.009936984558106,12.600613190917969,20.948276984558106Q12.560253190917969,20.886626984558106,12.526123190917968,20.821316984558106Q12.491993190917968,20.756006984558105,12.464433190917969,20.687656984558107Q12.436873190917968,20.619316984558104,12.416153190917969,20.548606984558106Q12.395423190917969,20.477886984558104,12.381723190917969,20.405486984558106Q12.368023190917969,20.333076984558105,12.361493190917969,20.259676984558105Q12.35495319091797,20.186276984558106,12.35565319091797,20.112586984558106Q12.356343190917968,20.038906984558103,12.36425319091797,19.965636984558106Q12.372163190917968,19.892376984558105,12.387213190917969,19.820236984558107Q12.402273190917969,19.748096984558106,12.424323190917969,19.677786984558104ZM15.355583190917969,20.126666984558106Q15.355583190917969,20.200356984558105,15.348363190917969,20.273696984558107Q15.341133190917969,20.347026984558106,15.32676319091797,20.419296984558105Q15.312383190917968,20.491576984558105,15.29099319091797,20.562096984558107Q15.26960319091797,20.632606984558105,15.24140319091797,20.700686984558104Q15.21320319091797,20.768776984558105,15.178463190917968,20.833756984558107Q15.143723190917969,20.898746984558105,15.102783190917968,20.960016984558106Q15.061843190917969,21.021296984558106,15.01510319091797,21.078256984558106Q14.968353190917968,21.135216984558106,14.91624319091797,21.187326984558105Q14.864133190917968,21.239436984558104,14.807173190917968,21.286186984558107Q14.750210190917969,21.332926984558107,14.688938190917968,21.373866984558106Q14.627667190917968,21.414806984558105,14.56267819091797,21.449546984558104Q14.497689190917969,21.484286984558103,14.42960819091797,21.512486984558105Q14.361527190917968,21.540686984558107,14.29101019091797,21.562076984558104Q14.220493190917969,21.583466984558108,14.14821819091797,21.597846984558103Q14.07594419091797,21.612216984558106,14.002609190917969,21.619446984558106Q13.92927349091797,21.626666984558106,13.855583190917969,21.626666984558106Q13.781892890917968,21.626666984558106,13.708557190917968,21.619446984558106Q13.635222190917968,21.612216984558106,13.562948190917968,21.597846984558103Q13.490673190917969,21.583466984558108,13.420156190917968,21.562076984558104Q13.34963919091797,21.540686984558107,13.281558190917968,21.512486984558105Q13.213477190917969,21.484286984558103,13.148488190917968,21.449546984558104Q13.08349919091797,21.414806984558105,13.02222819091797,21.373866984558106Q12.960956190917969,21.332926984558107,12.90399319091797,21.286186984558107Q12.84703319091797,21.239436984558104,12.794923190917968,21.187326984558105Q12.74281319091797,21.135216984558106,12.696063190917968,21.078256984558106Q12.649323190917968,21.021296984558106,12.60838319091797,20.960016984558106Q12.567443190917968,20.898746984558105,12.53270319091797,20.833756984558107Q12.497963190917968,20.768776984558105,12.469763190917968,20.700686984558104Q12.441563190917968,20.632606984558105,12.420173190917968,20.562096984558107Q12.39878319091797,20.491576984558105,12.384403190917968,20.419296984558105Q12.370033190917969,20.347026984558106,12.362803190917969,20.273696984558107Q12.355583190917969,20.200356984558105,12.355583190917969,20.126666984558106Q12.355583190917969,20.052976984558107,12.362803190917969,19.979636984558105Q12.370033190917969,19.906306984558107,12.384403190917968,19.834026984558108Q12.39878319091797,19.761756984558104,12.420173190917968,19.691236984558106Q12.441563190917968,19.620716984558104,12.469763190917968,19.552636984558106Q12.497963190917968,19.484556984558104,12.53270319091797,19.419566984558106Q12.567443190917968,19.354586984558104,12.60838319091797,19.293306984558107Q12.649323190917968,19.232036984558107,12.696063190917968,19.175076984558103Q12.74281319091797,19.118116984558107,12.794923190917968,19.066006984558104Q12.84703319091797,19.013896984558105,12.90399319091797,18.967146984558106Q12.960956190917969,18.920406984558106,13.02222819091797,18.879466984558107Q13.08349919091797,18.838526984558104,13.148488190917968,18.803786984558105Q13.213477190917969,18.769046984558106,13.281558190917968,18.740846984558104Q13.34963919091797,18.712646984558106,13.420156190917968,18.691256984558105Q13.490673190917969,18.669866984558105,13.562948190917968,18.655486984558106Q13.635222190917968,18.641116984558106,13.708557190917968,18.633886984558107Q13.781892890917968,18.626666984558106,13.855583190917969,18.626666984558106Q13.92927349091797,18.626666984558106,14.002609190917969,18.633886984558107Q14.07594419091797,18.641116984558106,14.14821819091797,18.655486984558106Q14.220493190917969,18.669866984558105,14.29101019091797,18.691256984558105Q14.361527190917968,18.712646984558106,14.42960819091797,18.740846984558104Q14.497689190917969,18.769046984558106,14.56267819091797,18.803786984558105Q14.627667190917968,18.838526984558104,14.688938190917968,18.879466984558107Q14.750210190917969,18.920406984558106,14.807173190917968,18.967146984558106Q14.864133190917968,19.013896984558105,14.91624319091797,19.066006984558104Q14.968353190917968,19.118116984558107,15.01510319091797,19.175076984558103Q15.061843190917969,19.232036984558107,15.102783190917968,19.293306984558107Q15.143723190917969,19.354586984558104,15.178463190917968,19.419576984558105Q15.21320319091797,19.484556984558104,15.24140319091797,19.552636984558106Q15.26960319091797,19.620726984558104,15.29099319091797,19.691236984558106Q15.312383190917968,19.761756984558104,15.32676319091797,19.834026984558108Q15.341133190917969,19.906306984558107,15.348363190917969,19.979636984558105Q15.355583190917969,20.052976984558107,15.355583190917969,20.126666984558106ZM33.64558319091797,14.376666984558106Q33.64558319091797,14.450356984558105,33.63838319091797,14.523696984558105Q33.631183190917966,14.597026984558106,33.61678319091797,14.669306984558105Q33.60238319091797,14.741576984558105,33.58098319091797,14.812096984558105Q33.55958319091797,14.882606984558105,33.531383190917964,14.950696984558105Q33.503183190917966,15.018776984558105,33.468483190917965,15.083766984558105Q33.43368319091797,15.148746984558105,33.39278319091797,15.210026984558105Q33.351883190917974,15.271296984558106,33.30508319091797,15.328256984558106Q33.25838319091797,15.385216984558106,33.20628319091797,15.437326984558105Q33.15418319091797,15.489436984558106,33.09718319091797,15.536186984558105Q33.04018319091797,15.582926984558105,32.97898319091797,15.623866984558106Q32.91768319091797,15.664806984558105,32.85268319091797,15.699546984558106Q32.78768319091797,15.734286984558105,32.71958319091797,15.762486984558105Q32.65148319091797,15.790686984558105,32.58098319091797,15.812076984558106Q32.51048319091797,15.833466984558106,32.43818319091797,15.847846984558105Q32.36598319091797,15.862216984558106,32.292583190917966,15.869446984558106Q32.21928319091797,15.876666984558106,32.14558319091797,15.876666984558106Q32.07188319091797,15.876666984558106,31.99858319091797,15.869446984558106Q31.92518319091797,15.862216984558106,31.852983190917968,15.847846984558105Q31.78068319091797,15.833466984558106,31.71018319091797,15.812076984558106Q31.639683190917967,15.790686984558105,31.57158319091797,15.762486984558105Q31.50348319091797,15.734286984558105,31.438483190917967,15.699546984558106Q31.37348319091797,15.664806984558105,31.31218319091797,15.623866984558106Q31.250983190917967,15.582926984558105,31.19398319091797,15.536186984558105Q31.13698319091797,15.489436984558106,31.084883190917967,15.437326984558105Q31.032783190917968,15.385216984558106,30.98608319091797,15.328256984558106Q30.93928319091797,15.271296984558106,30.89838319091797,15.210026984558105Q30.857483190917968,15.148746984558105,30.822683190917967,15.083766984558105Q30.78798319091797,15.018776984558105,30.759783190917968,14.950696984558105Q30.73158319091797,14.882606984558105,30.71018319091797,14.812096984558105Q30.68878319091797,14.741576984558105,30.67438319091797,14.669306984558105Q30.65998319091797,14.597026984558106,30.65278319091797,14.523696984558105Q30.645583190917968,14.450356984558105,30.645583190917968,14.376666984558106Q30.645583190917968,14.302976984558105,30.65278319091797,14.229640984558106Q30.65998319091797,14.156305984558106,30.67438319091797,14.084031984558106Q30.68878319091797,14.011756984558106,30.71018319091797,13.941239984558106Q30.73158319091797,13.870722984558105,30.759783190917968,13.802641984558106Q30.78798319091797,13.734560984558106,30.822683190917967,13.669571984558106Q30.857483190917968,13.604582984558105,30.89838319091797,13.543311984558105Q30.93928319091797,13.482040384558106,30.98608319091797,13.425077064558106Q31.032783190917968,13.368113684558105,31.084883190917967,13.316006984558106Q31.13698319091797,13.263899984558105,31.19398319091797,13.217150984558106Q31.250983190917967,13.170402984558105,31.31218319091797,13.129462984558106Q31.37348319091797,13.088522984558105,31.438483190917967,13.053784984558105Q31.50348319091797,13.019047984558105,31.57158319091797,12.990847984558105Q31.639683190917967,12.962647984558105,31.71018319091797,12.941256984558105Q31.78068319091797,12.919864984558105,31.852983190917968,12.905488984558106Q31.92518319091797,12.891112984558106,31.99858319091797,12.883889984558106Q32.07188319091797,12.876666984558106,32.14558319091797,12.876666984558106Q32.21928319091797,12.876666984558106,32.292583190917966,12.883889984558106Q32.36598319091797,12.891112984558106,32.43818319091797,12.905488984558106Q32.51048319091797,12.919864984558105,32.58098319091797,12.941256984558105Q32.65148319091797,12.962647984558105,32.71958319091797,12.990847984558105Q32.78768319091797,13.019047984558105,32.85268319091797,13.053784984558105Q32.91768319091797,13.088521984558106,32.97898319091797,13.129462984558106Q33.04018319091797,13.170402984558105,33.09718319091797,13.217150984558106Q33.15418319091797,13.263899984558105,33.20628319091797,13.316006984558106Q33.25838319091797,13.368113684558105,33.30508319091797,13.425077054558106Q33.351883190917974,13.482040384558106,33.39278319091797,13.543311984558105Q33.43368319091797,13.604582984558105,33.468483190917965,13.669571984558106Q33.503183190917966,13.734560984558106,33.531383190917964,13.802641984558106Q33.55958319091797,13.870722984558105,33.58098319091797,13.941239984558106Q33.60238319091797,14.011756984558106,33.61678319091797,14.084031984558106Q33.631183190917966,14.156305984558106,33.63838319091797,14.229640984558106Q33.64558319091797,14.302976984558105,33.64558319091797,14.376666984558106Z" fill="#FFFFFF" fill-opacity="1"/></g></g></svg>