<svg xmlns="http://www.w3.org/2000/svg" xmlns:xlink="http://www.w3.org/1999/xlink" fill="none" version="1.1" width="30.99965451972821" height="28.998730626363596" viewBox="0 0 30.99965451972821 28.998730626363596"><g style="mix-blend-mode:passthrough" transform="matrix(1,1.933835847012233e-7,0.0017319375183433294,0.9999985098838806,0,0)"><g><g style="mix-blend-mode:passthrough" transform="matrix(6.123234262925839e-17,1,-1,6.123234262925839e-17,10.834171295166016,-10.834171295166016)"><path d="M9.084171295166016,9.28418L9.084171295166016,0Q9.084171295166016,-0.085972,9.092601295166016,-0.17153Q9.101021295166015,-0.257088,9.117801295166016,-0.341408Q9.134571295166015,-0.425728,9.159521295166016,-0.507998Q9.184481295166016,-0.590268,9.217381295166016,-0.669696Q9.250281295166015,-0.749124,9.290811295166016,-0.824944Q9.331331295166017,-0.900765,9.379101295166016,-0.972248Q9.426861295166015,-1.04373,9.481401295166016,-1.11019Q9.535941295166015,-1.17665,9.596731295166016,-1.23744Q9.657521295166015,-1.29823,9.723981295166016,-1.35277Q9.790441295166016,-1.40731,9.861923295166015,-1.45507Q9.933406295166016,-1.50284,10.009227295166015,-1.54336Q10.085047295166016,-1.58389,10.164475295166016,-1.61679Q10.243903295166016,-1.64969,10.326173295166015,-1.67465Q10.408443295166016,-1.6996,10.492763295166016,-1.71637Q10.577083295166016,-1.73315,10.662641295166015,-1.74157Q10.748199295166016,-1.75,10.834171295166016,-1.75Q10.973595295166016,-1.75,11.111261295166015,-1.72792Q11.248926295166015,-1.70585,11.381359295166016,-1.66225Q11.513793295166016,-1.61866,11.637653295166016,-1.55464Q11.761513295166015,-1.49063,11.873671295166016,-1.40781Q11.985841295166015,-1.32499,12.083471295166015,-1.22546Q12.181101295166016,-1.12593,12.261741295166015,-1.01219Q12.342391295166015,-0.898455,12.404001295166015,-0.773384Q12.465621295166017,-0.648314,12.506661295166015,-0.515066Q13.809791295166015,3.71639,17.313491295166017,6.37919Q20.872771295166018,9.08424,25.325671295166018,9.08424Q29.789571295166017,9.08423,33.352171295166016,6.37879Q36.857071295166016,3.71714,38.16047129516602,-0.515069Q38.18577129516602,-0.597233,38.218971295166014,-0.67652Q38.25227129516601,-0.755809,38.293071295166015,-0.831457Q38.33387129516602,-0.907106,38.38197129516601,-0.978386Q38.430071295166016,-1.04967,38.484871295166016,-1.11589Q38.539671295166016,-1.18212,38.60077129516601,-1.24265Q38.66177129516602,-1.30319,38.72847129516602,-1.35745Q38.795171295166014,-1.41171,38.866871295166014,-1.45917Q38.938571295166014,-1.50663,39.01447129516602,-1.54683Q39.09047129516601,-1.58704,39.17007129516601,-1.6196Q39.24967129516602,-1.65217,39.331971295166014,-1.67678Q39.41437129516602,-1.70138,39.498771295166016,-1.7178Q39.58317129516601,-1.73422,39.66877129516601,-1.74228Q39.75437129516602,-1.75035,39.840371295166015,-1.74998Q39.92627129516602,-1.74962,40.011771295166014,-1.74083Q40.09737129516601,-1.73205,40.181571295166016,-1.71492Q40.265871295166015,-1.69779,40.34797129516602,-1.67248Q40.43017129516602,-1.64718,40.509471295166016,-1.61395Q40.58877129516601,-1.58071,40.66437129516602,-1.53986Q40.74007129516602,-1.49902,40.811271295166016,-1.45095Q40.88257129516602,-1.40289,40.948871295166015,-1.34807Q41.01507129516602,-1.29325,41.075571295166014,-1.2322Q41.136171295166015,-1.17115,41.19037129516602,-1.10446Q41.244671295166015,-1.03778,41.29207129516601,-0.966094Q41.33957129516602,-0.89441,41.379771295166016,-0.818419Q41.419971295166015,-0.742428,41.45257129516602,-0.662862Q41.485071295166016,-0.583296,41.509671295166015,-0.500921Q41.534271295166015,-0.418547,41.550771295166015,-0.334156Q41.56717129516602,-0.249766,41.575171295166015,-0.164174Q41.583271295166014,-0.078581,41.58297129516602,0.00739016Q41.58257129516602,0.0933613,41.57377129516601,0.178883Q41.56497129516602,0.264404,41.54787129516602,0.348653Q41.53077129516602,0.432901,41.50547129516602,0.515065Q39.87067129516602,5.82348,35.46887129516601,9.16616Q30.967871295166017,12.5842,25.325671295166018,12.5842Q19.69371129516602,12.5842,15.195701295166016,9.16576Q10.796041995166016,5.82203,9.161681295166016,0.515066L10.834171295166016,0L12.584171295166016,0L12.584171295166016,9.28418Q12.584171295166016,9.37015,12.575741295166015,9.45571Q12.567321295166016,9.54127,12.550541295166015,9.62559Q12.533771295166016,9.70991,12.508821295166015,9.79218Q12.483861295166015,9.87445,12.450961295166016,9.95388Q12.418061295166016,10.0333,12.377531295166015,10.1091Q12.337011295166015,10.1849,12.289241295166015,10.2564Q12.241481295166016,10.3279,12.186941295166015,10.3944Q12.132401295166016,10.4608,12.071611295166015,10.5216Q12.010821295166016,10.5824,11.944361295166015,10.6369Q11.877901295166016,10.6915,11.806419295166016,10.7392Q11.734936295166015,10.787,11.659115295166016,10.8275Q11.583295295166016,10.8681,11.503867295166016,10.901Q11.424439295166016,10.9339,11.342169295166016,10.9588Q11.259899295166015,10.9838,11.175579295166015,11.0006Q11.091259295166015,11.0173,11.005701295166016,11.0258Q10.920143295166016,11.0342,10.834171295166016,11.0342Q10.748199295166016,11.0342,10.662641295166015,11.0258Q10.577083295166016,11.0173,10.492763295166016,11.0006Q10.408443295166016,10.9838,10.326173295166015,10.9588Q10.243903295166016,10.9339,10.164475295166016,10.901Q10.085047295166016,10.8681,10.009227295166015,10.8275Q9.933406295166016,10.787,9.861923295166015,10.7392Q9.790441295166016,10.6915,9.723981295166016,10.6369Q9.657521295166015,10.5824,9.596731295166016,10.5216Q9.535941295166015,10.4608,9.481401295166016,10.3944Q9.426861295166015,10.3279,9.379101295166016,10.2564Q9.331331295166017,10.1849,9.290811295166016,10.1091Q9.250281295166015,10.0333,9.217381295166016,9.95388Q9.184481295166016,9.87445,9.159521295166016,9.79218Q9.134571295166015,9.70991,9.117801295166016,9.62559Q9.101021295166015,9.54127,9.092601295166016,9.45571Q9.084171295166016,9.37015,9.084171295166016,9.28418ZM12.584171295166016,9.28418Q12.584171295166016,9.37015,12.575741295166015,9.45571Q12.567321295166016,9.54127,12.550541295166015,9.62559Q12.533771295166016,9.70991,12.508821295166015,9.79218Q12.483861295166015,9.87445,12.450961295166016,9.95388Q12.418061295166016,10.0333,12.377531295166015,10.1091Q12.337011295166015,10.1849,12.289241295166015,10.2564Q12.241481295166016,10.3279,12.186941295166015,10.3944Q12.132401295166016,10.4608,12.071611295166015,10.5216Q12.010821295166016,10.5824,11.944361295166015,10.6369Q11.877901295166016,10.6915,11.806419295166016,10.7392Q11.734936295166015,10.787,11.659115295166016,10.8275Q11.583295295166016,10.8681,11.503867295166016,10.901Q11.424439295166016,10.9339,11.342169295166016,10.9588Q11.259899295166015,10.9838,11.175579295166015,11.0006Q11.091259295166015,11.0173,11.005701295166016,11.0258Q10.920143295166016,11.0342,10.834171295166016,11.0342Q10.748199295166016,11.0342,10.662641295166015,11.0258Q10.577083295166016,11.0173,10.492763295166016,11.0006Q10.408443295166016,10.9838,10.326173295166015,10.9588Q10.243903295166016,10.9339,10.164475295166016,10.901Q10.085047295166016,10.8681,10.009227295166015,10.8275Q9.933406295166016,10.787,9.861923295166015,10.7392Q9.790441295166016,10.6915,9.723981295166016,10.6369Q9.657521295166015,10.5824,9.596731295166016,10.5216Q9.535941295166015,10.4608,9.481401295166016,10.3944Q9.426861295166015,10.3279,9.379101295166016,10.2564Q9.331331295166017,10.1849,9.290811295166016,10.1091Q9.250281295166015,10.0333,9.217381295166016,9.95388Q9.184481295166016,9.87445,9.159521295166016,9.79218Q9.134571295166015,9.70991,9.117801295166016,9.62559Q9.101021295166015,9.54127,9.092601295166016,9.45571Q9.084171295166016,9.37015,9.084171295166016,9.28418Q9.084171295166016,9.19821,9.092601295166016,9.11265Q9.101021295166015,9.02709,9.117801295166016,8.94277Q9.134571295166015,8.85845,9.159521295166016,8.77618Q9.184481295166016,8.69391,9.217381295166016,8.61448Q9.250281295166015,8.53506,9.290811295166016,8.45924Q9.331331295166017,8.38341,9.379101295166016,8.31193Q9.426861295166015,8.24045,9.481401295166016,8.17399Q9.535941295166015,8.10753,9.596731295166016,8.04674Q9.657521295166015,7.98595,9.723981295166016,7.93141Q9.790441295166016,7.87687,9.861923295166015,7.82911Q9.933406295166016,7.78134,10.009227295166015,7.74082Q10.085047295166016,7.70029,10.164475295166016,7.66739Q10.243903295166016,7.63449,10.326173295166015,7.60953Q10.408443295166016,7.58458,10.492763295166016,7.56781Q10.577083295166016,7.55103,10.662641295166015,7.54261Q10.748199295166016,7.53418,10.834171295166016,7.53418Q10.920143295166016,7.53418,11.005701295166016,7.54261Q11.091259295166015,7.55103,11.175579295166015,7.56781Q11.259899295166015,7.58458,11.342169295166016,7.60953Q11.424439295166016,7.63449,11.503867295166016,7.66739Q11.583295295166016,7.70029,11.659115295166016,7.74082Q11.734936295166015,7.78134,11.806419295166016,7.82911Q11.877901295166016,7.87687,11.944361295166015,7.93141Q12.010821295166016,7.98595,12.071611295166015,8.04674Q12.132401295166016,8.10753,12.186941295166015,8.17399Q12.241481295166016,8.24045,12.289241295166015,8.31193Q12.337011295166015,8.38341,12.377531295166015,8.45924Q12.418061295166016,8.53506,12.450961295166016,8.61448Q12.483861295166015,8.69391,12.508821295166015,8.77618Q12.533771295166016,8.85845,12.550541295166015,8.94277Q12.567321295166016,9.02709,12.575741295166015,9.11265Q12.584171295166016,9.19821,12.584171295166016,9.28418ZM41.58297129516602,0Q41.58297129516602,0.085972,41.57447129516602,0.17153Q41.56607129516601,0.257088,41.549271295166015,0.341408Q41.532571295166015,0.425728,41.50757129516602,0.507998Q41.482671295166014,0.590268,41.449771295166016,0.669696Q41.41687129516602,0.749124,41.37627129516602,0.824944Q41.33577129516601,0.900765,41.28797129516602,0.972248Q41.24027129516601,1.04373,41.18567129516602,1.11019Q41.13117129516601,1.17665,41.07037129516601,1.23744Q41.00957129516601,1.29823,40.94317129516602,1.35277Q40.87667129516602,1.40731,40.80517129516602,1.45507Q40.73367129516602,1.50284,40.65787129516602,1.54336Q40.58207129516602,1.58389,40.50267129516602,1.61679Q40.423171295166014,1.64969,40.340971295166014,1.67465Q40.25867129516601,1.6996,40.17437129516601,1.71637Q40.09007129516601,1.73315,40.00447129516601,1.74157Q39.918871295166014,1.75,39.83297129516602,1.75Q39.74697129516602,1.75,39.66137129516602,1.74157Q39.57587129516602,1.73315,39.49157129516601,1.71637Q39.407171295166016,1.6996,39.324971295166016,1.67465Q39.24267129516602,1.64969,39.16327129516601,1.61679Q39.08377129516602,1.58389,39.007971295166016,1.54336Q38.932171295166015,1.50284,38.860671295166014,1.45507Q38.789171295166014,1.40731,38.72277129516601,1.35277Q38.656271295166015,1.29823,38.595471295166014,1.23744Q38.53467129516602,1.17665,38.480171295166016,1.11019Q38.42567129516601,1.04373,38.37787129516602,0.972248Q38.330071295166015,0.900765,38.28957129516601,0.824944Q38.24907129516602,0.749124,38.21617129516602,0.669696Q38.183271295166016,0.590268,38.15827129516602,0.507998Q38.133371295166015,0.425728,38.11657129516601,0.341408Q38.099771295166015,0.257088,38.09137129516601,0.17153Q38.08297129516602,0.085972,38.08297129516602,0Q38.08297129516602,-0.085972,38.09137129516601,-0.17153Q38.099771295166015,-0.257088,38.11657129516601,-0.341408Q38.133371295166015,-0.425728,38.15827129516602,-0.507998Q38.183271295166016,-0.590268,38.21617129516602,-0.669696Q38.24907129516602,-0.749124,38.28957129516601,-0.824944Q38.330071295166015,-0.900765,38.37787129516602,-0.972248Q38.42567129516601,-1.04373,38.480171295166016,-1.11019Q38.53467129516602,-1.17665,38.595471295166014,-1.23744Q38.656271295166015,-1.29823,38.72277129516601,-1.35277Q38.789171295166014,-1.40731,38.860671295166014,-1.45507Q38.932171295166015,-1.50284,39.007971295166016,-1.54336Q39.08377129516602,-1.58389,39.16327129516601,-1.61679Q39.24267129516602,-1.64969,39.324971295166016,-1.67465Q39.407171295166016,-1.6996,39.49157129516601,-1.71637Q39.57587129516602,-1.73315,39.66137129516602,-1.74157Q39.74697129516602,-1.75,39.83297129516602,-1.75Q39.918871295166014,-1.75,40.00447129516601,-1.74157Q40.09007129516601,-1.73315,40.17437129516601,-1.71637Q40.25867129516601,-1.6996,40.340971295166014,-1.67465Q40.423171295166014,-1.64969,40.50267129516602,-1.61679Q40.58207129516602,-1.58389,40.65787129516602,-1.54336Q40.73367129516602,-1.50284,40.80517129516602,-1.45507Q40.87667129516602,-1.40731,40.94317129516602,-1.35277Q41.00957129516601,-1.29823,41.07037129516601,-1.23744Q41.13117129516601,-1.17665,41.18567129516602,-1.11019Q41.24027129516601,-1.04373,41.28797129516602,-0.972248Q41.33577129516601,-0.900765,41.37627129516602,-0.824944Q41.41687129516602,-0.749124,41.449771295166016,-0.669696Q41.482671295166014,-0.590268,41.50757129516602,-0.507998Q41.532571295166015,-0.425728,41.549271295166015,-0.341408Q41.56607129516601,-0.257088,41.57447129516602,-0.17153Q41.58297129516602,-0.085972,41.58297129516602,0Z" fill="#FFFFFF" fill-opacity="1"/></g><g style="mix-blend-mode:passthrough" transform="matrix(6.123234262925839e-17,1,-1,6.123234262925839e-17,30.949367523193356,-30.94936752319336)"><path d="M29.27687752319336,10.3192Q30.91123842319336,5.0122,35.31089752319336,1.66847Q39.80890752319336,-1.75,45.44086752319336,-1.75Q51.083067523193364,-1.75,55.584067523193355,1.66808Q59.98586752319336,5.01076,61.62066752319336,10.3192L59.94816752319336,10.8342L58.19816752319336,10.8342L58.19816752319336,1.55005Q58.19816752319336,1.46408,58.20656752319336,1.37852Q58.21496752319336,1.29297,58.231767523193355,1.20865Q58.24856752319336,1.12433,58.27346752319336,1.04206Q58.29846752319336,0.959786,58.331367523193364,0.880358Q58.36426752319336,0.80093,58.40476752319336,0.72511Q58.44526752319336,0.649289,58.49306752319336,0.577806Q58.540867523193356,0.506323,58.59536752319336,0.439866Q58.649867523193365,0.373409,58.71066752319336,0.312617Q58.77146752319336,0.251826,58.837967523193356,0.197286Q58.90436752319336,0.142746,58.97586752319336,0.0949823Q59.04736752319336,0.0472189,59.12316752319336,0.00669196Q59.19896752319336,-0.0338349,59.278467523193356,-0.066735Q59.35786752319336,-0.0996351,59.44016752319336,-0.124591Q59.52236752319336,-0.149548,59.606767523193355,-0.16632Q59.69106752319336,-0.183092,59.776567523193364,-0.191519Q59.862167523193364,-0.199946,59.94816752319336,-0.199946Q60.03406752319336,-0.199946,60.11966752319336,-0.191519Q60.205267523193356,-0.183092,60.289567523193355,-0.16632Q60.373867523193354,-0.149548,60.45616752319336,-0.124591Q60.53836752319336,-0.0996351,60.61786752319336,-0.066735Q60.69726752319336,-0.0338349,60.77306752319336,0.00669196Q60.84886752319336,0.0472189,60.92036752319336,0.0949823Q60.99186752319336,0.142746,61.05836752319336,0.197286Q61.124767523193356,0.251826,61.185567523193356,0.312617Q61.246367523193356,0.373409,61.30086752319336,0.439866Q61.355467523193354,0.506323,61.40316752319336,0.577806Q61.450967523193356,0.649289,61.491467523193364,0.72511Q61.53206752319336,0.80093,61.56496752319336,0.880358Q61.59786752319336,0.959786,61.62276752319336,1.04206Q61.64776752319336,1.12433,61.66446752319336,1.20865Q61.681267523193355,1.29297,61.689667523193364,1.37852Q61.69816752319336,1.46408,61.69816752319336,1.55005L61.69816752319336,10.8342Q61.69816752319336,10.9737,61.67606752319336,11.1113Q61.65396752319336,11.249,61.61036752319336,11.3814Q61.56676752319336,11.5139,61.502767523193356,11.6377Q61.43876752319336,11.7616,61.35596752319336,11.8737Q61.27316752319336,11.9859,61.173567523193356,12.0835Q61.074067523193364,12.1812,60.960367523193355,12.2618Q60.84656752319336,12.3425,60.72156752319336,12.4041Q60.596467523193354,12.4657,60.46316752319336,12.5067Q60.38106752319336,12.532,60.29676752319336,12.5492Q60.21256752319336,12.5663,60.12696752319336,12.5751Q60.04146752319336,12.5839,59.95556752319336,12.5842Q59.86956752319336,12.5846,59.783967523193354,12.5765Q59.698367523193355,12.5684,59.61396752319336,12.552Q59.529567523193364,12.5356,59.44716752319336,12.511Q59.36486752319336,12.4864,59.285267523193355,12.4538Q59.205667523193355,12.4213,59.12966752319336,12.3811Q59.05376752319336,12.3409,58.98206752319336,12.2934Q58.91036752319336,12.2459,58.84366752319336,12.1917Q58.77696752319336,12.1374,58.715967523193356,12.0769Q58.65486752319336,12.0164,58.60006752319336,11.9501Q58.54526752319336,11.8839,58.497167523193355,11.8126Q58.44916752319336,11.7413,58.40826752319336,11.6657Q58.367467523193355,11.59,58.33416752319336,11.5108Q58.300967523193364,11.4315,58.27566752319336,11.3493Q56.97226752319336,7.11709,53.46736752319336,4.45545Q49.90476752319336,1.75,45.44086752319336,1.75Q40.98796752319336,1.75,37.42868752319336,4.45505Q33.92498752319336,7.11784,32.62185752319336,11.3493Q32.59654752319336,11.4315,32.56331752319336,11.5108Q32.53007752319336,11.59,32.48922752319336,11.6657Q32.44838752319336,11.7413,32.40031752319336,11.8126Q32.35225752319336,11.8839,32.29743752319336,11.9501Q32.24261752319336,12.0164,32.18156752319336,12.0769Q32.12051752319336,12.1374,32.05383752319336,12.1917Q31.98714752319336,12.2459,31.915461523193358,12.2934Q31.84377752319336,12.3409,31.767786523193358,12.3811Q31.69179552319336,12.4213,31.61222952319336,12.4538Q31.53266352319336,12.4864,31.45028952319336,12.511Q31.36791452319336,12.5356,31.28352452319336,12.552Q31.199134523193358,12.5684,31.11354152319336,12.5765Q31.027948423193358,12.5846,30.94197716319336,12.5842Q30.856005923193358,12.5839,30.77048452319336,12.5751Q30.68496252319336,12.5663,30.60071452319336,12.5492Q30.51646552319336,12.532,30.43430152319336,12.5067Q30.35213752319336,12.4814,30.272849523193358,12.4482Q30.19356152319336,12.4149,30.11791252319336,12.3741Q30.04226452319336,12.3333,29.97098352319336,12.2852Q29.89970752319336,12.2371,29.83347752319336,12.1823Q29.767247523193358,12.1275,29.70671752319336,12.0664Q29.64617752319336,12.0054,29.59192752319336,11.9387Q29.53766752319336,11.872,29.49020752319336,11.8003Q29.442737523193358,11.7286,29.40253752319336,11.6527Q29.362327523193358,11.5767,29.32976752319336,11.4971Q29.29719752319336,11.4175,29.27258752319336,11.3352Q29.24798752319336,11.2528,29.23156752319336,11.1684Q29.21514752319336,11.084,29.20708752319336,10.9984Q29.19901752319336,10.9128,29.19938752319336,10.8268Q29.19974752319336,10.7409,29.20853752319336,10.6553Q29.21731752319336,10.5698,29.23444752319336,10.4856Q29.251577523193358,10.4013,29.27687752319336,10.3192ZM32.69936752319336,10.8342Q32.69936752319336,10.9202,32.69093752319336,11.0058Q32.68251752319336,11.0913,32.66573752319336,11.1756Q32.648967523193356,11.26,32.62401752319336,11.3422Q32.59905752319336,11.4245,32.56615752319336,11.5039Q32.533257523193356,11.5834,32.49272752319336,11.6592Q32.45220752319336,11.735,32.40443752319336,11.8065Q32.35667752319336,11.878,32.30213752319336,11.9444Q32.247597523193356,12.0109,32.18680752319336,12.0717Q32.12601752319336,12.1325,32.05955752319336,12.187Q31.99309752319336,12.2415,31.92161552319336,12.2893Q31.85013252319336,12.3371,31.774311523193358,12.3776Q31.698491523193358,12.4181,31.619063523193358,12.451Q31.53963552319336,12.4839,31.45736552319336,12.5089Q31.37509552319336,12.5338,31.29077552319336,12.5506Q31.20645552319336,12.5674,31.12089752319336,12.5758Q31.03533952319336,12.5842,30.94936752319336,12.5842Q30.863395523193358,12.5842,30.77783752319336,12.5758Q30.69227952319336,12.5674,30.607959523193358,12.5506Q30.52363952319336,12.5338,30.44136952319336,12.5089Q30.359099523193358,12.4839,30.27967152319336,12.451Q30.20024352319336,12.4181,30.12442352319336,12.3776Q30.04860252319336,12.3371,29.97711952319336,12.2893Q29.90563752319336,12.2415,29.83917752319336,12.187Q29.77271752319336,12.1325,29.71192752319336,12.0717Q29.65113752319336,12.0109,29.59659752319336,11.9444Q29.54205752319336,11.878,29.49429752319336,11.8065Q29.44652752319336,11.735,29.40600752319336,11.6592Q29.36547752319336,11.5834,29.332577523193358,11.5039Q29.29967752319336,11.4245,29.27471752319336,11.3422Q29.24976752319336,11.26,29.232997523193358,11.1756Q29.21621752319336,11.0913,29.20779752319336,11.0058Q29.19936752319336,10.9202,29.19936752319336,10.8342Q29.19936752319336,10.7483,29.20779752319336,10.6627Q29.21621752319336,10.5771,29.232997523193358,10.4928Q29.24976752319336,10.4085,29.27471752319336,10.3262Q29.29967752319336,10.244,29.332577523193358,10.1645Q29.36547752319336,10.0851,29.40600752319336,10.0093Q29.44652752319336,9.93347,29.49429752319336,9.86199Q29.54205752319336,9.7905,29.59659752319336,9.72405Q29.65113752319336,9.65759,29.71192752319336,9.5968Q29.77271752319336,9.53601,29.83917752319336,9.48147Q29.90563752319336,9.42693,29.97711952319336,9.37916Q30.04860252319336,9.3314,30.12442352319336,9.29087Q30.20024352319336,9.25035,30.27967152319336,9.21744Q30.359099523193358,9.18455,30.44136952319336,9.15959Q30.52363952319336,9.13463,30.607959523193358,9.11786Q30.69227952319336,9.10109,30.77783752319336,9.09266Q30.863395523193358,9.08424,30.94936752319336,9.08423Q31.03533952319336,9.08424,31.12089752319336,9.09266Q31.20645552319336,9.10109,31.29077552319336,9.11786Q31.37509552319336,9.13463,31.45736552319336,9.15959Q31.53963552319336,9.18455,31.619063523193358,9.21744Q31.698491523193358,9.25035,31.774311523193358,9.29087Q31.85013252319336,9.3314,31.92161552319336,9.37916Q31.99309752319336,9.42693,32.05955752319336,9.48147Q32.12601752319336,9.53601,32.18680752319336,9.5968Q32.247597523193356,9.65759,32.30213752319336,9.72405Q32.35667752319336,9.7905,32.40443752319336,9.86199Q32.45220752319336,9.93347,32.49272752319336,10.0093Q32.533257523193356,10.0851,32.56615752319336,10.1645Q32.59905752319336,10.244,32.62401752319336,10.3262Q32.648967523193356,10.4085,32.66573752319336,10.4928Q32.68251752319336,10.5771,32.69093752319336,10.6627Q32.69936752319336,10.7483,32.69936752319336,10.8342ZM61.69816752319336,1.55005Q61.69816752319336,1.63603,61.689667523193364,1.72158Q61.681267523193355,1.80714,61.66446752319336,1.89146Q61.64776752319336,1.97578,61.62276752319336,2.05805Q61.59786752319336,2.14032,61.56496752319336,2.21975Q61.53206752319336,2.29918,61.491467523193364,2.375Q61.450967523193356,2.45082,61.40316752319336,2.5223Q61.355467523193354,2.59378,61.30086752319336,2.66024Q61.246367523193356,2.7267,61.185567523193356,2.78749Q61.124767523193356,2.84828,61.05836752319336,2.90282Q60.99186752319336,2.95736,60.92036752319336,3.00513Q60.84886752319336,3.05289,60.77306752319336,3.09342Q60.69726752319336,3.13394,60.61786752319336,3.16684Q60.53836752319336,3.19974,60.45616752319336,3.2247Q60.373867523193354,3.24966,60.289567523193355,3.26643Q60.205267523193356,3.2832,60.11966752319336,3.29163Q60.03406752319336,3.30005,59.94816752319336,3.30005Q59.862167523193364,3.30005,59.776567523193364,3.29163Q59.69106752319336,3.2832,59.606767523193355,3.26643Q59.52236752319336,3.24966,59.44016752319336,3.2247Q59.35786752319336,3.19974,59.278467523193356,3.16684Q59.19896752319336,3.13394,59.12316752319336,3.09342Q59.04736752319336,3.05289,58.97586752319336,3.00513Q58.90436752319336,2.95736,58.837967523193356,2.90282Q58.77146752319336,2.84828,58.71066752319336,2.78749Q58.649867523193365,2.7267,58.59536752319336,2.66024Q58.540867523193356,2.59378,58.49306752319336,2.5223Q58.44526752319336,2.45082,58.40476752319336,2.375Q58.36426752319336,2.29918,58.331367523193364,2.21975Q58.29846752319336,2.14032,58.27346752319336,2.05805Q58.24856752319336,1.97578,58.231767523193355,1.89146Q58.21496752319336,1.80714,58.20656752319336,1.72158Q58.19816752319336,1.63603,58.19816752319336,1.55005Q58.19816752319336,1.46408,58.20656752319336,1.37852Q58.21496752319336,1.29297,58.231767523193355,1.20865Q58.24856752319336,1.12433,58.27346752319336,1.04206Q58.29846752319336,0.959786,58.331367523193364,0.880358Q58.36426752319336,0.80093,58.40476752319336,0.72511Q58.44526752319336,0.649289,58.49306752319336,0.577806Q58.540867523193356,0.506323,58.59536752319336,0.439866Q58.649867523193365,0.373409,58.71066752319336,0.312617Q58.77146752319336,0.251826,58.837967523193356,0.197286Q58.90436752319336,0.142746,58.97586752319336,0.0949823Q59.04736752319336,0.0472189,59.12316752319336,0.00669195Q59.19896752319336,-0.033835,59.278467523193356,-0.066735Q59.35786752319336,-0.0996351,59.44016752319336,-0.124591Q59.52236752319336,-0.149548,59.606767523193355,-0.16632Q59.69106752319336,-0.183092,59.776567523193364,-0.191519Q59.862167523193364,-0.199946,59.94816752319336,-0.199946Q60.03406752319336,-0.199946,60.11966752319336,-0.191519Q60.205267523193356,-0.183092,60.289567523193355,-0.16632Q60.373867523193354,-0.149548,60.45616752319336,-0.124591Q60.53836752319336,-0.0996351,60.61786752319336,-0.066735Q60.69726752319336,-0.033835,60.77306752319336,0.00669195Q60.84886752319336,0.0472189,60.92036752319336,0.0949823Q60.99186752319336,0.142746,61.05836752319336,0.197286Q61.124767523193356,0.251826,61.185567523193356,0.312617Q61.246367523193356,0.373409,61.30086752319336,0.439866Q61.355467523193354,0.506323,61.40316752319336,0.577806Q61.450967523193356,0.649289,61.491467523193364,0.72511Q61.53206752319336,0.80093,61.56496752319336,0.880358Q61.59786752319336,0.959786,61.62276752319336,1.04206Q61.64776752319336,1.12433,61.66446752319336,1.20865Q61.681267523193355,1.29297,61.689667523193364,1.37852Q61.69816752319336,1.46408,61.69816752319336,1.55005Z" fill="#FFFFFF" fill-opacity="1"/></g></g></g></svg>