<svg xmlns="http://www.w3.org/2000/svg" xmlns:xlink="http://www.w3.org/1999/xlink" fill="none" version="1.1" width="41" height="34" viewBox="0 0 41 34"><g style="mix-blend-mode:passthrough"><g><path d="M16.698666,3.32876Q23.04854,2.36099,29.188299999999998,4.176928Q35.528,6.05204,40.36,10.53361Q40.4321,10.60043,40.4972,10.67398Q40.5624,10.74754,40.620000000000005,10.82712Q40.6776,10.90671,40.7271,10.99155Q40.776700000000005,11.0764,40.8177,11.165700000000001Q40.8587,11.254999999999999,40.890699999999995,11.34788Q40.9227,11.44077,40.945499999999996,11.53634Q40.9683,11.631920000000001,40.9816,11.72927Q40.9949,11.82662,40.998599999999996,11.924800000000001Q41.002300000000005,12.02299,40.996300000000005,12.12106Q40.9904,12.21913,40.9748,12.31615Q40.9593,12.413170000000001,40.9344,12.5082Q40.909400000000005,12.60323,40.8752,12.695350000000001Q40.8411,12.78748,40.798,12.875810000000001Q40.754999999999995,12.96414,40.7035,13.04783Q40.652100000000004,13.13152,40.592600000000004,13.20976Q40.5332,13.288,40.4664,13.36004Q40.3996,13.43208,40.326,13.49722Q40.2525,13.56237,40.1729,13.61999Q40.0933,13.67761,40.0084,13.72715Q39.9236,13.77669,39.8343,13.81767Q39.745000000000005,13.85866,39.652100000000004,13.8907Q39.559200000000004,13.92273,39.4637,13.94551Q39.3681,13.96829,39.270700000000005,13.98159Q39.1734,13.99489,39.075199999999995,13.99858Q38.977000000000004,14.00228,38.8789,13.99633Q38.7809,13.99039,38.683800000000005,13.97485Q38.5868,13.95932,38.4918,13.93435Q38.3968,13.90939,38.3046,13.87523Q38.2125,13.84107,38.1242,13.79804Q38.0359,13.75502,37.952200000000005,13.70354Q37.8685,13.65206,37.7902,13.59263Q37.712,13.5332,37.64,13.46638Q33.495000000000005,9.62202,28.053800000000003,8.01267Q22.7694,6.44972,17.301334,7.28309Q17.204202,7.2979,17.106086,7.30311Q17.00797085,7.30832,16.9098171,7.30389Q16.811663,7.29946,16.714417,7.28543Q16.61717,7.2714,16.521766,7.24791Q16.426363,7.224410000000001,16.333722,7.19168Q16.24108,7.15895,16.152093999999998,7.117290000000001Q16.063107,7.07564,15.97863,7.02546Q15.89416,6.97528,15.815010000000001,6.91707Q15.73586,6.85885,15.66279,6.79316Q15.58973,6.72747,15.52346,6.65493Q15.45718,6.58239,15.39834,6.50371Q15.3395,6.42502,15.28865,6.34095Q15.2378,6.25688,15.19544,6.16822Q15.15308,6.07957,15.11961,5.987195Q15.08614,5.894817,15.06189,5.799604Q15.03763,5.70439,15.022829999999999,5.607258Q15.00803,5.510126,15.00282,5.412011Q14.9976,5.313895,15.00203,5.215742Q15.00646,5.117588,15.02049,5.020341Q15.03452,4.9230942,15.058019999999999,4.827691Q15.08151,4.732287,15.11424,4.639646Q15.14698,4.547005,15.18863,4.458018Q15.23029,4.369031,15.28046,4.284556Q15.33064,4.20008,15.38886,4.1209299999999995Q15.44707,4.041779,15.51276,3.9687200000000002Q15.57846,3.89565,15.65099,3.82938Q15.72353,3.76311,15.80222,3.70426Q15.8809,3.64542,15.964970000000001,3.59457Q16.049047,3.54373,16.1377,3.50136Q16.226352,3.459,16.31873,3.42553Q16.411107,3.39206,16.506321,3.36781Q16.601534,3.34356,16.698666,3.32876ZM19,5.305925Q19,5.404178,18.99037,5.501959Q18.98074,5.599739,18.961570000000002,5.696105Q18.9424,5.792471,18.91388,5.886494Q18.88536,5.980517,18.84776,6.07129Q18.81016,6.16207,18.763840000000002,6.2487200000000005Q18.71753,6.33537,18.66294,6.41706Q18.60835,6.49876,18.54602,6.57471Q18.48369,6.65066,18.41421,6.72014Q18.34474,6.78961,18.26879,6.85195Q18.19284,6.91428,18.11114,6.96886Q18.02945,7.02345,17.942793,7.06977Q17.856141,7.11608,17.765367,7.15368Q17.674592,7.19128,17.580569,7.21981Q17.486546,7.24833,17.390181,7.2674900000000004Q17.293815,7.2866599999999995,17.196034,7.29629Q17.0982537,7.30592,17,7.30592Q16.9017463,7.30592,16.803966,7.29629Q16.706185,7.2866599999999995,16.609819,7.2674900000000004Q16.513454,7.24833,16.419431,7.21981Q16.325408,7.19128,16.234633,7.15368Q16.143859,7.11608,16.057207,7.06977Q15.97055,7.02345,15.88886,6.96886Q15.80716,6.91428,15.73121,6.85195Q15.65526,6.78961,15.58579,6.72014Q15.51631,6.65066,15.45398,6.57471Q15.39165,6.49876,15.33706,6.41706Q15.28247,6.33537,15.23616,6.2487200000000005Q15.18984,6.16207,15.152239999999999,6.07129Q15.11464,5.980517,15.08612,5.886494Q15.0576,5.792471,15.03843,5.696105Q15.01926,5.599739,15.00963,5.501959Q15,5.404178,15,5.305925Q15,5.207671,15.00963,5.10989Q15.01926,5.0121098,15.03843,4.915744Q15.0576,4.819378,15.08612,4.725355Q15.11464,4.6313320000000004,15.152239999999999,4.540558Q15.18984,4.449783,15.23616,4.363131Q15.28247,4.276479,15.33706,4.194784Q15.39165,4.113089,15.45398,4.037138Q15.51631,3.96119,15.58579,3.89171Q15.65526,3.82224,15.73121,3.7599Q15.80716,3.69757,15.88886,3.64299Q15.97055,3.5884,16.057207,3.54208Q16.143859,3.4957700000000003,16.234633,3.45817Q16.325408,3.42057,16.419431,3.3920399999999997Q16.513454,3.3635200000000003,16.609819,3.34435Q16.706185,3.32519,16.803966,3.31556Q16.9017463,3.30592,17,3.30592Q17.0982537,3.30592,17.196034,3.31556Q17.293815,3.32519,17.390181,3.34435Q17.486546,3.3635200000000003,17.580569,3.3920399999999997Q17.674592,3.42057,17.765367,3.45817Q17.856141,3.4957700000000003,17.942793,3.54208Q18.02945,3.5884,18.11114,3.64299Q18.19284,3.69757,18.26879,3.7599Q18.34474,3.82224,18.41421,3.89171Q18.48369,3.96119,18.54602,4.037138Q18.60835,4.113089,18.66294,4.194784Q18.71753,4.276479,18.763840000000002,4.363131Q18.81016,4.449783,18.84776,4.540558Q18.88536,4.6313320000000004,18.91388,4.725355Q18.9424,4.819378,18.961570000000002,4.915744Q18.98074,5.0121098,18.99037,5.10989Q19,5.207671,19,5.305925ZM41,12Q41,12.09825,40.9904,12.19603Q40.9807,12.29381,40.961600000000004,12.39018Q40.9424,12.486550000000001,40.9139,12.58057Q40.885400000000004,12.67459,40.8478,12.76537Q40.810199999999995,12.85614,40.7638,12.942789999999999Q40.7175,13.02944,40.6629,13.11114Q40.6084,13.19283,40.546,13.26879Q40.4837,13.34474,40.4142,13.41421Q40.3447,13.48369,40.2688,13.54602Q40.1928,13.60835,40.1111,13.66294Q40.029399999999995,13.71753,39.9428,13.76384Q39.8561,13.81016,39.7654,13.84776Q39.6746,13.88536,39.580600000000004,13.91388Q39.4865,13.9424,39.3902,13.96157Q39.293800000000005,13.98074,39.196,13.99037Q39.098299999999995,14,39,14Q38.901700000000005,14,38.804,13.99037Q38.706199999999995,13.98074,38.6098,13.96157Q38.5135,13.9424,38.419399999999996,13.91388Q38.3254,13.88536,38.2346,13.84776Q38.1439,13.81016,38.0572,13.76384Q37.970600000000005,13.71753,37.8889,13.66294Q37.8072,13.60835,37.7312,13.54602Q37.6553,13.48369,37.5858,13.41421Q37.5163,13.34474,37.454,13.26879Q37.3916,13.19283,37.3371,13.11114Q37.2825,13.02944,37.2362,12.942789999999999Q37.189800000000005,12.85614,37.1522,12.76537Q37.114599999999996,12.67459,37.0861,12.58057Q37.0576,12.486550000000001,37.038399999999996,12.39018Q37.0193,12.29381,37.0096,12.19603Q37,12.09825,37,12Q37,11.90175,37.0096,11.80397Q37.0193,11.70619,37.038399999999996,11.60982Q37.0576,11.513449999999999,37.0861,11.41943Q37.114599999999996,11.32541,37.1522,11.23463Q37.189800000000005,11.14386,37.2362,11.057210000000001Q37.2825,10.97055,37.3371,10.888860000000001Q37.3916,10.80716,37.454,10.73121Q37.5163,10.65526,37.5858,10.58579Q37.6553,10.51631,37.7312,10.45398Q37.8072,10.39165,37.8889,10.337060000000001Q37.970600000000005,10.28247,38.0572,10.23616Q38.1439,10.18984,38.2346,10.152239999999999Q38.3254,10.11464,38.419399999999996,10.086120000000001Q38.5135,10.0576,38.6098,10.03843Q38.706199999999995,10.01926,38.804,10.00963Q38.901700000000005,10,39,10Q39.098299999999995,10,39.196,10.00963Q39.293800000000005,10.01926,39.3902,10.03843Q39.4865,10.0576,39.580600000000004,10.086120000000001Q39.6746,10.11464,39.7654,10.152239999999999Q39.8561,10.18984,39.9428,10.23616Q40.029399999999995,10.28247,40.1111,10.337060000000001Q40.1928,10.39165,40.2688,10.45398Q40.3447,10.51631,40.4142,10.58579Q40.4837,10.65526,40.546,10.73121Q40.6084,10.80716,40.6629,10.888860000000001Q40.7175,10.97055,40.7638,11.057210000000001Q40.810199999999995,11.14386,40.8478,11.23463Q40.885400000000004,11.32541,40.9139,11.41943Q40.9424,11.513449999999999,40.961600000000004,11.60982Q40.9807,11.70619,40.9904,11.80397Q41,11.90175,41,12Z" fill="#FFFFFF" fill-opacity="1"/></g><g><path d="M24.40893,11.04225Q30.71825,12.360129,35.3371,16.5127Q35.4102,16.57839,35.4765,16.65093Q35.5428,16.72346,35.6016,16.80214Q35.6605,16.88082,35.7113,16.9649Q35.7622,17.04897,35.804500000000004,17.13762Q35.8469,17.22627,35.8804,17.318640000000002Q35.9138,17.41102,35.9381,17.506230000000002Q35.9623,17.60144,35.977199999999996,17.69858Q35.992000000000004,17.79571,35.9972,17.893819999999998Q36.0024,17.99194,35.998,18.09009Q35.9935,18.18824,35.9795,18.28549Q35.9655,18.38274,35.942,18.47814Q35.9185,18.57355,35.8858,18.66619Q35.8531,18.75883,35.8114,18.84782Q35.769800000000004,18.93681,35.7196,19.02129Q35.669399999999996,19.10577,35.6112,19.184919999999998Q35.553,19.26407,35.4873,19.337139999999998Q35.4216,19.41021,35.3491,19.47648Q35.2765,19.54276,35.197900000000004,19.6016Q35.1192,19.66045,35.0351,19.7113Q34.951,19.76215,34.8624,19.80452Q34.7737,19.846890000000002,34.6814,19.88036Q34.589,19.91383,34.4938,19.93809Q34.3986,19.96235,34.3014,19.97715Q34.2043,19.99196,34.1062,19.99718Q34.0081,20.00239,33.909909999999996,19.99797Q33.81175,19.99354,33.714510000000004,19.97952Q33.61726,19.96549,33.52185,19.942Q33.42645,19.91851,33.33381,19.88578Q33.24116,19.85306,33.15217,19.811410000000002Q33.06319,19.769750000000002,32.97871,19.71958Q32.89423,19.66941,32.81508,19.6112Q32.735929999999996,19.55299,32.66286,19.4873Q28.84542,16.05527,23.59107,14.95775Q23.494892,14.93766,23.401146,14.90824Q23.3074,14.87882,23.21699,14.84035Q23.126579,14.80188,23.040374,14.75474Q22.95417,14.7076,22.873,14.65223Q22.79183,14.59687,22.71648,14.533809999999999Q22.64113,14.47076,22.57232,14.40062Q22.50351,14.33048,22.44191,14.25394Q22.38031,14.177389999999999,22.32651,14.09518Q22.2727,14.01297,22.22722,13.925875Q22.18173,13.838783,22.145,13.747653Q22.10827,13.656523,22.08065,13.562232Q22.05303,13.46794,22.03479,13.371395Q22.01654,13.274851,22.00785,13.176982Q21.99915,13.0791141,22.00009,12.9808649Q22.00103,12.882616,22.0116,12.784932Q22.02216,12.687248,22.04225,12.59107Q22.06234,12.494892,22.09176,12.401146Q22.12118,12.3074,22.15965,12.21699Q22.19812,12.126579,22.245260000000002,12.040374Q22.2924,11.95417,22.34777,11.873Q22.40313,11.791830000000001,22.46619,11.71648Q22.52924,11.64113,22.59938,11.57232Q22.66952,11.50351,22.74606,11.44191Q22.82261,11.38031,22.90482,11.32651Q22.98703,11.2727,23.074125,11.227219999999999Q23.161217,11.18173,23.252347,11.145Q23.343477,11.108270000000001,23.437768,11.08065Q23.53206,11.05303,23.628605,11.034790000000001Q23.725149,11.016539999999999,23.823018,11.00785Q23.9208859,10.99915,24.0191351,11.00009Q24.117384,11.00103,24.215068,11.0116Q24.312752,11.02216,24.40893,11.04225ZM26,13Q26,13.0982537,25.99037,13.196034Q25.98074,13.293815,25.961570000000002,13.390181Q25.9424,13.486546,25.91388,13.580569Q25.88536,13.674592,25.84776,13.765367Q25.81016,13.856141000000001,25.763840000000002,13.942793Q25.71753,14.02945,25.66294,14.11114Q25.60835,14.19284,25.54602,14.26879Q25.48369,14.34474,25.41421,14.41421Q25.34474,14.48369,25.26879,14.54602Q25.19284,14.60835,25.11114,14.66294Q25.02945,14.71753,24.942793,14.76384Q24.856141,14.81016,24.765367,14.847760000000001Q24.674592,14.88536,24.580569,14.91388Q24.486546,14.9424,24.390181,14.96157Q24.293815,14.98074,24.196034,14.99037Q24.0982537,15,24,15Q23.9017463,15,23.803966,14.99037Q23.706185,14.98074,23.609819,14.96157Q23.513454,14.9424,23.419431,14.91388Q23.325408,14.88536,23.234633,14.847760000000001Q23.143859,14.81016,23.057207,14.76384Q22.97055,14.71753,22.88886,14.66294Q22.80716,14.60835,22.73121,14.54602Q22.65526,14.48369,22.58579,14.41421Q22.51631,14.34474,22.45398,14.26879Q22.39165,14.19284,22.33706,14.11114Q22.28247,14.02945,22.236159999999998,13.942793Q22.18984,13.856141000000001,22.15224,13.765367Q22.11464,13.674592,22.08612,13.580569Q22.0576,13.486546,22.038429999999998,13.390181Q22.01926,13.293815,22.00963,13.196034Q22,13.0982537,22,13Q22,12.9017463,22.00963,12.803966Q22.01926,12.706185,22.038429999999998,12.609819Q22.0576,12.513454,22.08612,12.419431Q22.11464,12.325408,22.15224,12.234633Q22.18984,12.143858999999999,22.236159999999998,12.057207Q22.28247,11.97055,22.33706,11.88886Q22.39165,11.80716,22.45398,11.73121Q22.51631,11.65526,22.58579,11.58579Q22.65526,11.51631,22.73121,11.45398Q22.80716,11.39165,22.88886,11.33706Q22.97055,11.28247,23.057207,11.23616Q23.143859,11.18984,23.234633,11.152239999999999Q23.325408,11.11464,23.419431,11.08612Q23.513454,11.0576,23.609819,11.03843Q23.706185,11.01926,23.803966,11.00963Q23.9017463,11,24,11Q24.0982537,11,24.196034,11.00963Q24.293815,11.01926,24.390181,11.03843Q24.486546,11.0576,24.580569,11.08612Q24.674592,11.11464,24.765367,11.152239999999999Q24.856141,11.18984,24.942793,11.23616Q25.02945,11.28247,25.11114,11.33706Q25.19284,11.39165,25.26879,11.45398Q25.34474,11.51631,25.41421,11.58579Q25.48369,11.65526,25.54602,11.73121Q25.60835,11.80716,25.66294,11.88886Q25.71753,11.97055,25.763840000000002,12.057207Q25.81016,12.143858999999999,25.84776,12.234633Q25.88536,12.325408,25.91388,12.419431Q25.9424,12.513454,25.961570000000002,12.609819Q25.98074,12.706185,25.99037,12.803966Q26,12.9017463,26,13ZM36,18Q36,18.09825,35.9904,18.19603Q35.9807,18.29381,35.961600000000004,18.39018Q35.9424,18.48655,35.9139,18.58057Q35.885400000000004,18.674590000000002,35.8478,18.76537Q35.8102,18.85614,35.7638,18.94279Q35.7175,19.02945,35.6629,19.11114Q35.6084,19.19284,35.546,19.26879Q35.4837,19.34474,35.4142,19.41421Q35.3447,19.48369,35.2688,19.54602Q35.1928,19.60835,35.1111,19.66294Q35.0294,19.71753,34.9428,19.763840000000002Q34.8561,19.81016,34.7654,19.84776Q34.6746,19.88536,34.580600000000004,19.91388Q34.4865,19.9424,34.3902,19.961570000000002Q34.2938,19.98074,34.196,19.99037Q34.0983,20,34,20Q33.90175,20,33.80397,19.99037Q33.70619,19.98074,33.60982,19.961570000000002Q33.51345,19.9424,33.41943,19.91388Q33.32541,19.88536,33.234629999999996,19.84776Q33.143860000000004,19.81016,33.05721,19.763840000000002Q32.97055,19.71753,32.88886,19.66294Q32.807159999999996,19.60835,32.731210000000004,19.54602Q32.65526,19.48369,32.58579,19.41421Q32.516310000000004,19.34474,32.45398,19.26879Q32.39165,19.19284,32.33706,19.11114Q32.28247,19.02945,32.23616,18.94279Q32.189840000000004,18.85614,32.15224,18.76537Q32.11464,18.674590000000002,32.08612,18.58057Q32.0576,18.48655,32.03843,18.39018Q32.01926,18.29381,32.00963,18.19603Q32,18.09825,32,18Q32,17.90175,32.00963,17.80397Q32.01926,17.70618,32.03843,17.60982Q32.0576,17.51345,32.08612,17.41943Q32.11464,17.325409999999998,32.15224,17.23463Q32.189840000000004,17.14386,32.23616,17.05721Q32.28247,16.97055,32.33706,16.88886Q32.39165,16.80716,32.45398,16.73121Q32.516310000000004,16.65526,32.58579,16.58579Q32.65526,16.51631,32.731210000000004,16.45398Q32.807159999999996,16.39165,32.88886,16.33706Q32.97056,16.28247,33.05721,16.236159999999998Q33.143860000000004,16.18984,33.234629999999996,16.15224Q33.32541,16.11464,33.41943,16.08612Q33.51345,16.0576,33.60982,16.038429999999998Q33.70619,16.01926,33.80397,16.00963Q33.90175,16,34,16Q34.0983,16,34.196,16.00963Q34.2938,16.01926,34.3902,16.038429999999998Q34.4865,16.0576,34.580600000000004,16.08612Q34.6746,16.11464,34.7654,16.15224Q34.8561,16.18984,34.9428,16.236159999999998Q35.0294,16.28247,35.1111,16.33706Q35.1928,16.39165,35.2688,16.45398Q35.3447,16.51631,35.4142,16.58579Q35.4837,16.65526,35.546,16.73121Q35.6084,16.80716,35.6629,16.88886Q35.7175,16.97055,35.7638,17.05721Q35.8102,17.14386,35.8478,17.23463Q35.885400000000004,17.325409999999998,35.9139,17.41943Q35.9424,17.51345,35.961600000000004,17.60982Q35.9807,17.70618,35.9904,17.80397Q36,17.90175,36,18Z" fill="#FFFFFF" fill-opacity="1"/></g><g><path d="M12.882249999999999,17.79489Q11.47114,18.488500000000002,10.32201,19.50076Q10.24828,19.56571,10.16854,19.62311Q10.08881,19.68052,10.00382,19.72984Q9.918843,19.77915,9.829438,19.8199Q9.740032,19.86065,9.647062,19.89243Q9.554093,19.92422,9.458456,19.94675Q9.362818,19.96927,9.265434,19.98231Q9.168049,19.995350000000002,9.0698555,19.99878Q8.9716618,20.002209999999998,8.873605,19.996Q8.775547,19.98979,8.678571,19.974Q8.581594,19.95821,8.486633,19.93299Q8.391671,19.90777,8.299638,19.873359999999998Q8.207606,19.83896,8.119389,19.7957Q8.031172,19.75243,7.94762,19.70073Q7.86407,19.64903,7.78599,19.58939Q7.7079,19.52975,7.6360399999999995,19.46275Q7.56418,19.39574,7.49924,19.32201Q7.43429,19.24828,7.3768899999999995,19.16855Q7.31948,19.08881,7.27016,19.00383Q7.22085,18.91884,7.1800999999999995,18.829439999999998Q7.13935,18.74003,7.10757,18.64706Q7.07578,18.55409,7.05325,18.45846Q7.03073,18.36282,7.01769,18.26543Q7.00465,18.16805,7.00122,18.06986Q6.99779,17.97166,7.004,17.8736Q7.01021,17.77555,7.026,17.67857Q7.04179,17.58159,7.06701,17.486629999999998Q7.09223,17.39167,7.12664,17.29964Q7.16104,17.20761,7.2043,17.11939Q7.24757,17.03117,7.29927,16.94762Q7.35097,16.864069,7.41061,16.785987Q7.47025,16.707905,7.53725,16.636045Q7.60426,16.564185,7.67799,16.499238Q9.227633,15.134166,11.117750000000001,14.20511Q11.20593,14.16177,11.297930000000001,14.12728Q11.38993,14.09279,11.48487,14.06748Q11.57981,14.04217,11.67677,14.02629Q11.77373,14.01041,11.871780000000001,14.00411Q11.96983,13.99782,12.06803,14.00116Q12.16623,14.0045,12.26362,14.01745Q12.36102,14.0304,12.45668,14.05284Q12.552340000000001,14.07527,12.64533,14.10697Q12.73833,14.13868,12.827770000000001,14.17934Q12.91722,14.22001,13.00224,14.26925Q13.08727,14.318480000000001,13.16706,14.375820000000001Q13.24685,14.43315,13.320640000000001,14.49803Q13.39443,14.56291,13.461500000000001,14.63471Q13.52857,14.70651,13.588280000000001,14.78454Q13.648,14.86256,13.699770000000001,14.94607Q13.75155,15.029572,13.794889999999999,15.117749Q13.83823,15.205926999999999,13.872720000000001,15.297928Q13.90721,15.389929,13.93252,15.484867Q13.957830000000001,15.579806,13.97371,15.676768Q13.98959,15.77373,13.99588,15.871782Q14.00218,15.9698333,13.998840000000001,16.0680301Q13.9955,16.166227,13.98255,16.263623Q13.9696,16.36102,13.94716,16.456678Q13.92473,16.552336,13.89302,16.645334Q13.86132,16.738333,13.82065,16.827776Q13.77999,16.917219,13.73075,17.00224Q13.68151,17.08727,13.624179999999999,17.16706Q13.566849999999999,17.24685,13.50197,17.32064Q13.437090000000001,17.39443,13.36529,17.4615Q13.29349,17.52857,13.21546,17.58828Q13.13744,17.648,13.053930000000001,17.69977Q12.97043,17.75155,12.882249999999999,17.79489ZM14,16Q14,16.0982537,13.99037,16.196034Q13.98074,16.293815,13.96157,16.390181Q13.9424,16.486546,13.913879999999999,16.580569Q13.88536,16.674592,13.847760000000001,16.765367Q13.81016,16.856141,13.76384,16.942793Q13.71753,17.02945,13.662939999999999,17.11114Q13.60835,17.19284,13.54602,17.26879Q13.48369,17.34474,13.41421,17.41421Q13.34474,17.48369,13.26879,17.54602Q13.19283,17.60835,13.111139999999999,17.66294Q13.029440000000001,17.71753,12.94279,17.763840000000002Q12.85614,17.81016,12.76537,17.84776Q12.67459,17.88536,12.58057,17.91388Q12.48655,17.9424,12.39018,17.961570000000002Q12.29381,17.98074,12.19603,17.99037Q12.09825,18,12,18Q11.90175,18,11.80397,17.99037Q11.70618,17.98074,11.60982,17.961570000000002Q11.51345,17.9424,11.41943,17.91388Q11.32541,17.88536,11.23463,17.84776Q11.14386,17.81016,11.05721,17.763840000000002Q10.97055,17.71753,10.88886,17.66294Q10.80716,17.60835,10.73121,17.54602Q10.65526,17.48369,10.58579,17.41421Q10.51631,17.34474,10.45398,17.26879Q10.39165,17.19284,10.33706,17.11114Q10.28247,17.02945,10.23616,16.942793Q10.18984,16.856141,10.152239999999999,16.765367Q10.11464,16.674592,10.08612,16.580569Q10.0576,16.486546,10.03843,16.390181Q10.01926,16.293815,10.00963,16.196034Q10,16.0982537,10,16Q10,15.9017463,10.00963,15.803966Q10.01926,15.706185,10.03843,15.609819Q10.0576,15.513454,10.08612,15.419431Q10.11464,15.325408,10.152239999999999,15.234633Q10.18984,15.143858999999999,10.23616,15.057207Q10.28247,14.97055,10.33706,14.88886Q10.39165,14.80716,10.45398,14.73121Q10.51631,14.65526,10.58579,14.58579Q10.65526,14.51631,10.73121,14.45398Q10.80716,14.39165,10.88886,14.33706Q10.97055,14.28247,11.05721,14.23616Q11.14386,14.18984,11.23463,14.152239999999999Q11.32541,14.11464,11.41943,14.08612Q11.51345,14.0576,11.60982,14.03843Q11.70618,14.01926,11.80397,14.00963Q11.90175,14,12,14Q12.09825,14,12.19603,14.00963Q12.29381,14.01926,12.39018,14.03843Q12.48655,14.0576,12.58057,14.08612Q12.67459,14.11464,12.76537,14.152239999999999Q12.85614,14.18984,12.94279,14.23616Q13.029440000000001,14.28247,13.111139999999999,14.33706Q13.19283,14.39165,13.26879,14.45398Q13.34474,14.51631,13.41421,14.58579Q13.48369,14.65526,13.54602,14.73121Q13.60835,14.80716,13.662939999999999,14.88886Q13.71753,14.97055,13.76384,15.057207Q13.81016,15.143858999999999,13.847760000000001,15.234633Q13.88536,15.325408,13.913879999999999,15.419431Q13.9424,15.513454,13.96157,15.609819Q13.98074,15.706185,13.99037,15.803966Q14,15.9017463,14,16ZM11,18Q11,18.09825,10.99037,18.19603Q10.98074,18.29381,10.96157,18.39018Q10.9424,18.48655,10.91388,18.58057Q10.88536,18.67459,10.847760000000001,18.76537Q10.81016,18.85614,10.76384,18.94279Q10.71753,19.02945,10.66294,19.11114Q10.60835,19.19284,10.54602,19.26879Q10.48369,19.34474,10.41421,19.41421Q10.34474,19.48369,10.26879,19.54602Q10.19284,19.60835,10.11114,19.66294Q10.02945,19.71753,9.942793,19.763840000000002Q9.856141000000001,19.81016,9.765367,19.84776Q9.674592,19.88536,9.580569,19.91388Q9.486546,19.9424,9.390181,19.961570000000002Q9.293815,19.98074,9.196034,19.99037Q9.0982537,20,9,20Q8.9017463,20,8.803966,19.99037Q8.706185,19.98074,8.609819,19.961570000000002Q8.513454,19.9424,8.419431,19.91388Q8.325408,19.88536,8.234633,19.84776Q8.143858999999999,19.81016,8.057207,19.763840000000002Q7.97055,19.71753,7.88886,19.66294Q7.80716,19.60835,7.73121,19.54602Q7.65526,19.48369,7.58579,19.41421Q7.51631,19.34474,7.45398,19.26879Q7.39165,19.19284,7.33706,19.11114Q7.28247,19.02945,7.23616,18.94279Q7.18984,18.85614,7.15224,18.76537Q7.11464,18.67459,7.08612,18.58057Q7.0576,18.48655,7.03843,18.39018Q7.01926,18.29381,7.00963,18.19603Q7,18.09825,7,18Q7,17.90175,7.00963,17.80397Q7.01926,17.70619,7.03843,17.60982Q7.0576,17.51345,7.08612,17.41943Q7.11464,17.32541,7.15224,17.23463Q7.18984,17.14386,7.23616,17.05721Q7.28247,16.970554,7.33706,16.888859Q7.39165,16.807164,7.45398,16.731213Q7.51631,16.655262,7.58579,16.585786Q7.65526,16.516311,7.73121,16.453979Q7.80716,16.391648,7.88886,16.337061Q7.97055,16.282474,8.057207,16.236157Q8.143858999999999,16.189841,8.234633,16.152241Q8.325408,16.114641,8.419431,16.0861193Q8.513454,16.0575978,8.609819,16.0384294Q8.706185,16.0192611,8.803966,16.00963055Q8.9017463,16,9,16Q9.0982537,16,9.196034,16.00963055Q9.293815,16.0192611,9.390181,16.0384294Q9.486546,16.0575978,9.580569,16.0861193Q9.674592,16.114641,9.765367,16.152241Q9.856141000000001,16.189841,9.942793,16.236157Q10.02945,16.282474,10.11114,16.337061Q10.19284,16.391648,10.26879,16.453979Q10.34474,16.516311,10.41421,16.585786Q10.48369,16.655262,10.54602,16.731213Q10.60835,16.807164,10.66294,16.888859Q10.71753,16.970554,10.76384,17.05721Q10.81016,17.14386,10.847760000000001,17.23463Q10.88536,17.32541,10.91388,17.41943Q10.9424,17.51345,10.96157,17.60982Q10.98074,17.70619,10.99037,17.80397Q11,17.90175,11,18Z" fill="#FFFFFF" fill-opacity="1"/></g><g><path d="M18.54345,23.92475Q16.18336,24.59111,14.43542,26.39269Q14.367,26.46321,14.292,26.52668Q14.217,26.59015,14.13613,26.64596Q14.05527,26.70178,13.969331,26.7494Q13.883388,26.79702,13.793192,26.83599Q13.702996,26.87495,13.609415,26.90489Q13.515833,26.934829999999998,13.419768,26.95545Q13.323703,26.97607,13.226079,26.987180000000002Q13.128455,26.99829,13.0302123,26.999769999999998Q12.9319698,27.001260000000002,12.834055,26.9931Q12.73614,26.98495,12.639496,26.96724Q12.542851,26.94953,12.448408,26.92243Q12.353965,26.89533,12.262633,26.85911Q12.171301,26.822879999999998,12.083959,26.77788Q11.99662,26.73288,11.91411,26.67953Q11.8316,26.62619,11.75471,26.56501Q11.67783,26.50383,11.60731,26.43542Q11.53679,26.367,11.47332,26.292Q11.40985,26.21699,11.35404,26.13613Q11.29822,26.05527,11.2506,25.96933Q11.20298,25.88339,11.16401,25.79319Q11.12505,25.703,11.09511,25.60941Q11.06517,25.51583,11.044550000000001,25.41977Q11.02393,25.3237,11.01282,25.22608Q11.00171,25.12845,11.00023,25.03021Q10.99874,24.93197,11.0069,24.83405Q11.01505,24.73614,11.03276,24.63949Q11.05047,24.54285,11.07757,24.44841Q11.10467,24.35396,11.14089,24.26263Q11.17711,24.1713,11.22212,24.08396Q11.26712,23.99662,11.32047,23.91411Q11.37381,23.8316,11.434989999999999,23.75471Q11.49617,23.67783,11.56458,23.60731Q14.06144,21.03385,17.45655,20.07525Q17.55111,20.04855,17.64783,20.03125Q17.74455,20.01395,17.842489999999998,20.00621Q17.94044,19.99847,18.03868,20.00037Q18.13691,20.00227,18.23449,20.01379Q18.33207,20.02531,18.42804,20.04634Q18.52402,20.06737,18.61747,20.09771Q18.71093,20.12804,18.80096,20.16739Q18.890990000000002,20.20674,18.97673,20.25472Q19.06247,20.3027,19.14309,20.35886Q19.22372,20.41502,19.29845,20.47881Q19.373179999999998,20.54259,19.4413,20.6134Q19.50942,20.68421,19.57027,20.76135Q19.63112,20.83849,19.68412,20.92123Q19.73711,21.003962,19.78174,21.091494Q19.82638,21.179025,19.86221,21.27051Q19.898049999999998,21.361995,19.92475,21.456551Q19.95145,21.551108,19.96875,21.647827Q19.98605,21.744545,19.99379,21.842494Q20.00153,21.9404424,19.99962,22.0386777Q19.99773,22.136913,19.98621,22.234489Q19.97469,22.332065,19.95366,22.428042Q19.93263,22.524019,19.90229,22.617473Q19.87196,22.710927,19.83261,22.800957Q19.79326,22.890988,19.74528,22.976728Q19.6973,23.06247,19.64114,23.14309Q19.58498,23.22372,19.52119,23.29845Q19.45741,23.37318,19.3866,23.4413Q19.31579,23.50942,19.23865,23.57027Q19.16151,23.63112,19.07877,23.68412Q18.99604,23.73711,18.90851,23.78175Q18.82097,23.82638,18.72949,23.86221Q18.63801,23.89805,18.54345,23.92475ZM20,22Q20,22.0982537,19.99037,22.196034Q19.98074,22.293815,19.961570000000002,22.390181Q19.9424,22.486546,19.91388,22.580569Q19.88536,22.674592,19.84776,22.765367Q19.81016,22.856141,19.763840000000002,22.942793Q19.71753,23.02945,19.66294,23.11114Q19.60835,23.19284,19.54602,23.26879Q19.48369,23.34474,19.41421,23.41421Q19.34474,23.48369,19.26879,23.54602Q19.19284,23.60835,19.11114,23.66294Q19.02945,23.71753,18.94279,23.763840000000002Q18.85614,23.81016,18.76537,23.84776Q18.674590000000002,23.88536,18.58057,23.91388Q18.48655,23.9424,18.39018,23.961570000000002Q18.29381,23.98074,18.19603,23.99037Q18.09825,24,18,24Q17.90175,24,17.80397,23.99037Q17.70618,23.98074,17.60982,23.961570000000002Q17.51345,23.9424,17.41943,23.91388Q17.325409999999998,23.88536,17.23463,23.84776Q17.14386,23.81016,17.05721,23.763840000000002Q16.97055,23.71753,16.88886,23.66294Q16.80716,23.60835,16.73121,23.54602Q16.65526,23.48369,16.58579,23.41421Q16.51631,23.34474,16.45398,23.26879Q16.39165,23.19284,16.33706,23.11114Q16.28247,23.02945,16.236159999999998,22.942793Q16.18984,22.856141,16.15224,22.765367Q16.11464,22.674592,16.08612,22.580569Q16.0576,22.486546,16.038429999999998,22.390181Q16.01926,22.293815,16.00963,22.196034Q16,22.0982537,16,22Q16,21.9017463,16.00963,21.803966Q16.01926,21.706185,16.038429999999998,21.609819Q16.0576,21.513454,16.08612,21.419431Q16.11464,21.325408,16.15224,21.234633Q16.18984,21.143859,16.236159999999998,21.057207Q16.28247,20.97055,16.33706,20.88886Q16.39165,20.80716,16.45398,20.73121Q16.51631,20.65526,16.58579,20.58579Q16.65526,20.51631,16.73121,20.45398Q16.80716,20.39165,16.88886,20.33706Q16.97055,20.28247,17.05721,20.236159999999998Q17.14386,20.18984,17.23463,20.15224Q17.325409999999998,20.11464,17.41943,20.08612Q17.51345,20.0576,17.60982,20.038429999999998Q17.70618,20.01926,17.80397,20.00963Q17.90175,20,18,20Q18.09825,20,18.19603,20.00963Q18.29381,20.01926,18.39018,20.038429999999998Q18.48655,20.0576,18.58057,20.08612Q18.674590000000002,20.11464,18.76537,20.15224Q18.85614,20.18984,18.94279,20.236159999999998Q19.02945,20.28247,19.11114,20.33706Q19.19284,20.39165,19.26879,20.45398Q19.34474,20.51631,19.41421,20.58579Q19.48369,20.65526,19.54602,20.73121Q19.60835,20.80716,19.66294,20.88886Q19.71753,20.97055,19.763840000000002,21.057207Q19.81016,21.143859,19.84776,21.234633Q19.88536,21.325408,19.91388,21.419431Q19.9424,21.513454,19.961570000000002,21.609819Q19.98074,21.706185,19.99037,21.803966Q20,21.9017463,20,22ZM15,25Q15,25.09825,14.99037,25.19603Q14.98074,25.29381,14.96157,25.39018Q14.9424,25.48655,14.91388,25.58057Q14.88536,25.67459,14.847760000000001,25.76537Q14.81016,25.85614,14.76384,25.94279Q14.71753,26.02945,14.66294,26.11114Q14.60835,26.19283,14.54602,26.26879Q14.48369,26.34474,14.41421,26.41421Q14.34474,26.48369,14.26879,26.54602Q14.19284,26.60835,14.11114,26.66294Q14.02945,26.71753,13.942793,26.763840000000002Q13.856141000000001,26.81016,13.765367,26.84776Q13.674592,26.88536,13.580569,26.91388Q13.486546,26.9424,13.390181,26.961570000000002Q13.293815,26.98074,13.196034,26.99037Q13.0982537,27,13,27Q12.9017463,27,12.803966,26.99037Q12.706185,26.98074,12.609819,26.961570000000002Q12.513454,26.9424,12.419431,26.91388Q12.325408,26.88536,12.234633,26.84776Q12.143858999999999,26.81016,12.057207,26.763840000000002Q11.97055,26.71753,11.88886,26.66294Q11.80716,26.60835,11.73121,26.54602Q11.65526,26.48369,11.58579,26.41421Q11.51631,26.34474,11.45398,26.26879Q11.39165,26.19283,11.33706,26.11114Q11.28247,26.02945,11.23616,25.94279Q11.18984,25.85614,11.152239999999999,25.76537Q11.11464,25.67459,11.08612,25.58057Q11.0576,25.48655,11.03843,25.39018Q11.01926,25.29381,11.00963,25.19603Q11,25.09825,11,25Q11,24.90175,11.00963,24.80397Q11.01926,24.70619,11.03843,24.60982Q11.0576,24.51345,11.08612,24.41943Q11.11464,24.32541,11.152239999999999,24.23463Q11.18984,24.14386,11.23616,24.05721Q11.28247,23.97055,11.33706,23.88886Q11.39165,23.80716,11.45398,23.73121Q11.51631,23.65526,11.58579,23.58579Q11.65526,23.51631,11.73121,23.45398Q11.80716,23.39165,11.88886,23.33706Q11.97055,23.28247,12.057207,23.236159999999998Q12.143858999999999,23.18984,12.234633,23.15224Q12.325408,23.11464,12.419431,23.08612Q12.513454,23.0576,12.609819,23.038429999999998Q12.706185,23.01926,12.803966,23.00963Q12.9017463,23,13,23Q13.0982537,23,13.196034,23.00963Q13.293815,23.01926,13.390181,23.038429999999998Q13.486546,23.0576,13.580569,23.08612Q13.674592,23.11464,13.765367,23.15224Q13.856141000000001,23.18984,13.942793,23.236159999999998Q14.02945,23.28247,14.11114,23.33706Q14.19284,23.39165,14.26879,23.45398Q14.34474,23.51631,14.41421,23.58579Q14.48369,23.65526,14.54602,23.73121Q14.60835,23.80716,14.66294,23.88886Q14.71753,23.97055,14.76384,24.05721Q14.81016,24.14386,14.847760000000001,24.23463Q14.88536,24.32541,14.91388,24.41943Q14.9424,24.51345,14.96157,24.60982Q14.98074,24.70619,14.99037,24.80397Q15,24.90175,15,25Z" fill="#FFFFFF" fill-opacity="1"/></g><g><path d="M20.5,32C21.8807,32,23,30.8807,23,29.5C23,28.1193,21.8807,27,20.5,27C19.1193,27,18,28.1193,18,29.5C18,30.8807,19.1193,32,20.5,32Z" fill-rule="evenodd" fill="#FFFFFF" fill-opacity="1"/></g><g><path d="M7.43798,0.6099600000000001L36.438,30.61Q36.506299999999996,30.6806,36.5673,30.7576Q36.628299999999996,30.8346,36.6815,30.9172Q36.734700000000004,30.9998,36.7796,31.0872Q36.8244,31.1747,36.8605,31.2661Q36.8965,31.3575,36.9234,31.4519Q36.9504,31.5464,36.9679,31.6431Q36.9854,31.7398,36.9934,31.8377Q37.001400000000004,31.9356,36.999700000000004,32.0339Q36.998000000000005,32.1321,36.9868,32.2297Q36.9755,32.3273,36.9547,32.4234Q36.9339,32.519400000000005,36.903800000000004,32.612899999999996Q36.8737,32.7064,36.8345,32.7966Q36.7954,32.886700000000005,36.7476,32.9725Q36.699799999999996,33.0584,36.6439,33.1392Q36.587900000000005,33.219899999999996,36.5243,33.294799999999995Q36.4607,33.3697,36.39,33.438Q36.3194,33.506299999999996,36.2424,33.5673Q36.165400000000005,33.628299999999996,36.0828,33.6815Q36.0002,33.734700000000004,35.912800000000004,33.7796Q35.8253,33.8244,35.7339,33.8605Q35.6425,33.8965,35.548100000000005,33.9234Q35.4536,33.9504,35.356899999999996,33.9679Q35.2602,33.9854,35.1623,33.9934Q35.0643,34.0014,34.9661,33.999700000000004Q34.8679,33.998000000000005,34.7703,33.9868Q34.6727,33.9755,34.5766,33.9547Q34.480599999999995,33.9339,34.387100000000004,33.903800000000004Q34.2936,33.8737,34.2034,33.8345Q34.113299999999995,33.7954,34.0275,33.7476Q33.9416,33.699799999999996,33.8608,33.6439Q33.780100000000004,33.587900000000005,33.705200000000005,33.5243Q33.6303,33.4607,33.562,33.39L4.56202,3.39004Q4.49373,3.3194,4.4327000000000005,3.2424Q4.37166,3.16541,4.31847,3.0827999999999998Q4.26527,3.00019,4.22043,2.912767Q4.17559,2.825342,4.13954,2.733944Q4.10348,2.642545,4.07656,2.548052Q4.0496300000000005,2.453559,4.0321,2.356882Q4.01457,2.260206,4.00659,2.162276Q3.99862,2.0643462,4.00029,1.9661066Q4.00195,1.867867,4.01324,1.770264Q4.02452,1.67266,4.04532,1.576633Q4.06612,1.4806059999999999,4.09623,1.38708Q4.12634,1.2935539999999999,4.1654800000000005,1.20343Q4.20461,1.113305,4.25239,1.0274510000000001Q4.30017,0.9416,4.35613,0.86084Q4.41209,0.7800800000000001,4.4757,0.7052Q4.53931,0.6303099999999999,4.60996,0.56202Q4.6806,0.49373,4.7576,0.4327000000000001Q4.83459,0.3716600000000001,4.9172,0.31847000000000003Q4.99981,0.2652699999999999,5.087233,0.2204299999999999Q5.174658,0.1755899999999999,5.266056,0.13954Q5.357455,0.10348000000000002,5.451948,0.07655999999999996Q5.546441,0.04963000000000006,5.643118,0.03210000000000002Q5.739794,0.014569999999999972,5.837724,0.006590000000000096Q5.9356538,-0.0013800000000001589,6.0338934,0.00028999999999990145Q6.132133,0.0019499999999998963,6.229736,0.013239999999999919Q6.32734,0.024520000000000097,6.423367,0.04532000000000003Q6.519394,0.06611999999999996,6.61292,0.09623000000000004Q6.706446,0.1263399999999999,6.79657,0.16548000000000007Q6.886695,0.20460999999999996,6.972549,0.2523899999999999Q7.0584,0.30017000000000005,7.13916,0.35613000000000006Q7.21992,0.41209000000000007,7.2948,0.4757Q7.36969,0.53931,7.43798,0.6099600000000001ZM8,2Q8,2.0982537,7.99037,2.196034Q7.98074,2.293815,7.96157,2.390181Q7.9424,2.486546,7.91388,2.580569Q7.88536,2.674592,7.84776,2.765367Q7.81016,2.856141,7.76384,2.942793Q7.71753,3.0294499999999998,7.66294,3.11114Q7.60835,3.19284,7.54602,3.26879Q7.48369,3.34474,7.41421,3.4142099999999997Q7.34474,3.48369,7.26879,3.54602Q7.19284,3.6083499999999997,7.11114,3.66294Q7.02945,3.71753,6.942793,3.76384Q6.856141,3.8101599999999998,6.765367,3.84776Q6.674592,3.88536,6.580569,3.91388Q6.486546,3.9424,6.390181,3.96157Q6.293815,3.98074,6.196034,3.99037Q6.0982537,4,6,4Q5.9017463,4,5.803966,3.99037Q5.706185,3.98074,5.609819,3.96157Q5.513454,3.9424,5.419431,3.91388Q5.325408,3.88536,5.234633,3.84776Q5.143859,3.8101599999999998,5.057207,3.76384Q4.97055,3.71753,4.88886,3.66294Q4.80716,3.6083499999999997,4.73121,3.54602Q4.65526,3.48369,4.58579,3.4142099999999997Q4.51631,3.34474,4.45398,3.26879Q4.39165,3.19284,4.33706,3.11114Q4.28247,3.0294499999999998,4.23616,2.942793Q4.18984,2.856141,4.15224,2.765367Q4.11464,2.674592,4.08612,2.580569Q4.0576,2.486546,4.03843,2.390181Q4.01926,2.293815,4.00963,2.196034Q4,2.0982537,4,2Q4,1.9017463000000001,4.00963,1.803966Q4.01926,1.706185,4.03843,1.6098189999999999Q4.0576,1.513454,4.08612,1.4194309999999999Q4.11464,1.325408,4.15224,1.234633Q4.18984,1.143859,4.23616,1.057207Q4.28247,0.97055,4.33706,0.88886Q4.39165,0.8071600000000001,4.45398,0.7312099999999999Q4.51631,0.65526,4.58579,0.58579Q4.65526,0.51631,4.73121,0.45398000000000005Q4.80716,0.39165000000000005,4.88886,0.3370599999999999Q4.97055,0.28247,5.057207,0.23615999999999993Q5.143859,0.18984,5.234633,0.15223999999999993Q5.325408,0.11464000000000008,5.419431,0.08611999999999997Q5.513454,0.057600000000000096,5.609819,0.038429999999999964Q5.706185,0.019260000000000055,5.803966,0.009630000000000027Q5.9017463,0,6,0Q6.0982537,0,6.196034,0.009630000000000027Q6.293815,0.019260000000000055,6.390181,0.038429999999999964Q6.486546,0.057600000000000096,6.580569,0.08611999999999997Q6.674592,0.11464000000000008,6.765367,0.15223999999999993Q6.856141,0.18984,6.942793,0.23615999999999993Q7.02945,0.28247,7.11114,0.3370599999999999Q7.19284,0.39165000000000005,7.26879,0.45398000000000005Q7.34474,0.51631,7.41421,0.58579Q7.48369,0.65526,7.54602,0.7312099999999999Q7.60835,0.8071600000000001,7.66294,0.88886Q7.71753,0.97055,7.76384,1.057207Q7.81016,1.143859,7.84776,1.234633Q7.88536,1.325408,7.91388,1.4194309999999999Q7.9424,1.513454,7.96157,1.6098189999999999Q7.98074,1.706185,7.99037,1.803966Q8,1.9017463000000001,8,2ZM37,32Q37,32.098299999999995,36.9904,32.196Q36.9807,32.293800000000005,36.961600000000004,32.3902Q36.9424,32.4865,36.9139,32.580600000000004Q36.885400000000004,32.6746,36.8478,32.7654Q36.810199999999995,32.8561,36.7638,32.9428Q36.7175,33.029399999999995,36.6629,33.1111Q36.6084,33.1928,36.546,33.2688Q36.4837,33.3447,36.4142,33.4142Q36.3447,33.4837,36.2688,33.546Q36.1928,33.6084,36.1111,33.6629Q36.029399999999995,33.7175,35.9428,33.7638Q35.8561,33.810199999999995,35.7654,33.8478Q35.6746,33.885400000000004,35.580600000000004,33.9139Q35.4865,33.9424,35.3902,33.961600000000004Q35.293800000000005,33.9807,35.196,33.9904Q35.098299999999995,34,35,34Q34.901700000000005,34,34.804,33.9904Q34.706199999999995,33.9807,34.6098,33.961600000000004Q34.5135,33.9424,34.419399999999996,33.9139Q34.3254,33.885400000000004,34.2346,33.8478Q34.1439,33.810199999999995,34.0572,33.7638Q33.970600000000005,33.7175,33.8889,33.6629Q33.8072,33.6084,33.7312,33.546Q33.6553,33.4837,33.5858,33.4142Q33.5163,33.3447,33.454,33.2688Q33.3916,33.1928,33.3371,33.1111Q33.2825,33.029399999999995,33.2362,32.9428Q33.189800000000005,32.8561,33.1522,32.7654Q33.114599999999996,32.6746,33.0861,32.580600000000004Q33.0576,32.4865,33.038399999999996,32.3902Q33.0193,32.293800000000005,33.0096,32.196Q33,32.098299999999995,33,32Q33,31.9017,33.0096,31.804Q33.0193,31.7062,33.038399999999996,31.6098Q33.0576,31.5135,33.0861,31.4194Q33.114599999999996,31.3254,33.1522,31.2346Q33.189800000000005,31.1439,33.2362,31.0572Q33.2825,30.9706,33.3371,30.8889Q33.3916,30.8072,33.454,30.7312Q33.5163,30.6553,33.5858,30.5858Q33.6553,30.5163,33.7312,30.454Q33.8072,30.3916,33.8889,30.3371Q33.970600000000005,30.2825,34.0572,30.2362Q34.1439,30.1898,34.2346,30.1522Q34.3254,30.1146,34.419399999999996,30.0861Q34.5135,30.0576,34.6098,30.0384Q34.706199999999995,30.0193,34.804,30.0096Q34.901700000000005,30,35,30Q35.098299999999995,30,35.196,30.0096Q35.293800000000005,30.0193,35.3902,30.0384Q35.4865,30.0576,35.580600000000004,30.0861Q35.6746,30.1146,35.7654,30.1522Q35.8561,30.1898,35.9428,30.2362Q36.029399999999995,30.2825,36.1111,30.3371Q36.1928,30.3916,36.2688,30.454Q36.3447,30.5163,36.4142,30.5858Q36.4837,30.6553,36.546,30.7312Q36.6084,30.8072,36.6629,30.8889Q36.7175,30.9706,36.7638,31.0572Q36.810199999999995,31.1439,36.8478,31.2346Q36.885400000000004,31.3254,36.9139,31.4194Q36.9424,31.5135,36.961600000000004,31.6098Q36.9807,31.7062,36.9904,31.804Q37,31.9017,37,32Z" fill="#FFFFFF" fill-opacity="1"/></g><g><path d="M6.78288,11.84041Q5.8487100000000005,12.23779,4.96389,12.67553Q3.9527200000000002,13.17563,3.00869,13.72701Q2.9238429999999997,13.77656,2.834552,13.81756Q2.745261,13.85856,2.6523820000000002,13.89061Q2.559502,13.92266,2.463928,13.945450000000001Q2.368355,13.96824,2.271007,13.98155Q2.17366,13.99487,2.0754759,13.99857Q1.9772922,14.002279999999999,1.879218,13.99635Q1.781143,13.99042,1.684123,13.9749Q1.587102,13.95938,1.49207,13.934429999999999Q1.397038,13.909469999999999,1.3049089999999999,13.87533Q1.21278,13.84118,1.1244420000000002,13.79816Q1.036104,13.75515,0.95241,13.70369Q0.8687100000000001,13.65222,0.7904599999999999,13.5928Q0.71221,13.533380000000001,0.6401600000000001,13.46658Q0.5681099999999999,13.39977,0.5029600000000001,13.326229999999999Q0.43781000000000003,13.25268,0.38017999999999996,13.1731Q0.3225499999999999,13.09353,0.27299000000000007,13.00869Q0.22344000000000008,12.92384,0.18243999999999994,12.83455Q0.14144,12.74526,0.1093900000000001,12.65238Q0.07733999999999996,12.5595,0.0545500000000001,12.46393Q0.03176000000000001,12.36835,0.018450000000000077,12.27101Q0.005130000000000079,12.17366,0.0014199999999999768,12.07548Q-0.0022799999999998377,11.97729,0.003649999999999931,11.87922Q0.009579999999999922,11.78114,0.0250999999999999,11.68412Q0.0406200000000001,11.5871,0.0655699999999999,11.49207Q0.09053,11.39704,0.12467000000000006,11.30491Q0.15881999999999996,11.21278,0.20182999999999995,11.12444Q0.24485,11.0361,0.2963100000000001,10.952407000000001Q0.34778,10.86871,0.4072,10.790461Q0.46662000000000003,10.712211,0.53342,10.640163Q0.60023,10.568115,0.67377,10.502962Q0.74732,10.437808,0.8269,10.380177Q0.9064700000000001,10.322547,0.9913099999999999,10.272993Q2.0551174,9.651662,3.1902,9.090277Q4.17761,8.60179,5.2171199999999995,8.15959Q5.30753,8.12113,5.40128,8.09172Q5.49502,8.06231,5.591200000000001,8.04222Q5.68738,8.02214,5.78507,8.01158Q5.88275,8.00102,5.981,8.00009Q6.07925,7.99916,6.17712,8.00786Q6.27499,8.01656,6.37153,8.03481Q6.46807,8.05306,6.56236,8.08069Q6.65665,8.108319999999999,6.74778,8.14505Q6.83891,8.18179,6.926,8.22728Q7.01308,8.27277,7.09529,8.32658Q7.1775,8.38039,7.25404,8.442Q7.33058,8.5036,7.40071,8.57242Q7.47085,8.64123,7.5339,8.71658Q7.59695,8.79194,7.65231,8.87311Q7.70767,8.95429,7.75481,9.040494Q7.80194,9.126702,7.8404,9.217116Q7.87887,9.307529,7.90828,9.401277Q7.93769,9.495024,7.95778,9.591204Q7.97786,9.687383,7.98842,9.785068Q7.99898,9.882752,7.99991,9.9810017Q8.00084,10.079251,7.99214,10.177119Q7.98344,10.274986,7.96519,10.37153Q7.94694,10.468073,7.91931,10.562363Q7.89168,10.656653,7.85495,10.74778Q7.81821,10.838908,7.77272,10.925996Q7.72723,11.01308,7.67342,11.09529Q7.61961,11.1775,7.558,11.25404Q7.4964,11.33058,7.42758,11.40072Q7.35877,11.47085,7.28341,11.5339Q7.20806,11.59695,7.12689,11.65231Q7.04571,11.70767,6.95951,11.754809999999999Q6.8733,11.80194,6.78288,11.84041ZM8,10Q8,10.0982537,7.99037,10.196034Q7.98074,10.293815,7.96157,10.390181Q7.9424,10.486546,7.91388,10.580569Q7.88536,10.674592,7.84776,10.765367Q7.81016,10.856141000000001,7.76384,10.942793Q7.71753,11.02945,7.66294,11.11114Q7.60835,11.19284,7.54602,11.26879Q7.48369,11.34474,7.41421,11.41421Q7.34474,11.48369,7.26879,11.54602Q7.19283,11.60835,7.11114,11.66294Q7.02945,11.71753,6.94279,11.76384Q6.85614,11.81016,6.76537,11.847760000000001Q6.67459,11.88536,6.58057,11.91388Q6.48655,11.9424,6.39018,11.96157Q6.29382,11.98074,6.19603,11.99037Q6.09825,12,6,12Q5.90175,12,5.80397,11.99037Q5.70618,11.98074,5.60982,11.96157Q5.513450000000001,11.9424,5.41943,11.91388Q5.32541,11.88536,5.23463,11.847760000000001Q5.14386,11.81016,5.0572099999999995,11.76384Q4.970549999999999,11.71753,4.88886,11.66294Q4.80716,11.60835,4.73121,11.54602Q4.65526,11.48369,4.585789999999999,11.41421Q4.51631,11.34474,4.45398,11.26879Q4.39165,11.19284,4.33706,11.11114Q4.28247,11.02945,4.23616,10.942793Q4.18984,10.856141000000001,4.15224,10.765367Q4.11464,10.674592,4.08612,10.580569Q4.0576,10.486546,4.03843,10.390181Q4.01926,10.293815,4.00963,10.196034Q4,10.0982537,4,10Q4,9.9017463,4.00963,9.803966Q4.01926,9.706185,4.03843,9.609819Q4.0576,9.513454,4.08612,9.419431Q4.11464,9.325408,4.15224,9.234633Q4.18984,9.143858999999999,4.23616,9.057207Q4.28247,8.97055,4.33706,8.88886Q4.39165,8.80716,4.45398,8.73121Q4.51631,8.65526,4.585789999999999,8.58579Q4.65526,8.51631,4.73121,8.45398Q4.80716,8.39165,4.88886,8.33706Q4.970549999999999,8.28247,5.0572099999999995,8.23616Q5.14386,8.18984,5.23463,8.152239999999999Q5.32541,8.11464,5.41943,8.08612Q5.513450000000001,8.0576,5.60982,8.03843Q5.70618,8.01926,5.80397,8.00963Q5.90175,8,6,8Q6.09825,8,6.19603,8.00963Q6.29382,8.01926,6.39018,8.03843Q6.48655,8.0576,6.58057,8.08612Q6.67459,8.11464,6.76537,8.152239999999999Q6.85614,8.18984,6.94279,8.23616Q7.02945,8.28247,7.11114,8.33706Q7.19283,8.39165,7.26879,8.45398Q7.34474,8.51631,7.41421,8.58579Q7.48369,8.65526,7.54602,8.73121Q7.60835,8.80716,7.66294,8.88886Q7.71753,8.97055,7.76384,9.057207Q7.81016,9.143858999999999,7.84776,9.234633Q7.88536,9.325408,7.91388,9.419431Q7.9424,9.513454,7.96157,9.609819Q7.98074,9.706185,7.99037,9.803966Q8,9.9017463,8,10ZM4,12Q4,12.09825,3.99037,12.19603Q3.98074,12.29381,3.96157,12.39018Q3.9424,12.48655,3.91388,12.58057Q3.88536,12.67459,3.84776,12.76537Q3.8101599999999998,12.85614,3.76384,12.94279Q3.71753,13.02945,3.66294,13.111139999999999Q3.6083499999999997,13.19284,3.54602,13.26879Q3.48369,13.34474,3.4142099999999997,13.41421Q3.34474,13.48369,3.26879,13.54602Q3.19284,13.60835,3.11114,13.662939999999999Q3.0294499999999998,13.71753,2.942793,13.76384Q2.856141,13.81016,2.765367,13.847760000000001Q2.674592,13.88536,2.580569,13.913879999999999Q2.486546,13.9424,2.390181,13.96157Q2.293815,13.98074,2.196034,13.99037Q2.0982537,14,2,14Q1.9017463000000001,14,1.803966,13.99037Q1.706185,13.98074,1.6098189999999999,13.96157Q1.513454,13.9424,1.4194309999999999,13.913879999999999Q1.325408,13.88536,1.234633,13.847760000000001Q1.143859,13.81016,1.057207,13.76384Q0.97055,13.71753,0.88886,13.662939999999999Q0.8071600000000001,13.60835,0.7312099999999999,13.54602Q0.65526,13.48369,0.58579,13.41421Q0.51631,13.34474,0.45398000000000005,13.26879Q0.39165000000000005,13.19284,0.3370599999999999,13.111139999999999Q0.28247,13.02945,0.23615999999999993,12.94279Q0.18984,12.85614,0.15223999999999993,12.76537Q0.11464000000000008,12.67459,0.08611999999999997,12.58057Q0.057600000000000096,12.48655,0.038429999999999964,12.39018Q0.019260000000000055,12.29381,0.009630000000000027,12.19603Q0,12.09825,0,12Q0,11.90175,0.009630000000000027,11.80397Q0.019260000000000055,11.70619,0.038429999999999964,11.60982Q0.057600000000000096,11.51345,0.08611999999999997,11.41943Q0.11464000000000008,11.32541,0.15223999999999993,11.23463Q0.18984,11.14386,0.23615999999999993,11.05721Q0.28247,10.970554,0.3370599999999999,10.888859Q0.39165000000000005,10.807164,0.45398000000000005,10.731213Q0.51631,10.655262,0.58579,10.585786Q0.65526,10.516311,0.7312099999999999,10.453979Q0.8071600000000001,10.391648,0.88886,10.337061Q0.97055,10.282474,1.057207,10.236157Q1.143859,10.189841,1.234633,10.152241Q1.325408,10.114641,1.4194309999999999,10.0861193Q1.513454,10.0575978,1.6098189999999999,10.0384294Q1.706185,10.0192611,1.803966,10.00963055Q1.9017463000000001,10,2,10Q2.0982537,10,2.196034,10.00963055Q2.293815,10.0192611,2.390181,10.0384294Q2.486546,10.0575978,2.580569,10.0861193Q2.674592,10.114641,2.765367,10.152241Q2.856141,10.189841,2.942793,10.236157Q3.0294499999999998,10.282474,3.11114,10.337061Q3.19284,10.391648,3.26879,10.453979Q3.34474,10.516311,3.4142099999999997,10.585786Q3.48369,10.655262,3.54602,10.731213Q3.6083499999999997,10.807164,3.66294,10.888859Q3.71753,10.970554,3.76384,11.05721Q3.8101599999999998,11.14386,3.84776,11.23463Q3.88536,11.32541,3.91388,11.41943Q3.9424,11.51345,3.96157,11.60982Q3.98074,11.70619,3.99037,11.80397Q4,11.90175,4,12Z" fill="#FFFFFF" fill-opacity="1"/></g></g></svg>