<svg xmlns="http://www.w3.org/2000/svg" xmlns:xlink="http://www.w3.org/1999/xlink" fill="none" version="1.1" width="21" height="21" viewBox="0 0 21 21"><defs><clipPath id="master_svg0_117_0150"><rect x="0" y="0" width="21" height="21" rx="0"/></clipPath></defs><g clip-path="url(#master_svg0_117_0150)"><g><path d="M1.4375,17.5L1.4375,8.3125Q1.4375,8.2386315,1.451911,8.166182Q1.466322,8.093733,1.49459,8.025487Q1.522859,7.957242,1.563898,7.895822Q1.604937,7.834403,1.65717,7.78217Q1.709403,7.729937,1.770822,7.688898Q1.832242,7.647859,1.900487,7.61959Q1.968733,7.591322,2.041182,7.576911Q2.1136315,7.5625,2.1875,7.5625L18.8125,7.5625Q18.8864,7.5625,18.9588,7.576911Q19.0313,7.591322,19.0995,7.61959Q19.1678,7.647859,19.2292,7.688898Q19.2906,7.729937,19.3428,7.78217Q19.3951,7.834403,19.4361,7.895822Q19.4771,7.957242,19.5054,8.025487Q19.5337,8.093733,19.5481,8.166182Q19.5625,8.2386315,19.5625,8.3125L19.5625,17.5Q19.5625,18.17311,19.0866,18.6491Q18.6106,19.125,17.9375,19.125L3.0625,19.125Q2.389403,19.125,1.913454,18.6491Q1.4375,18.17311,1.4375,17.5L1.4375,17.5ZM2.9375,17.5Q2.9375,17.625,3.0625,17.625L17.9375,17.625Q18.0625,17.625,18.0625,17.5L18.0625,8.3125L18.8125,8.3125L18.8125,9.0625L2.1875,9.0625L2.1875,8.3125L2.9375,8.3125L2.9375,17.5L2.9375,17.5Z" fill="#FFFFFF" fill-opacity="1"/></g><g><path d="M1.4375,8.3125L1.4375,3.9375Q1.4375,3.264403,1.913451,2.7884510000000002Q2.389403,2.3125,3.0625,2.3125L17.9375,2.3125Q18.6106,2.3125,19.0866,2.7884539999999998Q19.5625,3.264404,19.5625,3.9375L19.5625,8.3125Q19.5625,8.38637,19.5481,8.45882Q19.5337,8.53127,19.5054,8.59951Q19.4771,8.667760000000001,19.4361,8.72918Q19.3951,8.790600000000001,19.3428,8.84283Q19.2906,8.89506,19.2292,8.9361Q19.1678,8.97714,19.0995,9.005410000000001Q19.0313,9.03368,18.9588,9.04809Q18.8864,9.0625,18.8125,9.0625L2.1875,9.0625Q2.1136315,9.0625,2.041182,9.04809Q1.968733,9.03368,1.900487,9.005410000000001Q1.832242,8.97714,1.770822,8.9361Q1.709403,8.89506,1.65717,8.84283Q1.604937,8.790600000000001,1.563898,8.72918Q1.522859,8.667760000000001,1.49459,8.59951Q1.466322,8.53127,1.451911,8.45882Q1.4375,8.38637,1.4375,8.3125ZM2.9375,8.3125L2.1875,8.3125L2.1875,7.5625L18.8125,7.5625L18.8125,8.3125L18.0625,8.3125L18.0625,3.9375Q18.0625,3.8125,17.9375,3.8125L3.0625,3.8125Q2.9375,3.8125,2.9375,3.9375L2.9375,8.3125Z" fill="#FFFFFF" fill-opacity="1"/></g><g><path d="M6.25,5.25L6.25,1.75Q6.25,1.6761314999999999,6.264411,1.603682Q6.278822,1.531233,6.30709,1.462987Q6.335359,1.394742,6.376398,1.333322Q6.417437,1.271903,6.46967,1.21967Q6.521903,1.167437,6.583322,1.126398Q6.644742,1.085359,6.712987,1.05709Q6.781233,1.028822,6.853682,1.014411Q6.9261315,1,7,1Q7.0738685,1,7.146318,1.014411Q7.218767,1.028822,7.287013,1.05709Q7.355258,1.085359,7.416678,1.126398Q7.478097,1.167437,7.53033,1.21967Q7.582563,1.271903,7.623602,1.333322Q7.664641,1.394742,7.69291,1.462987Q7.721178,1.531233,7.735589,1.603682Q7.75,1.6761314999999999,7.75,1.75L7.75,5.25Q7.75,5.323869999999999,7.735589,5.396319999999999Q7.721178,5.46877,7.69291,5.53701Q7.664641,5.6052599999999995,7.623602,5.6666799999999995Q7.582563,5.7280999999999995,7.53033,5.78033Q7.478097,5.83256,7.416678,5.8736Q7.355258,5.91464,7.287013,5.94291Q7.218767,5.97118,7.146318,5.98559Q7.0738685,6,7,6Q6.9261315,6,6.853682,5.98559Q6.781233,5.97118,6.712987,5.94291Q6.644742,5.91464,6.583322,5.8736Q6.521903,5.83256,6.46967,5.78033Q6.417437,5.7280999999999995,6.376398,5.6666799999999995Q6.335359,5.6052599999999995,6.30709,5.53701Q6.278822,5.46877,6.264411,5.396319999999999Q6.25,5.323869999999999,6.25,5.25ZM7.75,5.25Q7.75,5.323869999999999,7.735589,5.396319999999999Q7.721178,5.46877,7.69291,5.53701Q7.664641,5.6052599999999995,7.623602,5.6666799999999995Q7.582563,5.7280999999999995,7.53033,5.78033Q7.478097,5.83256,7.416678,5.8736Q7.355258,5.91464,7.287013,5.94291Q7.218767,5.97118,7.146318,5.98559Q7.0738685,6,7,6Q6.9261315,6,6.853682,5.98559Q6.781233,5.97118,6.712987,5.94291Q6.644742,5.91464,6.583322,5.8736Q6.521903,5.83256,6.46967,5.78033Q6.417437,5.7280999999999995,6.376398,5.6666799999999995Q6.335359,5.6052599999999995,6.30709,5.53701Q6.278822,5.46877,6.264411,5.396319999999999Q6.25,5.323869999999999,6.25,5.25Q6.25,5.176130000000001,6.264411,5.103680000000001Q6.278822,5.03123,6.30709,4.96299Q6.335359,4.8947400000000005,6.376398,4.8333200000000005Q6.417437,4.7719000000000005,6.46967,4.71967Q6.521903,4.66744,6.583322,4.6264Q6.644742,4.58536,6.712987,4.5570900000000005Q6.781233,4.52882,6.853682,4.51441Q6.9261315,4.5,7,4.5Q7.0738685,4.5,7.146318,4.51441Q7.218767,4.52882,7.287013,4.5570900000000005Q7.355258,4.58536,7.416678,4.6264Q7.478097,4.66744,7.53033,4.71967Q7.582563,4.7719000000000005,7.623602,4.8333200000000005Q7.664641,4.8947400000000005,7.69291,4.96299Q7.721178,5.03123,7.735589,5.103680000000001Q7.75,5.176130000000001,7.75,5.25ZM7.75,1.75Q7.75,1.8238685000000001,7.735589,1.896318Q7.721178,1.968767,7.69291,2.037013Q7.664641,2.105258,7.623602,2.166678Q7.582563,2.228097,7.53033,2.28033Q7.478097,2.332563,7.416678,2.373602Q7.355258,2.414641,7.287013,2.44291Q7.218767,2.471178,7.146318,2.485589Q7.0738685,2.5,7,2.5Q6.9261315,2.5,6.853682,2.485589Q6.781233,2.471178,6.712987,2.44291Q6.644742,2.414641,6.583322,2.373602Q6.521903,2.332563,6.46967,2.28033Q6.417437,2.228097,6.376398,2.166678Q6.335359,2.105258,6.30709,2.037013Q6.278822,1.968767,6.264411,1.896318Q6.25,1.8238685000000001,6.25,1.75Q6.25,1.6761314999999999,6.264411,1.603682Q6.278822,1.531233,6.30709,1.462987Q6.335359,1.394742,6.376398,1.333322Q6.417437,1.271903,6.46967,1.21967Q6.521903,1.167437,6.583322,1.126398Q6.644742,1.085359,6.712987,1.05709Q6.781233,1.028822,6.853682,1.014411Q6.9261315,1,7,1Q7.0738685,1,7.146318,1.014411Q7.218767,1.028822,7.287013,1.05709Q7.355258,1.085359,7.416678,1.126398Q7.478097,1.167437,7.53033,1.21967Q7.582563,1.271903,7.623602,1.333322Q7.664641,1.394742,7.69291,1.462987Q7.721178,1.531233,7.735589,1.603682Q7.75,1.6761314999999999,7.75,1.75Z" fill="#FFFFFF" fill-opacity="1"/></g><g><path d="M13.25,5.25L13.25,1.75Q13.25,1.6761314999999999,13.264410999999999,1.603682Q13.278822,1.531233,13.30709,1.462987Q13.335359,1.394742,13.376398,1.333322Q13.417437,1.271903,13.46967,1.21967Q13.521903,1.167437,13.583322,1.126398Q13.644742,1.085359,13.712987,1.05709Q13.781233,1.028822,13.853682,1.014411Q13.9261315,1,14,1Q14.0738685,1,14.146318,1.014411Q14.218767,1.028822,14.287013,1.05709Q14.355258,1.085359,14.416678,1.126398Q14.478097,1.167437,14.53033,1.21967Q14.582563,1.271903,14.623602,1.333322Q14.664641,1.394742,14.69291,1.462987Q14.721178,1.531233,14.735589000000001,1.603682Q14.75,1.6761314999999999,14.75,1.75L14.75,5.25Q14.75,5.323869999999999,14.735589000000001,5.396319999999999Q14.721178,5.46877,14.69291,5.53701Q14.664641,5.6052599999999995,14.623602,5.6666799999999995Q14.582563,5.7280999999999995,14.53033,5.78033Q14.478097,5.83256,14.416678,5.8736Q14.355258,5.91464,14.287013,5.94291Q14.218767,5.97118,14.146318,5.98559Q14.0738685,6,14,6Q13.9261315,6,13.853682,5.98559Q13.781233,5.97118,13.712987,5.94291Q13.644742,5.91464,13.583322,5.8736Q13.521903,5.83256,13.46967,5.78033Q13.417437,5.7280999999999995,13.376398,5.6666799999999995Q13.335359,5.6052599999999995,13.30709,5.53701Q13.278822,5.46877,13.264410999999999,5.396319999999999Q13.25,5.323869999999999,13.25,5.25ZM14.75,5.25Q14.75,5.323869999999999,14.735589000000001,5.396319999999999Q14.721178,5.46877,14.69291,5.53701Q14.664641,5.6052599999999995,14.623602,5.6666799999999995Q14.582563,5.7280999999999995,14.53033,5.78033Q14.478097,5.83256,14.416678,5.8736Q14.355258,5.91464,14.287013,5.94291Q14.218767,5.97118,14.146318,5.98559Q14.0738685,6,14,6Q13.9261315,6,13.853682,5.98559Q13.781233,5.97118,13.712987,5.94291Q13.644742,5.91464,13.583322,5.8736Q13.521903,5.83256,13.46967,5.78033Q13.417437,5.7280999999999995,13.376398,5.6666799999999995Q13.335359,5.6052599999999995,13.30709,5.53701Q13.278822,5.46877,13.264410999999999,5.396319999999999Q13.25,5.323869999999999,13.25,5.25Q13.25,5.176130000000001,13.264410999999999,5.103680000000001Q13.278822,5.03123,13.30709,4.96299Q13.335359,4.8947400000000005,13.376398,4.8333200000000005Q13.417437,4.7719000000000005,13.46967,4.71967Q13.521903,4.66744,13.583322,4.6264Q13.644742,4.58536,13.712987,4.5570900000000005Q13.781233,4.52882,13.853682,4.51441Q13.9261315,4.5,14,4.5Q14.0738685,4.5,14.146318,4.51441Q14.218767,4.52882,14.287013,4.5570900000000005Q14.355258,4.58536,14.416678,4.6264Q14.478097,4.66744,14.53033,4.71967Q14.582563,4.7719000000000005,14.623602,4.8333200000000005Q14.664641,4.8947400000000005,14.69291,4.96299Q14.721178,5.03123,14.735589000000001,5.103680000000001Q14.75,5.176130000000001,14.75,5.25ZM14.75,1.75Q14.75,1.8238685000000001,14.735589000000001,1.896318Q14.721178,1.968767,14.69291,2.037013Q14.664641,2.105258,14.623602,2.166678Q14.582563,2.228097,14.53033,2.28033Q14.478097,2.332563,14.416678,2.373602Q14.355258,2.414641,14.287013,2.44291Q14.218767,2.471178,14.146318,2.485589Q14.0738685,2.5,14,2.5Q13.9261315,2.5,13.853682,2.485589Q13.781233,2.471178,13.712987,2.44291Q13.644742,2.414641,13.583322,2.373602Q13.521903,2.332563,13.46967,2.28033Q13.417437,2.228097,13.376398,2.166678Q13.335359,2.105258,13.30709,2.037013Q13.278822,1.968767,13.264410999999999,1.896318Q13.25,1.8238685000000001,13.25,1.75Q13.25,1.6761314999999999,13.264410999999999,1.603682Q13.278822,1.531233,13.30709,1.462987Q13.335359,1.394742,13.376398,1.333322Q13.417437,1.271903,13.46967,1.21967Q13.521903,1.167437,13.583322,1.126398Q13.644742,1.085359,13.712987,1.05709Q13.781233,1.028822,13.853682,1.014411Q13.9261315,1,14,1Q14.0738685,1,14.146318,1.014411Q14.218767,1.028822,14.287013,1.05709Q14.355258,1.085359,14.416678,1.126398Q14.478097,1.167437,14.53033,1.21967Q14.582563,1.271903,14.623602,1.333322Q14.664641,1.394742,14.69291,1.462987Q14.721178,1.531233,14.735589000000001,1.603682Q14.75,1.6761314999999999,14.75,1.75Z" fill="#FFFFFF" fill-opacity="1"/></g><g><path d="M14.875,15.625L12.25,15.625Q12.1761315,15.625,12.103682,15.610589000000001Q12.031233,15.596178,11.962987,15.56791Q11.894742,15.539641,11.833322,15.498602Q11.771903,15.457563,11.71967,15.40533Q11.667437,15.353097,11.626398,15.291678Q11.585359,15.230258,11.55709,15.162013Q11.528822,15.093767,11.514410999999999,15.021318Q11.5,14.9488685,11.5,14.875Q11.5,14.8011315,11.514410999999999,14.728682Q11.528822,14.656233,11.55709,14.587987Q11.585359,14.519742,11.626398,14.458322Q11.667437,14.396903,11.71967,14.34467Q11.771903,14.292437,11.833322,14.251398Q11.894742,14.210359,11.962987,14.18209Q12.031233,14.153822,12.103682,14.139410999999999Q12.1761315,14.125,12.25,14.125L14.875,14.125Q14.94887,14.125,15.02132,14.139410999999999Q15.09377,14.153822,15.16201,14.18209Q15.23026,14.210359,15.29168,14.251398Q15.3531,14.292437,15.40533,14.34467Q15.45756,14.396903,15.4986,14.458322Q15.53964,14.519742,15.56791,14.587987Q15.59618,14.656233,15.61059,14.728682Q15.625,14.8011315,15.625,14.875Q15.625,14.9488685,15.61059,15.021318Q15.59618,15.093767,15.56791,15.162013Q15.53964,15.230258,15.4986,15.291678Q15.45756,15.353097,15.40533,15.40533Q15.3531,15.457563,15.29168,15.498602Q15.23026,15.539641,15.16201,15.56791Q15.09377,15.596178,15.02132,15.610589000000001Q14.94887,15.625,14.875,15.625ZM15.625,14.875Q15.625,14.9488685,15.61059,15.021318Q15.59618,15.093767,15.56791,15.162013Q15.53964,15.230258,15.4986,15.291678Q15.45756,15.353097,15.40533,15.40533Q15.3531,15.457563,15.29168,15.498602Q15.23026,15.539641,15.16201,15.56791Q15.09377,15.596178,15.02132,15.610589000000001Q14.94887,15.625,14.875,15.625Q14.80113,15.625,14.72868,15.610589000000001Q14.65623,15.596178,14.58799,15.56791Q14.51974,15.539641,14.45832,15.498602Q14.3969,15.457563,14.34467,15.40533Q14.29244,15.353097,14.2514,15.291678Q14.21036,15.230258,14.18209,15.162013Q14.15382,15.093767,14.13941,15.021318Q14.125,14.9488685,14.125,14.875Q14.125,14.8011315,14.13941,14.728682Q14.15382,14.656233,14.18209,14.587987Q14.21036,14.519742,14.2514,14.458322Q14.29244,14.396903,14.34467,14.34467Q14.3969,14.292437,14.45832,14.251398Q14.51974,14.210359,14.58799,14.18209Q14.65623,14.153822,14.72868,14.139410999999999Q14.80113,14.125,14.875,14.125Q14.94887,14.125,15.02132,14.139410999999999Q15.09377,14.153822,15.16201,14.18209Q15.23026,14.210359,15.29168,14.251398Q15.3531,14.292437,15.40533,14.34467Q15.45756,14.396903,15.4986,14.458322Q15.53964,14.519742,15.56791,14.587987Q15.59618,14.656233,15.61059,14.728682Q15.625,14.8011315,15.625,14.875ZM13,14.875Q13,14.9488685,12.985589000000001,15.021318Q12.971178,15.093767,12.94291,15.162013Q12.914641,15.230258,12.873602,15.291678Q12.832563,15.353097,12.78033,15.40533Q12.728097,15.457563,12.666678,15.498602Q12.605258,15.539641,12.537013,15.56791Q12.468767,15.596178,12.396318,15.610589000000001Q12.3238685,15.625,12.25,15.625Q12.1761315,15.625,12.103682,15.610589000000001Q12.031233,15.596178,11.962987,15.56791Q11.894742,15.539641,11.833322,15.498602Q11.771903,15.457563,11.71967,15.40533Q11.667437,15.353097,11.626398,15.291678Q11.585359,15.230258,11.55709,15.162013Q11.528822,15.093767,11.514410999999999,15.021318Q11.5,14.9488685,11.5,14.875Q11.5,14.8011315,11.514410999999999,14.728682Q11.528822,14.656233,11.55709,14.587987Q11.585359,14.519742,11.626398,14.458322Q11.667437,14.396903,11.71967,14.34467Q11.771903,14.292437,11.833322,14.251398Q11.894742,14.210359,11.962987,14.18209Q12.031233,14.153822,12.103682,14.139410999999999Q12.1761315,14.125,12.25,14.125Q12.3238685,14.125,12.396318,14.139410999999999Q12.468767,14.153822,12.537013,14.18209Q12.605258,14.210359,12.666678,14.251398Q12.728097,14.292437,12.78033,14.34467Q12.832563,14.396903,12.873602,14.458322Q12.914641,14.519742,12.94291,14.587987Q12.971178,14.656233,12.985589000000001,14.728682Q13,14.8011315,13,14.875Z" fill="#FFFFFF" fill-opacity="1"/></g><g><path d="M8.75,15.625L6.125,15.625Q6.0511315,15.625,5.978682,15.610589000000001Q5.906233,15.596178,5.837987,15.56791Q5.769742,15.539641,5.708322,15.498602Q5.646903,15.457563,5.59467,15.40533Q5.542437,15.353097,5.501398,15.291678Q5.460359,15.230258,5.43209,15.162013Q5.403822,15.093767,5.389411,15.021318Q5.375,14.9488685,5.375,14.875Q5.375,14.8011315,5.389411,14.728682Q5.403822,14.656233,5.43209,14.587987Q5.460359,14.519742,5.501398,14.458322Q5.542437,14.396903,5.59467,14.34467Q5.646903,14.292437,5.708322,14.251398Q5.769742,14.210359,5.837987,14.18209Q5.906233,14.153822,5.978682,14.139410999999999Q6.0511315,14.125,6.125,14.125L8.75,14.125Q8.82387,14.125,8.89632,14.139410999999999Q8.96877,14.153822,9.03701,14.18209Q9.10526,14.210359,9.16668,14.251398Q9.2281,14.292437,9.28033,14.34467Q9.33256,14.396903,9.3736,14.458322Q9.41464,14.519742,9.44291,14.587987Q9.47118,14.656233,9.48559,14.728682Q9.5,14.8011315,9.5,14.875Q9.5,14.9488685,9.48559,15.021318Q9.47118,15.093767,9.44291,15.162013Q9.41464,15.230258,9.3736,15.291678Q9.33256,15.353097,9.28033,15.40533Q9.2281,15.457563,9.16668,15.498602Q9.10526,15.539641,9.03701,15.56791Q8.96877,15.596178,8.89632,15.610589000000001Q8.82387,15.625,8.75,15.625ZM9.5,14.875Q9.5,14.9488685,9.48559,15.021318Q9.47118,15.093767,9.44291,15.162013Q9.41464,15.230258,9.3736,15.291678Q9.33256,15.353097,9.28033,15.40533Q9.2281,15.457563,9.16668,15.498602Q9.10526,15.539641,9.03701,15.56791Q8.96877,15.596178,8.89632,15.610589000000001Q8.82387,15.625,8.75,15.625Q8.67613,15.625,8.60368,15.610589000000001Q8.53123,15.596178,8.46299,15.56791Q8.39474,15.539641,8.33332,15.498602Q8.2719,15.457563,8.21967,15.40533Q8.16744,15.353097,8.1264,15.291678Q8.08536,15.230258,8.05709,15.162013Q8.02882,15.093767,8.01441,15.021318Q8,14.9488685,8,14.875Q8,14.8011315,8.01441,14.728682Q8.02882,14.656233,8.05709,14.587987Q8.08536,14.519742,8.1264,14.458322Q8.16744,14.396903,8.21967,14.34467Q8.2719,14.292437,8.33332,14.251398Q8.39474,14.210359,8.46299,14.18209Q8.53123,14.153822,8.60368,14.139410999999999Q8.67613,14.125,8.75,14.125Q8.82387,14.125,8.89632,14.139410999999999Q8.96877,14.153822,9.03701,14.18209Q9.10526,14.210359,9.16668,14.251398Q9.2281,14.292437,9.28033,14.34467Q9.33256,14.396903,9.3736,14.458322Q9.41464,14.519742,9.44291,14.587987Q9.47118,14.656233,9.48559,14.728682Q9.5,14.8011315,9.5,14.875ZM6.875,14.875Q6.875,14.9488685,6.860589,15.021318Q6.846178,15.093767,6.81791,15.162013Q6.789641,15.230258,6.748602,15.291678Q6.707563,15.353097,6.65533,15.40533Q6.603097,15.457563,6.541678,15.498602Q6.480258,15.539641,6.412013,15.56791Q6.343767,15.596178,6.271318,15.610589000000001Q6.1988685,15.625,6.125,15.625Q6.0511315,15.625,5.978682,15.610589000000001Q5.906233,15.596178,5.837987,15.56791Q5.769742,15.539641,5.708322,15.498602Q5.646903,15.457563,5.59467,15.40533Q5.542437,15.353097,5.501398,15.291678Q5.460359,15.230258,5.43209,15.162013Q5.403822,15.093767,5.389411,15.021318Q5.375,14.9488685,5.375,14.875Q5.375,14.8011315,5.389411,14.728682Q5.403822,14.656233,5.43209,14.587987Q5.460359,14.519742,5.501398,14.458322Q5.542437,14.396903,5.59467,14.34467Q5.646903,14.292437,5.708322,14.251398Q5.769742,14.210359,5.837987,14.18209Q5.906233,14.153822,5.978682,14.139410999999999Q6.0511315,14.125,6.125,14.125Q6.1988685,14.125,6.271318,14.139410999999999Q6.343767,14.153822,6.412013,14.18209Q6.480258,14.210359,6.541678,14.251398Q6.603097,14.292437,6.65533,14.34467Q6.707563,14.396903,6.748602,14.458322Q6.789641,14.519742,6.81791,14.587987Q6.846178,14.656233,6.860589,14.728682Q6.875,14.8011315,6.875,14.875Z" fill="#FFFFFF" fill-opacity="1"/></g><g><path d="M14.875,12.125L12.25,12.125Q12.1761315,12.125,12.103682,12.110589000000001Q12.031233,12.096178,11.962987,12.06791Q11.894742,12.039641,11.833322,11.998602Q11.771903,11.957563,11.71967,11.90533Q11.667437,11.853097,11.626398,11.791678Q11.585359,11.730258,11.55709,11.662013Q11.528822,11.593767,11.514410999999999,11.521318Q11.5,11.4488685,11.5,11.375Q11.5,11.3011315,11.514410999999999,11.228682Q11.528822,11.156233,11.55709,11.087987Q11.585359,11.019742,11.626398,10.958322Q11.667437,10.896903,11.71967,10.84467Q11.771903,10.792437,11.833322,10.751398Q11.894742,10.710359,11.962987,10.68209Q12.031233,10.653822,12.103682,10.639410999999999Q12.1761315,10.625,12.25,10.625L14.875,10.625Q14.94887,10.625,15.02132,10.639410999999999Q15.09377,10.653822,15.16201,10.68209Q15.23026,10.710359,15.29168,10.751398Q15.3531,10.792437,15.40533,10.84467Q15.45756,10.896903,15.4986,10.958322Q15.53964,11.019742,15.56791,11.087987Q15.59618,11.156233,15.61059,11.228682Q15.625,11.3011315,15.625,11.375Q15.625,11.4488685,15.61059,11.521318Q15.59618,11.593767,15.56791,11.662013Q15.53964,11.730258,15.4986,11.791678Q15.45756,11.853097,15.40533,11.90533Q15.3531,11.957563,15.29168,11.998602Q15.23026,12.039641,15.16201,12.06791Q15.09377,12.096178,15.02132,12.110589000000001Q14.94887,12.125,14.875,12.125ZM15.625,11.375Q15.625,11.4488685,15.61059,11.521318Q15.59618,11.593767,15.56791,11.662013Q15.53964,11.730258,15.4986,11.791678Q15.45756,11.853097,15.40533,11.90533Q15.3531,11.957563,15.29168,11.998602Q15.23026,12.039641,15.16201,12.06791Q15.09377,12.096178,15.02132,12.110589000000001Q14.94887,12.125,14.875,12.125Q14.80113,12.125,14.72868,12.110589000000001Q14.65623,12.096178,14.58799,12.06791Q14.51974,12.039641,14.45832,11.998602Q14.3969,11.957563,14.34467,11.90533Q14.29244,11.853097,14.2514,11.791678Q14.21036,11.730258,14.18209,11.662013Q14.15382,11.593767,14.13941,11.521318Q14.125,11.4488685,14.125,11.375Q14.125,11.3011315,14.13941,11.228682Q14.15382,11.156233,14.18209,11.087987Q14.21036,11.019742,14.2514,10.958322Q14.29244,10.896903,14.34467,10.84467Q14.3969,10.792437,14.45832,10.751398Q14.51974,10.710359,14.58799,10.68209Q14.65623,10.653822,14.72868,10.639410999999999Q14.80113,10.625,14.875,10.625Q14.94887,10.625,15.02132,10.639410999999999Q15.09377,10.653822,15.16201,10.68209Q15.23026,10.710359,15.29168,10.751398Q15.3531,10.792437,15.40533,10.84467Q15.45756,10.896903,15.4986,10.958322Q15.53964,11.019742,15.56791,11.087987Q15.59618,11.156233,15.61059,11.228682Q15.625,11.3011315,15.625,11.375ZM13,11.375Q13,11.4488685,12.985589000000001,11.521318Q12.971178,11.593767,12.94291,11.662013Q12.914641,11.730258,12.873602,11.791678Q12.832563,11.853097,12.78033,11.90533Q12.728097,11.957563,12.666678,11.998602Q12.605258,12.039641,12.537013,12.06791Q12.468767,12.096178,12.396318,12.110589000000001Q12.3238685,12.125,12.25,12.125Q12.1761315,12.125,12.103682,12.110589000000001Q12.031233,12.096178,11.962987,12.06791Q11.894742,12.039641,11.833322,11.998602Q11.771903,11.957563,11.71967,11.90533Q11.667437,11.853097,11.626398,11.791678Q11.585359,11.730258,11.55709,11.662013Q11.528822,11.593767,11.514410999999999,11.521318Q11.5,11.4488685,11.5,11.375Q11.5,11.3011315,11.514410999999999,11.228682Q11.528822,11.156233,11.55709,11.087987Q11.585359,11.019742,11.626398,10.958322Q11.667437,10.896903,11.71967,10.84467Q11.771903,10.792437,11.833322,10.751398Q11.894742,10.710359,11.962987,10.68209Q12.031233,10.653822,12.103682,10.639410999999999Q12.1761315,10.625,12.25,10.625Q12.3238685,10.625,12.396318,10.639410999999999Q12.468767,10.653822,12.537013,10.68209Q12.605258,10.710359,12.666678,10.751398Q12.728097,10.792437,12.78033,10.84467Q12.832563,10.896903,12.873602,10.958322Q12.914641,11.019742,12.94291,11.087987Q12.971178,11.156233,12.985589000000001,11.228682Q13,11.3011315,13,11.375Z" fill="#FFFFFF" fill-opacity="1"/></g><g><path d="M8.75,12.125L6.125,12.125Q6.0511315,12.125,5.978682,12.110589000000001Q5.906233,12.096178,5.837987,12.06791Q5.769742,12.039641,5.708322,11.998602Q5.646903,11.957563,5.59467,11.90533Q5.542437,11.853097,5.501398,11.791678Q5.460359,11.730258,5.43209,11.662013Q5.403822,11.593767,5.389411,11.521318Q5.375,11.4488685,5.375,11.375Q5.375,11.3011315,5.389411,11.228682Q5.403822,11.156233,5.43209,11.087987Q5.460359,11.019742,5.501398,10.958322Q5.542437,10.896903,5.59467,10.84467Q5.646903,10.792437,5.708322,10.751398Q5.769742,10.710359,5.837987,10.68209Q5.906233,10.653822,5.978682,10.639410999999999Q6.0511315,10.625,6.125,10.625L8.75,10.625Q8.82387,10.625,8.89632,10.639410999999999Q8.96877,10.653822,9.03701,10.68209Q9.10526,10.710359,9.16668,10.751398Q9.2281,10.792437,9.28033,10.84467Q9.33256,10.896903,9.3736,10.958322Q9.41464,11.019742,9.44291,11.087987Q9.47118,11.156233,9.48559,11.228682Q9.5,11.3011315,9.5,11.375Q9.5,11.4488685,9.48559,11.521318Q9.47118,11.593767,9.44291,11.662013Q9.41464,11.730258,9.3736,11.791678Q9.33256,11.853097,9.28033,11.90533Q9.2281,11.957563,9.16668,11.998602Q9.10526,12.039641,9.03701,12.06791Q8.96877,12.096178,8.89632,12.110589000000001Q8.82387,12.125,8.75,12.125ZM9.5,11.375Q9.5,11.4488685,9.48559,11.521318Q9.47118,11.593767,9.44291,11.662013Q9.41464,11.730258,9.3736,11.791678Q9.33256,11.853097,9.28033,11.90533Q9.2281,11.957563,9.16668,11.998602Q9.10526,12.039641,9.03701,12.06791Q8.96877,12.096178,8.89632,12.110589000000001Q8.82387,12.125,8.75,12.125Q8.67613,12.125,8.60368,12.110589000000001Q8.53123,12.096178,8.46299,12.06791Q8.39474,12.039641,8.33332,11.998602Q8.2719,11.957563,8.21967,11.90533Q8.16744,11.853097,8.1264,11.791678Q8.08536,11.730258,8.05709,11.662013Q8.02882,11.593767,8.01441,11.521318Q8,11.4488685,8,11.375Q8,11.3011315,8.01441,11.228682Q8.02882,11.156233,8.05709,11.087987Q8.08536,11.019742,8.1264,10.958322Q8.16744,10.896903,8.21967,10.84467Q8.2719,10.792437,8.33332,10.751398Q8.39474,10.710359,8.46299,10.68209Q8.53123,10.653822,8.60368,10.639410999999999Q8.67613,10.625,8.75,10.625Q8.82387,10.625,8.89632,10.639410999999999Q8.96877,10.653822,9.03701,10.68209Q9.10526,10.710359,9.16668,10.751398Q9.2281,10.792437,9.28033,10.84467Q9.33256,10.896903,9.3736,10.958322Q9.41464,11.019742,9.44291,11.087987Q9.47118,11.156233,9.48559,11.228682Q9.5,11.3011315,9.5,11.375ZM6.875,11.375Q6.875,11.4488685,6.860589,11.521318Q6.846178,11.593767,6.81791,11.662013Q6.789641,11.730258,6.748602,11.791678Q6.707563,11.853097,6.65533,11.90533Q6.603097,11.957563,6.541678,11.998602Q6.480258,12.039641,6.412013,12.06791Q6.343767,12.096178,6.271318,12.110589000000001Q6.1988685,12.125,6.125,12.125Q6.0511315,12.125,5.978682,12.110589000000001Q5.906233,12.096178,5.837987,12.06791Q5.769742,12.039641,5.708322,11.998602Q5.646903,11.957563,5.59467,11.90533Q5.542437,11.853097,5.501398,11.791678Q5.460359,11.730258,5.43209,11.662013Q5.403822,11.593767,5.389411,11.521318Q5.375,11.4488685,5.375,11.375Q5.375,11.3011315,5.389411,11.228682Q5.403822,11.156233,5.43209,11.087987Q5.460359,11.019742,5.501398,10.958322Q5.542437,10.896903,5.59467,10.84467Q5.646903,10.792437,5.708322,10.751398Q5.769742,10.710359,5.837987,10.68209Q5.906233,10.653822,5.978682,10.639410999999999Q6.0511315,10.625,6.125,10.625Q6.1988685,10.625,6.271318,10.639410999999999Q6.343767,10.653822,6.412013,10.68209Q6.480258,10.710359,6.541678,10.751398Q6.603097,10.792437,6.65533,10.84467Q6.707563,10.896903,6.748602,10.958322Q6.789641,11.019742,6.81791,11.087987Q6.846178,11.156233,6.860589,11.228682Q6.875,11.3011315,6.875,11.375Z" fill="#FFFFFF" fill-opacity="1"/></g></g></svg>