<svg xmlns="http://www.w3.org/2000/svg" xmlns:xlink="http://www.w3.org/1999/xlink" fill="none" version="1.1" width="52.250003814697266" height="52.882816314697266" viewBox="0 0 52.250003814697266 52.882816314697266"><g style="mix-blend-mode:passthrough"><path d="M49.75,38.0244L36.625,38.0244L36.625,33.0244L49.75,33.0244L49.75,38.0244ZM2.5,33.0244L13.4854,33.0244L27.0377,33.0244L36.8556,43.7975L35.0078,45.4814L32.540099999999995,45.0807L34.1573,35.1236L38.9922,2.137418L43.9361,2.884508L41.9206,15.8327L36.9801,15.0637L38.9955,2.115492L41.4658,2.5L43.9394,2.862582L39.0927,35.9252L36.6458,50.9903L24.0858,37.2084L25.9336,35.5244L25.9336,38.0244L13.4854,38.0244L2.5,38.0244L2.5,33.0244ZM11.0187,35.1174L14.3311,15.0412L16.5702,2.074583L21.4973,2.925417L19.2644,15.8552L15.952,35.9314L11.0187,35.1174ZM15.9402,35.9975L13.0769,50.8559L8.16723,49.9098L11.03052,35.0514L15.9402,35.9975ZM49.75,17.9482L39.4503,17.9482L2.5,17.9482L2.5,12.9482L16.797800000000002,12.9482L16.797800000000002,17.9482L2.5,17.9482L2.5,15.4482L2.5,12.9482L39.4503,12.9482L49.75,12.9482L49.75,17.9482Z" fill="#FFFFFF" fill-opacity="1"/></g></svg>