<svg xmlns="http://www.w3.org/2000/svg" xmlns:xlink="http://www.w3.org/1999/xlink" fill="none" version="1.1" width="21.125" height="11.75" viewBox="0 0 21.125 11.75"><g><path d="M1.722566,0.30869800000000003L11.0507,10.0587L10.32812,10.75L9.62272,10.0412L19.4196,0.2912Q19.4894,0.221723,19.5714,0.16720100000000004Q19.6534,0.11267799999999994,19.7445,0.075206Q19.8356,0.037733000000000017,19.9323,0.018750000000000044Q20.0289,-0.00022999999999995246,20.1274,0.0000029999999999752447Q20.2259,0.00023899999999998922,20.3224,0.01968599999999998Q20.419,0.039131999999999945,20.5099,0.07704100000000003Q20.6008,0.11495,20.6826,0.16986500000000004Q20.7643,0.22477999999999998,20.8338,0.29459100000000005Q20.9033,0.364402,20.9578,0.44642499999999996Q21.0123,0.528449,21.0498,0.619533Q21.0873,0.710618,21.1062,0.807262Q21.1252,0.903907,21.125,1.00239807Q21.1248,1.100889,21.1053,1.1974420000000001Q21.0859,1.293994,21.048,1.384898Q21.01,1.475801,20.9551,1.557562Q20.9002,1.639324,20.8304,1.7088L11.0335,11.4588Q11.0265,11.4658,11.0194,11.4726Q10.94826,11.5407,10.86518,11.5935Q10.78209,11.6464,10.69029,11.6821Q10.59848,11.7178,10.50148,11.7349Q10.40448,11.7519,10.30602,11.7498Q10.20755,11.7476,10.1114,11.7262Q10.01525,11.7049,9.92511,11.6652Q9.83497,11.6255,9.75431,11.569Q9.67365,11.5125,9.60556,11.4413L0.27743399999999996,1.6913019999999999Q0.20934600000000003,1.6201349999999999,0.156451,1.537053Q0.10355599999999998,1.45397,0.067886,1.362165Q0.03221600000000002,1.27036,0.01514099999999996,1.17336Q-0.0019299999999999873,1.0763597,0.00024400000000002198,0.9778924Q0.0024220000000000352,0.879425,0.023766999999999983,0.7832749999999999Q0.04511299999999996,0.6871240000000001,0.08480699999999997,0.596985Q0.12450000000000006,0.506847,0.18101599999999995,0.426184Q0.23753199999999997,0.34552099999999997,0.30869800000000003,0.27743399999999996Q0.379865,0.20934600000000003,0.462947,0.156451Q0.54603,0.10355599999999998,0.6378349999999999,0.067886Q0.7296400000000001,0.03221600000000002,0.82664,0.01514099999999996Q0.9236403,-0.0019299999999999873,1.0221076,0.00024400000000002198Q1.120575,0.0024220000000000352,1.216725,0.023766999999999983Q1.312876,0.04511299999999996,1.403015,0.08480699999999997Q1.493153,0.12450000000000006,1.5738159999999999,0.18101599999999995Q1.654479,0.23753199999999997,1.722566,0.30869800000000003ZM2,1Q2,1.0984914,1.980785,1.19509Q1.96157,1.2916889999999999,1.923879,1.382683Q1.886188,1.473678,1.83147,1.55557Q1.776751,1.637463,1.7071070000000002,1.7071070000000002Q1.637463,1.776751,1.55557,1.83147Q1.473678,1.886188,1.382683,1.923879Q1.2916889999999999,1.96157,1.19509,1.980785Q1.0984914,2,1,2Q0.9015086,2,0.80491,1.980785Q0.708311,1.96157,0.617317,1.923879Q0.526322,1.886188,0.44443,1.83147Q0.362537,1.776751,0.29289299999999996,1.7071070000000002Q0.22324900000000003,1.637463,0.16852999999999996,1.55557Q0.11381200000000002,1.473678,0.076121,1.382683Q0.038429999999999964,1.2916889999999999,0.019214999999999982,1.19509Q0,1.0984914,0,1Q0,0.9015086,0.019214999999999982,0.80491Q0.038429999999999964,0.708311,0.076121,0.617317Q0.11381200000000002,0.526322,0.16852999999999996,0.44443Q0.22324900000000003,0.362537,0.29289299999999996,0.29289299999999996Q0.362537,0.22324900000000003,0.44443,0.16852999999999996Q0.526322,0.11381200000000002,0.617317,0.076121Q0.708311,0.038429999999999964,0.80491,0.019214999999999982Q0.9015086,0,1,0Q1.0984914,0,1.19509,0.019214999999999982Q1.2916889999999999,0.038429999999999964,1.382683,0.076121Q1.473678,0.11381200000000002,1.55557,0.16852999999999996Q1.637463,0.22324900000000003,1.7071070000000002,0.29289299999999996Q1.776751,0.362537,1.83147,0.44443Q1.886188,0.526322,1.923879,0.617317Q1.96157,0.708311,1.980785,0.80491Q2,0.9015086,2,1ZM21.125,1Q21.125,1.0984914,21.1058,1.19509Q21.0866,1.2916889999999999,21.0489,1.382683Q21.0112,1.473678,20.9565,1.55557Q20.9017,1.637463,20.8321,1.7071070000000002Q20.7625,1.776751,20.6806,1.83147Q20.5987,1.886188,20.5077,1.923879Q20.4167,1.96157,20.3201,1.980785Q20.2235,2,20.125,2Q20.0265,2,19.9299,1.980785Q19.8333,1.96157,19.7423,1.923879Q19.6513,1.886188,19.5694,1.83147Q19.4875,1.776751,19.4179,1.7071070000000002Q19.3482,1.637463,19.2935,1.55557Q19.2388,1.473678,19.2011,1.382683Q19.1634,1.2916889999999999,19.1442,1.19509Q19.125,1.0984914,19.125,1Q19.125,0.9015086,19.1442,0.80491Q19.1634,0.708311,19.2011,0.617317Q19.2388,0.526322,19.2935,0.44443Q19.3482,0.362537,19.4179,0.29289299999999996Q19.4875,0.22324900000000003,19.5694,0.16852999999999996Q19.6513,0.11381200000000002,19.7423,0.076121Q19.8333,0.038429999999999964,19.9299,0.019214999999999982Q20.0265,0,20.125,0Q20.2235,0,20.3201,0.019214999999999982Q20.4167,0.038429999999999964,20.5077,0.076121Q20.5987,0.11381200000000002,20.6806,0.16852999999999996Q20.7625,0.22324900000000003,20.8321,0.29289299999999996Q20.9017,0.362537,20.9565,0.44443Q21.0112,0.526322,21.0489,0.617317Q21.0866,0.708311,21.1058,0.80491Q21.125,0.9015086,21.125,1Z" fill="#FFFFFF" fill-opacity="1"/></g></svg>