<svg xmlns="http://www.w3.org/2000/svg" xmlns:xlink="http://www.w3.org/1999/xlink" fill="none" version="1.1" width="15.200000047683716" height="15.450000047683716" viewBox="0 0 15.200000047683716 15.450000047683716"><g style="mix-blend-mode:passthrough"><path d="M10.925700023841857,10.774300023841858L8.779290023841858,8.627820023841858Q8.457110023841857,8.305640023841857,8.457110023841857,7.850000023841858Q8.457110023841857,7.394360023841858,8.779290023841858,7.072180023841858L10.925700023841857,4.925740023841858L11.774300023841858,5.774260023841858L9.627820023841858,7.920710023841858Q9.698530023841858,7.850000023841858,9.627820023841858,7.779290023841858L11.774300023841858,9.925740023841858L10.925700023841857,10.774300023841858ZM4.750000023841858,14.600000023841858L4.750000023841858,0.6000000238418579L5.9500000238418576,0.6000000238418579L5.9500000238418576,14.600000023841858L4.750000023841858,14.600000023841858ZM2.600000023841858,15.450000023841858Q1.523046023841858,15.450000023841858,0.7615220238418579,14.688500023841858Q2.384185793236071e-8,13.927000023841858,2.384185793236071e-8,12.850000023841858L2.384185793236071e-8,2.850000023841858Q2.384185793236071e-8,1.773040023841858,0.7615220238418579,1.0115220238418579Q1.523045023841858,0.25000002384185793,2.600000023841858,0.25000002384185793L12.600000023841858,0.25000002384185793Q13.677000023841858,0.25000002384185793,14.438500023841858,1.0115220238418579Q15.200000023841858,1.7730500238418578,15.200000023841858,2.850000023841858L15.200000023841858,12.850000023841858Q15.200000023841858,13.927000023841858,14.438500023841858,14.688500023841858Q13.677000023841858,15.450000023841858,12.600000023841858,15.450000023841858L2.600000023841858,15.450000023841858ZM2.600000023841858,14.250000023841858L12.600000023841858,14.250000023841858Q13.179900023841858,14.250000023841858,13.589900023841858,13.839900023841858Q14.000000023841858,13.429900023841858,14.000000023841858,12.850000023841858L14.000000023841858,2.850000023841858Q14.000000023841858,2.2701000238418576,13.589900023841858,1.8600500238418578Q13.179900023841858,1.450000023841858,12.600000023841858,1.450000023841858L2.600000023841858,1.450000023841858Q2.0201000238418576,1.450000023841858,1.6100500238418578,1.8600500238418578Q1.200000023841858,2.2701000238418576,1.200000023841858,2.850000023841858L1.200000023841858,12.850000023841858Q1.200000023841858,13.429900023841858,1.6100500238418578,13.839900023841858Q2.0201000238418576,14.250000023841858,2.600000023841858,14.250000023841858Z" fill="#FFFFFF" fill-opacity="1"/></g></svg>