<svg xmlns="http://www.w3.org/2000/svg" xmlns:xlink="http://www.w3.org/1999/xlink" fill="none" version="1.1" width="15.200000047683716" height="15.450000047683716" viewBox="0 0 15.200000047683716 15.450000047683716"><g style="mix-blend-mode:passthrough" transform="matrix(-1,0,0,-1,29.200000047683716,29.700000047683716)"><path d="M24.925700023841856,25.02430002384186L22.77929002384186,22.877820023841856Q22.457110023841857,22.555640023841857,22.457110023841857,22.100000023841858Q22.457110023841857,21.64436002384186,22.77929002384186,21.32218002384186L24.925700023841856,19.175740023841858L25.77430002384186,20.024260023841858L23.627820023841856,22.170710023841856Q23.698530023841858,22.100000023841858,23.627820023841856,22.02929002384186L25.77430002384186,24.175740023841858L24.925700023841856,25.02430002384186ZM18.750000023841856,28.850000023841858L18.750000023841856,14.850000023841858L19.95000002384186,14.850000023841858L19.95000002384186,28.850000023841858L18.750000023841856,28.850000023841858ZM16.600000023841858,29.70000002384186Q15.523046023841857,29.70000002384186,14.761522023841858,28.938500023841858Q14.000000023841858,28.177000023841856,14.000000023841858,27.100000023841858L14.000000023841858,17.100000023841858Q14.000000023841858,16.023040023841858,14.761522023841858,15.261522023841858Q15.523045023841858,14.500000023841858,16.600000023841858,14.500000023841858L26.600000023841858,14.500000023841858Q27.677000023841856,14.500000023841858,28.438500023841858,15.261522023841858Q29.20000002384186,16.023050023841858,29.20000002384186,17.100000023841858L29.20000002384186,27.100000023841858Q29.20000002384186,28.177000023841856,28.438500023841858,28.938500023841858Q27.677000023841856,29.70000002384186,26.600000023841858,29.70000002384186L16.600000023841858,29.70000002384186ZM16.600000023841858,28.500000023841856L26.600000023841858,28.500000023841856Q27.17990002384186,28.500000023841856,27.589900023841857,28.089900023841857Q28.000000023841856,27.67990002384186,28.000000023841856,27.100000023841858L28.000000023841856,17.100000023841858Q28.000000023841856,16.52010002384186,27.589900023841857,16.110050023841858Q27.17990002384186,15.700000023841858,26.600000023841858,15.700000023841858L16.600000023841858,15.700000023841858Q16.02010002384186,15.700000023841858,15.610050023841858,16.110050023841858Q15.200000023841858,16.52010002384186,15.200000023841858,17.100000023841858L15.200000023841858,27.100000023841858Q15.200000023841858,27.67990002384186,15.610050023841858,28.089900023841857Q16.02010002384186,28.500000023841856,16.600000023841858,28.500000023841856Z" fill="#FFFFFF" fill-opacity="1"/></g></svg>