<svg xmlns="http://www.w3.org/2000/svg" xmlns:xlink="http://www.w3.org/1999/xlink" fill="none" version="1.1" width="58" height="58" viewBox="0 0 58 58"><defs><mask id="master_svg0_0_1345"><g style="mix-blend-mode:passthrough"><path d="M0 0C0 0 0 0 0 0L58 0C58 0 58 0 58 0L58 58C58 58 58 58 58 58L0 58C0 58 0 58 0 58Z" fill="#FFFFFF" fill-opacity="1"/></g></mask></defs><g style="mix-blend-mode:passthrough"><g><g style="mix-blend-mode:passthrough"></g></g><g mask="url(#master_svg0_0_1345)"><g style="mix-blend-mode:passthrough"><path d="M58,29C58,45.02,45.02,58,29,58C12.98,58,0,45.02,0,29C0,12.98,12.98,0,29,0C45.02,0,58,12.98,58,29ZM29.003,53.163C15.653,53.163,4.83301,42.343,4.83301,29.003C4.83301,15.653,15.653,4.83301,29.003,4.83301C42.343,4.83301,53.163,15.653,53.163,29.003C53.163,42.343,42.343,53.163,29.003,53.163Z" fill-rule="evenodd" fill="#FFFFFF" fill-opacity="1"/></g><g style="mix-blend-mode:passthrough"><path d="M24.08266365966797,40.726102383422855C23.892663659667967,41.45610238342285,23.97266365966797,43.306102383422854,22.892663659667967,43.806102383422854C21.81266365966797,44.306102383422854,19.43265365966797,44.57610238342285,18.43265365966797,43.95610238342285C17.442653659667968,43.336102383422855,17.282653659667968,40.67610238342285,14.122653659667968,39.70610238342285C10.972650659667968,38.726102383422855,11.16265065966797,40.01610238342285,11.952650659667968,40.336102383422855C12.742653659667969,40.64610238342285,14.692653659667968,40.87610238342285,15.572653659667969,42.28610238342285C16.45265365966797,43.70610238342285,17.442653659667968,45.70610238342285,18.43265365966797,46.35610238342285C19.092653659667967,46.79610238342285,20.67265365966797,46.96610238342285,23.182663659667966,46.87610238342285C22.94266365966797,51.95610238342285,22.94266365966797,54.64610238342285,23.182663659667966,54.946102383422854C24.20266365966797,55.18610238342285,25.27266365966797,55.35610238342285,26.38266365966797,55.45610238342285C28.052663659667967,55.61610238342285,28.47266365966797,55.61610238342285,29.68266365966797,55.57610238342285C30.892663659667967,55.53610238342285,32.122663659667964,55.43610238342285,33.252663659667974,55.266102383422854C33.89266365966797,55.16610238342285,34.792663659667966,54.96610238342285,35.94266365966797,54.67610238342285C36.39266365966797,48.26610238342285,36.35266365966797,44.38610238342285,35.82266365966797,43.02610238342285C35.02266365966797,40.99610238342285,34.47266365966797,40.946102383422854,34.47266365966797,40.506102383422856C34.47266365966797,40.21610238342285,34.682663659667966,40.006102383422856,35.09266365966797,39.87610238342285C38.652663659667965,39.09610238342285,41.03266365966797,36.90610238342285,42.252663659667974,33.31610238342285C44.07266365966797,27.92610238342285,41.10266365966797,24.13607238342285,40.35266365966797,22.94607238342285C39.59266365966797,21.746072383422852,40.58266365966797,18.84607238342285,41.77266365966797,16.52607738342285C36.10266365966797,15.386077383422851,35.372663659667964,19.55607238342285,34.45266365966797,19.336072383422852C33.542663659667966,19.106072383422852,32.35266365966797,18.07607238342285,29.00266365966797,18.07607238342285C25.65266365966797,18.07607238342285,23.532663659667968,19.34607238342285,23.532663659667968,19.336072383422852C21.91266365966797,17.076077383422852,19.61265365966797,16.146077383422853,16.642653659667968,16.52607738342285C17.462653659667968,19.796072383422853,17.52265365966797,21.936072383422854,16.82265365966797,22.94607238342285C15.782653659667968,24.44607238342285,13.822653659667969,27.956102383422852,15.342653659667969,33.31610238342285C16.86265365966797,38.67610238342285,22.392663659667967,39.87610238342285,23.45266365966797,39.87610238342285C23.47266365966797,39.88610238342285,24.322663659667967,40.03610238342285,24.08266365966797,40.726102383422855Z" fill-rule="evenodd" fill="#FFFFFF" fill-opacity="1"/></g></g></g></svg>