<!-- Exported by Character Map UWP -->
<svg height="100%" viewBox="64 64 896 896" width="100%" xmlns="http://www.w3.org/2000/svg" xmlns:xlink="http://www.w3.org/1999/xlink">
  <path d="M192,192L192,189.5C192,172.167 195.5,155.917 202.5,140.75C209.5,125.583 218.833,112.333 230.5,101C242.167,89.6667 255.75,80.6667 271.25,74C286.75,67.3334 303,64.0001 320,64C337.333,64.0001 353.833,67.4167 369.5,74.25C385.167,81.0834 398.75,90.25 410.25,101.75C421.75,113.25 430.917,126.833 437.75,142.5C444.583,158.167 448,174.667 448,192C448,209.667 444.583,226.25 437.75,241.75C430.917,257.25 421.75,270.75 410.25,282.25C398.75,293.75 385.167,302.917 369.5,309.75C353.833,316.583 337.333,320 320,320C302.333,320 285.75,316.583 270.25,309.75C254.75,302.917 241.25,293.75 229.75,282.25C218.25,270.75 209.083,257.25 202.25,241.75C195.417,226.25 192,209.667 192,192ZM576,192L576,189.5C576,172.167 579.5,155.917 586.5,140.75C593.5,125.583 602.833,112.333 614.5,101C626.167,89.6667 639.75,80.6667 655.25,74C670.75,67.3334 687,64.0001 704,64C721.333,64.0001 737.833,67.4167 753.5,74.25C769.167,81.0834 782.75,90.25 794.25,101.75C805.75,113.25 814.917,126.833 821.75,142.5C828.583,158.167 832,174.667 832,192C832,209.667 828.583,226.25 821.75,241.75C814.917,257.25 805.75,270.75 794.25,282.25C782.75,293.75 769.167,302.917 753.5,309.75C737.833,316.583 721.333,320 704,320C686.333,320 669.75,316.583 654.25,309.75C638.75,302.917 625.25,293.75 613.75,282.25C602.25,270.75 593.083,257.25 586.25,241.75C579.417,226.25 576,209.667 576,192ZM384,192C384,183.333 382.333,175.083 379,167.25C375.667,159.417 371.083,152.583 365.25,146.75C359.417,140.917 352.583,136.333 344.75,133C336.917,129.667 328.667,128 320,128C311,128 302.667,129.667 295,133C287.333,136.333 280.583,140.917 274.75,146.75C268.917,152.583 264.333,159.333 261,167C257.667,174.667 256,183 256,192C256,201 257.667,209.417 261,217.25C264.333,225.083 268.833,231.833 274.5,237.5C280.167,243.167 286.917,247.667 294.75,251C302.583,254.333 311,256 320,256C329,256 337.333,254.333 345,251C352.667,247.667 359.417,243.083 365.25,237.25C371.083,231.417 375.667,224.667 379,217C382.333,209.333 384,201 384,192ZM768,192C768,183.333 766.333,175.083 763,167.25C759.667,159.417 755.083,152.583 749.25,146.75C743.417,140.917 736.583,136.333 728.75,133C720.917,129.667 712.667,128 704,128C695,128 686.667,129.667 679,133C671.333,136.333 664.583,140.917 658.75,146.75C652.917,152.583 648.333,159.333 645,167C641.667,174.667 640,183 640,192C640,201 641.667,209.417 645,217.25C648.333,225.083 652.833,231.833 658.5,237.5C664.167,243.167 670.917,247.667 678.75,251C686.583,254.333 695,256 704,256C713,256 721.333,254.333 729,251C736.667,247.667 743.417,243.083 749.25,237.25C755.083,231.417 759.667,224.667 763,217C766.333,209.333 768,201 768,192ZM384,448L384,445.5C384,428.167 387.5,411.917 394.5,396.75C401.5,381.583 410.833,368.333 422.5,357C434.167,345.667 447.75,336.667 463.25,330C478.75,323.333 495,320 512,320C529.333,320 545.833,323.417 561.5,330.25C577.167,337.083 590.75,346.25 602.25,357.75C613.75,369.25 622.917,382.833 629.75,398.5C636.583,414.167 640,430.667 640,448C640,465.667 636.583,482.25 629.75,497.75C622.917,513.25 613.75,526.75 602.25,538.25C590.75,549.75 577.167,558.917 561.5,565.75C545.833,572.583 529.333,576 512,576C494.333,576 477.75,572.583 462.25,565.75C446.75,558.917 433.25,549.75 421.75,538.25C410.25,526.75 401.083,513.25 394.25,497.75C387.417,482.25 384,465.667 384,448ZM64,480C64,467 66.5,454.667 71.5,443C76.5,431.333 83.4167,421.083 92.25,412.25C101.083,403.417 111.333,396.5 123,391.5C134.667,386.5 147,384 160,384L314,384C307.333,405 304,426.333 304,448L160,448C151.333,448 143.833,451.167 137.5,457.5C131.167,463.833 128,471.333 128,480C128,513.333 135,542.25 149,566.75C163,591.25 185.833,610 217.5,623C210.5,631 204.333,639.75 199,649.25C193.667,658.75 189.167,668.5 185.5,678.5C144.167,660.167 113.583,633.583 93.75,598.75C73.9167,563.917 64,524.333 64,480ZM576,448C576,439.333 574.333,431.083 571,423.25C567.667,415.417 563.083,408.583 557.25,402.75C551.417,396.917 544.583,392.333 536.75,389C528.917,385.667 520.667,384 512,384C503,384 494.667,385.667 487,389C479.333,392.333 472.583,396.917 466.75,402.75C460.917,408.583 456.333,415.333 453,423C449.667,430.667 448,439 448,448C448,457 449.667,465.417 453,473.25C456.333,481.083 460.833,487.833 466.5,493.5C472.167,499.167 478.917,503.667 486.75,507C494.583,510.333 503,512 512,512C521,512 529.333,510.333 537,507C544.667,503.667 551.417,499.083 557.25,493.25C563.083,487.417 567.667,480.667 571,473C574.333,465.333 576,457 576,448ZM806.5,623C838.167,610 861,591.25 875,566.75C889,542.25 896,513.333 896,480C896,471.333 892.833,463.833 886.5,457.5C880.167,451.167 872.667,448 864,448L720,448C720,426.333 716.667,405 710,384L864,384C877,384 889.333,386.5 901,391.5C912.667,396.5 922.917,403.417 931.75,412.25C940.583,421.083 947.5,431.333 952.5,443C957.5,454.667 960,467 960,480C960,524.333 950.083,563.917 930.25,598.75C910.417,633.583 879.833,660.167 838.5,678.5C834.833,668.5 830.333,658.75 825,649.25C819.667,639.75 813.5,631 806.5,623ZM256,736C256,723 258.5,710.667 263.5,699C268.5,687.333 275.417,677.083 284.25,668.25C293.083,659.417 303.333,652.5 315,647.5C326.667,642.5 339,640 352,640L672,640C685,640 697.333,642.5 709,647.5C720.667,652.5 730.917,659.417 739.75,668.25C748.583,677.083 755.5,687.333 760.5,699C765.5,710.667 768,723 768,736C768,774.667 761.333,808 748,836C734.667,864 716.5,887.25 693.5,905.75C670.5,924.25 643.417,937.917 612.25,946.75C581.083,955.583 547.667,960 512,960C476.333,960 442.917,955.583 411.75,946.75C380.583,937.917 353.5,924.25 330.5,905.75C307.5,887.25 289.333,864 276,836C262.667,808 256,774.667 256,736ZM704,736C704,727.333 700.833,719.833 694.5,713.5C688.167,707.167 680.667,704 672,704L352,704C343.333,704 335.833,707.167 329.5,713.5C323.167,719.833 320,727.333 320,736C320,765.667 325,790.667 335,811C345,831.333 358.583,847.833 375.75,860.5C392.917,873.167 413.167,882.25 436.5,887.75C459.833,893.25 485,896 512,896C539,896 564.167,893.25 587.5,887.75C610.833,882.25 631.083,873.167 648.25,860.5C665.417,847.833 679,831.333 689,811C699,790.667 704,765.667 704,736Z" fill="#FFFFFF" fill-opacity="1">
  </path>
</svg>