<svg xmlns="http://www.w3.org/2000/svg" xmlns:xlink="http://www.w3.org/1999/xlink" fill="none" version="1.1" width="20.999998092651367" height="21" viewBox="0 0 20.999998092651367 21"><defs><clipPath id="master_svg0_117_0143"><rect x="0" y="0" width="20.999998092651367" height="21" rx="0"/></clipPath></defs><g clip-path="url(#master_svg0_117_0143)"><g><path d="M4.8420413671875,16.15673896484375Q7.1852313671875,18.49993896484375,10.4989013671875,18.49993896484375Q13.8126013671875,18.49993896484375,16.1557013671875,16.15673896484375Q18.4989013671875,13.81363896484375,18.4989013671875,10.49993896484375Q18.4989013671875,7.18626896484375,16.1557013671875,4.84307896484375Q13.8126013671875,2.49993896484375,10.4989013671875,2.49993896484375Q7.1852313671875,2.49993896484375,4.8420413671875,4.84308896484375Q2.4989013671875,7.18626896484375,2.4989013671875,10.49993896484375Q2.4989013671875,13.81363896484375,4.8420513671875,16.15673896484375L4.8420413671875,16.15673896484375ZM3.7813813671875,17.21743896484375Q2.4669133671875,15.90293896484375,1.7457669371875,14.19793896484375Q0.9989013671875,12.43223896484375,0.9989013671875,10.49993896484375Q0.9989013671875,8.56767896484375,1.7457668171875,6.80189896484375Q2.4669113671875,5.09691896484375,3.7813913671875,3.78241896484375Q5.0958813671875,2.46794796484375,6.8008613671875,1.74680423484375Q8.5666513671875,0.99993896484375,10.4989013671875,0.99993896484375Q12.4312013671875,0.99993896484375,14.1969013671875,1.74680465484375Q15.9019013671875,2.46795096484375,17.2164013671875,3.78242896484375Q18.5309013671875,5.09690896484375,19.2520013671875,6.80188896484375Q19.9989013671875,8.56768896484375,19.9989013671875,10.49993896484375Q19.9989013671875,12.43223896484375,19.2520013671875,14.19793896484375Q18.5309013671875,15.90293896484375,17.2164013671875,17.21743896484375Q15.9019013671875,18.53193896484375,14.1969013671875,19.25303896484375Q12.4312013671875,19.99993896484375,10.4989013671875,19.99993896484375Q8.5666513671875,19.99993896484375,6.8008513671875,19.25303896484375Q5.0958813671875,18.53193896484375,3.7813913671875,17.21743896484375L3.7813813671875,17.21743896484375Z" fill="#FFFFFF" fill-opacity="1"/></g><g><path d="M10.5023193359375,4.8125C11.1063793359375,4.8125,11.5960693359375,5.302194,11.5960693359375,5.90625C11.5960693359375,6.5103100000000005,11.1063793359375,7,10.5023193359375,7C9.8982623359375,7,9.4085693359375,6.5103100000000005,9.4085693359375,5.90625C9.4085693359375,5.302194,9.8982623359375,4.8125,10.5023193359375,4.8125Z" fill-rule="evenodd" fill="#FFFFFF" fill-opacity="1"/></g><g><path d="M9.8441162109375,8L10.2816162109375,8L10.7191162109375,8Q10.792984210937501,8,10.8654362109375,8.014410999999999Q10.9378862109375,8.028822,11.0061262109375,8.05709Q11.0743762109375,8.085359,11.1357962109375,8.126398Q11.1972162109375,8.167437,11.2494462109375,8.21967Q11.3016762109375,8.271903,11.3427162109375,8.333322Q11.3837562109375,8.394742,11.4120262109375,8.462987Q11.4402962109375,8.531233,11.4547062109375,8.603682Q11.4691162109375,8.6761315,11.4691162109375,8.75L11.4691162109375,14.875Q11.4691162109375,14.94887,11.4547062109375,15.02132Q11.4402962109375,15.09377,11.4120262109375,15.16201Q11.3837562109375,15.230260000000001,11.3427162109375,15.29168Q11.3016762109375,15.353100000000001,11.2494462109375,15.40533Q11.1972162109375,15.45756,11.1357962109375,15.4986Q11.0743762109375,15.53964,11.0061262109375,15.567910000000001Q10.9378862109375,15.59618,10.8654362109375,15.61059Q10.792984210937501,15.625,10.7191162109375,15.625Q10.6452472109375,15.625,10.5727982109375,15.61059Q10.5003492109375,15.59618,10.4321032109375,15.567910000000001Q10.3638582109375,15.53964,10.3024382109375,15.4986Q10.2410192109375,15.45756,10.1887862109375,15.40533Q10.1365532109375,15.353100000000001,10.0955142109375,15.29168Q10.0544752109375,15.230260000000001,10.0262062109375,15.16201Q9.9979382109375,15.09377,9.9835272109375,15.02132Q9.9691162109375,14.94887,9.9691162109375,14.875L9.9691162109375,8.75L10.7191162109375,8.75L10.7191162109375,9.5L10.2816162109375,9.5L9.8441162109375,9.5Q9.7702477109375,9.5,9.6977982109375,9.485589000000001Q9.6253492109375,9.471178,9.5571032109375,9.44291Q9.4888582109375,9.414641,9.4274382109375,9.373602Q9.3660192109375,9.332563,9.3137862109375,9.28033Q9.2615532109375,9.228097,9.2205142109375,9.166678Q9.1794752109375,9.105258,9.1512062109375,9.037013Q9.1229382109375,8.968767,9.108527210937499,8.896318Q9.0941162109375,8.8238685,9.0941162109375,8.75Q9.0941162109375,8.6761315,9.108527210937499,8.603682Q9.1229382109375,8.531233,9.1512062109375,8.462987Q9.1794752109375,8.394742,9.2205142109375,8.333322Q9.2615532109375,8.271903,9.3137862109375,8.21967Q9.3660192109375,8.167437,9.4274382109375,8.126398Q9.4888582109375,8.085359,9.5571032109375,8.05709Q9.6253492109375,8.028822,9.6977982109375,8.014410999999999Q9.7702477109375,8,9.8441162109375,8ZM10.5941162109375,8.75Q10.5941162109375,8.8238685,10.579705210937501,8.896318Q10.5652942109375,8.968767,10.5370262109375,9.037013Q10.5087572109375,9.105258,10.4677182109375,9.166678Q10.4266792109375,9.228097,10.3744462109375,9.28033Q10.3222132109375,9.332563,10.2607942109375,9.373602Q10.1993742109375,9.414641,10.1311292109375,9.44291Q10.0628832109375,9.471178,9.9904342109375,9.485589000000001Q9.9179847109375,9.5,9.8441162109375,9.5Q9.7702477109375,9.5,9.6977982109375,9.485589000000001Q9.6253492109375,9.471178,9.5571032109375,9.44291Q9.4888582109375,9.414641,9.4274382109375,9.373602Q9.3660192109375,9.332563,9.3137862109375,9.28033Q9.2615532109375,9.228097,9.2205142109375,9.166678Q9.1794752109375,9.105258,9.1512062109375,9.037013Q9.1229382109375,8.968767,9.108527210937499,8.896318Q9.0941162109375,8.8238685,9.0941162109375,8.75Q9.0941162109375,8.6761315,9.108527210937499,8.603682Q9.1229382109375,8.531233,9.1512062109375,8.462987Q9.1794752109375,8.394742,9.2205142109375,8.333322Q9.2615532109375,8.271903,9.3137862109375,8.21967Q9.3660192109375,8.167437,9.4274382109375,8.126398Q9.4888582109375,8.085359,9.5571032109375,8.05709Q9.6253492109375,8.028822,9.6977982109375,8.014410999999999Q9.7702477109375,8,9.8441162109375,8Q9.9179847109375,8,9.9904342109375,8.014410999999999Q10.0628832109375,8.028822,10.1311292109375,8.05709Q10.1993742109375,8.085359,10.2607942109375,8.126398Q10.3222132109375,8.167437,10.3744462109375,8.21967Q10.4266792109375,8.271903,10.4677182109375,8.333322Q10.5087572109375,8.394742,10.5370262109375,8.462987Q10.5652942109375,8.531233,10.579705210937501,8.603682Q10.5941162109375,8.6761315,10.5941162109375,8.75ZM11.4691162109375,14.875Q11.4691162109375,14.94887,11.4547062109375,15.02132Q11.4402962109375,15.09377,11.4120262109375,15.16201Q11.3837562109375,15.230260000000001,11.3427162109375,15.29168Q11.3016762109375,15.353100000000001,11.2494462109375,15.40533Q11.1972162109375,15.45756,11.1357962109375,15.4986Q11.0743762109375,15.53964,11.0061262109375,15.567910000000001Q10.9378862109375,15.59618,10.8654362109375,15.61059Q10.792984210937501,15.625,10.7191162109375,15.625Q10.6452472109375,15.625,10.5727982109375,15.61059Q10.5003492109375,15.59618,10.4321032109375,15.567910000000001Q10.3638582109375,15.53964,10.3024382109375,15.4986Q10.2410192109375,15.45756,10.1887862109375,15.40533Q10.1365532109375,15.353100000000001,10.0955142109375,15.29168Q10.0544752109375,15.230260000000001,10.0262062109375,15.16201Q9.9979382109375,15.09377,9.9835272109375,15.02132Q9.9691162109375,14.94887,9.9691162109375,14.875Q9.9691162109375,14.80113,9.9835272109375,14.72868Q9.9979382109375,14.65623,10.0262062109375,14.58799Q10.0544752109375,14.519739999999999,10.0955142109375,14.45832Q10.1365532109375,14.396899999999999,10.1887862109375,14.34467Q10.2410192109375,14.29244,10.3024382109375,14.2514Q10.3638582109375,14.21036,10.4321032109375,14.182089999999999Q10.5003492109375,14.15382,10.5727982109375,14.13941Q10.6452472109375,14.125,10.7191162109375,14.125Q10.792984210937501,14.125,10.8654362109375,14.13941Q10.9378862109375,14.15382,11.0061262109375,14.182089999999999Q11.0743762109375,14.21036,11.1357962109375,14.2514Q11.1972162109375,14.29244,11.2494462109375,14.34467Q11.3016762109375,14.396899999999999,11.3427162109375,14.45832Q11.3837562109375,14.519739999999999,11.4120262109375,14.58799Q11.4402962109375,14.65623,11.4547062109375,14.72868Q11.4691162109375,14.80113,11.4691162109375,14.875Z" fill="#FFFFFF" fill-opacity="1"/></g><g><path d="M12.25048828125,15.62493896484375L9.18798828125,15.62493896484375Q9.11411978125,15.62493896484375,9.04167028125,15.610527964843751Q8.96922128125,15.59611696484375,8.90097528125,15.56784896484375Q8.83273028125,15.53957996484375,8.77131028125,15.49854096484375Q8.70989128125,15.45750196484375,8.65765828125,15.40526896484375Q8.60542528125,15.35303596484375,8.56438628125,15.29161696484375Q8.52334728125,15.23019696484375,8.49507828125,15.16195196484375Q8.46681028125,15.09370596484375,8.452399281249999,15.02125696484375Q8.43798828125,14.94880746484375,8.43798828125,14.87493896484375Q8.43798828125,14.80107046484375,8.452399281249999,14.72862096484375Q8.46681028125,14.65617196484375,8.49507828125,14.58792596484375Q8.52334728125,14.51968096484375,8.56438628125,14.45826096484375Q8.60542528125,14.39684196484375,8.65765828125,14.34460896484375Q8.70989128125,14.29237596484375,8.77131028125,14.25133696484375Q8.83273028125,14.21029796484375,8.90097528125,14.18202896484375Q8.96922128125,14.15376096484375,9.04167028125,14.139349964843749Q9.11411978125,14.12493896484375,9.18798828125,14.12493896484375L12.25048828125,14.12493896484375Q12.32435828125,14.12493896484375,12.39680828125,14.139349964843749Q12.46925828125,14.15376096484375,12.53749828125,14.18202896484375Q12.60574828125,14.21029796484375,12.66716828125,14.25133696484375Q12.72858828125,14.29237596484375,12.78081828125,14.34460896484375Q12.83304828125,14.39684196484375,12.87408828125,14.45826096484375Q12.91512828125,14.51968096484375,12.94339828125,14.58792596484375Q12.97166828125,14.65617196484375,12.98607828125,14.72862096484375Q13.00048828125,14.80107046484375,13.00048828125,14.87493896484375Q13.00048828125,14.94880746484375,12.98607828125,15.02125696484375Q12.97166828125,15.09370596484375,12.94339828125,15.16195196484375Q12.91512828125,15.23019696484375,12.87408828125,15.29161696484375Q12.83304828125,15.35303596484375,12.78081828125,15.40526896484375Q12.72858828125,15.45750196484375,12.66716828125,15.49854096484375Q12.60574828125,15.53957996484375,12.53749828125,15.56784896484375Q12.46925828125,15.59611696484375,12.39680828125,15.610527964843751Q12.32435828125,15.62493896484375,12.25048828125,15.62493896484375ZM13.00048828125,14.87493896484375Q13.00048828125,14.94880746484375,12.98607828125,15.02125696484375Q12.97166828125,15.09370596484375,12.94339828125,15.16195196484375Q12.91512828125,15.23019696484375,12.87408828125,15.29161696484375Q12.83304828125,15.35303596484375,12.78081828125,15.40526896484375Q12.72858828125,15.45750196484375,12.66716828125,15.49854096484375Q12.60574828125,15.53957996484375,12.53749828125,15.56784896484375Q12.46925828125,15.59611696484375,12.39680828125,15.610527964843751Q12.32435828125,15.62493896484375,12.25048828125,15.62493896484375Q12.17661828125,15.62493896484375,12.10416828125,15.610527964843751Q12.03171828125,15.59611696484375,11.96347828125,15.56784896484375Q11.89522828125,15.53957996484375,11.83380828125,15.49854096484375Q11.77238828125,15.45750196484375,11.72015828125,15.40526896484375Q11.66792828125,15.35303596484375,11.62688828125,15.29161696484375Q11.58584828125,15.23019696484375,11.55757828125,15.16195196484375Q11.52930828125,15.09370596484375,11.51489828125,15.02125696484375Q11.50048828125,14.94880746484375,11.50048828125,14.87493896484375Q11.50048828125,14.80107046484375,11.51489828125,14.72862096484375Q11.52930828125,14.65617196484375,11.55757828125,14.58792596484375Q11.58584828125,14.51968096484375,11.62688828125,14.45826096484375Q11.66792828125,14.39684196484375,11.72015828125,14.34460896484375Q11.77238828125,14.29237596484375,11.83380828125,14.25133696484375Q11.89522828125,14.21029796484375,11.96347828125,14.18202896484375Q12.03171828125,14.15376096484375,12.10416828125,14.139349964843749Q12.17661828125,14.12493896484375,12.25048828125,14.12493896484375Q12.32435828125,14.12493896484375,12.39680828125,14.139349964843749Q12.46925828125,14.15376096484375,12.53749828125,14.18202896484375Q12.60574828125,14.21029796484375,12.66716828125,14.25133696484375Q12.72858828125,14.29237596484375,12.78081828125,14.34460896484375Q12.83304828125,14.39684196484375,12.87408828125,14.45826096484375Q12.91512828125,14.51968096484375,12.94339828125,14.58792596484375Q12.97166828125,14.65617196484375,12.98607828125,14.72862096484375Q13.00048828125,14.80107046484375,13.00048828125,14.87493896484375ZM9.93798828125,14.87493896484375Q9.93798828125,14.94880746484375,9.923577281250001,15.02125696484375Q9.90916628125,15.09370596484375,9.88089828125,15.16195196484375Q9.85262928125,15.23019696484375,9.81159028125,15.29161696484375Q9.77055128125,15.35303596484375,9.71831828125,15.40526896484375Q9.66608528125,15.45750196484375,9.60466628125,15.49854096484375Q9.54324628125,15.53957996484375,9.47500128125,15.56784896484375Q9.40675528125,15.59611696484375,9.33430628125,15.610527964843751Q9.26185678125,15.62493896484375,9.18798828125,15.62493896484375Q9.11411978125,15.62493896484375,9.04167028125,15.610527964843751Q8.96922128125,15.59611696484375,8.90097528125,15.56784896484375Q8.83273028125,15.53957996484375,8.77131028125,15.49854096484375Q8.70989128125,15.45750196484375,8.65765828125,15.40526896484375Q8.60542528125,15.35303596484375,8.56438628125,15.29161696484375Q8.52334728125,15.23019696484375,8.49507828125,15.16195196484375Q8.46681028125,15.09370596484375,8.452399281249999,15.02125696484375Q8.43798828125,14.94880746484375,8.43798828125,14.87493896484375Q8.43798828125,14.80107046484375,8.452399281249999,14.72862096484375Q8.46681028125,14.65617196484375,8.49507828125,14.58792596484375Q8.52334728125,14.51968096484375,8.56438628125,14.45826096484375Q8.60542528125,14.39684196484375,8.65765828125,14.34460896484375Q8.70989128125,14.29237596484375,8.77131028125,14.25133696484375Q8.83273028125,14.21029796484375,8.90097528125,14.18202896484375Q8.96922128125,14.15376096484375,9.04167028125,14.139349964843749Q9.11411978125,14.12493896484375,9.18798828125,14.12493896484375Q9.26185678125,14.12493896484375,9.33430628125,14.139349964843749Q9.40675528125,14.15376096484375,9.47500128125,14.18202896484375Q9.54324628125,14.21029796484375,9.60466628125,14.25133696484375Q9.66608528125,14.29237596484375,9.71831828125,14.34460896484375Q9.77055128125,14.39684196484375,9.81159028125,14.45826096484375Q9.85262928125,14.51968096484375,9.88089828125,14.58792596484375Q9.90916628125,14.65617196484375,9.923577281250001,14.72862096484375Q9.93798828125,14.80107046484375,9.93798828125,14.87493896484375Z" fill="#FFFFFF" fill-opacity="1"/></g></g></svg>