<svg xmlns="http://www.w3.org/2000/svg" xmlns:xlink="http://www.w3.org/1999/xlink" width="42" height="33" viewBox="0 0 42 33" fill="none"><defs><rect id="path_0" x="0" y="0" width="42" height="33" /></defs><g opacity="1" transform="translate(0 0)  rotate(0 21 16.5)"><mask id="bg-mask-0" fill="white"><use xlink:href="#path_0"></use></mask><g mask="url(#bg-mask-0)" ><g opacity="1" transform="translate(1.0000000000007105 0)  rotate(0 20.31928986769456 16.499999999999996)"><path id="减去顶层" fill-rule="evenodd" style="fill:#FFFFFF" transform="translate(3.8192898676944376 0.1903849381666909)  rotate(90 16.499999999999996 16.309615061833306)" opacity="1" d="M8.09774 2.26956C3.25062 5.1101 0 10.3336 0 16.3092C0 25.3192 7.39 32.6192 16.5 32.6192C17.3159 32.6192 18.1181 32.5607 18.9023 32.4476C18.8762 32.4247 18.85 32.4017 18.8237 32.3786C21.0283 32.0714 23.0931 31.3334 24.9281 30.2536C25.0036 30.2327 25.0739 30.2024 25.1389 30.1624C25.2003 30.1245 25.2561 30.0783 25.3063 30.0242L25.3122 30.0205L25.3112 30.0188C26.6057 28.5985 24.1355 21.7884 19.5833 14.4037C14.9559 6.89679 9.8924 1.57874 8.11732 2.30113L8.09774 2.26956Z M30.023 25.6567C28.9677 21.5396 26.8583 16.6666 23.8456 11.7793C20.8738 6.95815 17.5169 2.92657 14.3484 0.136674C15.0527 0.0460023 15.7708 -0.000766754 16.5 -0.000766754C25.61 -0.000766754 33 7.29923 33 16.3092C33 19.787 31.899 23.01 30.023 25.6567Z " /><path id="减去顶层" fill-rule="evenodd" style="fill:#FFFFFF" transform="translate(0 2.369230769230768)  rotate(0 20.31928986769456 14.212541873638447)" opacity="0.48" d="M29.8773 0.735437C31.6875 2.05611 33.2191 3.74313 34.3661 5.68896L34.2758 5.74496C34.9982 7.52004 29.6802 12.5835 22.1733 17.211C14.7885 21.7631 7.97846 24.2333 6.55814 22.9389L6.55649 22.9399C6.55524 22.9379 6.554 22.9359 6.55275 22.9339C6.49862 22.8837 6.45247 22.828 6.41459 22.7665C6.37453 22.7015 6.34421 22.6312 6.32338 22.5558C5.24352 20.7207 4.50558 18.6559 4.19837 16.4514C0.659893 20.4709 -0.877814 24.1858 0.504265 26.4279C2.97579 30.4374 13.8505 28.2214 24.7977 21.4733C35.7364 14.7303 42.6106 6.00549 40.139 1.99604C38.785 -0.200494 34.9065 -0.527031 29.8773 0.735437Z " /></g></g></g></svg>