<svg xmlns="http://www.w3.org/2000/svg" xmlns:xlink="http://www.w3.org/1999/xlink" fill="none" version="1.1" width="16.249999046325684" height="11.75" viewBox="0 0 16.249999046325684 11.75"><g><path d="M1.70541,5.60938L6.15853,10.0412L5.45312,10.75L4.74772,10.0412L14.5446,0.2912Q14.6144,0.221723,14.6964,0.16720100000000004Q14.7784,0.11267799999999994,14.8695,0.075206Q14.9606,0.037733000000000017,15.0573,0.018750000000000044Q15.1539,-0.00022999999999995246,15.2524,0.0000029999999999752447Q15.3509,0.00023899999999998922,15.4474,0.01968599999999998Q15.544,0.039131999999999945,15.6349,0.07704100000000003Q15.7258,0.11495,15.8076,0.16986500000000004Q15.8893,0.22477999999999998,15.9588,0.29459100000000005Q16.0283,0.364402,16.0828,0.44642499999999996Q16.1373,0.528449,16.174799999999998,0.619533Q16.2123,0.710618,16.2312,0.807262Q16.2502,0.903907,16.25,1.00239807Q16.2498,1.100889,16.2303,1.1974420000000001Q16.210900000000002,1.293994,16.173000000000002,1.384898Q16.134999999999998,1.475801,16.0801,1.557562Q16.025199999999998,1.639324,15.9554,1.7088L6.15853,11.4588Q6.08894,11.5281,6.0072,11.5825Q5.92546,11.6369,5.8347,11.6743Q5.74394,11.7118,5.64763,11.7309Q5.55131,11.75,5.45312,11.75Q5.35494,11.75,5.25862,11.7309Q5.16231,11.7118,5.07155,11.6743Q4.98079,11.6369,4.89905,11.5825Q4.81731,11.5281,4.74771,11.4588L0.29459,7.02697Q0.22477999999999998,6.9575,0.16986500000000004,6.87574Q0.11495,6.79397,0.07704100000000003,6.70307Q0.039131999999999945,6.61217,0.019684999999999953,6.51562Q0.00023899999999998922,6.41906,0.0000029999999999752447,6.32057Q-0.00022999999999995246,6.22208,0.018750000000000044,6.12544Q0.037733000000000017,6.02879,0.075206,5.93771Q0.11267899999999997,5.84662,0.16720100000000004,5.7646Q0.221723,5.68258,0.2912,5.61277Q0.360677,5.54295,0.442438,5.48804Q0.5241990000000001,5.43312,0.615103,5.39522Q0.706007,5.35731,0.802559,5.33786Q0.899112,5.31841,0.99760277,5.31818Q1.0960939,5.31794,1.192739,5.33692Q1.289383,5.35591,1.380468,5.39338Q1.471552,5.43085,1.553575,5.48538Q1.635599,5.5399,1.70541,5.60938ZM2,6.31817Q2,6.41667,1.980785,6.51326Q1.96157,6.60986,1.923879,6.70086Q1.886188,6.79185,1.83147,6.87374Q1.776751,6.95564,1.7071070000000002,7.02528Q1.637463,7.09493,1.55557,7.14964Q1.473678,7.20436,1.382683,7.24205Q1.2916889999999999,7.27974,1.19509,7.29896Q1.0984914,7.31817,1,7.31817Q0.9015086,7.31817,0.80491,7.29896Q0.708311,7.27975,0.617317,7.24205Q0.526322,7.20436,0.44443,7.14964Q0.362537,7.09493,0.29289299999999996,7.02528Q0.22324900000000003,6.95564,0.16852999999999996,6.87374Q0.11381200000000002,6.79185,0.076121,6.70086Q0.038429999999999964,6.60986,0.019214999999999982,6.51326Q0,6.41667,0,6.31817Q0,6.21968,0.019214999999999982,6.12308Q0.038429999999999964,6.02649,0.076121,5.93549Q0.11381200000000002,5.8445,0.16852999999999996,5.7626Q0.22324900000000003,5.68071,0.29289299999999996,5.61107Q0.362537,5.54142,0.44443,5.4867Q0.526322,5.43199,0.617317,5.39429Q0.708311,5.3566,0.80491,5.33739Q0.9015086,5.31817,1,5.31817Q1.0984914,5.31817,1.19509,5.33739Q1.2916889999999999,5.3566,1.382683,5.39429Q1.473678,5.43199,1.55557,5.4867Q1.637463,5.54142,1.7071070000000002,5.61107Q1.776751,5.68071,1.83147,5.7626Q1.886188,5.8445,1.923879,5.93549Q1.96157,6.02649,1.980785,6.12308Q2,6.21968,2,6.31817ZM16.25,1Q16.25,1.0984914,16.230800000000002,1.19509Q16.2116,1.2916889999999999,16.1739,1.382683Q16.136200000000002,1.473678,16.0815,1.55557Q16.026699999999998,1.637463,15.9571,1.7071070000000002Q15.8875,1.776751,15.8056,1.83147Q15.7237,1.886188,15.6327,1.923879Q15.5417,1.96157,15.4451,1.980785Q15.3485,2,15.25,2Q15.1515,2,15.0549,1.980785Q14.9583,1.96157,14.8673,1.923879Q14.7763,1.886188,14.6944,1.83147Q14.6125,1.776751,14.5429,1.7071070000000002Q14.4732,1.637463,14.4185,1.55557Q14.3638,1.473678,14.3261,1.382683Q14.2884,1.2916889999999999,14.2692,1.19509Q14.25,1.0984914,14.25,1Q14.25,0.9015086,14.2692,0.80491Q14.2884,0.708311,14.3261,0.617317Q14.3638,0.526322,14.4185,0.44443Q14.4732,0.362537,14.5429,0.29289299999999996Q14.6125,0.22324900000000003,14.6944,0.16852999999999996Q14.7763,0.11381200000000002,14.8673,0.076121Q14.9583,0.038429999999999964,15.0549,0.019214999999999982Q15.1515,0,15.25,0Q15.3485,0,15.4451,0.019214999999999982Q15.5417,0.038429999999999964,15.6327,0.076121Q15.7237,0.11381200000000002,15.8056,0.16852999999999996Q15.8875,0.22324900000000003,15.9571,0.29289299999999996Q16.026699999999998,0.362537,16.0815,0.44443Q16.136200000000002,0.526322,16.1739,0.617317Q16.2116,0.708311,16.230800000000002,0.80491Q16.25,0.9015086,16.25,1Z" fill="#FFFFFF" fill-opacity="1"/></g></svg>