<svg xmlns="http://www.w3.org/2000/svg" xmlns:xlink="http://www.w3.org/1999/xlink" width="33" height="33" viewBox="0 0 33 33" fill="none"><defs><rect id="path_0" x="0" y="0" width="33" height="33" /></defs><g opacity="1" transform="translate(0 0)  rotate(0 16.5 16.5)"><mask id="bg-mask-0" fill="white"><use xlink:href="#path_0"></use></mask><g mask="url(#bg-mask-0)" ><path id="路径 2"  style="fill:#FFFFFF" transform="translate(2 6)  rotate(0 14.5 0.0005)" opacity="1" d="M29 1.5L5.16897e-05 1.5L5.17241e-05 1.501Q-0.0736385 1.501 -0.146974 1.49378Q-0.22031 1.48656 -0.292585 1.47219Q-0.364859 1.45781 -0.435377 1.43643Q-0.505895 1.41504 -0.573977 1.38684Q-0.642059 1.35864 -0.707049 1.32391Q-0.77204 1.28917 -0.833312 1.24823Q-0.894585 1.20729 -0.95155 1.16055Q-1.00851 1.1138 -1.06062 1.0617Q-1.11273 1.00959 -1.15948 0.95263Q-1.20623 0.895668 -1.24718 0.834398Q-1.28812 0.773128 -1.32286 0.708141Q-1.3576 0.643153 -1.3858 0.575073Q-1.414 0.506993 -1.4354 0.436476Q-1.45679 0.36596 -1.47117 0.293686Q-1.48555 0.221412 -1.49277 0.148077Q-1.5 0.0747419 -1.5 0.00105168Q-1.5 -0.0726386 -1.49278 -0.145974Q-1.48556 -0.21931 -1.47119 -0.291585Q-1.45681 -0.36386 -1.43543 -0.434378Q-1.41404 -0.504896 -1.38584 -0.572977Q-1.35764 -0.641059 -1.32291 -0.70605Q-1.28817 -0.77104 -1.24723 -0.832312Q-1.2063 -0.893585 -1.15955 -0.95055Q-1.1128 -1.00751 -1.0607 -1.05962Q-1.00859 -1.11173 -0.95163 -1.15848Q-0.894668 -1.20523 -0.833398 -1.24618Q-0.772129 -1.28712 -0.707141 -1.32186Q-0.642153 -1.3566 -0.574073 -1.3848Q-0.505993 -1.413 -0.435477 -1.4344Q-0.36496 -1.45579 -0.292686 -1.47017Q-0.220412 -1.48455 -0.147077 -1.49177Q-0.073742 -1.499 -5.17241e-05 -1.499L3.38813e-21 0.000999875L0 -1.5L29 -1.5Q29.1477 -1.5 29.2926 -1.47118Q29.4375 -1.44236 29.574 -1.38583Q29.7105 -1.3293 29.8333 -1.24723Q29.9562 -1.16515 30.0606 -1.0607Q30.1651 -0.956234 30.2472 -0.833398Q30.3293 -0.710562 30.3858 -0.574073Q30.4423 -0.437584 30.4712 -0.292686Q30.5 -0.147789 30.5 -5.17241e-05Q30.5 0.0736385 30.4928 0.146974Q30.4856 0.22031 30.4712 0.292585Q30.4568 0.364859 30.4354 0.435377Q30.414 0.505895 30.3858 0.573977Q30.3576 0.642059 30.3229 0.707049Q30.2882 0.77204 30.2472 0.833312Q30.2063 0.894585 30.1595 0.95155Q30.1128 1.00851 30.0607 1.06062Q30.0086 1.11273 29.9516 1.15948Q29.8947 1.20623 29.8334 1.24718Q29.7721 1.28812 29.7071 1.32286Q29.6422 1.3576 29.5741 1.3858Q29.506 1.414 29.4355 1.4354Q29.365 1.45679 29.2927 1.47117Q29.2204 1.48555 29.1471 1.49277Q29.0737 1.5 29.0001 1.5L29 0L29 1.5Z " /><path  id="路径 2" style="stroke:#FFFFFF; stroke-width:3; stroke-opacity:1; stroke-dasharray:0 0" transform="translate(2 6)  rotate(0 14.5 0.0005)" d="" /><path id="路径 2"  style="fill:#FFFFFF" transform="translate(2 16.499499999999898)  rotate(0 14.5 0.0005)" opacity="1" d="M29 1.5L5.16897e-05 1.5L5.17241e-05 1.501Q-0.0736385 1.501 -0.146974 1.49378Q-0.22031 1.48656 -0.292585 1.47219Q-0.364859 1.45781 -0.435377 1.43643Q-0.505895 1.41504 -0.573977 1.38684Q-0.642059 1.35864 -0.707049 1.32391Q-0.77204 1.28917 -0.833312 1.24823Q-0.894585 1.20729 -0.95155 1.16055Q-1.00851 1.1138 -1.06062 1.0617Q-1.11273 1.00959 -1.15948 0.95263Q-1.20623 0.895668 -1.24718 0.834398Q-1.28812 0.773128 -1.32286 0.708141Q-1.3576 0.643153 -1.3858 0.575073Q-1.414 0.506993 -1.4354 0.436476Q-1.45679 0.36596 -1.47117 0.293686Q-1.48555 0.221412 -1.49277 0.148077Q-1.5 0.0747419 -1.5 0.00105168Q-1.5 -0.0726386 -1.49278 -0.145974Q-1.48556 -0.21931 -1.47119 -0.291585Q-1.45681 -0.36386 -1.43543 -0.434378Q-1.41404 -0.504896 -1.38584 -0.572977Q-1.35764 -0.641059 -1.32291 -0.70605Q-1.28817 -0.77104 -1.24723 -0.832312Q-1.2063 -0.893585 -1.15955 -0.95055Q-1.1128 -1.00751 -1.0607 -1.05962Q-1.00859 -1.11173 -0.95163 -1.15848Q-0.894668 -1.20523 -0.833398 -1.24618Q-0.772129 -1.28712 -0.707141 -1.32186Q-0.642153 -1.3566 -0.574073 -1.3848Q-0.505993 -1.413 -0.435477 -1.4344Q-0.36496 -1.45579 -0.292686 -1.47017Q-0.220412 -1.48455 -0.147077 -1.49177Q-0.073742 -1.499 -5.17241e-05 -1.499L3.38813e-21 0.000999875L0 -1.5L29 -1.5Q29.1477 -1.5 29.2926 -1.47118Q29.4375 -1.44236 29.574 -1.38583Q29.7105 -1.3293 29.8333 -1.24723Q29.9562 -1.16515 30.0606 -1.0607Q30.1651 -0.956234 30.2472 -0.833398Q30.3293 -0.710562 30.3858 -0.574073Q30.4423 -0.437584 30.4712 -0.292686Q30.5 -0.147789 30.5 -5.17241e-05Q30.5 0.0736385 30.4928 0.146974Q30.4856 0.22031 30.4712 0.292585Q30.4568 0.364859 30.4354 0.435377Q30.414 0.505895 30.3858 0.573977Q30.3576 0.642059 30.3229 0.707049Q30.2882 0.77204 30.2472 0.833312Q30.2063 0.894585 30.1595 0.95155Q30.1128 1.00851 30.0607 1.06062Q30.0086 1.11273 29.9516 1.15948Q29.8947 1.20623 29.8334 1.24718Q29.7721 1.28812 29.7071 1.32286Q29.6422 1.3576 29.5741 1.3858Q29.506 1.414 29.4355 1.4354Q29.365 1.45679 29.2927 1.47117Q29.2204 1.48555 29.1471 1.49277Q29.0737 1.5 29.0001 1.5L29 0L29 1.5Z " /><path  id="路径 2" style="stroke:#FFFFFF; stroke-width:3; stroke-opacity:1; stroke-dasharray:0 0" transform="translate(2 16.499499999999898)  rotate(0 14.5 0.0005)" d="" /><path id="路径 2"  style="fill:#FFFFFF" transform="translate(2 27)  rotate(0 14.5 0.0005)" opacity="1" d="M29 1.5L5.16897e-05 1.5L5.17241e-05 1.501Q-0.0736385 1.501 -0.146974 1.49378Q-0.22031 1.48656 -0.292585 1.47219Q-0.364859 1.45781 -0.435377 1.43643Q-0.505895 1.41504 -0.573977 1.38684Q-0.642059 1.35864 -0.707049 1.32391Q-0.77204 1.28917 -0.833312 1.24823Q-0.894585 1.20729 -0.95155 1.16055Q-1.00851 1.1138 -1.06062 1.0617Q-1.11273 1.00959 -1.15948 0.95263Q-1.20623 0.895668 -1.24718 0.834398Q-1.28812 0.773128 -1.32286 0.708141Q-1.3576 0.643153 -1.3858 0.575073Q-1.414 0.506993 -1.4354 0.436476Q-1.45679 0.36596 -1.47117 0.293686Q-1.48555 0.221412 -1.49277 0.148077Q-1.5 0.0747419 -1.5 0.00105168Q-1.5 -0.0726386 -1.49278 -0.145974Q-1.48556 -0.21931 -1.47119 -0.291585Q-1.45681 -0.36386 -1.43543 -0.434378Q-1.41404 -0.504896 -1.38584 -0.572977Q-1.35764 -0.641059 -1.32291 -0.70605Q-1.28817 -0.77104 -1.24723 -0.832312Q-1.2063 -0.893585 -1.15955 -0.95055Q-1.1128 -1.00751 -1.0607 -1.05962Q-1.00859 -1.11173 -0.95163 -1.15848Q-0.894668 -1.20523 -0.833398 -1.24618Q-0.772129 -1.28712 -0.707141 -1.32186Q-0.642153 -1.3566 -0.574073 -1.3848Q-0.505993 -1.413 -0.435477 -1.4344Q-0.36496 -1.45579 -0.292686 -1.47017Q-0.220412 -1.48455 -0.147077 -1.49177Q-0.073742 -1.499 -5.17241e-05 -1.499L3.38813e-21 0.000999875L0 -1.5L29 -1.5Q29.1477 -1.5 29.2926 -1.47118Q29.4375 -1.44236 29.574 -1.38583Q29.7105 -1.3293 29.8333 -1.24723Q29.9562 -1.16515 30.0606 -1.0607Q30.1651 -0.956234 30.2472 -0.833398Q30.3293 -0.710562 30.3858 -0.574073Q30.4423 -0.437584 30.4712 -0.292686Q30.5 -0.147789 30.5 -5.17241e-05Q30.5 0.0736385 30.4928 0.146974Q30.4856 0.22031 30.4712 0.292585Q30.4568 0.364859 30.4354 0.435377Q30.414 0.505895 30.3858 0.573977Q30.3576 0.642059 30.3229 0.707049Q30.2882 0.77204 30.2472 0.833312Q30.2063 0.894585 30.1595 0.95155Q30.1128 1.00851 30.0607 1.06062Q30.0086 1.11273 29.9516 1.15948Q29.8947 1.20623 29.8334 1.24718Q29.7721 1.28812 29.7071 1.32286Q29.6422 1.3576 29.5741 1.3858Q29.506 1.414 29.4355 1.4354Q29.365 1.45679 29.2927 1.47117Q29.2204 1.48555 29.1471 1.49277Q29.0737 1.5 29.0001 1.5L29 0L29 1.5Z " /><path  id="路径 2" style="stroke:#FFFFFF; stroke-width:3; stroke-opacity:1; stroke-dasharray:0 0" transform="translate(2 27)  rotate(0 14.5 0.0005)" d="" /></g></g></svg>