<svg xmlns="http://www.w3.org/2000/svg" xmlns:xlink="http://www.w3.org/1999/xlink" width="33" height="33" viewBox="0 0 33 33" fill="none"><defs><rect id="path_0" x="0" y="0" width="33" height="33" /></defs><g opacity="1" transform="translate(0 0)  rotate(0 16.5 16.5)"><mask id="bg-mask-0" fill="white"><use xlink:href="#path_0"></use></mask><g mask="url(#bg-mask-0)" ><g opacity="1" transform="translate(0.5 0.5)  rotate(90 16 16)"><path id="路径 1"  style="fill:#FFFFFF" transform="translate(1.4000189294859524 15.979999999999563)  rotate(-90 14.599981070514065 0.023510436506469223)" opacity="1" d="M30.2589 -1.06237Q30.1543 -1.16666 30.0313 -1.24854Q29.9083 -1.33043 29.7718 -1.38674Q29.6352 -1.44306 29.4902 -1.47165Q29.3453 -1.50024 29.1975 -1.5L29.1994 -0.370368L29.1974 -1.5L-0.00241066 -1.45L-0.00241546 -1.45298Q-0.150152 -1.45274 -0.295004 -1.42368Q-0.439856 -1.39463 -0.576256 -1.33787Q-0.712656 -1.28112 -0.835363 -1.19884Q-0.958069 -1.11656 -1.06237 -1.01193Q-1.16666 -0.907296 -1.24854 -0.784325Q-1.33043 -0.661354 -1.38674 -0.524772Q-1.44306 -0.38819 -1.47165 -0.243245Q-1.50024 -0.0983005 -1.5 0.0494364Q-1.49988 0.123127 -1.49254 0.19645Q-1.4852 0.269774 -1.4707 0.342025Q-1.45621 0.414276 -1.43471 0.484759Q-1.4132 0.555241 -1.38489 0.623277Q-1.35658 0.691312 -1.32174 0.756245Q-1.2869 0.821178 -1.24586 0.882383Q-1.20482 0.943589 -1.15798 1.00048Q-1.11114 1.05736 -1.05895 1.10939Q-1.00676 1.16141 -0.949722 1.20807Q-0.892683 1.25472 -0.831346 1.29557Q-0.770009 1.33641 -0.704964 1.37104Q-0.639919 1.40567 -0.571793 1.43376Q-0.503667 1.46185 -0.433115 1.48313Q-0.362563 1.50441 -0.290266 1.51867Q-0.217969 1.53293 -0.144622 1.54003Q-0.0712747 1.54714 0.00241546 1.54702L8.0513e-05 0.0970195L0.00256849 1.55L29.2024 1.5L29.2026 1.5Q29.2763 1.49987 29.3496 1.49252Q29.4229 1.48517 29.4951 1.47067Q29.5674 1.45617 29.6379 1.43466Q29.7083 1.41315 29.7764 1.38484Q29.8444 1.35652 29.9093 1.32168Q29.9742 1.28683 30.0354 1.24579Q30.0966 1.20475 30.1535 1.15791Q30.2104 1.11107 30.2624 1.05888Q30.3144 1.00669 30.3611 0.949656Q30.4077 0.89262 30.4485 0.831286Q30.4894 0.769952 30.524 0.704911Q30.5586 0.63987 30.5867 0.571748Q30.6148 0.503627 30.6361 0.43308Q30.6574 0.362534 30.6716 0.290242Q30.6859 0.217951 30.693 0.14461Q30.7001 0.0712687 30.7 -0.00241546Q30.6997 -0.150152 30.6707 -0.295004Q30.6416 -0.439856 30.5849 -0.576256Q30.5281 -0.712656 30.4458 -0.835362Q30.3635 -0.958069 30.2589 -1.06237Z " /><path  id="路径 1" style="stroke:#FFFFFF; stroke-width:3; stroke-opacity:1; stroke-dasharray:0 0" transform="translate(1.4000189294859524 15.979999999999563)  rotate(-90 14.599981070514065 0.023510436506469223)" d="" /></g></g></g></svg>