<svg xmlns="http://www.w3.org/2000/svg" xmlns:xlink="http://www.w3.org/1999/xlink" width="32" height="32" viewBox="0 0 32 32" fill="none"><g opacity="1" transform="translate(0 0)  rotate(0 16 16)"><g opacity="1" transform="translate(0 1.5)  rotate(0 15.25 15.25)"><rect  id="矩形 3" style="stroke:#FFFFFF; stroke-width:3; stroke-opacity:1; stroke-dasharray:0 0" transform="translate(0 3.5)  rotate(0 13.5 13.5)" x="1.5" y="1.5" rx="3.5"  width="24" height="24" /><path id="路径 1"  style="fill:#FFFFFF" transform="translate(8.5 0)  rotate(0 11 11)" opacity="1" d="M0 1.5Q-0.0736903 1.5 -0.147026 1.49278Q-0.220361 1.48555 -0.292635 1.47118Q-0.36491 1.4568 -0.435427 1.43541Q-0.505944 1.41402 -0.574025 1.38582Q-0.642106 1.35762 -0.707095 1.32288Q-0.772084 1.28814 -0.833355 1.2472Q-0.894627 1.20626 -0.95159 1.15952Q-1.00855 1.11277 -1.06066 1.06066Q-1.11277 1.00855 -1.15952 0.95159Q-1.20626 0.894627 -1.2472 0.833355Q-1.28814 0.772084 -1.32288 0.707095Q-1.35762 0.642106 -1.38582 0.574025Q-1.41402 0.505944 -1.43541 0.435427Q-1.4568 0.36491 -1.47118 0.292635Q-1.48555 0.220361 -1.49278 0.147026Q-1.5 0.0736903 -1.5 0Q-1.5 -0.0736903 -1.49278 -0.147026Q-1.48555 -0.220361 -1.47118 -0.292635Q-1.4568 -0.36491 -1.43541 -0.435427Q-1.41402 -0.505944 -1.38582 -0.574025Q-1.35762 -0.642106 -1.32288 -0.707095Q-1.28814 -0.772084 -1.2472 -0.833355Q-1.20626 -0.894627 -1.15952 -0.95159Q-1.11277 -1.00855 -1.06066 -1.06066Q-1.00855 -1.11277 -0.95159 -1.15952Q-0.894627 -1.20626 -0.833355 -1.2472Q-0.772084 -1.28814 -0.707095 -1.32288Q-0.642106 -1.35762 -0.574025 -1.38582Q-0.505944 -1.41402 -0.435427 -1.43541Q-0.36491 -1.4568 -0.292635 -1.47118Q-0.220361 -1.48555 -0.147026 -1.49278Q-0.0736903 -1.5 0 -1.5L17 -1.5Q18.321 -1.5 19.5302 -0.988266Q20.6967 -0.494615 21.5957 0.40434Q22.4946 1.3033 22.9883 2.46977Q23.5 3.67898 23.5 5L23.5 22Q23.5 22.0737 23.4928 22.147Q23.4856 22.2204 23.4712 22.2926Q23.4568 22.3649 23.4354 22.4354Q23.414 22.5059 23.3858 22.574Q23.3576 22.6421 23.3229 22.7071Q23.2881 22.7721 23.2472 22.8334Q23.2063 22.8946 23.1595 22.9516Q23.1128 23.0086 23.0607 23.0607Q23.0086 23.1128 22.9516 23.1595Q22.8946 23.2063 22.8334 23.2472Q22.7721 23.2881 22.7071 23.3229Q22.6421 23.3576 22.574 23.3858Q22.5059 23.414 22.4354 23.4354Q22.3649 23.4568 22.2926 23.4712Q22.2204 23.4856 22.147 23.4928Q22.0737 23.5 22 23.5Q21.9263 23.5 21.853 23.4928Q21.7796 23.4856 21.7074 23.4712Q21.6351 23.4568 21.5646 23.4354Q21.4941 23.414 21.426 23.3858Q21.3579 23.3576 21.2929 23.3229Q21.2279 23.2881 21.1666 23.2472Q21.1054 23.2063 21.0484 23.1595Q20.9914 23.1128 20.9393 23.0607Q20.8872 23.0086 20.8405 22.9516Q20.7937 22.8946 20.7528 22.8334Q20.7119 22.7721 20.6771 22.7071Q20.6424 22.6421 20.6142 22.574Q20.586 22.5059 20.5646 22.4354Q20.5432 22.3649 20.5288 22.2926Q20.5144 22.2204 20.5072 22.147Q20.5 22.0737 20.5 22L20.5 5Q20.5 4.28765 20.2255 3.63898Q19.9598 3.01108 19.4743 2.52566Q18.9889 2.04024 18.361 1.77452Q17.7124 1.5 17 1.5L0 1.5Z " /><path  id="路径 1" style="stroke:#FFFFFF; stroke-width:3; stroke-opacity:1; stroke-dasharray:0 0" transform="translate(8.5 0)  rotate(0 11 11)" d="" /></g></g></svg>