<!-- Exported by Character Map UWP -->
<svg height="100%" viewBox="64 0 832 1024" width="100%" xmlns="http://www.w3.org/2000/svg" xmlns:xlink="http://www.w3.org/1999/xlink">
  <path d="M64,678C64,660 67.0833,643.25 73.25,627.75C79.4167,612.25 87.75,598.167 98.25,585.5C108.75,572.833 121,561.5 135,551.5C149,541.5 163.667,533 179,526C188,522 196.583,517.75 204.75,513.25C212.917,508.75 220.833,503.333 228.5,497C251.5,478 272.417,457.25 291.25,434.75C310.083,412.25 327.5,388.667 343.5,364C359.5,339.333 374.417,313.917 388.25,287.75C402.083,261.583 415.333,235.333 428,209C439.667,185 449.75,160.5 458.25,135.5C466.75,110.5 476.167,85.6667 486.5,61C494.167,43.0001 505.083,28.3334 519.25,17C533.417,5.66669 550.5,0 570.5,0C582.167,0 592.833,2.41669 602.5,7.25C612.167,12.0834 621.167,18.3334 629.5,26C641.5,37.6667 651.25,50.0834 658.75,63.25C666.25,76.4167 672,90.25 676,104.75C680,119.25 682.75,134.25 684.25,149.75C685.75,165.25 686.5,181 686.5,197C686.5,229 684.333,260.5 680,291.5C675.667,322.5 670.167,353.667 663.5,385C672.833,384.667 682.083,384.417 691.25,384.25C700.417,384.083 709.667,384 719,384C742.667,384 765.25,388 786.75,396C808.25,404 827.083,415.25 843.25,429.75C859.417,444.25 872.25,461.583 881.75,481.75C891.25,501.917 896,524.333 896,549C896,560 895,570.667 893,581L853,804.5C847.333,836.167 836.583,865.417 820.75,892.25C804.917,919.083 785.417,942.25 762.25,961.75C739.083,981.25 713,996.5 684,1007.5C655,1018.5 624.333,1024 592,1024C580.333,1024 568.667,1023.17 557,1021.5C545.333,1019.83 533.833,1017.5 522.5,1014.5L193,924C165.667,916.333 142.667,902.25 124,881.75C105.333,861.25 93.1667,837.167 87.5,809.5L66.5,704.5C64.8333,695.167 64,686.333 64,678ZM592.5,960C616.833,960 640,955.75 662,947.25C684,938.75 703.75,927.083 721.25,912.25C738.75,897.417 753.5,879.833 765.5,859.5C777.5,839.167 785.667,817 790,793L830,569.5C830.667,566.167 831.167,562.833 831.5,559.5C831.833,556.167 832,552.833 832,549.5C832,534.167 829,520.25 823,507.75C817,495.25 808.833,484.583 798.5,475.75C788.167,466.917 776.333,460.083 763,455.25C749.667,450.417 735.833,448 721.5,448C711.833,448 702.333,448.167 693,448.5C683.667,448.833 674.167,449 664.5,449C655.5,449 647.083,447.333 639.25,444C631.417,440.667 624.583,436.167 618.75,430.5C612.917,424.833 608.25,418.083 604.75,410.25C601.25,402.417 599.5,394 599.5,385C599.5,379.333 600.25,373.75 601.75,368.25C603.25,362.75 604.833,357.167 606.5,351.5C613.167,326.5 617.5,301.167 619.5,275.5C621.5,249.833 622.5,224.167 622.5,198.5C622.5,186.5 622.167,174.75 621.5,163.25C620.833,151.75 619.167,140.5 616.5,129.5C613.833,118.5 609.833,108 604.5,98C599.167,88 592,78.6667 583,70C581.333,68.3334 579.583,66.9167 577.75,65.75C575.917,64.5834 573.667,64.0001 571,64C565.333,64.0001 560.5,65.8334 556.5,69.5C552.5,73.1667 549.333,77.3334 547,82C543.333,89.3334 540.333,97 538,105C535.667,113 533.167,120.833 530.5,128.5C516.5,168.833 500.083,208.333 481.25,247C462.417,285.667 442.333,323.667 421,361C401.333,395.333 379,428 354,459C329,490 301.5,518.5 271.5,544.5C261.167,553.5 250.25,561.167 238.75,567.5C227.25,573.833 215.333,579.833 203,585.5C193.667,589.833 184.5,595 175.5,601C166.5,607 158.5,613.833 151.5,621.5C144.5,629.167 138.833,637.75 134.5,647.25C130.167,656.75 128,667 128,678C128,683 128.5,687.667 129.5,692L150,797C153,812.667 159.917,826.333 170.75,838C181.583,849.667 194.667,857.667 210,862L539.5,953C548.167,955.667 556.917,957.5 565.75,958.5C574.583,959.5 583.5,960 592.5,960Z" fill="#FFFFFF" fill-opacity="1">
  </path>
</svg>