<svg xmlns="http://www.w3.org/2000/svg" xmlns:xlink="http://www.w3.org/1999/xlink" fill="none" version="1.1" width="29.666748046875" height="29.6666259765625" viewBox="0 0 29.666748046875 29.6666259765625"><g><g><path d="M17.7727,6.56066L13.7727,2.56066L14.8333,1.500000000000001L15.894,2.56066L11.894,6.56066Q11.7895,6.66513,11.6667,6.7472Q11.5438,6.82928,11.40736,6.88582Q11.27087,6.94236,11.12597,6.97118Q10.98107,7,10.83333,7L5.5,7L5.5,5.5L7,5.5L7,10.83333Q7,10.98107,6.97118,11.12597Q6.94236,11.27087,6.88582,11.40736Q6.82928,11.5438,6.7472,11.6667Q6.66513,11.7895,6.56066,11.894L2.56066,15.894L1.500000000000001,14.8333L2.56066,13.7727L6.56066,17.7727Q6.66513,17.8771,6.7472,18Q6.82928,18.1228,6.88582,18.2593Q6.94236,18.3958,6.97118,18.5407Q7,18.6856,7,18.8333L7,24.1667L5.5,24.1667L5.5,22.6667L10.83333,22.6667Q10.98107,22.6667,11.12597,22.6955Q11.27087,22.7243,11.40736,22.7808Q11.5438,22.8374,11.6667,22.9195Q11.7895,23.0015,11.894,23.106L15.894,27.106L14.8333,28.1667L13.7727,27.106L17.7727,23.106Q17.8771,23.0015,18,22.9195Q18.1228,22.8374,18.2593,22.7808Q18.3958,22.7243,18.5407,22.6955Q18.6856,22.6667,18.8333,22.6667L24.1667,22.6667L24.1667,24.1667L22.6667,24.1667L22.6667,18.8333Q22.6667,18.6856,22.6955,18.5407Q22.7243,18.3958,22.7808,18.2593Q22.8374,18.1228,22.9195,18Q23.0015,17.8771,23.106,17.7727L27.106,13.7727L28.1667,14.8333L27.106,15.894L23.106,11.894Q23.0015,11.7895,22.9195,11.6667Q22.8374,11.5438,22.7808,11.40736Q22.7243,11.27087,22.6955,11.12597Q22.6667,10.98107,22.6667,10.83333L22.6667,5.5L24.1667,5.5L24.1667,7L18.8333,7Q18.6856,7,18.5407,6.97118Q18.3958,6.94236,18.2593,6.88582Q18.1228,6.82928,18,6.7472Q17.8771,6.66513,17.7727,6.56066ZM19.894,4.43934L18.8333,5.5L18.8333,4L24.1667,4Q24.2404,4,24.3137,4.00722Q24.387,4.01445,24.4593,4.02882Q24.5316,4.043200000000001,24.6021,4.06459Q24.6726,4.08598,24.7407,4.11418Q24.8088,4.14238,24.8738,4.17712Q24.9387,4.21186,25,4.252800000000001Q25.0613,4.29374,25.1183,4.3404799999999994Q25.1752,4.387230000000001,25.2273,4.43934Q25.2794,4.49145,25.3262,4.5484100000000005Q25.3729,4.605370000000001,25.4139,4.66664Q25.4548,4.72792,25.4895,4.7928999999999995Q25.5243,4.857889999999999,25.5525,4.9259699999999995Q25.5807,4.99406,25.6021,5.06457Q25.6235,5.13509,25.6378,5.2073599999999995Q25.6522,5.2796400000000006,25.6594,5.35297Q25.6667,5.42631,25.6667,5.5L25.6667,10.83333L24.1667,10.83333L25.2273,9.77267L29.2273,13.7727Q29.2794,13.8248,29.3262,13.8817Q29.3729,13.9387,29.4139,14Q29.4548,14.0612,29.4895,14.1262Q29.5243,14.1912,29.5525,14.2593Q29.5807,14.3274,29.6021,14.3979Q29.6235,14.4684,29.6378,14.5407Q29.6522,14.613,29.6594,14.6863Q29.6667,14.7596,29.6667,14.8333Q29.6667,14.907,29.6594,14.9804Q29.6522,15.0537,29.6378,15.126Q29.6235,15.1982,29.6021,15.2688Q29.5807,15.3393,29.5525,15.4074Q29.5243,15.4754,29.4895,15.5404Q29.4548,15.6054,29.4139,15.6667Q29.3729,15.728,29.3262,15.7849Q29.2794,15.8419,29.2273,15.894L25.2273,19.894L24.1667,18.8333L25.6667,18.8333L25.6667,24.1667Q25.6667,24.2404,25.6594,24.3137Q25.6522,24.387,25.6378,24.4593Q25.6235,24.5316,25.6021,24.6021Q25.5807,24.6726,25.5525,24.7407Q25.5243,24.8088,25.4895,24.8738Q25.4548,24.9387,25.4139,25Q25.3729,25.0613,25.3262,25.1183Q25.2794,25.1752,25.2273,25.2273Q25.1752,25.2794,25.1183,25.3262Q25.0613,25.3729,25,25.4139Q24.9387,25.4548,24.8738,25.4895Q24.8088,25.5243,24.7407,25.5525Q24.6726,25.5807,24.6021,25.6021Q24.5316,25.6235,24.4593,25.6378Q24.387,25.6522,24.3137,25.6594Q24.2404,25.6667,24.1667,25.6667L18.8333,25.6667L18.8333,24.1667L19.894,25.2273L15.894,29.2273Q15.8419,29.2794,15.7849,29.3262Q15.728,29.3729,15.6667,29.4139Q15.6054,29.4548,15.5404,29.4895Q15.4754,29.5243,15.4074,29.5525Q15.3393,29.5807,15.2688,29.6021Q15.1982,29.6235,15.126,29.6378Q15.0537,29.6522,14.9804,29.6594Q14.907,29.6667,14.8333,29.6667Q14.7596,29.6667,14.6863,29.6594Q14.613,29.6522,14.5407,29.6378Q14.4684,29.6235,14.3979,29.6021Q14.3274,29.5807,14.2593,29.5525Q14.1912,29.5243,14.1262,29.4895Q14.0612,29.4548,14,29.4139Q13.9387,29.3729,13.8817,29.3262Q13.8248,29.2794,13.7727,29.2273L9.77267,25.2273L10.83333,24.1667L10.83333,25.6667L5.5,25.6667Q5.42631,25.6667,5.35297,25.6594Q5.2796400000000006,25.6522,5.2073599999999995,25.6378Q5.13509,25.6235,5.06457,25.6021Q4.99406,25.5807,4.9259699999999995,25.5525Q4.857889999999999,25.5243,4.7928999999999995,25.4895Q4.72792,25.4548,4.66664,25.4139Q4.605370000000001,25.3729,4.5484100000000005,25.3262Q4.49145,25.2794,4.43934,25.2273Q4.387230000000001,25.1752,4.3404799999999994,25.1183Q4.29374,25.0613,4.252800000000001,25Q4.21185,24.9387,4.17712,24.8738Q4.14238,24.8088,4.11418,24.7407Q4.08598,24.6726,4.06459,24.6021Q4.043200000000001,24.5316,4.02882,24.4593Q4.01445,24.387,4.00722,24.3137Q4,24.2404,4,24.1667L4,18.8333L5.5,18.8333L4.43934,19.894L0.43934000000000006,15.894Q0.38722999999999996,15.8419,0.3404799999999999,15.7849Q0.2937399999999999,15.728,0.2527999999999999,15.6667Q0.21185999999999994,15.6054,0.17711999999999994,15.5404Q0.14237999999999995,15.4754,0.11417999999999995,15.4074Q0.08597999999999995,15.3393,0.06458999999999993,15.2688Q0.043199999999999905,15.1982,0.028820000000000068,15.126Q0.014450000000000074,15.0537,0.007220000000000004,14.9804Q0,14.907,0,14.8333Q0,14.7596,0.007220000000000004,14.6863Q0.014450000000000074,14.613,0.028820000000000068,14.5407Q0.043199999999999905,14.4684,0.06458999999999993,14.3979Q0.08597999999999995,14.3274,0.11417999999999995,14.2593Q0.14237999999999995,14.1912,0.17711999999999994,14.1262Q0.21185999999999994,14.0612,0.2527999999999999,14Q0.2937399999999999,13.9387,0.3404799999999999,13.8817Q0.38722999999999996,13.8248,0.43934000000000006,13.7727L4.43934,9.77267L5.5,10.83333L4,10.83333L4,5.5Q4,5.42631,4.00722,5.35297Q4.01445,5.2796400000000006,4.02882,5.2073599999999995Q4.043200000000001,5.13509,4.06459,5.06457Q4.08598,4.99406,4.11418,4.9259699999999995Q4.14238,4.857889999999999,4.17712,4.7928999999999995Q4.21185,4.72792,4.252800000000001,4.66664Q4.29374,4.605370000000001,4.3404799999999994,4.5484100000000005Q4.387230000000001,4.49145,4.43934,4.43934Q4.49145,4.387230000000001,4.5484100000000005,4.3404799999999994Q4.605370000000001,4.29374,4.66664,4.252800000000001Q4.72792,4.21186,4.7928999999999995,4.17712Q4.857889999999999,4.14238,4.9259699999999995,4.11418Q4.99406,4.08598,5.06457,4.06459Q5.13509,4.043200000000001,5.2073599999999995,4.02882Q5.2796400000000006,4.01445,5.35297,4.00722Q5.42631,4,5.5,4L10.83333,4L10.83333,5.5L9.77267,4.43934L13.7727,0.43934000000000006Q13.8248,0.38722999999999996,13.8817,0.3404799999999999Q13.9387,0.2937399999999999,14,0.2527999999999999Q14.0612,0.21185999999999994,14.1262,0.17711999999999994Q14.1912,0.14237999999999995,14.2593,0.11417999999999995Q14.3274,0.08597999999999995,14.3979,0.06458999999999993Q14.4684,0.043199999999999905,14.5407,0.028820000000000068Q14.613,0.014450000000000074,14.6863,0.007220000000000004Q14.7596,0,14.8333,0Q14.907,0,14.9804,0.007220000000000004Q15.0537,0.014450000000000074,15.126,0.028820000000000068Q15.1982,0.043199999999999905,15.2688,0.06458999999999993Q15.3393,0.08597999999999995,15.4074,0.11417999999999995Q15.4754,0.14237999999999995,15.5404,0.17711999999999994Q15.6054,0.21185999999999994,15.6667,0.2527999999999999Q15.728,0.2937399999999999,15.7849,0.3404799999999999Q15.8419,0.38722999999999996,15.894,0.43934000000000006L19.894,4.43934Z" fill="#FFFFFF" fill-opacity="1"/></g><g><ellipse cx="14.8330078125" cy="14.8333740234375" rx="4" ry="4" fill-opacity="0" stroke-opacity="1" stroke="#FFFFFF" fill="none" stroke-width="3" stroke-linejoin="round"/></g></g></svg>