<svg xmlns="http://www.w3.org/2000/svg" xmlns:xlink="http://www.w3.org/1999/xlink" fill="none" version="1.1" width="36.00128936767578" height="36.00128936767578" viewBox="0 0 36.00128936767578 36.00128936767578"><g style="mix-blend-mode:passthrough" transform="matrix(6.123234262925839e-17,1,-1,6.123234262925839e-17,36.00128936767578,-36.00128936767578)"><path d="M51.43128936767578,11.57C51.43128936767578,12.09,51.33128936767578,12.59,51.131289367675784,13.06C50.93128936767578,13.53,50.65128936767578,13.94,50.29128936767578,14.29C49.94128936767578,14.65,49.53128936767578,14.93,49.06128936767578,15.13C48.591289367675785,15.33,48.091289367675785,15.43,47.57128936767578,15.43L39.86128936767578,15.43C39.33128936767578,15.43,38.841289367675785,15.33,38.37128936767578,15.13C37.90128936767578,14.93,37.49128936767578,14.65,37.14128936767578,14.29Q36.60128936767578,13.765,36.30128936767578,13.06C36.10128936767578,12.59,36.00128936767578,12.09,36.00128936767578,11.57L36.00128936767578,3.86C36.00128936767578,3.33,36.10128936767578,2.84,36.30128936767578,2.37Q36.60128936767578,1.665,37.14128936767578,1.14Q37.66628936767578,0.6,38.37128936767578,0.3C38.841289367675785,0.1,39.33128936767578,0,39.86128936767578,0L47.57128936767578,0C48.091289367675785,0,48.591289367675785,0.1,49.06128936767578,0.3Q49.76628936767578,0.6,50.29128936767578,1.14C50.65128936767578,1.49,50.93128936767578,1.9,51.131289367675784,2.37C51.33128936767578,2.84,51.43128936767578,3.33,51.43128936767578,3.86L51.43128936767578,11.57ZM60.43258936767578,15.43C59.90258936767578,15.43,59.41258936767578,15.33,58.94258936767578,15.13C58.47258936767578,14.93,58.062589367675784,14.65,57.71258936767578,14.29C57.352589367675776,13.94,57.07258936767578,13.53,56.872589367675786,13.06C56.67258936767578,12.59,56.57258936767578,12.09,56.57258936767578,11.57L56.57258936767578,3.86C56.57258936767578,3.33,56.67258936767578,2.84,56.872589367675786,2.37C57.07258936767578,1.9,57.352589367675776,1.49,57.71258936767578,1.14Q58.23758936767578,0.6,58.94258936767578,0.3C59.41258936767578,0.1,59.90258936767578,0,60.43258936767578,0L68.14258936767578,0C68.66258936767578,0,69.16258936767578,0.1,69.63258936767579,0.3Q70.33758936767578,0.6,70.86258936767578,1.14C71.22258936767578,1.49,71.50258936767578,1.9,71.70258936767578,2.37C71.90258936767577,2.84,72.00258936767578,3.33,72.00258936767578,3.86L72.00258936767578,11.57C72.00258936767578,12.09,71.90258936767577,12.59,71.70258936767578,13.06C71.50258936767578,13.53,71.22258936767578,13.94,70.86258936767578,14.29C70.51258936767579,14.65,70.10258936767579,14.93,69.63258936767579,15.13C69.16258936767578,15.33,68.66258936767578,15.43,68.14258936767578,15.43L60.43258936767578,15.43ZM48.86258936767578,11.5713C48.86258936767578,11.9213,48.73258936767578,12.2213,48.47258936767578,12.4713C48.22258936767578,12.7313,47.92258936767578,12.8613,47.57258936767578,12.8613L39.86257936767578,12.8613C39.512579367675784,12.8613,39.21257936767578,12.7313,38.95257936767578,12.4713C38.70257936767578,12.2213,38.57257936767578,11.9213,38.57257936767578,11.5713L38.57257936767578,3.86129C38.57257936767578,3.51129,38.70257936767578,3.21129,38.95257936767578,2.95129C39.21257936767578,2.70129,39.512579367675784,2.57129,39.86257936767578,2.57129L47.57258936767578,2.57129C47.92258936767578,2.57129,48.22258936767578,2.70129,48.47258936767578,2.95129C48.73258936767578,3.21129,48.86258936767578,3.51129,48.86258936767578,3.86129L48.86258936767578,11.5713ZM69.43388936767579,11.5713C69.43388936767579,11.9213,69.30388936767578,12.2213,69.04388936767577,12.4713C68.79388936767577,12.7313,68.49388936767579,12.8613,68.14388936767578,12.8613L60.43388936767578,12.8613C60.08388936767578,12.8613,59.78388936767578,12.7313,59.52388936767578,12.4713C59.27388936767578,12.2213,59.14388936767578,11.9213,59.14388936767578,11.5713L59.14388936767578,3.86129C59.14388936767578,3.51129,59.27388936767578,3.21129,59.52388936767578,2.95129C59.78388936767578,2.70129,60.08388936767578,2.57129,60.43388936767578,2.57129L68.14388936767578,2.57129C68.49388936767579,2.57129,68.79388936767577,2.70129,69.04388936767577,2.95129C69.30388936767578,3.21129,69.43388936767579,3.51129,69.43388936767579,3.86129L69.43388936767579,11.5713ZM38.37128936767578,20.8713C38.841289367675785,20.6713,39.33128936767578,20.5713,39.86128936767578,20.5713L47.57128936767578,20.5713C48.091289367675785,20.5713,48.591289367675785,20.6713,49.06128936767578,20.8713C49.53128936767578,21.0713,49.94128936767578,21.3513,50.29128936767578,21.7113C50.65128936767578,22.0613,50.93128936767578,22.4713,51.131289367675784,22.9413C51.33128936767578,23.4113,51.43128936767578,23.9013,51.43128936767578,24.4313L51.43128936767578,32.1413C51.43128936767578,32.6613,51.33128936767578,33.1613,51.131289367675784,33.6313C50.93128936767578,34.1013,50.65128936767578,34.5113,50.29128936767578,34.8613C49.94128936767578,35.2213,49.53128936767578,35.5013,49.06128936767578,35.7013C48.591289367675785,35.9013,48.091289367675785,36.0013,47.57128936767578,36.0013L39.86128936767578,36.0013C39.33128936767578,36.0013,38.841289367675785,35.9013,38.37128936767578,35.7013C37.90128936767578,35.5013,37.49128936767578,35.2213,37.14128936767578,34.8613Q36.60128936767578,34.3363,36.30128936767578,33.6313C36.10128936767578,33.1613,36.00128936767578,32.6613,36.00128936767578,32.1413L36.00128936767578,24.4313C36.00128936767578,23.9013,36.10128936767578,23.4113,36.30128936767578,22.9413Q36.60128936767578,22.2363,37.14128936767578,21.7113C37.49128936767578,21.3513,37.90128936767578,21.0713,38.37128936767578,20.8713ZM70.86258936767578,21.7113C71.22258936767578,22.0613,71.50258936767578,22.4713,71.70258936767578,22.9413C71.90258936767577,23.4113,72.00258936767578,23.9013,72.00258936767578,24.4313L72.00258936767578,32.1413C72.00258936767578,32.6613,71.90258936767577,33.1613,71.70258936767578,33.6313C71.50258936767578,34.1013,71.22258936767578,34.5113,70.86258936767578,34.8613C70.51258936767579,35.2213,70.10258936767579,35.5013,69.63258936767579,35.7013C69.16258936767578,35.9013,68.66258936767578,36.0013,68.14258936767578,36.0013L60.43258936767578,36.0013C59.90258936767578,36.0013,59.41258936767578,35.9013,58.94258936767578,35.7013C58.47258936767578,35.5013,58.062589367675784,35.2213,57.71258936767578,34.8613C57.352589367675776,34.5113,57.07258936767578,34.1013,56.872589367675786,33.6313C56.67258936767578,33.1613,56.57258936767578,32.6613,56.57258936767578,32.1413L56.57258936767578,24.4313C56.57258936767578,23.9013,56.67258936767578,23.4113,56.872589367675786,22.9413C57.07258936767578,22.4713,57.352589367675776,22.0613,57.71258936767578,21.7113C58.062589367675784,21.3513,58.47258936767578,21.0713,58.94258936767578,20.8713C59.41258936767578,20.6713,59.90258936767578,20.5713,60.43258936767578,20.5713L68.14258936767578,20.5713C68.66258936767578,20.5713,69.16258936767578,20.6713,69.63258936767579,20.8713C70.10258936767579,21.0713,70.51258936767579,21.3513,70.86258936767578,21.7113ZM38.57257936767578,32.1431L38.57257936767578,24.4331C38.57257936767578,24.0831,38.70257936767578,23.7831,38.95257936767578,23.5231C39.21257936767578,23.2731,39.512579367675784,23.1431,39.86257936767578,23.1431L47.57258936767578,23.1431C47.92258936767578,23.1431,48.22258936767578,23.2731,48.47258936767578,23.5231C48.73258936767578,23.7831,48.86258936767578,24.0831,48.86258936767578,24.4331L48.86258936767578,32.1431C48.86258936767578,32.4931,48.73258936767578,32.7931,48.47258936767578,33.0431C48.22258936767578,33.3031,47.92258936767578,33.4331,47.57258936767578,33.4331L39.86257936767578,33.4331C39.512579367675784,33.4331,39.21257936767578,33.3031,38.95257936767578,33.0431C38.70257936767578,32.7931,38.57257936767578,32.4931,38.57257936767578,32.1431ZM59.52388936767578,23.5231C59.78388936767578,23.2731,60.08388936767578,23.1431,60.43388936767578,23.1431L68.14388936767578,23.1431C68.49388936767579,23.1431,68.79388936767577,23.2731,69.04388936767577,23.5231C69.30388936767578,23.7831,69.43388936767579,24.0831,69.43388936767579,24.4331L69.43388936767579,32.1431C69.43388936767579,32.4931,69.30388936767578,32.7931,69.04388936767577,33.0431C68.79388936767577,33.3031,68.49388936767579,33.4331,68.14388936767578,33.4331L60.43388936767578,33.4331C60.08388936767578,33.4331,59.78388936767578,33.3031,59.52388936767578,33.0431C59.27388936767578,32.7931,59.14388936767578,32.4931,59.14388936767578,32.1431L59.14388936767578,24.4331C59.14388936767578,24.0831,59.27388936767578,23.7831,59.52388936767578,23.5231Z" fill-rule="evenodd" fill="#FFFFFF" fill-opacity="1"/></g></svg>