<svg xmlns="http://www.w3.org/2000/svg" xmlns:xlink="http://www.w3.org/1999/xlink" fill="none" version="1.1" width="11.78487491607666" height="13" viewBox="0 0 11.78487491607666 13"><g style="mix-blend-mode:passthrough"><path d="M4.1947,6.49997Q4.1947,7.20315,4.69193,7.70038Q5.18915,8.197610000000001,5.89234,8.197610000000001Q6.59553,8.197610000000001,7.09276,7.70038Q7.58998,7.20315,7.58998,6.49997Q7.58998,5.79678,7.09276,5.29955Q6.59553,4.80232,5.89234,4.80232Q5.18915,4.80232,4.69193,5.29955Q4.1947,5.79678,4.1947,6.49997ZM3.1947,6.49997Q3.1947,5.38257,3.98482,4.59244Q4.77494,3.80232,5.89234,3.80232Q7.00974,3.80232,7.79986,4.59244Q8.58998,5.38257,8.58998,6.49997Q8.58998,7.61737,7.79986,8.40749Q7.00974,9.19761,5.89234,9.19761Q4.77494,9.19761,3.98482,8.40749Q3.1947,7.61737,3.1947,6.49997ZM10.7848,8.76742L10.7848,4.2325099999999996Q10.7848,3.67532,10.30223,3.39672L6.37489,1.129264Q5.89234,0.850665,5.40979,1.129264L1.48245,3.39672Q0.999903,3.67532,0.999903,4.2325099999999996L0.999903,8.76742Q0.999903,9.32462,1.482451,9.60322L5.40979,11.8707Q5.89234,12.1493,6.37489,11.8707L10.30223,9.60322Q10.7848,9.32462,10.7848,8.76742ZM11.7848,8.76742Q11.7848,9.90197,10.8022,10.46924L6.87489,12.7367Q5.89234,13.304,4.90979,12.7367L0.98245,10.46924Q-0.00009700000000001374,9.90196,-0.00009700000000001374,8.76742L-0.00009700000000001374,4.2325099999999996Q-0.00009700000000001374,3.09797,0.98245,2.53069L4.90979,0.26323799999999997Q5.89234,-0.304036,6.87489,0.26323799999999997L10.8022,2.53069Q11.7848,3.09796,11.7848,4.2325099999999996L11.7848,8.76742Z" fill="#FFFFFF" fill-opacity="1"/></g></svg>