<svg xmlns="http://www.w3.org/2000/svg" xmlns:xlink="http://www.w3.org/1999/xlink" fill="none" version="1.1" width="36" height="36" viewBox="0 0 36 36"><g style="mix-blend-mode:passthrough"><path d="M18,0C8.05887,0,0,8.05887,0,18C0,27.9411,8.05887,36,18,36C27.9411,36,36,27.9411,36,18C36,8.05887,27.9411,0,18,0ZM4.17754,23.8378Q3,21.0537,3,18Q3,14.9463,4.17754,12.1622Q5.31588,9.47092,7.3934,7.3934Q9.47092,5.31588,12.1622,4.17754Q14.9463,3,18,3Q21.0537,3,23.8378,4.17754Q26.5291,5.31588,28.6066,7.3934Q30.6841,9.47092,31.8225,12.1622Q33,14.9463,33,18Q33,21.0537,31.8225,23.8378Q30.6841,26.5291,28.6066,28.6066Q26.5291,30.6841,23.8378,31.8225Q21.0537,33,18,33Q14.9463,33,12.1622,31.8225Q9.47092,30.6841,7.3934,28.6066Q5.31588,26.5291,4.17754,23.8378Z" fill-rule="evenodd" fill="#FFFFFF" fill-opacity="1"/></g></svg>