<!-- Exported by Character Map UWP -->
<svg height="100%" viewBox="64 64 896 896" width="100%" xmlns="http://www.w3.org/2000/svg" xmlns:xlink="http://www.w3.org/1999/xlink">
  <path d="M832,706.5C832,723.167 828.583,739.083 821.75,754.25C814.917,769.417 805.75,782.75 794.25,794.25C782.75,805.75 769.417,814.917 754.25,821.75C739.083,828.583 723.167,832 706.5,832L189.5,832C172.833,832 156.917,828.583 141.75,821.75C126.583,814.917 113.25,805.75 101.75,794.25C90.25,782.75 81.0833,769.417 74.25,754.25C67.4167,739.083 64,723.167 64,706.5L64,189.5C64,172.833 67.4167,156.917 74.25,141.75C81.0833,126.583 90.25,113.25 101.75,101.75C113.25,90.25 126.583,81.0834 141.75,74.25C156.917,67.4167 172.833,64.0001 189.5,64L706.5,64C723.167,64.0001 739.083,67.4167 754.25,74.25C769.417,81.0834 782.75,90.25 794.25,101.75C805.75,113.25 814.917,126.583 821.75,141.75C828.583,156.917 832,172.833 832,189.5ZM128,704C128,706.667 128.167,709.5 128.5,712.5C128.833,715.5 129.333,718.333 130,721L357.5,493C369.167,481.333 383,472.417 399,466.25C415,460.083 431.333,457 448,457C465,457 481.417,460 497.25,466C513.083,472 526.833,481 538.5,493L766,721C766.667,718.333 767.167,715.5 767.5,712.5C767.833,709.5 768,706.667 768,704L768,192C768,183.333 766.333,175.083 763,167.25C759.667,159.417 755.083,152.583 749.25,146.75C743.417,140.917 736.583,136.333 728.75,133C720.917,129.667 712.667,128 704,128L192,128C183,128 174.667,129.667 167,133C159.333,136.333 152.583,140.917 146.75,146.75C140.917,152.583 136.333,159.333 133,167C129.667,174.667 128,183 128,192ZM960,320L960,772C960,797 954.917,820.917 944.75,843.75C934.583,866.583 920.917,886.583 903.75,903.75C886.583,920.917 866.583,934.583 843.75,944.75C820.917,954.917 797,960 772,960L320,960C297,960 275.583,954.333 255.75,943C235.917,931.667 220.333,916 209,896L770.5,896C787.833,896 804.083,892.5 819.25,885.5C834.417,878.5 847.667,869.167 859,857.5C870.333,845.833 879.333,832.25 886,816.75C892.667,801.25 896,785 896,768L896,209C916,220.333 931.667,235.917 943,255.75C954.333,275.583 960,297 960,320ZM544,288C544,279 545.667,270.667 549,263C552.333,255.333 556.917,248.583 562.75,242.75C568.583,236.917 575.333,232.333 583,229C590.667,225.667 599,224 608,224C616.667,224 624.917,225.667 632.75,229C640.583,232.333 647.417,236.917 653.25,242.75C659.083,248.583 663.667,255.417 667,263.25C670.333,271.083 672,279.333 672,288C672,297 670.333,305.333 667,313C663.667,320.667 659.083,327.417 653.25,333.25C647.417,339.083 640.667,343.667 633,347C625.333,350.333 617,352 608,352C599,352 590.583,350.333 582.75,347C574.917,343.667 568.167,339.167 562.5,333.5C556.833,327.833 552.333,321.083 549,313.25C545.667,305.417 544,297 544,288ZM175,766C177.667,766.667 180.5,767.167 183.5,767.5C186.5,767.833 189.333,768 192,768L704,768C706.667,768 709.5,767.833 712.5,767.5C715.5,767.167 718.333,766.667 721,766L493.5,538.5C487.5,532.5 480.5,528 472.5,525C464.5,522 456.333,520.5 448,520.5C439.667,520.5 431.583,522 423.75,525C415.917,528 409,532.5 403,538.5Z" fill="#FFFFFF" fill-opacity="1">
  </path>
</svg>