<svg xmlns="http://www.w3.org/2000/svg" xmlns:xlink="http://www.w3.org/1999/xlink" fill="none" version="1.1" width="30" height="30" viewBox="0 0 30 30"><defs><clipPath id="master_svg0_143_2097"><rect x="0" y="0" width="30" height="30" rx="0"/></clipPath></defs><g clip-path="url(#master_svg0_143_2097)"><g><path d="M27.5,15C27.5,14.3096,26.9404,13.75,26.25,13.75C25.5596,13.75,25,14.3096,25,15L27.5,15ZM15,5C15.6904,5,16.25,4.44036,16.25,3.75C16.25,3.059644,15.6904,2.5,15,2.5L15,5ZM24.375,25L5.625,25L5.625,27.5L24.375,27.5L24.375,25ZM5,24.375L5,5.625L2.5,5.625L2.5,24.375L5,24.375ZM25,15L25,24.375L27.5,24.375L27.5,15L25,15ZM5.625,5L15,5L15,2.5L5.625,2.5L5.625,5ZM5.625,25C5.2798300000000005,25,5,24.7202,5,24.375L2.5,24.375C2.5,26.1009,3.8991100000000003,27.5,5.625,27.5L5.625,25ZM24.375,27.5C26.1009,27.5,27.5,26.1009,27.5,24.375L25,24.375C25,24.7202,24.7202,25,24.375,25L24.375,27.5ZM5,5.625C5,5.2798300000000005,5.27982,5,5.625,5L5.625,2.5C3.8991100000000003,2.5,2.5,3.8991100000000003,2.5,5.625L5,5.625Z" fill="#FFFFFF" fill-opacity="1"/></g><g><path d="M19.186500000000002,23.44907508911133L11.27782,16.670195089111328Q11.27783,16.670205089111327,11.27788,16.67016508911133L4.594655,22.79644508911133Q4.549388,22.837935089111326,4.500271,22.874795089111327Q4.451154,22.911655089111328,4.398661,22.94352508911133Q4.3461680000000005,22.975385089111327,4.290804,23.001955089111327Q4.23544,23.028525089111326,4.177739,23.049535089111327Q4.120037,23.070555089111327,4.060554,23.08580508911133Q4.001071,23.10106508911133,3.940379,23.110415089111328Q3.879687,23.11976508911133,3.8183702,23.123125089111326Q3.75705353,23.126485089111327,3.6957029,23.12381508911133Q3.634352,23.121155089111326,3.573559,23.112485089111328Q3.512765,23.10381508911133,3.4531140000000002,23.089235089111327Q3.393462,23.07464508911133,3.335528,23.05428508911133Q3.277593,23.033925089111328,3.221933,23.007975089111326Q3.166274,22.982035089111328,3.113425,22.95076508911133Q3.060576,22.91949508911133,3.011046,22.88318508911133Q2.9615169999999997,22.84688508911133,2.915785,22.805905089111327Q2.8700520000000003,22.76492508911133,2.828557,22.719655089111328Q2.787062,22.67438508911133,2.750203,22.625275089111327Q2.71334,22.576155089111328,2.68148,22.52366508911133Q2.64961,22.471165089111327,2.62304,22.415805089111327Q2.5964799999999997,22.360435089111327,2.57546,22.30273508911133Q2.55445,22.245035089111326,2.53919,22.18555508911133Q2.52394,22.12606508911133,2.51458,22.065375089111328Q2.50523,22.004685089111327,2.5018700000000003,21.943365089111328Q2.49851,21.88205508911133,2.5011799999999997,21.82070508911133Q2.50385,21.759355089111327,2.5125200000000003,21.698555089111327Q2.52118,21.637765089111326,2.5357700000000003,21.57811508911133Q2.55035,21.518465089111327,2.5707199999999997,21.46052508911133Q2.59108,21.40259508911133,2.61702,21.346935089111327Q2.64296,21.291275089111327,2.67423,21.238425089111328Q2.7055100000000003,21.185575089111328,2.74181,21.136045089111327Q2.778112,21.08651508911133,2.819095,21.040785089111328Q2.860077,20.99505508911133,2.905345,20.953555089111326L9.5885,14.827337089111328Q10.28772,14.186345089111327,11.236170000000001,14.170535089111329Q12.18463,14.154725089111327,12.9048,14.772054089111329L20.8135,21.550925089111328Q20.8601,21.590895089111328,20.9026,21.635235089111326Q20.9451,21.679575089111328,20.983,21.72786508911133Q21.0209,21.776165089111327,21.054,21.827935089111328Q21.087,21.87971508911133,21.1148,21.934485089111327Q21.1425,21.98924508911133,21.1648,22.04647508911133Q21.1871,22.103695089111326,21.2037,22.16282508911133Q21.2202,22.22195508911133,21.2309,22.282435089111328Q21.2416,22.342905089111326,21.2463,22.40412508911133Q21.251,22.465355089111327,21.2497,22.526755089111326Q21.2484,22.58814508911133,21.2411,22.649115089111326Q21.2337,22.710085089111328,21.2205,22.770045089111328Q21.2072,22.830005089111328,21.1881,22.888375089111328Q21.1691,22.946745089111328,21.1443,23.002955089111328Q21.1196,23.059175089111328,21.0895,23.11270508911133Q21.0594,23.16622508911133,21.0242,23.216545089111328Q20.989,23.266865089111327,20.9491,23.313485089111328Q20.9091,23.36011508911133,20.8648,23.40259508911133Q20.8204,23.44508508911133,20.7721,23.483015089111326Q20.7238,23.52094508911133,20.6721,23.55396508911133Q20.6203,23.586975089111327,20.5655,23.614755089111327Q20.5108,23.64254508911133,20.4535,23.66482508911133Q20.3963,23.687105089111327,20.3372,23.70366508911133Q20.278,23.720235089111327,20.2176,23.730915089111328Q20.1571,23.741605089111328,20.0959,23.746315089111327Q20.0346,23.75102508911133,19.9732,23.749715089111326Q19.9119,23.748395089111327,19.8509,23.741075089111327Q19.7899,23.73374508911133,19.73,23.720485089111328Q19.67,23.70721508911133,19.6116,23.688135089111327Q19.5533,23.66905508911133,19.497,23.644345089111326Q19.4408,23.619635089111327,19.3873,23.58953508911133Q19.3338,23.55943508911133,19.2835,23.52423508911133Q19.2331,23.489035089111326,19.186500000000002,23.44907508911133ZM21.25,22.49999508911133Q21.25,22.56140508911133,21.244,22.622525089111328Q21.238,22.683635089111327,21.226,22.743865089111328Q21.214,22.80409508911133,21.1962,22.862855089111328Q21.1783,22.921615089111327,21.1548,22.97835508911133Q21.1313,23.035085089111327,21.1024,23.08924508911133Q21.0735,23.14340508911133,21.0393,23.19446508911133Q21.0052,23.24552508911133,20.9663,23.29299508911133Q20.9273,23.340465089111326,20.8839,23.383885089111327Q20.8405,23.42730508911133,20.793,23.466265089111328Q20.7455,23.505215089111328,20.6945,23.539335089111326Q20.6434,23.573455089111327,20.5892,23.60240508911133Q20.5351,23.631345089111328,20.4784,23.654845089111326Q20.4216,23.67834508911133,20.3629,23.69617508911133Q20.3041,23.71400508911133,20.2439,23.725985089111326Q20.1836,23.737965089111327,20.1225,23.743985089111327Q20.0614,23.74999508911133,20,23.74999508911133Q19.9386,23.74999508911133,19.8775,23.743985089111327Q19.8164,23.737965089111327,19.7561,23.725985089111326Q19.6959,23.71400508911133,19.6371,23.69617508911133Q19.578400000000002,23.67834508911133,19.5216,23.654845089111326Q19.4649,23.631345089111328,19.410800000000002,23.60240508911133Q19.3566,23.573455089111327,19.305500000000002,23.539335089111326Q19.2545,23.505215089111328,19.207,23.466265089111328Q19.1595,23.42730508911133,19.1161,23.383885089111327Q19.072699999999998,23.340465089111326,19.0337,23.29299508911133Q18.994799999999998,23.24552508911133,18.9607,23.19446508911133Q18.9265,23.14340508911133,18.8976,23.08924508911133Q18.8686,23.035085089111327,18.845100000000002,22.97835508911133Q18.8217,22.921615089111327,18.803800000000003,22.862855089111328Q18.786,22.80409508911133,18.774,22.743865089111328Q18.762,22.683635089111327,18.756,22.622525089111328Q18.75,22.56140508911133,18.75,22.49999508911133Q18.75,22.438595089111327,18.756,22.37747508911133Q18.762,22.31636508911133,18.774,22.25613508911133Q18.786,22.195905089111328,18.803800000000003,22.13714508911133Q18.8217,22.07837508911133,18.845100000000002,22.021645089111328Q18.8686,21.96491508911133,18.8976,21.910755089111326Q18.9265,21.85659508911133,18.9607,21.805535089111327Q18.994799999999998,21.754475089111327,19.0337,21.707005089111327Q19.072699999999998,21.65953508911133,19.1161,21.61611508911133Q19.1595,21.572695089111328,19.207,21.533735089111328Q19.2545,21.49477508911133,19.305500000000002,21.460665089111327Q19.3566,21.42654508911133,19.410800000000002,21.397595089111327Q19.4649,21.36865508911133,19.5216,21.345145089111327Q19.578400000000002,21.32164508911133,19.6371,21.303825089111328Q19.6959,21.285995089111328,19.7561,21.27401508911133Q19.8164,21.26203508911133,19.8775,21.25601508911133Q19.9386,21.250005089111326,20,21.24999508911133Q20.0614,21.250005089111326,20.1225,21.25601508911133Q20.1836,21.26203508911133,20.2439,21.27401508911133Q20.3041,21.285995089111328,20.3629,21.303825089111328Q20.4216,21.32164508911133,20.4784,21.345145089111327Q20.5351,21.36865508911133,20.5892,21.397595089111327Q20.6434,21.42654508911133,20.6945,21.460665089111327Q20.7455,21.49477508911133,20.793,21.533735089111328Q20.8405,21.572695089111328,20.8839,21.61611508911133Q20.9273,21.65953508911133,20.9663,21.707005089111327Q21.0052,21.754475089111327,21.0393,21.805535089111327Q21.0735,21.85659508911133,21.1024,21.910755089111326Q21.1313,21.96491508911133,21.1548,22.021645089111328Q21.1783,22.07837508911133,21.1962,22.13714508911133Q21.214,22.195905089111328,21.226,22.25613508911133Q21.238,22.31636508911133,21.244,22.37747508911133Q21.25,22.438595089111327,21.25,22.49999508911133ZM5,21.87499508911133Q5,21.93640508911133,4.9939800000000005,21.997525089111328Q4.98796,22.058635089111327,4.97598,22.118865089111328Q4.964,22.17909508911133,4.94618,22.237855089111328Q4.92835,22.296615089111327,4.90485,22.35335508911133Q4.88135,22.410085089111327,4.8524,22.46424508911133Q4.82345,22.51840508911133,4.78934,22.56946508911133Q4.75522,22.62052508911133,4.716263,22.66799508911133Q4.677306,22.715465089111326,4.633883,22.758885089111327Q4.590461,22.80230508911133,4.542992,22.841265089111328Q4.495522,22.880215089111328,4.444463,22.91433508911133Q4.393403,22.948455089111327,4.339246,22.97740508911133Q4.285088,23.006345089111328,4.228354,23.029845089111326Q4.17162,23.05334508911133,4.112856,23.07117508911133Q4.054091,23.08900508911133,3.993863,23.100985089111326Q3.933634,23.112965089111327,3.872521,23.118985089111327Q3.8114086,23.12499508911133,3.75,23.12499508911133Q3.6885914,23.12499508911133,3.627479,23.118985089111327Q3.566366,23.112965089111327,3.506137,23.100985089111326Q3.445909,23.08900508911133,3.387144,23.07117508911133Q3.32838,23.05334508911133,3.271646,23.029845089111326Q3.214912,23.006345089111328,3.160754,22.97740508911133Q3.106597,22.948455089111327,3.055537,22.91433508911133Q3.0044779999999998,22.880215089111328,2.957008,22.841265089111328Q2.909539,22.80230508911133,2.866117,22.758885089111327Q2.8226940000000003,22.715465089111326,2.783737,22.66799508911133Q2.74478,22.62052508911133,2.71066,22.56946508911133Q2.6765499999999998,22.51840508911133,2.6475999999999997,22.46424508911133Q2.6186499999999997,22.410085089111327,2.5951500000000003,22.35335508911133Q2.57165,22.296615089111327,2.55382,22.237855089111328Q2.536,22.17909508911133,2.52402,22.118865089111328Q2.51204,22.058635089111327,2.50602,21.997525089111328Q2.5,21.93640508911133,2.5,21.87499508911133Q2.5,21.813595089111327,2.50602,21.75247508911133Q2.51204,21.69136508911133,2.52402,21.63113508911133Q2.536,21.570905089111328,2.55382,21.51214508911133Q2.57165,21.45337508911133,2.5951500000000003,21.396645089111328Q2.6186499999999997,21.33991508911133,2.6475999999999997,21.285755089111326Q2.6765499999999998,21.23159508911133,2.71066,21.180535089111327Q2.74478,21.129475089111327,2.783737,21.082005089111327Q2.8226940000000003,21.03453508911133,2.866117,20.99111508911133Q2.909539,20.947695089111328,2.957008,20.908735089111328Q3.0044779999999998,20.86977508911133,3.055537,20.835665089111327Q3.106597,20.80154508911133,3.160754,20.772595089111327Q3.214912,20.74365508911133,3.271646,20.720145089111327Q3.32838,20.696655089111328,3.387144,20.678825089111328Q3.445909,20.660995089111328,3.506137,20.64901508911133Q3.566366,20.63703508911133,3.627479,20.63101508911133Q3.6885914,20.625005089111326,3.75,20.62499508911133Q3.8114086,20.625005089111326,3.872521,20.63101508911133Q3.933634,20.63703508911133,3.993863,20.64901508911133Q4.054091,20.660995089111328,4.112856,20.678825089111328Q4.17162,20.696655089111328,4.228354,20.720145089111327Q4.285088,20.74365508911133,4.339246,20.772595089111327Q4.393403,20.80154508911133,4.444463,20.835665089111327Q4.495522,20.86977508911133,4.542992,20.908735089111328Q4.590461,20.947695089111328,4.633883,20.99111508911133Q4.677306,21.03453508911133,4.716263,21.082005089111327Q4.75522,21.129475089111327,4.78934,21.180535089111327Q4.82345,21.23159508911133,4.8524,21.285755089111326Q4.88135,21.33991508911133,4.90485,21.396645089111328Q4.92835,21.45337508911133,4.94618,21.51214508911133Q4.964,21.570905089111328,4.97598,21.63113508911133Q4.98796,21.69136508911133,4.9939800000000005,21.75247508911133Q5,21.813595089111327,5,21.87499508911133Z" fill="#FFFFFF" fill-opacity="1"/></g><g><path d="M25.5,20.375006455688478L21.36732,17.275496455688476L21.36732,17.275446455688478L18.383883,20.258886455688476Q18.340461,20.302306455688477,18.292992,20.341266455688476Q18.245522,20.380216455688476,18.194463,20.414336455688478Q18.143403,20.448456455688476,18.089246,20.477396455688478Q18.035088000000002,20.506346455688476,17.978354,20.529846455688478Q17.92162,20.553346455688477,17.862856,20.571176455688477Q17.804091,20.588996455688477,17.743863,20.600976455688475Q17.683634,20.612966455688476,17.622521,20.618976455688475Q17.5614086,20.624996455688475,17.5,20.624996455688475Q17.4385914,20.624996455688475,17.377479,20.618976455688475Q17.316366,20.612956455688476,17.256137,20.600976455688475Q17.195909,20.588996455688477,17.137144,20.571176455688477Q17.07838,20.553346455688477,17.021646,20.529846455688478Q16.964911999999998,20.506346455688476,16.910754,20.477396455688478Q16.856597,20.448456455688476,16.805537,20.414336455688478Q16.754478,20.380216455688476,16.707008,20.341266455688476Q16.659539,20.302306455688477,16.616117,20.258886455688476Q16.572694,20.215456455688475,16.533737,20.167996455688478Q16.49478,20.120526455688477,16.46066,20.069466455688477Q16.42655,20.018406455688478,16.3976,19.964246455688475Q16.36865,19.910086455688475,16.34515,19.853356455688477Q16.321649999999998,19.796616455688476,16.30382,19.737856455688476Q16.286,19.679086455688477,16.27402,19.618866455688476Q16.26204,19.558636455688475,16.25602,19.497516455688476Q16.25,19.436406455688477,16.25,19.374996455688475Q16.25,19.313586455688476,16.25602,19.252476455688477Q16.26204,19.191366455688478,16.27402,19.131136455688477Q16.286,19.070906455688476,16.30382,19.012146455688477Q16.321649999999998,18.953376455688478,16.34515,18.896646455688476Q16.36865,18.839916455688478,16.3976,18.785756455688478Q16.42655,18.731596455688475,16.46066,18.680536455688475Q16.49478,18.629476455688476,16.533737,18.582006455688475Q16.572694,18.534536455688475,16.616117,18.491116455688477L19.59955,15.507679455688477Q20.25933,14.847906455688477,21.190080000000002,14.781776455688476Q22.12081,14.715646455688477,22.86731,15.275497455688477L27,18.374996455688475Q27.049120000000002,18.411846455688476,27.0944,18.453326455688476Q27.13968,18.494806455688476,27.180680000000002,18.540526455688475Q27.22167,18.586256455688478,27.25799,18.635766455688476Q27.2943,18.685286455688477,27.32559,18.738126455688477Q27.35688,18.790966455688476,27.38284,18.846626455688476Q27.40879,18.902276455688476,27.42917,18.96020645568848Q27.449550000000002,19.018136455688477,27.46415,19.077786455688475Q27.478749999999998,19.137426455688477,27.48744,19.198216455688478Q27.496119999999998,19.259016455688478,27.49881,19.320366455688475Q27.5015,19.381706455688477,27.498150000000003,19.443026455688475Q27.49481,19.504346455688477,27.48547,19.565036455688478Q27.476129999999998,19.625736455688475,27.46089,19.685226455688476Q27.44565,19.744706455688476,27.42465,19.802416455688476Q27.403660000000002,19.860126455688476,27.3771,19.915496455688476Q27.35055,19.970866455688476,27.3187,20.023366455688475Q27.28685,20.075866455688477,27.25,20.124996455688475Q27.213160000000002,20.174126455688477,27.17167,20.21940645568848Q27.13019,20.264686455688476,27.08447,20.305676455688477Q27.03875,20.346676455688478,26.98923,20.382986455688478Q26.939709999999998,20.419306455688478,26.886870000000002,20.450586455688477Q26.83403,20.48187645568848,26.77838,20.507836455688476Q26.722720000000002,20.533796455688478,26.66479,20.554166455688478Q26.606859999999998,20.574546455688477,26.54722,20.58914645568848Q26.487569999999998,20.603746455688476,26.42678,20.612436455688478Q26.36599,20.621116455688476,26.30464,20.623806455688477Q26.243290000000002,20.626486455688475,26.18197,20.623146455688477Q26.120649999999998,20.619806455688476,26.05996,20.610466455688478Q25.99926,20.601136455688476,25.93978,20.585896455688477Q25.880290000000002,20.57065645568848,25.822580000000002,20.549656455688478Q25.764879999999998,20.528656455688477,25.7095,20.502106455688477Q25.654130000000002,20.475556455688476,25.60163,20.443696455688475Q25.549129999999998,20.411846455688476,25.5,20.375006455688478ZM27.5,19.374996455688475Q27.5,19.436406455688477,27.49398,19.497516455688476Q27.48796,19.558636455688475,27.47598,19.618866455688476Q27.464,19.679086455688477,27.44618,19.737856455688476Q27.428350000000002,19.796616455688476,27.40485,19.853356455688477Q27.381349999999998,19.910086455688475,27.3524,19.964246455688475Q27.32345,20.018406455688478,27.28934,20.069466455688477Q27.25522,20.120526455688477,27.21626,20.167986455688478Q27.17731,20.215456455688475,27.133879999999998,20.258886455688476Q27.09046,20.302306455688477,27.04299,20.341266455688476Q26.99552,20.380216455688476,26.94446,20.414336455688478Q26.8934,20.448456455688476,26.83924,20.477396455688478Q26.78509,20.506346455688476,26.72835,20.529846455688478Q26.67162,20.553346455688477,26.612859999999998,20.571176455688477Q26.554090000000002,20.588996455688477,26.493859999999998,20.600976455688475Q26.43363,20.612966455688476,26.37252,20.618976455688475Q26.311410000000002,20.624996455688475,26.25,20.624996455688475Q26.188589999999998,20.624996455688475,26.12748,20.618976455688475Q26.06637,20.612966455688476,26.006140000000002,20.600976455688475Q25.945909999999998,20.588996455688477,25.887140000000002,20.571176455688477Q25.82838,20.553346455688477,25.771639999999998,20.529846455688478Q25.71491,20.506346455688476,25.66075,20.477396455688478Q25.6066,20.448456455688476,25.55554,20.414336455688478Q25.50448,20.380216455688476,25.45701,20.341266455688476Q25.40954,20.302306455688477,25.36612,20.258886455688476Q25.32269,20.215456455688475,25.28374,20.167986455688478Q25.24478,20.120526455688477,25.21066,20.069466455688477Q25.17655,20.018406455688478,25.1476,19.964246455688475Q25.11865,19.910086455688475,25.09515,19.853356455688477Q25.071649999999998,19.796616455688476,25.05382,19.737856455688476Q25.036,19.679086455688477,25.02402,19.618866455688476Q25.01204,19.558636455688475,25.00602,19.497516455688476Q25,19.436406455688477,25,19.374996455688475Q25,19.313596455688476,25.00602,19.252476455688477Q25.01204,19.191366455688478,25.02402,19.131136455688477Q25.036,19.070906455688476,25.05382,19.012146455688477Q25.071649999999998,18.953376455688478,25.09515,18.896646455688476Q25.11865,18.839916455688478,25.1476,18.785756455688478Q25.17655,18.731596455688475,25.21066,18.680536455688475Q25.24478,18.629476455688476,25.28374,18.582006455688475Q25.32269,18.534536455688475,25.36612,18.491116455688477Q25.40954,18.447696455688476,25.45701,18.408736455688476Q25.50448,18.369776455688477,25.55554,18.335666455688475Q25.6066,18.301546455688477,25.66075,18.272596455688475Q25.71491,18.243646455688477,25.771639999999998,18.220146455688475Q25.82838,18.196646455688477,25.887140000000002,18.178826455688476Q25.945909999999998,18.160996455688476,26.006140000000002,18.149016455688475Q26.06637,18.137036455688477,26.12748,18.131016455688478Q26.188589999999998,18.124996455688475,26.25,18.124996455688475Q26.311410000000002,18.124996455688475,26.37252,18.131016455688478Q26.43363,18.137036455688477,26.493859999999998,18.149016455688475Q26.554090000000002,18.160996455688476,26.612859999999998,18.178826455688476Q26.67162,18.196646455688477,26.72835,18.220146455688475Q26.78509,18.243646455688477,26.83924,18.272596455688475Q26.8934,18.301546455688477,26.94446,18.335666455688475Q26.99552,18.369776455688477,27.04299,18.408736455688476Q27.09046,18.447696455688476,27.133879999999998,18.491116455688477Q27.17731,18.534536455688475,27.21626,18.582006455688475Q27.25522,18.629476455688476,27.28934,18.680536455688475Q27.32345,18.731596455688475,27.3524,18.785756455688478Q27.381349999999998,18.839916455688478,27.40485,18.896646455688476Q27.428350000000002,18.953376455688478,27.44618,19.012146455688477Q27.464,19.070906455688476,27.47598,19.131136455688477Q27.48796,19.191366455688478,27.49398,19.252476455688477Q27.5,19.313596455688476,27.5,19.374996455688475ZM18.75,19.374996455688475Q18.75,19.436406455688477,18.74398,19.497516455688476Q18.73796,19.558636455688475,18.72598,19.618866455688476Q18.714,19.679086455688477,18.69618,19.737856455688476Q18.678350000000002,19.796616455688476,18.65485,19.853356455688477Q18.63135,19.910086455688475,18.6024,19.964246455688475Q18.57345,20.018406455688478,18.53934,20.069466455688477Q18.50522,20.120526455688477,18.466263,20.167986455688478Q18.427306,20.215456455688475,18.383883,20.258886455688476Q18.340461,20.302306455688477,18.292992,20.341266455688476Q18.245522,20.380216455688476,18.194463,20.414336455688478Q18.143403,20.448456455688476,18.089246,20.477396455688478Q18.035088000000002,20.506346455688476,17.978354,20.529846455688478Q17.92162,20.553346455688477,17.862856,20.571176455688477Q17.804091,20.588996455688477,17.743863,20.600976455688475Q17.683634,20.612966455688476,17.622521,20.618976455688475Q17.5614086,20.624996455688475,17.5,20.624996455688475Q17.4385914,20.624996455688475,17.377479,20.618976455688475Q17.316366,20.612966455688476,17.256137,20.600976455688475Q17.195909,20.588996455688477,17.137144,20.571176455688477Q17.07838,20.553346455688477,17.021646,20.529846455688478Q16.964911999999998,20.506346455688476,16.910754,20.477396455688478Q16.856597,20.448456455688476,16.805537,20.414336455688478Q16.754478,20.380216455688476,16.707008,20.341266455688476Q16.659539,20.302306455688477,16.616117,20.258886455688476Q16.572694,20.215456455688475,16.533737,20.167986455688478Q16.49478,20.120526455688477,16.46066,20.069466455688477Q16.42655,20.018406455688478,16.3976,19.964246455688475Q16.36865,19.910086455688475,16.34515,19.853356455688477Q16.321649999999998,19.796616455688476,16.30382,19.737856455688476Q16.286,19.679086455688477,16.27402,19.618866455688476Q16.26204,19.558636455688475,16.25602,19.497516455688476Q16.25,19.436406455688477,16.25,19.374996455688475Q16.25,19.313596455688476,16.25602,19.252476455688477Q16.26204,19.191366455688478,16.27402,19.131136455688477Q16.286,19.070906455688476,16.30382,19.012146455688477Q16.321649999999998,18.953376455688478,16.34515,18.896646455688476Q16.36865,18.839916455688478,16.3976,18.785756455688478Q16.42655,18.731596455688475,16.46066,18.680536455688475Q16.49478,18.629476455688476,16.533737,18.582006455688475Q16.572694,18.534536455688475,16.616117,18.491116455688477Q16.659539,18.447696455688476,16.707008,18.408736455688476Q16.754478,18.369776455688477,16.805537,18.335666455688475Q16.856597,18.301546455688477,16.910754,18.272596455688475Q16.964911999999998,18.243646455688477,17.021646,18.220146455688475Q17.07838,18.196646455688477,17.137144,18.178826455688476Q17.195909,18.160996455688476,17.256137,18.149016455688475Q17.316366,18.137036455688477,17.377479,18.131016455688478Q17.4385914,18.124996455688475,17.5,18.124996455688475Q17.5614086,18.124996455688475,17.622521,18.131016455688478Q17.683634,18.137036455688477,17.743863,18.149016455688475Q17.804091,18.160996455688476,17.862856,18.178826455688476Q17.92162,18.196646455688477,17.978354,18.220146455688475Q18.035088000000002,18.243646455688477,18.089246,18.272596455688475Q18.143403,18.301546455688477,18.194463,18.335666455688475Q18.245522,18.369776455688477,18.292992,18.408736455688476Q18.340461,18.447696455688476,18.383883,18.491116455688477Q18.427306,18.534536455688475,18.466263,18.582006455688475Q18.50522,18.629476455688476,18.53934,18.680536455688475Q18.57345,18.731596455688475,18.6024,18.785756455688478Q18.63135,18.839916455688478,18.65485,18.896646455688476Q18.678350000000002,18.953376455688478,18.69618,19.012146455688477Q18.714,19.070906455688476,18.72598,19.131136455688477Q18.73796,19.191366455688478,18.74398,19.252476455688477Q18.75,19.313596455688476,18.75,19.374996455688475Z" fill="#FFFFFF" fill-opacity="1"/></g><g><path d="M26.25,8.75L18.75,8.75Q18.6885914,8.75,18.627479,8.74398Q18.566366,8.73796,18.506137,8.72598Q18.445909,8.714,18.387144,8.69618Q18.32838,8.67835,18.271646,8.65485Q18.214911999999998,8.63135,18.160754,8.6024Q18.106597,8.57345,18.055537,8.53934Q18.004478,8.50522,17.957008,8.466263Q17.909539,8.427306,17.866117,8.383883Q17.822694,8.340461,17.783737,8.292992Q17.74478,8.245522,17.71066,8.194463Q17.67655,8.143403,17.6476,8.089246Q17.61865,8.035088,17.59515,7.978354Q17.571649999999998,7.92162,17.55382,7.862856Q17.536,7.804091,17.52402,7.743863Q17.51204,7.683634,17.50602,7.622521Q17.5,7.5614086,17.5,7.5Q17.5,7.4385914,17.50602,7.377479Q17.51204,7.316366,17.52402,7.256137Q17.536,7.195909,17.55382,7.137144Q17.571649999999998,7.07838,17.59515,7.021646Q17.61865,6.964912,17.6476,6.910754Q17.67655,6.856597,17.71066,6.805537Q17.74478,6.754478,17.783737,6.707008Q17.822694,6.659539,17.866117,6.616117Q17.909539,6.572694,17.957008,6.533737Q18.004478,6.49478,18.055537,6.46066Q18.106597,6.42655,18.160754,6.3976Q18.214911999999998,6.36865,18.271646,6.34515Q18.32838,6.32165,18.387144,6.30382Q18.445909,6.286,18.506137,6.27402Q18.566366,6.26204,18.627479,6.2560199999999995Q18.6885914,6.25,18.75,6.25L26.25,6.25Q26.311410000000002,6.25,26.37252,6.2560199999999995Q26.43363,6.26204,26.493859999999998,6.27402Q26.554090000000002,6.286,26.61286,6.30382Q26.67162,6.32165,26.72835,6.34515Q26.78509,6.36865,26.83924,6.3976Q26.8934,6.42655,26.94446,6.46066Q26.99552,6.49478,27.04299,6.533737Q27.09046,6.572694,27.133879999999998,6.616117Q27.17731,6.659539,27.21626,6.707008Q27.25522,6.754478,27.28934,6.805537Q27.32345,6.856597,27.3524,6.910754Q27.381349999999998,6.964912,27.40485,7.021646Q27.428350000000002,7.07838,27.446170000000002,7.137144Q27.464,7.195909,27.47598,7.256137Q27.48796,7.316366,27.49398,7.377479Q27.5,7.4385914,27.5,7.5Q27.5,7.5614086,27.49398,7.622521Q27.48796,7.683634,27.47598,7.743863Q27.464,7.804091,27.446170000000002,7.862856Q27.428350000000002,7.92162,27.40485,7.978354Q27.381349999999998,8.035088,27.3524,8.089246Q27.32345,8.143403,27.28934,8.194463Q27.25522,8.245522,27.21626,8.292992Q27.17731,8.340461,27.133879999999998,8.383883Q27.09046,8.427306,27.04299,8.466263Q26.99552,8.50522,26.94446,8.53934Q26.8934,8.57345,26.83925,8.6024Q26.78509,8.63135,26.72835,8.65485Q26.67162,8.67835,26.61286,8.69618Q26.554090000000002,8.714,26.493859999999998,8.72598Q26.43363,8.73796,26.37252,8.74398Q26.311410000000002,8.75,26.25,8.75ZM27.5,7.5Q27.5,7.5614086,27.49398,7.622521Q27.48796,7.683634,27.47598,7.743863Q27.464,7.804091,27.446170000000002,7.862856Q27.428350000000002,7.92162,27.40485,7.978354Q27.381349999999998,8.035088,27.3524,8.089246Q27.32345,8.143403,27.28934,8.194463Q27.25522,8.245522,27.21626,8.292992Q27.17731,8.340461,27.133879999999998,8.383883Q27.09046,8.427306,27.04299,8.466263Q26.99552,8.50522,26.94446,8.53934Q26.8934,8.57345,26.83925,8.6024Q26.78509,8.63135,26.72835,8.65485Q26.67162,8.67835,26.61286,8.69618Q26.554090000000002,8.714,26.493859999999998,8.72598Q26.43363,8.73796,26.37252,8.74398Q26.311410000000002,8.75,26.25,8.75Q26.188589999999998,8.75,26.12748,8.74398Q26.06637,8.73796,26.006140000000002,8.72598Q25.945909999999998,8.714,25.88714,8.69618Q25.82838,8.67835,25.771639999999998,8.65485Q25.71491,8.63135,25.66075,8.6024Q25.6066,8.57345,25.55554,8.53934Q25.50448,8.50522,25.45701,8.466263Q25.40954,8.427306,25.36612,8.383883Q25.32269,8.340461,25.28374,8.292992Q25.24478,8.245522,25.21066,8.194463Q25.17655,8.143403,25.1476,8.089246Q25.11865,8.035088,25.09515,7.978354Q25.071649999999998,7.92162,25.05382,7.862856Q25.036,7.804091,25.02402,7.743863Q25.01204,7.683634,25.00602,7.622521Q25,7.5614086,25,7.5Q25,7.4385914,25.00602,7.377479Q25.01204,7.316366,25.02402,7.256137Q25.036,7.195909,25.05382,7.137144Q25.071649999999998,7.07838,25.09515,7.021646Q25.11865,6.964912,25.1476,6.910754Q25.17655,6.856597,25.21066,6.805537Q25.24478,6.754478,25.28374,6.707008Q25.32269,6.659539,25.36612,6.616117Q25.40954,6.572694,25.45701,6.533737Q25.50448,6.49478,25.55554,6.46066Q25.6066,6.42655,25.66075,6.3976Q25.71491,6.36865,25.771639999999998,6.34515Q25.82838,6.32165,25.88714,6.30382Q25.945909999999998,6.286,26.006140000000002,6.27402Q26.06637,6.26204,26.12748,6.2560199999999995Q26.188589999999998,6.25,26.25,6.25Q26.311410000000002,6.25,26.37252,6.2560199999999995Q26.43363,6.26204,26.493859999999998,6.27402Q26.554090000000002,6.286,26.61286,6.30382Q26.67162,6.32165,26.72835,6.34515Q26.78509,6.36865,26.83924,6.3976Q26.8934,6.42655,26.94446,6.46066Q26.99552,6.49478,27.04299,6.533737Q27.09046,6.572694,27.133879999999998,6.616117Q27.17731,6.659539,27.21626,6.707008Q27.25522,6.754478,27.28934,6.805537Q27.32345,6.856597,27.3524,6.910754Q27.381349999999998,6.964912,27.40485,7.021646Q27.428350000000002,7.07838,27.446170000000002,7.137144Q27.464,7.195909,27.47598,7.256137Q27.48796,7.316366,27.49398,7.377479Q27.5,7.4385914,27.5,7.5ZM20,7.5Q20,7.5614086,19.99398,7.622521Q19.98796,7.683634,19.97598,7.743863Q19.964,7.804091,19.94618,7.862856Q19.928350000000002,7.92162,19.90485,7.978354Q19.88135,8.035088,19.8524,8.089246Q19.82345,8.143403,19.78934,8.194463Q19.75522,8.245522,19.716263,8.292992Q19.677306,8.340461,19.633883,8.383883Q19.590461,8.427306,19.542992,8.466263Q19.495522,8.50522,19.444463,8.53934Q19.393403,8.57345,19.339246,8.6024Q19.285088000000002,8.63135,19.228354,8.65485Q19.17162,8.67835,19.112856,8.69618Q19.054091,8.714,18.993863,8.72598Q18.933634,8.73796,18.872521,8.74398Q18.8114086,8.75,18.75,8.75Q18.6885914,8.75,18.627479,8.74398Q18.566366,8.73796,18.506137,8.72598Q18.445909,8.714,18.387144,8.69618Q18.32838,8.67835,18.271646,8.65485Q18.214911999999998,8.63135,18.160754,8.6024Q18.106597,8.57345,18.055537,8.53934Q18.004478,8.50522,17.957008,8.466263Q17.909539,8.427306,17.866117,8.383883Q17.822694,8.340461,17.783737,8.292992Q17.74478,8.245522,17.71066,8.194463Q17.67655,8.143403,17.6476,8.089246Q17.61865,8.035088,17.59515,7.978354Q17.571649999999998,7.92162,17.55382,7.862856Q17.536,7.804091,17.52402,7.743863Q17.51204,7.683634,17.50602,7.622521Q17.5,7.5614086,17.5,7.5Q17.5,7.4385914,17.50602,7.377479Q17.51204,7.316366,17.52402,7.256137Q17.536,7.195909,17.55382,7.137144Q17.571649999999998,7.07838,17.59515,7.021646Q17.61865,6.964912,17.6476,6.910754Q17.67655,6.856597,17.71066,6.805537Q17.74478,6.754478,17.783737,6.707008Q17.822694,6.659539,17.866117,6.616117Q17.909539,6.572694,17.957008,6.533737Q18.004478,6.49478,18.055537,6.46066Q18.106597,6.42655,18.160754,6.3976Q18.214911999999998,6.36865,18.271646,6.34515Q18.32838,6.32165,18.387144,6.30382Q18.445909,6.286,18.506137,6.27402Q18.566366,6.26204,18.627479,6.2560199999999995Q18.6885914,6.25,18.75,6.25Q18.8114086,6.25,18.872521,6.2560199999999995Q18.933634,6.26204,18.993863,6.27402Q19.054091,6.286,19.112856,6.30382Q19.17162,6.32165,19.228354,6.34515Q19.285088000000002,6.36865,19.339246,6.3976Q19.393403,6.42655,19.444463,6.46066Q19.495522,6.49478,19.542992,6.533737Q19.590461,6.572694,19.633883,6.616117Q19.677306,6.659539,19.716263,6.707008Q19.75522,6.754478,19.78934,6.805537Q19.82345,6.856597,19.8524,6.910754Q19.88135,6.964912,19.90485,7.021646Q19.928350000000002,7.07838,19.94618,7.137144Q19.964,7.195909,19.97598,7.256137Q19.98796,7.316366,19.99398,7.377479Q20,7.4385914,20,7.5Z" fill="#FFFFFF" fill-opacity="1"/></g><g><path d="M21.25,11.25L21.25,3.75Q21.25,3.6885914,21.25602,3.627479Q21.26204,3.566366,21.27402,3.506137Q21.286,3.445909,21.30382,3.387144Q21.321649999999998,3.32838,21.34515,3.271646Q21.36865,3.214912,21.3976,3.160754Q21.42655,3.106597,21.46066,3.055537Q21.49478,3.0044779999999998,21.533737,2.957008Q21.572694,2.909539,21.616117,2.866117Q21.659539,2.8226940000000003,21.707008,2.783737Q21.754478,2.74478,21.805537,2.71066Q21.856597,2.6765499999999998,21.910754,2.6475999999999997Q21.964911999999998,2.6186499999999997,22.021646,2.5951500000000003Q22.07838,2.57165,22.137144,2.55382Q22.195909,2.536,22.256137,2.52402Q22.316366,2.51204,22.377479,2.50602Q22.4385914,2.5,22.5,2.5Q22.5614086,2.5,22.622521,2.50602Q22.683634,2.51204,22.743863,2.52402Q22.804091,2.536,22.862856,2.55382Q22.92162,2.57165,22.978354,2.5951500000000003Q23.035088000000002,2.6186499999999997,23.089246,2.6475999999999997Q23.143403,2.6765499999999998,23.194463,2.71066Q23.245522,2.74478,23.292992,2.783737Q23.340461,2.8226940000000003,23.383883,2.866117Q23.427306,2.909539,23.466263,2.957008Q23.50522,3.0044779999999998,23.53934,3.055537Q23.57345,3.106597,23.6024,3.160754Q23.63135,3.214912,23.65485,3.271646Q23.678350000000002,3.32838,23.69618,3.387144Q23.714,3.445909,23.72598,3.506137Q23.73796,3.566366,23.74398,3.627479Q23.75,3.6885914,23.75,3.75L23.75,11.25Q23.75,11.31141,23.74398,11.37252Q23.73796,11.43363,23.72598,11.49386Q23.714,11.55409,23.69618,11.612860000000001Q23.678350000000002,11.67162,23.65485,11.728349999999999Q23.63135,11.78509,23.6024,11.83924Q23.57345,11.8934,23.53934,11.94446Q23.50522,11.99552,23.466263,12.04299Q23.427306,12.09046,23.383883,12.13388Q23.340461,12.17731,23.292992,12.21626Q23.245522,12.25522,23.194463,12.28934Q23.143403,12.32345,23.089246,12.3524Q23.035088000000002,12.38135,22.978354,12.40485Q22.92162,12.42835,22.862856,12.44617Q22.804091,12.464,22.743863,12.47598Q22.683634,12.48796,22.622521,12.49398Q22.5614086,12.5,22.5,12.5Q22.4385914,12.5,22.377479,12.49398Q22.316366,12.48796,22.256137,12.47598Q22.195909,12.464,22.137144,12.44617Q22.07838,12.42835,22.021646,12.40485Q21.964911999999998,12.38135,21.910754,12.3524Q21.856597,12.32345,21.805537,12.28934Q21.754478,12.25522,21.707008,12.21626Q21.659539,12.17731,21.616117,12.13388Q21.572694,12.09046,21.533737,12.04299Q21.49478,11.99552,21.46066,11.94446Q21.42655,11.8934,21.3976,11.83925Q21.36865,11.78509,21.34515,11.728349999999999Q21.321649999999998,11.67162,21.30382,11.612860000000001Q21.286,11.55409,21.27402,11.49386Q21.26204,11.43363,21.25602,11.37252Q21.25,11.31141,21.25,11.25ZM23.75,11.25Q23.75,11.31141,23.74398,11.37252Q23.73796,11.43363,23.72598,11.49386Q23.714,11.55409,23.69618,11.612860000000001Q23.678350000000002,11.67162,23.65485,11.728349999999999Q23.63135,11.78509,23.6024,11.83924Q23.57345,11.8934,23.53934,11.94446Q23.50522,11.99552,23.466263,12.04299Q23.427306,12.09046,23.383883,12.13388Q23.340461,12.17731,23.292992,12.21626Q23.245522,12.25522,23.194463,12.28934Q23.143403,12.32345,23.089246,12.3524Q23.035088000000002,12.38135,22.978354,12.40485Q22.92162,12.42835,22.862856,12.44617Q22.804091,12.464,22.743863,12.47598Q22.683634,12.48796,22.622521,12.49398Q22.5614086,12.5,22.5,12.5Q22.4385914,12.5,22.377479,12.49398Q22.316366,12.48796,22.256137,12.47598Q22.195909,12.464,22.137144,12.44617Q22.07838,12.42835,22.021646,12.40485Q21.964911999999998,12.38135,21.910754,12.3524Q21.856597,12.32345,21.805537,12.28934Q21.754478,12.25522,21.707008,12.21626Q21.659539,12.17731,21.616117,12.13388Q21.572694,12.09046,21.533737,12.04299Q21.49478,11.99552,21.46066,11.94446Q21.42655,11.8934,21.3976,11.83925Q21.36865,11.78509,21.34515,11.728349999999999Q21.321649999999998,11.67162,21.30382,11.612860000000001Q21.286,11.55409,21.27402,11.49386Q21.26204,11.43363,21.25602,11.37252Q21.25,11.31141,21.25,11.25Q21.25,11.18859,21.25602,11.12748Q21.26204,11.06637,21.27402,11.00614Q21.286,10.94591,21.30382,10.887139999999999Q21.321649999999998,10.82838,21.34515,10.77164Q21.36865,10.71491,21.3976,10.66075Q21.42655,10.6066,21.46066,10.55554Q21.49478,10.504480000000001,21.533737,10.45701Q21.572694,10.40954,21.616117,10.366119999999999Q21.659539,10.32269,21.707008,10.28374Q21.754478,10.24478,21.805537,10.21066Q21.856597,10.176549999999999,21.910754,10.1476Q21.964911999999998,10.118649999999999,22.021646,10.09515Q22.07838,10.07165,22.137144,10.05382Q22.195909,10.036,22.256137,10.02402Q22.316366,10.012039999999999,22.377479,10.00602Q22.4385914,10,22.5,10Q22.5614086,10,22.622521,10.00602Q22.683634,10.012039999999999,22.743863,10.02402Q22.804091,10.036,22.862856,10.05382Q22.92162,10.07165,22.978354,10.09515Q23.035088000000002,10.118649999999999,23.089246,10.1476Q23.143403,10.176549999999999,23.194463,10.21066Q23.245522,10.24478,23.292992,10.28374Q23.340461,10.32269,23.383883,10.366119999999999Q23.427306,10.40954,23.466263,10.45701Q23.50522,10.504480000000001,23.53934,10.55554Q23.57345,10.6066,23.6024,10.66075Q23.63135,10.71491,23.65485,10.77164Q23.678350000000002,10.82838,23.69618,10.887139999999999Q23.714,10.94591,23.72598,11.00614Q23.73796,11.06637,23.74398,11.12748Q23.75,11.18859,23.75,11.25ZM23.75,3.75Q23.75,3.8114086,23.74398,3.872521Q23.73796,3.933634,23.72598,3.993863Q23.714,4.054091,23.69618,4.112856Q23.678350000000002,4.17162,23.65485,4.228354Q23.63135,4.285088,23.6024,4.339246Q23.57345,4.393403,23.53934,4.444463Q23.50522,4.495522,23.466263,4.542992Q23.427306,4.590461,23.383883,4.633883Q23.340461,4.677306,23.292992,4.716263Q23.245522,4.75522,23.194463,4.78934Q23.143403,4.82345,23.089246,4.8524Q23.035088000000002,4.88135,22.978354,4.90485Q22.92162,4.92835,22.862856,4.94618Q22.804091,4.964,22.743863,4.97598Q22.683634,4.98796,22.622521,4.9939800000000005Q22.5614086,5,22.5,5Q22.4385914,5,22.377479,4.9939800000000005Q22.316366,4.98796,22.256137,4.97598Q22.195909,4.964,22.137144,4.94618Q22.07838,4.92835,22.021646,4.90485Q21.964911999999998,4.88135,21.910754,4.8524Q21.856597,4.82345,21.805537,4.78934Q21.754478,4.75522,21.707008,4.716263Q21.659539,4.677306,21.616117,4.633883Q21.572694,4.590461,21.533737,4.542992Q21.49478,4.495522,21.46066,4.444463Q21.42655,4.393403,21.3976,4.339246Q21.36865,4.285088,21.34515,4.228354Q21.321649999999998,4.17162,21.30382,4.112856Q21.286,4.054091,21.27402,3.993863Q21.26204,3.933634,21.25602,3.872521Q21.25,3.8114086,21.25,3.75Q21.25,3.6885914,21.25602,3.627479Q21.26204,3.566366,21.27402,3.506137Q21.286,3.445909,21.30382,3.387144Q21.321649999999998,3.32838,21.34515,3.271646Q21.36865,3.214912,21.3976,3.160754Q21.42655,3.106597,21.46066,3.055537Q21.49478,3.0044779999999998,21.533737,2.957008Q21.572694,2.909539,21.616117,2.866117Q21.659539,2.8226940000000003,21.707008,2.783737Q21.754478,2.74478,21.805537,2.71066Q21.856597,2.6765499999999998,21.910754,2.6475999999999997Q21.964911999999998,2.6186499999999997,22.021646,2.5951500000000003Q22.07838,2.57165,22.137144,2.55382Q22.195909,2.536,22.256137,2.52402Q22.316366,2.51204,22.377479,2.50602Q22.4385914,2.5,22.5,2.5Q22.5614086,2.5,22.622521,2.50602Q22.683634,2.51204,22.743863,2.52402Q22.804091,2.536,22.862856,2.55382Q22.92162,2.57165,22.978354,2.5951500000000003Q23.035088000000002,2.6186499999999997,23.089246,2.6475999999999997Q23.143403,2.6765499999999998,23.194463,2.71066Q23.245522,2.74478,23.292992,2.783737Q23.340461,2.8226940000000003,23.383883,2.866117Q23.427306,2.909539,23.466263,2.957008Q23.50522,3.0044779999999998,23.53934,3.055537Q23.57345,3.106597,23.6024,3.160754Q23.63135,3.214912,23.65485,3.271646Q23.678350000000002,3.32838,23.69618,3.387144Q23.714,3.445909,23.72598,3.506137Q23.73796,3.566366,23.74398,3.627479Q23.75,3.6885914,23.75,3.75Z" fill="#FFFFFF" fill-opacity="1"/></g></g></svg>