<svg xmlns="http://www.w3.org/2000/svg" xmlns:xlink="http://www.w3.org/1999/xlink" width="33" height="33" viewBox="0 0 33 33" fill="none"><defs><rect id="path_0" x="0" y="0" width="33" height="33" /></defs><g opacity="1" transform="translate(0 0)  rotate(0 16.5 16.5)"><mask id="bg-mask-0" fill="white"><use xlink:href="#path_0"></use></mask><g mask="url(#bg-mask-0)" ><g opacity="1" transform="translate(2.15 2.19)  rotate(0 14.349999999999998 15.309999999999999)"><path  id="矩形 2" style="stroke:#FFFFFF; stroke-width:3; stroke-opacity:1; stroke-dasharray:0 0" transform="translate(0 0)  rotate(0 14.349999999999998 12.983333333333334)" d="M18.92,25.97L23.81,25.97C25.11,25.97 26.35,25.45 27.27,24.53C28.19,23.61 28.7,22.37 28.7,21.07L28.7,5C28.7,2.24 26.46,0 23.7,0L5,0C2.24,0 0,2.24 0,5L0,21.24C0,22.49 0.5,23.7 1.39,24.58C2.27,25.47 3.48,25.97 4.73,25.97L9.46,25.97 " /><path id="直线 2"  style="fill:#CCCCCC" transform="translate(14.77 8.07)  rotate(0 0.0003416666666655743 11.274999999999999)" opacity="1" d="" /><path  id="直线 2" style="stroke:#FFFFFF; stroke-width:3; stroke-opacity:1; stroke-dasharray:0 0" transform="translate(14.77 8.07)  rotate(0 0.0003416666666655743 11.274999999999999)" d="M0,22.55L0,0 " /><path  id="路径 1" style="stroke:#FFFFFF; stroke-width:3; stroke-opacity:1; stroke-dasharray:0 0" transform="translate(4.783333333333333 7.516666666666667)  rotate(0 9.566666666666666 5.125)" d="M0,10.25L7.9,0.86C8.36,0.31 9.04,0 9.75,0L9.75,0C10.47,0 11.14,0.32 11.59,0.88L19.13,10.25 " /></g></g></g></svg>