<svg xmlns="http://www.w3.org/2000/svg" xmlns:xlink="http://www.w3.org/1999/xlink" width="42" height="44" viewBox="0 0 42 44" fill="none"><g opacity="1" transform="translate(0 0)  rotate(0 21 22)"><path  id="矩形 2" style="stroke:#FFFFFF; stroke-width:5; stroke-opacity:1; stroke-dasharray:0 0" transform="translate(0 0)  rotate(0 21 19)" d="M27.68,38L35,38C38.87,38 42,34.87 42,31L42,7C42,3.13 38.87,0 35,0L7,0C3.13,0 0,3.13 0,7L0,31C0,34.87 3.13,38 7,38L13.84,38 " /><path id="直线 2"  style="fill:#CCCCCC" transform="translate(20.999499999999898 11)  rotate(0 0.0005 16.5)" opacity="1" d="" /><path  id="直线 2" style="stroke:#FFFFFF; stroke-width:5; stroke-opacity:1; stroke-dasharray:0 0" transform="translate(20.999499999999898 11)  rotate(0 0.0005 16.5)" d="M0,33L0,0 " /><path  id="路径 1" style="stroke:#FFFFFF; stroke-width:5; stroke-opacity:1; stroke-dasharray:0 0" transform="translate(7 11)  rotate(0 14 7.5)" d="M0,15L11.57,1.26C12.24,0.46 13.23,0 14.27,0L14.27,0C15.31,0 16.3,0.47 16.95,1.28L28,15 " /></g></svg>