<svg xmlns="http://www.w3.org/2000/svg" xmlns:xlink="http://www.w3.org/1999/xlink" width="33" height="33" viewBox="0 0 33 33" fill="none"><defs><rect id="path_0" x="0" y="0" width="33" height="33" /></defs><g opacity="1" transform="translate(0 0)  rotate(0 16.5 16.5)"><mask id="bg-mask-0" fill="white"><use xlink:href="#path_0"></use></mask><g mask="url(#bg-mask-0)" ><path  id="矩形 1" style="stroke:#FFFFFF; stroke-width:3; stroke-opacity:1; stroke-dasharray:0 0" transform="translate(2 2)  rotate(0 14.5 14.5)" d="M15.41,0L5,0C2.24,0 0,2.24 0,5L0,24C0,26.76 2.24,29 5,29L24,29C26.76,29 29,26.76 29,24L29,13.14 " /><path  id="路径 1" style="stroke:#FFFFFF; stroke-width:3; stroke-opacity:1; stroke-dasharray:0 0" transform="translate(20 2)  rotate(0 5.5 5.5)" d="M0,0L11,0L11,11 " /><path id="路径 2"  style="fill:#FFFFFF" transform="translate(17 2)  rotate(0 7.000000000000001 7.000000000000001)" opacity="1" d="M12.9393 -1.06066L-1.06066 12.9393Q-1.11277 12.9914 -1.15952 13.0484Q-1.20626 13.1054 -1.2472 13.1666Q-1.28814 13.2279 -1.32288 13.2929Q-1.35762 13.3579 -1.38582 13.426Q-1.41402 13.4941 -1.43541 13.5646Q-1.4568 13.6351 -1.47118 13.7074Q-1.48555 13.7796 -1.49278 13.853Q-1.5 13.9263 -1.5 14Q-1.5 14.0737 -1.49278 14.147Q-1.48555 14.2204 -1.47118 14.2926Q-1.4568 14.3649 -1.43541 14.4354Q-1.41402 14.5059 -1.38582 14.574Q-1.35762 14.6421 -1.32288 14.7071Q-1.28814 14.7721 -1.2472 14.8334Q-1.20626 14.8946 -1.15952 14.9516Q-1.11277 15.0086 -1.06066 15.0607Q-1.00855 15.1128 -0.95159 15.1595Q-0.894627 15.2063 -0.833355 15.2472Q-0.772084 15.2881 -0.707095 15.3229Q-0.642106 15.3576 -0.574025 15.3858Q-0.505944 15.414 -0.435427 15.4354Q-0.36491 15.4568 -0.292636 15.4712Q-0.220361 15.4856 -0.147026 15.4928Q-0.0736903 15.5 0 15.5Q0.0736903 15.5 0.147026 15.4928Q0.220361 15.4856 0.292636 15.4712Q0.36491 15.4568 0.435427 15.4354Q0.505944 15.414 0.574025 15.3858Q0.642106 15.3576 0.707095 15.3229Q0.772084 15.2881 0.833355 15.2472Q0.894627 15.2063 0.95159 15.1595Q1.00855 15.1128 1.06066 15.0607L15.0607 1.06066Q15.1128 1.00855 15.1595 0.95159Q15.2063 0.894627 15.2472 0.833355Q15.2881 0.772084 15.3229 0.707095Q15.3576 0.642106 15.3858 0.574025Q15.414 0.505944 15.4354 0.435427Q15.4568 0.36491 15.4712 0.292636Q15.4856 0.220361 15.4928 0.147026Q15.5 0.0736903 15.5 0Q15.5 -0.0736903 15.4928 -0.147026Q15.4856 -0.220361 15.4712 -0.292636Q15.4568 -0.36491 15.4354 -0.435427Q15.414 -0.505944 15.3858 -0.574025Q15.3576 -0.642106 15.3229 -0.707095Q15.2881 -0.772084 15.2472 -0.833355Q15.2063 -0.894627 15.1595 -0.95159Q15.1128 -1.00855 15.0607 -1.06066Q15.0086 -1.11277 14.9516 -1.15952Q14.8946 -1.20626 14.8334 -1.2472Q14.7721 -1.28814 14.7071 -1.32288Q14.6421 -1.35762 14.574 -1.38582Q14.5059 -1.41402 14.4354 -1.43541Q14.3649 -1.4568 14.2926 -1.47118Q14.2204 -1.48555 14.147 -1.49278Q14.0737 -1.5 14 -1.5Q13.9263 -1.5 13.853 -1.49278Q13.7796 -1.48555 13.7074 -1.47118Q13.6351 -1.4568 13.5646 -1.43541Q13.4941 -1.41402 13.426 -1.38582Q13.3579 -1.35762 13.2929 -1.32288Q13.2279 -1.28814 13.1666 -1.2472Q13.1054 -1.20626 13.0484 -1.15952Q12.9914 -1.11277 12.9393 -1.06066Z " /><path  id="路径 2" style="stroke:#FFFFFF; stroke-width:3; stroke-opacity:1; stroke-dasharray:0 0" transform="translate(17 2)  rotate(0 7.000000000000001 7.000000000000001)" d="" /></g></g></svg>