<!-- Exported by Character Map UWP -->
<svg height="100%" viewBox="64 64 936 896" width="100%" xmlns="http://www.w3.org/2000/svg" xmlns:xlink="http://www.w3.org/1999/xlink">
  <path d="M676.5,704C666.5,704 657.917,700.25 650.75,692.75C643.583,685.25 640,676.667 640,667L640,533C629.333,533 618.583,533.917 607.75,535.75C596.917,537.583 586.333,539.667 576,542C547,548 520.167,555.833 495.5,565.5C470.833,575.167 447.25,586.417 424.75,599.25C402.25,612.083 380.333,626.333 359,642C337.667,657.667 315.833,674.667 293.5,693C289.833,696 286,698.333 282,700C278,701.667 273.5,702.5 268.5,702.5C258.5,702.5 249.917,698.917 242.75,691.75C235.583,684.583 232,676 232,666L232,662C240,601.333 253.583,545.75 272.75,495.25C291.917,444.75 317.917,401 350.75,364C383.583,327 423.75,297.5 471.25,275.5C518.75,253.5 575,240.833 640,237.5L640,101C640,90.6667 643.5,81.9167 650.5,74.75C657.5,67.5834 666.167,64.0001 676.5,64C685.833,64.0001 694,67.5001 701,74.5L988.5,357.5C992.167,361.167 995,365.083 997,369.25C999,373.417 1000,378.333 1000,384C1000,394.333 996.333,403.167 989,410.5L701,693.5C693.333,700.5 685.167,704 676.5,704ZM64,834.5L64,256C64,239 67.3333,222.75 74,207.25C80.6667,191.75 89.6667,178.167 101,166.5C112.333,154.833 125.583,145.5 140.75,138.5C155.917,131.5 172.167,128 189.5,128L416,128C424.667,128 432.167,131.167 438.5,137.5C444.833,143.833 448,151.333 448,160C448,168.667 444.833,176.167 438.5,182.5C432.167,188.833 424.667,192 416,192L192,192C183,192 174.667,193.667 167,197C159.333,200.333 152.583,204.917 146.75,210.75C140.917,216.583 136.333,223.333 133,231C129.667,238.667 128,247 128,256L128,832C128,841 129.667,849.417 133,857.25C136.333,865.083 140.833,871.833 146.5,877.5C152.167,883.167 158.917,887.667 166.75,891C174.583,894.333 183,896 192,896L768,896C785.667,896 800.667,889.833 813,877.5C821.333,869.167 826.75,859 829.25,847C831.75,835 833,822.333 833,809C833,799.333 832.75,789.833 832.25,780.5C831.75,771.167 831.5,762.167 831.5,753.5C831.5,746.5 831.917,740 832.75,734C833.583,728 835.167,722.75 837.5,718.25C839.833,713.75 843.083,710.25 847.25,707.75C851.417,705.25 857,704 864,704C872.667,704 880.167,707.167 886.5,713.5C892.833,719.833 896,727.333 896,736L896,832C896,849 892.667,865.25 886,880.75C879.333,896.25 870.333,909.833 859,921.5C847.667,933.167 834.417,942.5 819.25,949.5C804.083,956.5 787.833,960 770.5,960L192,960C175,960 158.75,956.667 143.25,950C127.75,943.333 114.167,934.333 102.5,923C90.8333,911.667 81.5,898.417 74.5,883.25C67.5,868.083 64,851.833 64,834.5ZM704,601L924.5,384L704,167L704,297C691.667,297.667 679.417,298.417 667.25,299.25C655.083,300.083 642.833,301 630.5,302C584.5,305.333 543.583,314.5 507.75,329.5C471.917,344.5 440.833,364.667 414.5,390C388.167,415.333 366.25,445.583 348.75,480.75C331.25,515.917 317.667,555.333 308,599C330.333,582.333 353.75,566.75 378.25,552.25C402.75,537.75 428,524.917 454,513.75C480,502.583 506.583,493.25 533.75,485.75C560.917,478.25 588.5,473.167 616.5,470.5C631.167,469.167 645.75,467.917 660.25,466.75C674.75,465.583 689.333,464.333 704,463Z" fill="#FFFFFF" fill-opacity="1">
  </path>
</svg>