<svg xmlns="http://www.w3.org/2000/svg" xmlns:xlink="http://www.w3.org/1999/xlink" width="33" height="33" viewBox="0 0 33 33" fill="none"><defs><rect id="path_0" x="0" y="0" width="33" height="33" /><rect id="path_1" x="0" y="0" width="28.7" height="28.7" /></defs><g opacity="1" transform="translate(0 0)  rotate(0 16.5 16.5)"><mask id="bg-mask-0" fill="white"><use xlink:href="#path_0"></use></mask><g mask="url(#bg-mask-0)" ><g opacity="1" transform="translate(2.149999999999636 2.150000000000091)  rotate(0 14.35 14.35)"><mask id="bg-mask-1" fill="white"><use xlink:href="#path_1"></use></mask><g mask="url(#bg-mask-1)" ><path  id="路径 1" style="stroke:#FFFFFF; stroke-width:3; stroke-opacity:1; stroke-dasharray:0 0" transform="translate(17.538888888888888 0)  rotate(0 5.580555555555553 5.580555555555555)" d="M0,0L11.16,0L11.16,11.16 " /><path  id="路径 2" style="stroke:#FFFFFF; stroke-width:3; stroke-opacity:1; stroke-dasharray:0 0" transform="translate(0 0)  rotate(0 14.35 14.35)" d="M28.7,18.71L28.7,26.31C28.7,27.63 27.63,28.7 26.31,28.7L2.39,28.7C1.07,28.7 0,27.63 0,26.31L0,2.39C0,1.07 1.07,0 2.39,0L9.57,0 " /><path  id="路径 3" style="stroke:#FFFFFF; stroke-width:3; stroke-opacity:1; stroke-dasharray:0 0" transform="translate(14.446557971014506 0.7353026427962839)  rotate(0 6.0987499999999955 6.098750000000001)" d="M0,12.2L12.2,0 " /></g></g></g></g></svg>