<svg xmlns="http://www.w3.org/2000/svg" xmlns:xlink="http://www.w3.org/1999/xlink" fill="none" version="1.1" width="30" height="30" viewBox="0 0 30 30"><defs><clipPath id="master_svg0_143_2090"><rect x="0" y="0" width="30" height="30" rx="0"/></clipPath></defs><g clip-path="url(#master_svg0_143_2090)"><g><path d="M20,6.875Q20,7.65164,20.54918,8.20082Q21.09836,8.75,21.875,8.75Q22.65164,8.75,23.20082,8.20082Q23.75,7.65164,23.75,6.875Q23.75,6.09835,23.20082,5.54918Q22.65164,5,21.875,5Q21.09836,5,20.54918,5.54918Q20,6.09835,20,6.875ZM17.5,6.875Q17.5,5.06282,18.7814142,3.7814077Q20.062829999999998,2.5,21.875,2.5Q23.687179999999998,2.5,24.96859,3.7814076Q26.25,5.06282,26.25,6.875Q26.25,8.68717,24.96859,9.968589999999999Q23.687170000000002,11.25,21.875,11.25Q20.062829999999998,11.25,18.781413,9.968589999999999Q17.5,8.68717,17.5,6.875Z" fill="#FFFFFF" fill-opacity="1"/></g><g><path d="M6.25,15Q6.25,15.77664,6.79918,16.32582Q7.34836,16.875,8.125,16.875Q8.90164,16.875,9.45082,16.32582Q10,15.77664,10,15Q10,14.22335,9.45082,13.67418Q8.90164,13.125,8.125,13.125Q7.34836,13.125,6.79918,13.67418Q6.25,14.22335,6.25,15ZM3.75,15Q3.75,13.18782,5.0314142,11.9064077Q6.31283,10.625,8.125,10.625Q9.93718,10.625,11.218589999999999,11.9064076Q12.5,13.18782,12.5,15Q12.5,16.812170000000002,11.218589999999999,18.09359Q9.93717,19.375,8.125,19.375Q6.31283,19.375,5.031413,18.09359Q3.75,16.812170000000002,3.75,15Z" fill="#FFFFFF" fill-opacity="1"/></g><g><path d="M10.1891910625,12.2092287890625L18.1023740625,7.4149187890625Q18.1549040625,7.3830987890625,18.2102840625,7.3565787890625Q18.2656740625,7.3300587890625,18.3233940625,7.3090987890625Q18.3811140625,7.2881287890625,18.4406140625,7.2729287890625Q18.5001040625,7.2577287890625,18.5608040625,7.2484287890625Q18.6215040625,7.2391287890625,18.6828240625,7.2358187890625Q18.7441440625,7.2325187890625,18.8054940625,7.2352387890625Q18.8668440625,7.2379587890625,18.9276240625,7.2466787890625Q18.9884140625,7.2553987890625,19.0480540625,7.2700387890625Q19.107694062500002,7.2846787890625,19.1656040625,7.3050887890625Q19.223524062499997,7.3254987890625,19.2791640625,7.3514887890625005Q19.334794062500002,7.3774787890625,19.3876140625,7.4087987890625Q19.4404440625,7.4401187890625,19.489934062499998,7.4764687890624995Q19.5394340625,7.5128127890625,19.5851340625,7.5538357890625Q19.6308240625,7.5948577890625,19.672284062499998,7.6401627890625Q19.713744062499998,7.6854657890624996,19.7505540625,7.7346157890625005Q19.7873740625,7.7837647890625,19.8191940625,7.8362857890625Q19.8510140625,7.8888067890624995,19.8775340625,7.9441937890625Q19.904054062500002,7.9995807890625,19.9250140625,8.0573007890625Q19.9459740625,8.1150207890625,19.9611840625,8.1745167890625Q19.9763840625,8.2340137890625,19.9856840625,8.2947137890625Q19.994984062500002,8.3554137890625,19.998284062499998,8.4167337890625Q20.0015940625,8.4780533590625,19.9988740625,8.5394015890625Q19.9961540625,8.6007497890625,19.9874340625,8.6615357890625Q19.9787040625,8.7223217890625,19.9640740625,8.7819607890625Q19.9494340625,8.8415987890625,19.929024062499998,8.8995157890625Q19.9086040625,8.9574327890625,19.8826140625,9.0130697890625Q19.8566240625,9.0687067890625,19.825304062500003,9.1215277890625Q19.7939840625,9.1743497890625,19.7576440625,9.2238467890625Q19.7212940625,9.2733437890625,19.6802740625,9.3190407890625Q19.6392540625,9.3647367890625,19.5939440625,9.4061927890625Q19.5486440625,9.4476477890625,19.4994940625,9.4844587890625Q19.4503440625,9.5212787890625,19.3978240625,9.5530987890625L11.4846370625,14.3474087890625Q11.4321160625,14.3792287890625,11.3767290625,14.4057487890625Q11.3213420625,14.432268789062501,11.2636220625,14.4532287890625Q11.2059020625,14.4741987890625,11.1464060625,14.4893987890625Q11.0869090625,14.5046087890625,11.0262090625,14.5139087890625Q10.9655090625,14.523208789062501,10.9041890625,14.5265087890625Q10.8428694925,14.5298087890625,10.7815212625,14.5270887890625Q10.7201730625,14.5243687890625,10.6593870625,14.5156487890625Q10.5986010625,14.5069287890625,10.5389620625,14.4922887890625Q10.4793240625,14.477658789062499,10.4214070625,14.457238789062501Q10.3634900625,14.4368287890625,10.3078530625,14.410838789062499Q10.2522160625,14.384848789062499,10.1993950625,14.3535287890625Q10.1465730625,14.3222087890625,10.0970760625,14.2858587890625Q10.0475790625,14.249518789062499,10.0018820625,14.2084987890625Q9.9561860625,14.1674687890625,9.9147300625,14.1221687890625Q9.8732750625,14.0768687890625,9.8364640625,14.0277187890625Q9.7996440625,13.9785687890625,9.7678240625,13.9260487890625Q9.7360040625,13.8735187890625,9.7094840625,13.8181387890625Q9.6829640625,13.762748789062499,9.6620040625,13.7050287890625Q9.6410340625,13.6473087890625,9.625834062500001,13.5878087890625Q9.6106340625,13.5283187890625,9.6013340625,13.467618789062499Q9.5920340625,13.4069187890625,9.5887240625,13.3455987890625Q9.5854240625,13.284278789062501,9.5881440625,13.2229287890625Q9.5908640625,13.1615787890625,9.5995840625,13.1007987890625Q9.6083040625,13.040008789062501,9.6229440625,12.9803687890625Q9.6375840625,12.920728789062501,9.6579940625,12.8628187890625Q9.6784040625,12.8048987890625,9.7043940625,12.7492587890625Q9.7303840625,12.6936187890625,9.7617040625,12.6407987890625Q9.7930240625,12.5879787890625,9.8293740625,12.5384787890625Q9.865718062500001,12.4889887890625,9.9067410625,12.4432887890625Q9.9477630625,12.3975887890625,9.9930680625,12.3561387890625Q10.0383710625,12.3146787890625,10.0875210625,12.2778687890625Q10.1366700625,12.2410487890625,10.1891910625,12.2092287890625ZM12.0869140625,13.2783187890625Q12.0869140625,13.3397287890625,12.0808940625,13.400838789062501Q12.0748740625,13.4619587890625,12.0628940625,13.5221887890625Q12.0509140625,13.5824087890625,12.0330940625,13.6411787890625Q12.0152640625,13.6999387890625,11.9917640625,13.7566787890625Q11.9682640625,13.8134087890625,11.9393140625,13.8675687890625Q11.9103640625,13.921728789062499,11.8762540625,13.972778789062499Q11.8421340625,14.0238387890625,11.8031770625,14.071308789062499Q11.7642200625,14.1187787890625,11.7207970625,14.1622087890625Q11.6773750625,14.2056287890625,11.6299060625,14.244588789062501Q11.5824360625,14.2835387890625,11.5313770625,14.317658789062499Q11.4803170625,14.3517787890625,11.4261600625,14.380718789062499Q11.3720020625,14.4096687890625,11.3152680625,14.4331687890625Q11.2585340625,14.456668789062501,11.1997700625,14.474498789062501Q11.1410050625,14.4923187890625,11.0807770625,14.5042987890625Q11.0205480625,14.5162787890625,10.9594350625,14.5222987890625Q10.8983226625,14.5283187890625,10.8369140625,14.5283187890625Q10.7755054625,14.5283187890625,10.7143930625,14.5222987890625Q10.6532800625,14.5162787890625,10.5930510625,14.5042987890625Q10.5328230625,14.4923187890625,10.4740580625,14.474498789062501Q10.4152940625,14.456668789062501,10.3585600625,14.4331687890625Q10.3018260625,14.4096687890625,10.2476680625,14.380718789062499Q10.1935110625,14.3517787890625,10.1424510625,14.317658789062499Q10.0913920625,14.2835387890625,10.0439220625,14.244588789062501Q9.9964530625,14.2056287890625,9.9530310625,14.1622087890625Q9.9096080625,14.1187787890625,9.8706510625,14.071308789062499Q9.8316940625,14.0238387890625,9.7975740625,13.972778789062499Q9.7634640625,13.921728789062499,9.7345140625,13.8675687890625Q9.7055640625,13.8134087890625,9.6820640625,13.7566787890625Q9.6585640625,13.6999387890625,9.6407340625,13.6411787890625Q9.6229140625,13.5824087890625,9.6109340625,13.5221887890625Q9.5989540625,13.4619587890625,9.5929340625,13.400838789062501Q9.5869140625,13.3397287890625,9.5869140625,13.2783187890625Q9.5869140625,13.2169087890625,9.5929340625,13.1557987890625Q9.5989540625,13.0946887890625,9.6109340625,13.0344587890625Q9.6229140625,12.9742287890625,9.6407340625,12.915468789062501Q9.6585640625,12.8566987890625,9.6820640625,12.7999687890625Q9.7055640625,12.7432287890625,9.7345140625,12.6890787890625Q9.7634640625,12.6349187890625,9.7975740625,12.5838587890625Q9.8316940625,12.5327987890625,9.8706510625,12.4853287890625Q9.9096080625,12.4378587890625,9.9530310625,12.3944387890625Q9.9964530625,12.3510187890625,10.0439220625,12.312058789062501Q10.0913920625,12.2730987890625,10.1424510625,12.2389787890625Q10.1935110625,12.2048687890625,10.2476680625,12.1759187890625Q10.3018260625,12.1469687890625,10.3585600625,12.1234687890625Q10.4152940625,12.0999687890625,10.4740580625,12.0821487890625Q10.5328230625,12.0643187890625,10.5930510625,12.0523387890625Q10.6532800625,12.0403587890625,10.7143930625,12.0343387890625Q10.7755054625,12.0283187890625,10.8369140625,12.0283187890625Q10.8983226625,12.0283187890625,10.9594350625,12.0343387890625Q11.0205480625,12.0403587890625,11.0807770625,12.0523387890625Q11.1410050625,12.0643187890625,11.1997700625,12.0821487890625Q11.2585340625,12.0999687890625,11.3152680625,12.1234687890625Q11.3720020625,12.1469687890625,11.4261600625,12.1759187890625Q11.4803170625,12.2048687890625,11.5313770625,12.2389887890625Q11.5824360625,12.2730987890625,11.6299060625,12.312058789062501Q11.6773750625,12.3510187890625,11.7207970625,12.3944387890625Q11.7642200625,12.4378587890625,11.8031770625,12.4853287890625Q11.8421340625,12.5327987890625,11.8762540625,12.5838587890625Q11.9103640625,12.6349187890625,11.9393140625,12.6890787890625Q11.9682640625,12.7432287890625,11.9917640625,12.7999687890625Q12.0152640625,12.8566987890625,12.0330940625,12.915468789062501Q12.0509140625,12.9742287890625,12.0628940625,13.0344587890625Q12.0748740625,13.0946887890625,12.0808940625,13.1557987890625Q12.0869140625,13.2169087890625,12.0869140625,13.2783187890625ZM20.0001040625,8.4840087890625Q20.0001040625,8.5454173890625,19.9940840625,8.6065297890625Q19.9880640625,8.6676427890625,19.9760840625,8.7278717890625Q19.9641040625,8.7880997890625,19.946274062500002,8.8468647890625Q19.928454062500002,8.9056287890625,19.9049540625,8.9623627890625Q19.8814440625,9.0190967890625,19.8525040625,9.0732547890625Q19.8235540625,9.1274117890625,19.7894340625,9.1784717890625Q19.7553240625,9.2295307890625,19.7163640625,9.2770007890625Q19.677404062500003,9.3244697890625,19.633984062499998,9.3678917890625Q19.5905640625,9.4113147890625,19.5430940625,9.4502717890625Q19.4956240625,9.4892287890625,19.4445640625,9.5233487890625Q19.3935040625,9.5574587890625,19.3393440625,9.5864087890625Q19.2851840625,9.6153587890625,19.2284540625,9.6388587890625Q19.171724062499997,9.6623587890625,19.112954062500002,9.6801887890625Q19.054194062500002,9.6980087890625,18.993964062499998,9.7099887890625Q18.9337340625,9.7219687890625,18.8726240625,9.7279887890625Q18.8115140625,9.7340087890625,18.7501040625,9.7340087890625Q18.688694062499998,9.7340087890625,18.6275840625,9.7279887890625Q18.5664640625,9.7219687890625,18.5062340625,9.7099887890625Q18.446014062499998,9.6980087890625,18.3872440625,9.6801887890625Q18.3284840625,9.6623587890625,18.271744062499998,9.6388587890625Q18.2150140625,9.6153587890625,18.1608540625,9.5864087890625Q18.1066940625,9.5574587890625,18.0556340625,9.5233487890625Q18.004574062499998,9.4892287890625,17.9571040625,9.4502717890625Q17.9096440625,9.4113147890625,17.8662140625,9.3678917890625Q17.8227940625,9.3244697890625,17.7838340625,9.2770007890625Q17.7448840625,9.2295307890625,17.7107640625,9.1784717890625Q17.6766440625,9.1274117890625,17.6477040625,9.0732547890625Q17.6187540625,9.0190967890625,17.5952540625,8.9623627890625Q17.5717540625,8.9056287890625,17.553924062500002,8.8468647890625Q17.5360940625,8.7880997890625,17.5241140625,8.7278717890625Q17.5121340625,8.6676427890625,17.5061240625,8.6065297890625Q17.5001040625,8.5454173890625,17.5001040625,8.4840087890625Q17.5001040625,8.4226001890625,17.5061240625,8.3614877890625Q17.5121340625,8.3003747890625,17.5241140625,8.2401457890625Q17.5361040625,8.1799177890625,17.553924062500002,8.1211527890625Q17.5717540625,8.0623887890625,17.5952540625,8.0056547890625Q17.6187540625,7.9489207890625,17.6477040625,7.8947627890625Q17.6766440625,7.8406057890625,17.7107640625,7.7895457890625Q17.7448840625,7.7384867890625,17.7838340625,7.6910167890625Q17.8227940625,7.6435477890625,17.8662140625,7.6001257890625Q17.9096440625,7.5567027890625,17.9571140625,7.5177457890625Q18.004574062499998,7.4787887890625,18.0556340625,7.4446687890625Q18.1066940625,7.4105587890625,18.1608540625,7.3816087890625Q18.2150140625,7.3526587890625,18.271744062499998,7.3291587890625Q18.3284840625,7.3056587890625,18.3872440625,7.2878287890625Q18.446014062499998,7.2700087890625,18.5062340625,7.2580287890625Q18.5664640625,7.2460487890625,18.6275840625,7.2400287890624995Q18.688694062499998,7.2340087890625,18.7501040625,7.2340087890625Q18.8115140625,7.2340087890625,18.8726240625,7.2400287890624995Q18.9337340625,7.2460487890625,18.993964062499998,7.2580287890625Q19.054194062500002,7.2700087890625,19.112954062500002,7.2878287890625Q19.171724062499997,7.3056587890625,19.2284540625,7.3291587890625Q19.2851840625,7.3526587890625,19.3393440625,7.3816087890625Q19.3935040625,7.4105587890625,19.4445640625,7.4446687890625Q19.4956240625,7.4787887890625,19.5430940625,7.5177457890625Q19.5905640625,7.5567027890625,19.633984062499998,7.6001257890625Q19.677404062500003,7.6435477890625,19.7163640625,7.6910167890625Q19.7553240625,7.7384867890625,19.7894340625,7.7895457890625Q19.8235540625,7.8406057890625,19.8525040625,7.8947627890625Q19.8814440625,7.9489207890625,19.9049540625,8.0056547890625Q19.928454062500002,8.0623887890625,19.946274062500002,8.1211527890625Q19.9641040625,8.1799177890625,19.9760840625,8.2401457890625Q19.9880640625,8.3003747890625,19.9940840625,8.3614877890625Q20.0001040625,8.4226001890625,20.0001040625,8.4840087890625Z" fill="#FFFFFF" fill-opacity="1"/></g><g><path d="M18.5387540625,22.6054469921875L10.2010000625,17.6785769921875Q10.1481320625,17.6473369921875,10.0985800625,17.6110569921875Q10.0490290625,17.5747899921875,10.0032710625,17.5338349921875Q9.9575140625,17.4928809921875,9.9159910625,17.4476389921875Q9.874467062499999,17.4023969921875,9.8375790625,17.3533029921875Q9.8006940625,17.3042089921875,9.7687940625,17.2517349921875Q9.7368940625,17.1992609921875,9.710294062500001,17.1439139921875Q9.6836840625,17.0885669921875,9.6626440625,17.0308779921875Q9.6415940625,16.9731899921875,9.6262940625,16.913715992187498Q9.6110040625,16.8542419921875,9.6016140625,16.7935559921875Q9.5922240625,16.7328689921875,9.5888240625,16.6715547921875Q9.5854340625,16.6102402721875,9.588064062499999,16.5488880921875Q9.590694062499999,16.4875359921875,9.5993240625,16.4267369921875Q9.6079540625,16.3659379921875,9.6225040625,16.3062769921875Q9.6370440625,16.2466169921875,9.6573740625,16.1886699921875Q9.6777040625,16.1307229921875,9.7036040625,16.0750469921875Q9.7295140625,16.0193709921875,9.7607540625,15.9665029921875Q9.7919940625,15.9136349921875,9.8282740625,15.8640829921875Q9.8645410625,15.8145319921875,9.9054960625,15.7687739921875Q9.9464500625,15.7230169921875,9.9916920625,15.6814939921875Q10.0369340625,15.639969992187499,10.0860280625,15.6030819921875Q10.1351220625,15.5661969921875,10.1875960625,15.5342969921875Q10.2400700625,15.5023969921875,10.2954170625,15.475796992187501Q10.3507640625,15.4491869921875,10.4084530625,15.4281469921875Q10.4661410625,15.4070969921875,10.5256150625,15.3917969921875Q10.5850890625,15.3765069921875,10.6457750625,15.3671169921875Q10.7064620625,15.3577269921875,10.7677762625,15.3543269921875Q10.8290907825,15.3509369921875,10.8904429625,15.353566992187499Q10.9517950625,15.356196992187499,11.0125940625,15.3648269921875Q11.0733930625,15.3734569921875,11.1330540625,15.3880069921875Q11.1927140625,15.4025469921875,11.2506610625,15.4228769921875Q11.3086080625,15.4432069921875,11.3642840625,15.4691069921875Q11.4199600625,15.4950169921875,11.4728280625,15.5262569921875L19.810574062500002,20.4531369921875Q19.8634440625,20.4843769921875,19.912994062499997,20.5206469921875Q19.9625440625,20.5569169921875,20.008304062500002,20.5978769921875Q20.0540640625,20.6388269921875,20.095584062500002,20.6840669921875Q20.1371140625,20.7293069921875,20.1739940625,20.7784069921875Q20.2108840625,20.8274969921875,20.2427840625,20.8799769921875Q20.2746840625,20.9324469921875,20.301284062500002,20.987796992187498Q20.3278940625,21.0431369921875,20.3489340625,21.1008269921875Q20.369984062500002,21.1585169921875,20.3852840625,21.2179969921875Q20.4005740625,21.2774669921875,20.409964062500002,21.3381569921875Q20.4193540625,21.3988369921875,20.4227440625,21.4601569921875Q20.4261440625,21.5214669921875,20.4235140625,21.5828169921875Q20.4208840625,21.6441769921875,20.4122540625,21.7049669921875Q20.4036240625,21.7657669921875,20.3890740625,21.825426992187502Q20.3745240625,21.8850869921875,20.3542040625,21.9430369921875Q20.3338740625,22.0009869921875,20.3079740625,22.0566569921875Q20.282064062499998,22.1123369921875,20.2508240625,22.1652069921875Q20.219584062499997,22.2180769921875,20.1833140625,22.267626992187502Q20.147034062499998,22.3171769921875,20.106084062500003,22.3629369921875Q20.0651240625,22.4086969921875,20.019884062499997,22.4502169921875Q19.974644062499998,22.491736992187498,19.925544062500002,22.5286269921875Q19.876454062500002,22.5655169921875,19.8239840625,22.5974169921875Q19.7715140625,22.6293169921875,19.7161640625,22.6559169921875Q19.660814062500002,22.6825169921875,19.6031240625,22.7035669921875Q19.5454340625,22.7246169921875,19.485964062500003,22.7399069921875Q19.426494062499998,22.7551969921875,19.3658040625,22.7645969921875Q19.3051140625,22.7739869921875,19.2438040625,22.7773769921875Q19.182484062500002,22.780776992187498,19.121134062499998,22.7781469921875Q19.0597840625,22.775516992187498,18.9989840625,22.7668869921875Q18.9381840625,22.7582569921875,18.8785240625,22.743706992187498Q18.8188640625,22.729156992187498,18.7609140625,22.7088269921875Q18.7029740625,22.6885069921875,18.647294062500002,22.6625969921875Q18.5916240625,22.6366869921875,18.5387540625,22.6054469921875ZM20.4246640625,21.5292869921875Q20.4246640625,21.5906969921875,20.4186440625,21.6518169921875Q20.4126240625,21.712926992187498,20.4006440625,21.773156992187502Q20.3886640625,21.8333869921875,20.370844062499998,21.8921469921875Q20.3530140625,21.950906992187498,20.3295140625,22.0076469921875Q20.306014062499997,22.0643769921875,20.2770640625,22.1185369921875Q20.2481140625,22.1726969921875,20.214004062500003,22.2237569921875Q20.1798840625,22.2748169921875,20.140924062499998,22.3222869921875Q20.1019740625,22.3697569921875,20.058544062499998,22.413176992187502Q20.0151240625,22.4565969921875,19.9676540625,22.4955569921875Q19.9201840625,22.5345069921875,19.8691240625,22.5686269921875Q19.8180640625,22.602746992187498,19.7639140625,22.6316969921875Q19.7097540625,22.6606369921875,19.6530140625,22.6841369921875Q19.5962840625,22.7076369921875,19.537524062499998,22.7254669921875Q19.478754062500002,22.7432969921875,19.418524062499998,22.7552769921875Q19.3583040625,22.767256992187498,19.2971840625,22.7732769921875Q19.236074062500002,22.7792869921875,19.1746640625,22.7792869921875Q19.113254062499998,22.7792869921875,19.0521440625,22.7732769921875Q18.9910340625,22.767256992187498,18.930804062500002,22.7552769921875Q18.870574062499998,22.7432969921875,18.811804062500002,22.7254669921875Q18.7530440625,22.7076369921875,18.6963140625,22.6841369921875Q18.6395740625,22.6606369921875,18.5854140625,22.6316969921875Q18.5312640625,22.602746992187498,18.4802040625,22.5686269921875Q18.4291440625,22.5345169921875,18.3816740625,22.4955569921875Q18.3342040625,22.4565969921875,18.290784062500002,22.413176992187502Q18.2473540625,22.3697569921875,18.2084040625,22.3222869921875Q18.1694440625,22.2748169921875,18.1353240625,22.2237569921875Q18.1012140625,22.1726969921875,18.0722640625,22.1185369921875Q18.043314062500002,22.0643769921875,18.0198140625,22.0076469921875Q17.996314062499998,21.950906992187498,17.9784840625,21.8921469921875Q17.9606640625,21.8333869921875,17.9486840625,21.773156992187502Q17.9367040625,21.712926992187498,17.9306840625,21.6518169921875Q17.9246640625,21.5906969921875,17.9246640625,21.5292869921875Q17.9246640625,21.467886992187502,17.9306840625,21.4067669921875Q17.9367040625,21.3456569921875,17.9486840625,21.2854269921875Q17.9606640625,21.2251969921875,17.9784840625,21.1664369921875Q17.996314062499998,21.1076669921875,18.0198140625,21.050936992187502Q18.043314062500002,20.9942069921875,18.0722640625,20.9400469921875Q18.1012140625,20.8858869921875,18.1353240625,20.8348269921875Q18.1694440625,20.783766992187502,18.2084040625,20.7362969921875Q18.2473540625,20.6888269921875,18.290784062500002,20.6454069921875Q18.3342040625,20.6019869921875,18.3816740625,20.5630269921875Q18.4291440625,20.5240669921875,18.4802040625,20.4899569921875Q18.5312640625,20.4558369921875,18.5854140625,20.426886992187498Q18.6395740625,20.3979469921875,18.6963140625,20.3744369921875Q18.7530440625,20.3509369921875,18.811804062500002,20.3331169921875Q18.870574062499998,20.3152869921875,18.930804062500002,20.3033069921875Q18.9910340625,20.2913269921875,19.0521440625,20.2853069921875Q19.113254062499998,20.2792869921875,19.1746640625,20.2792869921875Q19.236074062500002,20.2792869921875,19.2971840625,20.2853069921875Q19.3583040625,20.2913269921875,19.418524062499998,20.3033069921875Q19.478754062500002,20.3152869921875,19.537524062499998,20.3331169921875Q19.5962840625,20.3509369921875,19.6530140625,20.3744369921875Q19.7097540625,20.3979469921875,19.7639140625,20.426886992187498Q19.8180640625,20.4558369921875,19.8691240625,20.4899569921875Q19.9201840625,20.5240669921875,19.9676540625,20.5630269921875Q20.0151240625,20.6019869921875,20.058544062499998,20.6454069921875Q20.1019740625,20.6888269921875,20.140924062499998,20.7362969921875Q20.1798840625,20.783766992187502,20.214004062500003,20.8348269921875Q20.2481140625,20.8858869921875,20.2770640625,20.9400469921875Q20.306014062499997,20.9942069921875,20.3295140625,21.050936992187502Q20.3530140625,21.1076669921875,20.370834062500002,21.1664369921875Q20.3886640625,21.2251969921875,20.4006440625,21.2854269921875Q20.4126240625,21.3456569921875,20.4186440625,21.4067669921875Q20.4246640625,21.467886992187502,20.4246640625,21.5292869921875ZM12.0869140625,16.6024169921875Q12.0869140625,16.6638255921875,12.0808940625,16.7249379921875Q12.0748740625,16.7860509921875,12.0628940625,16.8462799921875Q12.0509140625,16.9065079921875,12.0330940625,16.9652729921875Q12.0152640625,17.0240369921875,11.9917640625,17.0807709921875Q11.9682640625,17.137504992187502,11.9393140625,17.1916629921875Q11.9103640625,17.2458199921875,11.8762540625,17.2968799921875Q11.8421340625,17.3479389921875,11.8031770625,17.3954089921875Q11.7642200625,17.4428779921875,11.7207970625,17.4862999921875Q11.6773750625,17.5297229921875,11.6299060625,17.5686799921875Q11.5824360625,17.6076369921875,11.5313770625,17.6417569921875Q11.4803170625,17.6758669921875,11.4261600625,17.7048169921875Q11.3720020625,17.7337669921875,11.3152680625,17.7572669921875Q11.2585340625,17.780766992187502,11.1997700625,17.7985969921875Q11.1410050625,17.8164169921875,11.0807770625,17.8283969921875Q11.0205480625,17.8403769921875,10.9594350625,17.8463969921875Q10.8983226625,17.8524169921875,10.8369140625,17.8524169921875Q10.7755054625,17.8524169921875,10.7143930625,17.8463969921875Q10.6532800625,17.8403769921875,10.5930510625,17.8283969921875Q10.5328230625,17.8164169921875,10.4740580625,17.7985969921875Q10.4152940625,17.780766992187502,10.3585600625,17.7572669921875Q10.3018260625,17.7337669921875,10.2476680625,17.7048169921875Q10.1935110625,17.6758669921875,10.1424510625,17.6417569921875Q10.0913920625,17.6076369921875,10.0439220625,17.5686799921875Q9.9964530625,17.5297229921875,9.9530310625,17.4862999921875Q9.9096080625,17.4428779921875,9.8706510625,17.3954089921875Q9.8316940625,17.3479389921875,9.7975740625,17.2968799921875Q9.7634640625,17.2458199921875,9.7345140625,17.1916629921875Q9.7055640625,17.137504992187502,9.6820640625,17.0807709921875Q9.6585640625,17.0240369921875,9.6407340625,16.9652729921875Q9.6229140625,16.9065079921875,9.6109340625,16.8462799921875Q9.5989540625,16.7860509921875,9.5929340625,16.7249379921875Q9.5869140625,16.6638255921875,9.5869140625,16.6024169921875Q9.5869140625,16.5410083921875,9.5929340625,16.4798959921875Q9.5989540625,16.4187829921875,9.6109340625,16.3585539921875Q9.6229140625,16.2983259921875,9.6407340625,16.2395609921875Q9.6585640625,16.1807969921875,9.6820640625,16.1240629921875Q9.7055640625,16.067328992187498,9.7345140625,16.0131709921875Q9.7634640625,15.9590139921875,9.7975740625,15.9079539921875Q9.8316940625,15.8568949921875,9.8706510625,15.8094249921875Q9.9096080625,15.7619559921875,9.9530310625,15.7185339921875Q9.9964530625,15.6751109921875,10.0439220625,15.6361539921875Q10.0913920625,15.5971969921875,10.1424510625,15.5630769921875Q10.1935110625,15.5289669921875,10.2476680625,15.5000169921875Q10.3018260625,15.4710669921875,10.3585600625,15.4475669921875Q10.4152940625,15.4240669921875,10.4740580625,15.4062369921875Q10.5328230625,15.3884169921875,10.5930510625,15.3764369921875Q10.6532800625,15.3644569921875,10.7143930625,15.3584369921875Q10.7755054625,15.3524169921875,10.8369140625,15.3524169921875Q10.8983226625,15.3524169921875,10.9594350625,15.3584369921875Q11.0205480625,15.3644569921875,11.0807770625,15.3764369921875Q11.1410050625,15.3884169921875,11.1997700625,15.4062369921875Q11.2585340625,15.4240669921875,11.3152680625,15.4475669921875Q11.3720020625,15.4710669921875,11.4261600625,15.5000169921875Q11.4803170625,15.5289669921875,11.5313770625,15.5630769921875Q11.5824360625,15.5971969921875,11.6299060625,15.6361539921875Q11.6773750625,15.6751109921875,11.7207970625,15.7185339921875Q11.7642200625,15.7619559921875,11.8031770625,15.8094249921875Q11.8421340625,15.8568949921875,11.8762540625,15.9079539921875Q11.9103640625,15.9590139921875,11.9393140625,16.0131709921875Q11.9682640625,16.067328992187498,11.9917640625,16.1240629921875Q12.0152640625,16.1807969921875,12.0330940625,16.2395609921875Q12.0509140625,16.2983259921875,12.0628940625,16.3585539921875Q12.0748740625,16.4187829921875,12.0808940625,16.4798959921875Q12.0869140625,16.5410083921875,12.0869140625,16.6024169921875Z" fill="#FFFFFF" fill-opacity="1"/></g><g><path d="M17.5,23.125Q17.5,21.312829999999998,18.7814132,20.0314131Q20.062829999999998,18.75,21.875,18.75Q23.687170000000002,18.75,24.96859,20.0314131Q26.25,21.312829999999998,26.25,23.125Q26.25,24.937170000000002,24.96859,26.21859Q23.687170000000002,27.5,21.875,27.5Q20.062829999999998,27.5,18.781413,26.21859Q17.5,24.937170000000002,17.5,23.125L17.5,23.125ZM20,23.125Q20,23.90164,20.54918,24.45082Q21.09836,25,21.875,25Q22.65164,25,23.20082,24.45082Q23.75,23.90164,23.75,23.125Q23.75,22.34836,23.20082,21.79918Q22.65164,21.25,21.875,21.25Q21.09836,21.25,20.54918,21.79918Q20,22.34836,20,23.125L20,23.125Z" fill="#FFFFFF" fill-opacity="1"/></g></g></svg>