<svg xmlns="http://www.w3.org/2000/svg" xmlns:xlink="http://www.w3.org/1999/xlink" fill="none" version="1.1" width="48" height="17" viewBox="0 0 48 17"><g><path d="M5.12,13.6883L4.05333,13.6883Q2.37439,13.6883,1.18719,12.4597Q0,11.2311,0,9.49351L0,1.21429L1.70667,0L1.70667,3.2013L5.12,3.2013L5.12,4.96753L1.70667,4.96753L1.70667,9.49351Q1.70667,10.4995,2.39399,11.2108Q3.08131,11.9221,4.05333,11.9221L5.12,11.9221L5.12,13.6883ZM26.56,13.6883L26.56,0L24.8533,0L24.8533,4.43875Q23.4164,3.09091,21.44,3.09091Q19.3192,3.09091,17.8196,4.64286Q16.32,6.19482,16.32,8.38961Q16.32,10.5844,17.8196,12.1364Q19.3192,13.6883,21.44,13.6883Q23.4164,13.6883,24.8533,12.3405L24.8533,13.6883L26.56,13.6883ZM46.1451,2.97326L42.7352,11.4791L38.9627,2.94432L37.0133,2.97327L41.8415,13.703L40.5333,17L42.3865,17L43.5598,14.031L48,2.97327L46.1451,2.97326ZM15.4667,8.38961Q15.4667,9.4003,15.1072,10.34Q14.7169,11.3604,13.9671,12.1364Q13.2172,12.9123,12.2313,13.3163Q11.3233,13.6883,10.3467,13.6883Q9.37006,13.6883,8.46202,13.3163Q7.47609,12.9123,6.72628,12.1364Q5.97647,11.3604,5.58615,10.34Q5.22667,9.4003,5.22667,8.38961Q5.22667,7.37892,5.58615,6.43919Q5.97647,5.41884,6.72628,4.64286Q7.47609,3.86689,8.46202,3.46294Q9.37006,3.09091,10.3467,3.09091Q11.3233,3.09091,12.2313,3.46294Q13.2172,3.86689,13.9671,4.64286Q14.7169,5.41884,15.1072,6.43919Q15.4667,7.37892,15.4667,8.38961ZM32.5333,3.09091Q34.6541,3.09091,36.1537,4.64286Q37.6533,6.19482,37.6533,8.38961L37.6533,13.6883L35.9467,13.6883L35.9467,12.3405Q34.5097,13.6883,32.5333,13.6883Q30.4126,13.6883,28.9129,12.1364Q27.4133,10.5844,27.4133,8.38961Q27.4133,6.19482,28.9129,4.64286Q30.4126,3.09091,32.5333,3.09091ZM13.76,8.38961Q13.76,7.71582,13.5203,7.08933Q13.2601,6.4091,12.7603,5.89178Q12.2604,5.37446,11.6031,5.10516Q10.9977,4.85714,10.3467,4.85714Q9.6956,4.85714,9.09024,5.10516Q8.43295,5.37446,7.93308,5.89178Q7.4332,6.4091,7.17299,7.08933Q6.93333,7.71582,6.93333,8.38961Q6.93333,9.06341,7.17299,9.68989Q7.4332,10.3701,7.93308,10.8874Q8.43295,11.4048,9.09024,11.6741Q9.6956,11.9221,10.3467,11.9221Q10.9977,11.9221,11.6031,11.6741Q12.2604,11.4048,12.7603,10.8874Q13.2601,10.3701,13.5203,9.68989Q13.76,9.06341,13.76,8.38961ZM24.8533,8.38961Q24.8533,6.92641,23.8536,5.89178Q22.8538,4.85714,21.44,4.85714Q20.0261,4.85714,19.0264,5.89178Q18.0267,6.92641,18.0267,8.38961Q18.0267,9.85281,19.0264,10.8874Q20.0261,11.9221,21.44,11.9221Q22.8538,11.9221,23.8536,10.8874Q24.8533,9.85281,24.8533,8.38961ZM34.9469,5.89178Q35.9467,6.92641,35.9467,8.38961Q35.9467,9.85281,34.9469,10.8874Q33.9472,11.9221,32.5333,11.9221Q31.1195,11.9221,30.1197,10.8874Q29.12,9.85281,29.12,8.38961Q29.12,6.92641,30.1197,5.89178Q31.1195,4.85714,32.5333,4.85714Q33.9472,4.85714,34.9469,5.89178Z" fill-rule="evenodd" fill="#FFFFFF" fill-opacity="1"/></g></svg>