<svg xmlns="http://www.w3.org/2000/svg" xmlns:xlink="http://www.w3.org/1999/xlink" fill="none" version="1.1" width="10" height="11.436826705932617" viewBox="0 0 10 11.436826705932617"><g style="mix-blend-mode:passthrough"><path d="M0.555556,10.3257L9.44444,10.3257C9.75127,10.3257,10,10.5744,10,10.8812C10,11.188,9.75127,11.4368,9.44444,11.4368L0.555556,11.4368C0.248731,11.4368,0,11.188,0,10.8812C0,10.5744,0.248731,10.3257,0.555556,10.3257ZM1.50408,4.8768L1.50607,4.8748L4.47239,1.8782L4.47239,8.1033C4.47239,8.41012,4.72112,8.65885,5.02794,8.65885C5.33477,8.65885,5.5835,8.41012,5.5835,8.1033L5.5835,1.92466L8.53554,4.87671C8.7525,5.09366,9.10426,5.09366,9.32122,4.87671C9.53817,4.65975,9.53817,4.30799,9.32122,4.09103L5.39284,0.16266L5.39084,0.16067C5.28613,0.0570136,5.14453,-0.000799497,4.99719,-0.0000513925C4.84984,0.000696712,4.70884,0.0599456,4.60518,0.164661L0.718403,4.09112L0.716418,4.09313C0.50134,4.3104,0.502229,4.66062,0.718408,4.8768C0.935366,5.09376,1.28712,5.09376,1.50408,4.8768Z" fill-rule="evenodd" fill="#FFFFFF" fill-opacity="1"/></g></svg>