<svg xmlns="http://www.w3.org/2000/svg" xmlns:xlink="http://www.w3.org/1999/xlink" fill="none" version="1.1" width="46" height="46" viewBox="0 0 46 46"><defs><mask id="master_svg0_0_1397"><g style="mix-blend-mode:passthrough"><path d="M46 0C46 0 46 0 46 0L92 0C92 0 92 0 92 0L92 46C92 46 92 46 92 46L46 46C46 46 46 46 46 46Z" fill="#FFFFFF" fill-opacity="1"/></g></mask></defs><g style="mix-blend-mode:passthrough" transform="matrix(6.123234262925839e-17,1,-1,6.123234262925839e-17,46,-46)"><g><g style="mix-blend-mode:passthrough"></g></g><g mask="url(#master_svg0_0_1397)"><g style="mix-blend-mode:passthrough"><path d="M88.16333325386047,23.003333253860475C88.16333325386047,12.413333253860474,79.58333325386047,3.8333332538604736,69.00333325386048,3.8333332538604736C58.41333325386047,3.8333332538604736,49.833333253860474,12.413333253860474,49.833333253860474,23.003333253860475C49.833333253860474,33.583333253860474,58.41333325386047,42.16333325386047,69.00333325386048,42.16333325386047C79.58333325386047,42.16333325386047,88.16333325386047,33.583333253860474,88.16333325386047,23.003333253860475Z" fill-rule="evenodd" fill="#D8D8D8" fill-opacity="0.009999999776482582"/><path d="M69.00333325386048,40.66333325386047Q72.59643325386048,40.66333325386047,75.87613325386047,39.27593325386047Q79.04493325386048,37.93533325386047,81.49013325386048,35.49013325386048Q83.93533325386048,33.04493325386048,85.27593325386047,29.876133253860473Q86.66333325386047,26.596533253860475,86.66333325386047,23.003333253860475Q86.66333325386047,19.406433253860474,85.27583325386047,16.124433253860474Q83.93523325386047,12.953713253860474,81.48993325386047,10.507553253860474Q79.04503325386048,8.061673253860473,75.87603325386047,6.720863253860474Q72.59663325386047,5.333333253860474,69.00333325386048,5.333333253860474Q65.40623325386048,5.333333253860474,62.12453325386048,6.720993253860474Q58.953703253860475,8.061783253860472,56.507743253860475,10.507743253860474Q54.061783253860476,12.953703253860473,52.72099325386047,16.124533253860474Q51.333333253860474,19.406233253860474,51.333333253860474,23.003333253860475Q51.333333253860474,26.596633253860475,52.72086325386047,29.876033253860474Q54.06167325386048,33.04493325386048,56.50755325386047,35.48993325386047Q58.953703253860475,37.935233253860474,62.124433253860474,39.275833253860476Q65.40643325386047,40.66333325386047,69.00333325386048,40.66333325386047ZM69.00333325386048,43.66333325386047Q64.79823325386047,43.66333325386047,60.956233253860475,42.039033253860474Q57.246573253860475,40.47063325386048,54.386613253860475,37.61173325386047Q51.52684325386048,34.752933253860476,49.95799125386047,31.045033253860474Q48.333333253860474,27.205233253860474,48.333333253860474,23.003333253860475Q48.333333253860474,18.798033253860474,49.957863253860474,14.956133253860473Q51.52660325386047,11.246243253860474,54.38642325386047,8.386423253860475Q57.24624325386047,5.526603253860474,60.95613325386047,3.9578632538604737Q64.79803325386047,2.3333332538604736,69.00333325386048,2.3333332538604736Q73.20523325386047,2.3333332538604736,77.04503325386048,3.9579922538604735Q80.75293325386048,5.5268432538604735,83.61173325386048,8.386613253860475Q86.47063325386048,11.246563253860474,88.03903325386048,14.956233253860473Q89.66333325386047,18.798333253860473,89.66333325386047,23.003333253860475Q89.66333325386047,27.204933253860474,88.03883325386047,31.044933253860474Q86.47043325386048,34.75263325386047,83.61153325386047,37.61153325386047Q80.75263325386047,40.470333253860474,77.04493325386048,42.038833253860474Q73.20493325386047,43.66333325386047,69.00333325386048,43.66333325386047Z" fill="#FFFFFF" fill-opacity="1"/></g><g style="mix-blend-mode:passthrough"><path d="M58.35558319091797,31.625L58.35558319091797,25.875Q58.35558319091797,25.8013097,58.362803190917965,25.727974Q58.370033190917965,25.654639,58.38440319091797,25.582365Q58.39878319091797,25.51009,58.42017319091797,25.439573Q58.44156319091797,25.369056,58.469763190917966,25.300975Q58.49796319091797,25.232894,58.53270319091797,25.167905Q58.56744319091797,25.102916,58.60838319091797,25.041645Q58.64932319091797,24.980373,58.69606319091797,24.92341Q58.74281319091797,24.86645,58.79492319091797,24.81434Q58.84703319091797,24.76223,58.903993190917966,24.71548Q58.96095619091797,24.66874,59.02222819091797,24.6278Q59.08349919091797,24.58686,59.148488190917966,24.55212Q59.21347719091797,24.51738,59.28155819091797,24.48918Q59.34963919091797,24.46098,59.42015619091797,24.43959Q59.49067319091797,24.4182,59.56294819091797,24.40382Q59.63522219091797,24.38945,59.70855719091797,24.38222Q59.781892890917966,24.375,59.85558319091797,24.375Q59.97460319091797,24.375,60.09213319091797,24.39377Q60.20966319091797,24.41254,60.32276319091797,24.44961Q60.435862190917966,24.48668,60.54170119091797,24.54112Q60.647540190917965,24.59556,60.74346919091797,24.66601Q60.83939819091797,24.73646,60.92301319091797,24.82116Q61.00663319091797,24.905854,61.07585319091797,25.002677Q61.145063190917966,25.099501,61.19814319091797,25.206028Q61.25122319091797,25.312556,61.28684319091797,25.426121Q62.06799319091797,27.91682,64.17147319091796,29.48661Q66.31328319091797,31.085,68.99558319091797,31.085Q71.68498319091796,31.085,73.82888319091796,29.48627Q75.93308319091797,27.91721,76.71428319091797,25.426122Q76.73638319091796,25.355808,76.76518319091797,25.287995Q76.79408319091797,25.220182,76.82938319091797,25.155522Q76.86478319091796,25.090861,76.90628319091797,25.029977Q76.94778319091796,24.969093,76.99508319091797,24.912571Q77.04228319091797,24.85605,77.09488319091797,24.80443Q77.14748319091797,24.75282,77.20488319091797,24.70661Q77.26228319091797,24.66039,77.32398319091797,24.62003Q77.38558319091797,24.57967,77.45098319091797,24.54554Q77.51628319091796,24.51141,77.58458319091797,24.48385Q77.65288319091798,24.45629,77.72368319091797,24.43557Q77.79438319091797,24.41484,77.86678319091797,24.40114Q77.93918319091797,24.38744,78.01258319091797,24.38091Q78.08598319091797,24.37437,78.15968319091797,24.37507Q78.23338319091798,24.37576,78.30658319091796,24.38367Q78.37988319091797,24.39158,78.45198319091797,24.40663Q78.52418319091797,24.421689999999998,78.59448319091797,24.44374Q78.66478319091797,24.46579,78.73258319091796,24.49463Q78.80038319091797,24.52347,78.86508319091797,24.55881Q78.92968319091797,24.59416,78.99058319091797,24.63567Q79.05148319091796,24.67718,79.10798319091796,24.72447Q79.16458319091797,24.77175,79.21618319091797,24.82434Q79.26778319091797,24.876935,79.31398319091797,24.934334Q79.36018319091797,24.991734,79.40058319091797,25.053387Q79.44088319091797,25.115039,79.47508319091797,25.180352Q79.50918319091797,25.245664,79.53668319091797,25.314006Q79.56428319091796,25.382349,79.58498319091797,25.453064Q79.60578319091798,25.523779,79.61948319091798,25.596185Q79.63318319091798,25.668591,79.63968319091796,25.741991Q79.64618319091797,25.8153912,79.64548319091797,25.8890782Q79.64478319091796,25.9627653,79.63688319091797,26.03603Q79.62898319091796,26.109294,79.61398319091796,26.181431Q79.59888319091797,26.253567,79.57688319091797,26.32388Q78.50498319091797,29.74162,75.62228319091797,31.89123Q72.68038319091796,34.085,68.99558319091797,34.085Q65.31725319091797,34.085,62.37719319091797,31.89089Q59.49590219091797,29.74064,58.42432319091797,26.323879L59.85558319091797,25.875L61.35558319091797,25.875L61.35558319091797,31.625Q61.35558319091797,31.69869,61.34836319091797,31.77203Q61.34113319091797,31.84536,61.326763190917966,31.91763Q61.31238319091797,31.989910000000002,61.290993190917966,32.06043Q61.26960319091797,32.13094,61.24140319091797,32.19902Q61.213203190917966,32.26711,61.17846319091797,32.33209Q61.14372319091797,32.39708,61.10278319091797,32.45835Q61.06184319091797,32.51963,61.01510319091797,32.57659Q60.968353190917966,32.63355,60.91624319091797,32.68566Q60.86413319091797,32.73777,60.80717319091797,32.78452Q60.75021019091797,32.83126,60.688938190917966,32.8722Q60.62766719091797,32.91314,60.56267819091797,32.94788Q60.49768919091797,32.98262,60.42960819091797,33.01082Q60.36152719091797,33.03902,60.291010190917966,33.06041Q60.22049319091797,33.0818,60.148218190917966,33.096180000000004Q60.075944190917966,33.11055,60.002609190917966,33.117779999999996Q59.92927349091797,33.125,59.85558319091797,33.125Q59.781892890917966,33.125,59.70855719091797,33.117779999999996Q59.63522219091797,33.11055,59.56294819091797,33.096180000000004Q59.49067319091797,33.0818,59.42015619091797,33.06041Q59.34963919091797,33.03902,59.28155819091797,33.01082Q59.21347719091797,32.98262,59.148488190917966,32.94788Q59.08349919091797,32.91314,59.02222819091797,32.8722Q58.96095619091797,32.83126,58.903993190917966,32.78451Q58.84703319091797,32.73777,58.79492319091797,32.68566Q58.74281319091797,32.63355,58.69606319091797,32.57659Q58.64932319091797,32.51963,58.60838319091797,32.45835Q58.56744319091797,32.39708,58.53270319091797,32.33209Q58.49796319091797,32.26711,58.469763190917966,32.19902Q58.44156319091797,32.13094,58.42017319091797,32.06043Q58.39878319091797,31.989910000000002,58.38440319091797,31.91763Q58.370033190917965,31.84536,58.362803190917965,31.77203Q58.35558319091797,31.69869,58.35558319091797,31.625ZM61.35558319091797,31.625Q61.35558319091797,31.69869,61.34836319091797,31.77203Q61.34113319091797,31.84536,61.326763190917966,31.91763Q61.31238319091797,31.989910000000002,61.290993190917966,32.06043Q61.26960319091797,32.13094,61.24140319091797,32.19902Q61.213203190917966,32.26711,61.17846319091797,32.33209Q61.14372319091797,32.39708,61.10278319091797,32.45835Q61.06184319091797,32.51963,61.01510319091797,32.57659Q60.968353190917966,32.63355,60.91624319091797,32.68566Q60.86413319091797,32.73777,60.80717319091797,32.78452Q60.75021019091797,32.83126,60.688938190917966,32.8722Q60.62766719091797,32.91314,60.56267819091797,32.94788Q60.49768919091797,32.98262,60.42960819091797,33.01082Q60.36152719091797,33.03902,60.291010190917966,33.06041Q60.22049319091797,33.0818,60.148218190917966,33.096180000000004Q60.075944190917966,33.11055,60.002609190917966,33.117779999999996Q59.92927349091797,33.125,59.85558319091797,33.125Q59.781892890917966,33.125,59.70855719091797,33.117779999999996Q59.63522219091797,33.11055,59.56294819091797,33.096180000000004Q59.49067319091797,33.0818,59.42015619091797,33.06041Q59.34963919091797,33.03902,59.28155819091797,33.01082Q59.21347719091797,32.98262,59.148488190917966,32.94788Q59.08349919091797,32.91314,59.02222819091797,32.8722Q58.96095619091797,32.83126,58.903993190917966,32.78451Q58.84703319091797,32.73777,58.79492319091797,32.68566Q58.74281319091797,32.63355,58.69606319091797,32.57659Q58.64932319091797,32.51963,58.60838319091797,32.45835Q58.56744319091797,32.39708,58.53270319091797,32.33209Q58.49796319091797,32.26711,58.469763190917966,32.19902Q58.44156319091797,32.13094,58.42017319091797,32.06043Q58.39878319091797,31.989910000000002,58.38440319091797,31.91763Q58.370033190917965,31.84536,58.362803190917965,31.77203Q58.35558319091797,31.69869,58.35558319091797,31.625Q58.35558319091797,31.55131,58.362803190917965,31.47797Q58.370033190917965,31.40464,58.38440319091797,31.33236Q58.39878319091797,31.260089999999998,58.42017319091797,31.18957Q58.44156319091797,31.11906,58.469763190917966,31.05097Q58.49796319091797,30.98289,58.53270319091797,30.9179Q58.56744319091797,30.85292,58.60838319091797,30.79164Q58.64932319091797,30.73037,58.69606319091797,30.67341Q58.74281319091797,30.61645,58.79492319091797,30.56434Q58.84703319091797,30.51223,58.903993190917966,30.46548Q58.96095619091797,30.41874,59.02222819091797,30.37779Q59.08349919091797,30.33685,59.148488190917966,30.302120000000002Q59.21347719091797,30.26738,59.28155819091797,30.23918Q59.34963919091797,30.21098,59.42015619091797,30.18959Q59.49067319091797,30.1682,59.56294819091797,30.15382Q59.63522219091797,30.13945,59.70855719091797,30.13222Q59.781892890917966,30.125,59.85558319091797,30.125Q59.92927349091797,30.125,60.002609190917966,30.13222Q60.075944190917966,30.13945,60.148218190917966,30.15382Q60.22049319091797,30.1682,60.291010190917966,30.18959Q60.36152719091797,30.21098,60.42960819091797,30.23918Q60.49768919091797,30.26738,60.56267819091797,30.302120000000002Q60.62766719091797,30.33685,60.688938190917966,30.37779Q60.75021019091797,30.41874,60.80717319091797,30.46548Q60.86413319091797,30.51223,60.91624319091797,30.56434Q60.968353190917966,30.61645,61.01510319091797,30.67341Q61.06184319091797,30.73037,61.10278319091797,30.79164Q61.14372319091797,30.85292,61.17846319091797,30.9179Q61.213203190917966,30.98289,61.24140319091797,31.05097Q61.26960319091797,31.11906,61.290993190917966,31.18957Q61.31238319091797,31.260089999999998,61.326763190917966,31.33236Q61.34113319091797,31.40464,61.34836319091797,31.47797Q61.35558319091797,31.55131,61.35558319091797,31.625ZM79.64558319091796,25.875Q79.64558319091796,25.9486903,79.63838319091798,26.022026Q79.63118319091797,26.095361,79.61678319091797,26.167635Q79.60238319091798,26.23991,79.58098319091798,26.310427Q79.55958319091798,26.380944,79.53138319091796,26.449025Q79.50318319091797,26.517106,79.46848319091796,26.582095Q79.43368319091798,26.647084,79.39278319091797,26.708355Q79.35188319091797,26.769627,79.30508319091797,26.82659Q79.25838319091797,26.88355,79.20628319091797,26.93566Q79.15418319091796,26.98777,79.09718319091797,27.03452Q79.04018319091797,27.08126,78.97898319091797,27.1222Q78.91768319091797,27.16314,78.85268319091797,27.19788Q78.78768319091796,27.23262,78.71958319091797,27.26082Q78.65148319091797,27.28902,78.58098319091798,27.31041Q78.51048319091797,27.3318,78.43818319091797,27.34618Q78.36598319091797,27.36055,78.29258319091797,27.36778Q78.21928319091796,27.375,78.14558319091796,27.375Q78.07188319091797,27.375,77.99858319091797,27.36778Q77.92518319091798,27.36055,77.85298319091797,27.34618Q77.78068319091797,27.3318,77.71018319091797,27.31041Q77.63968319091796,27.28902,77.57158319091798,27.26082Q77.50348319091796,27.23262,77.43848319091796,27.19788Q77.37348319091797,27.16314,77.31218319091798,27.1222Q77.25098319091796,27.08126,77.19398319091798,27.03452Q77.13698319091797,26.98777,77.08488319091796,26.93566Q77.03278319091797,26.88355,76.98608319091797,26.82659Q76.93928319091796,26.769627,76.89838319091797,26.708355Q76.85748319091797,26.647084,76.82268319091797,26.582095Q76.78798319091797,26.517106,76.75978319091797,26.449025Q76.73158319091797,26.380944,76.71018319091797,26.310427Q76.68878319091797,26.23991,76.67438319091796,26.167635Q76.65998319091797,26.095361,76.65278319091797,26.022026Q76.64558319091796,25.9486903,76.64558319091796,25.875Q76.64558319091796,25.8013097,76.65278319091797,25.727974Q76.65998319091797,25.654639,76.67438319091796,25.582365Q76.68878319091797,25.51009,76.71018319091797,25.439573Q76.73158319091797,25.369056,76.75978319091797,25.300975Q76.78798319091797,25.232894,76.82268319091797,25.167905Q76.85748319091797,25.102916,76.89838319091797,25.041645Q76.93928319091796,24.980373,76.98608319091797,24.92341Q77.03278319091797,24.86645,77.08488319091796,24.81434Q77.13698319091797,24.76223,77.19398319091798,24.71548Q77.25098319091796,24.66874,77.31218319091798,24.6278Q77.37348319091797,24.58686,77.43848319091796,24.55212Q77.50348319091796,24.51738,77.57158319091798,24.48918Q77.63968319091796,24.46098,77.71018319091797,24.43959Q77.78068319091797,24.4182,77.85298319091797,24.40382Q77.92518319091798,24.38945,77.99858319091797,24.38222Q78.07188319091797,24.375,78.14558319091796,24.375Q78.21928319091796,24.375,78.29258319091797,24.38222Q78.36598319091797,24.38945,78.43818319091797,24.40382Q78.51048319091797,24.4182,78.58098319091798,24.43959Q78.65148319091797,24.46098,78.71958319091797,24.48918Q78.78768319091796,24.51738,78.85268319091797,24.55212Q78.91768319091797,24.58686,78.97898319091797,24.6278Q79.04018319091797,24.66874,79.09718319091797,24.71548Q79.15418319091796,24.76223,79.20628319091797,24.81434Q79.25838319091797,24.86645,79.30508319091797,24.92341Q79.35188319091797,24.980373,79.39278319091797,25.041645Q79.43368319091798,25.102916,79.46848319091796,25.167905Q79.50318319091797,25.232894,79.53138319091796,25.300975Q79.55958319091798,25.369056,79.58098319091798,25.439573Q79.60238319091798,25.51009,79.61678319091797,25.582365Q79.63118319091797,25.654639,79.63838319091798,25.727974Q79.64558319091796,25.8013097,79.64558319091796,25.875Z" fill="#FFFFFF" fill-opacity="1"/></g><g style="mix-blend-mode:passthrough"><path d="M58.42432319091797,19.677786984558104Q59.49590219091797,16.261026984558107,62.37719319091797,14.110773984558106Q65.31725319091797,11.916666984558105,68.99558319091797,11.916666984558105Q72.68038319091796,11.916666984558105,75.62228319091797,14.110437984558105Q78.50498319091797,16.260046984558105,79.57688319091797,19.677786984558104L78.14558319091796,20.126666984558106L76.64558319091796,20.126666984558106L76.64558319091796,14.376666984558106Q76.64558319091796,14.302976984558105,76.65278319091797,14.229640984558106Q76.65998319091797,14.156305984558106,76.67438319091796,14.084030984558105Q76.68878319091797,14.011756984558106,76.71018319091797,13.941239984558106Q76.73158319091797,13.870722984558105,76.75978319091797,13.802641984558106Q76.78798319091797,13.734560984558106,76.82268319091797,13.669571984558106Q76.85748319091797,13.604582984558105,76.89838319091797,13.543311984558105Q76.93928319091796,13.482040384558106,76.98608319091797,13.425077044558105Q77.03278319091797,13.368113684558105,77.08488319091796,13.316006984558106Q77.13698319091797,13.263899984558105,77.19398319091798,13.217150984558106Q77.25098319091796,13.170402984558105,77.31218319091798,13.129462984558106Q77.37348319091797,13.088521984558106,77.43848319091796,13.053784984558105Q77.50348319091796,13.019047984558105,77.57158319091798,12.990847984558105Q77.63968319091796,12.962647984558105,77.71018319091797,12.941256984558105Q77.78068319091797,12.919864984558105,77.85298319091797,12.905488984558106Q77.92518319091798,12.891112984558106,77.99858319091797,12.883889984558106Q78.07188319091797,12.876666984558106,78.14558319091796,12.876666984558106Q78.21928319091796,12.876666984558106,78.29258319091797,12.883889984558106Q78.36598319091797,12.891112984558106,78.43818319091797,12.905488984558106Q78.51048319091797,12.919864984558105,78.58098319091798,12.941256984558105Q78.65148319091797,12.962647984558105,78.71958319091797,12.990847984558105Q78.78768319091796,13.019047984558105,78.85268319091797,13.053784984558105Q78.91768319091797,13.088521984558106,78.97898319091797,13.129462984558106Q79.04018319091797,13.170402984558105,79.09718319091797,13.217150984558106Q79.15418319091796,13.263899984558105,79.20628319091797,13.316006984558106Q79.25838319091797,13.368113684558105,79.30508319091797,13.425077024558105Q79.35188319091797,13.482040384558106,79.39278319091797,13.543311984558105Q79.43368319091798,13.604582984558105,79.46848319091796,13.669571984558106Q79.50318319091797,13.734560984558106,79.53138319091796,13.802641984558106Q79.55958319091798,13.870722984558105,79.58098319091798,13.941239984558106Q79.60238319091798,14.011756984558106,79.61678319091797,14.084030984558105Q79.63118319091797,14.156305984558106,79.63838319091798,14.229640984558106Q79.64558319091796,14.302976984558105,79.64558319091796,14.376666984558106L79.64558319091796,20.126666984558106Q79.64558319091796,20.245686984558105,79.62678319091796,20.363216984558107Q79.60808319091797,20.480746984558106,79.57098319091797,20.593846984558105Q79.53388319091798,20.706946984558105,79.47948319091796,20.812786984558105Q79.42498319091797,20.918626984558106,79.35458319091796,21.014556984558105Q79.28408319091797,21.110486984558104,79.19938319091797,21.194096984558104Q79.11468319091797,21.277716984558104,79.01788319091797,21.346936984558106Q78.92108319091797,21.416146984558104,78.81458319091797,21.469226984558105Q78.70798319091797,21.522306984558107,78.59448319091797,21.557926984558108Q78.52418319091797,21.579976984558105,78.45198319091797,21.595036984558106Q78.37988319091797,21.610086984558105,78.30658319091796,21.617996984558104Q78.23338319091798,21.625906984558107,78.15968319091797,21.626596984558105Q78.08598319091797,21.627286984558104,78.01258319091797,21.620756984558106Q77.93918319091797,21.614226984558105,77.86678319091797,21.600526984558105Q77.79438319091797,21.586826984558105,77.72368319091797,21.566096984558108Q77.65288319091798,21.545376984558104,77.58458319091797,21.517816984558106Q77.51628319091796,21.490256984558105,77.45098319091797,21.456126984558104Q77.38558319091797,21.421996984558106,77.32398319091797,21.381636984558106Q77.26228319091797,21.341276984558107,77.20488319091797,21.295056984558105Q77.14748319091797,21.248846984558106,77.09488319091797,21.197236984558106Q77.04228319091797,21.145616984558107,76.99508319091797,21.089096984558104Q76.94778319091796,21.032576984558105,76.90628319091797,20.971686984558104Q76.86478319091796,20.910806984558107,76.82938319091797,20.846146984558104Q76.79408319091797,20.781486984558107,76.76518319091797,20.713676984558106Q76.73638319091796,20.645856984558105,76.71428319091797,20.575546984558105Q75.93308319091797,18.084456984558106,73.82888319091796,16.515396984558105Q71.68498319091796,14.916666984558105,68.99558319091797,14.916666984558105Q66.31328319091797,14.916666984558105,64.17147319091796,16.515056984558107Q62.06799319091797,18.084846984558105,61.28684319091797,20.575546984558105Q61.26479319091797,20.645856984558105,61.23595319091797,20.713676984558106Q61.207113190917966,20.781486984558107,61.17177319091797,20.846146984558104Q61.13642319091797,20.910806984558107,61.09491319091797,20.971686984558104Q61.05340319091797,21.032576984558105,61.00611319091797,21.089096984558104Q60.95883319091797,21.145616984558107,60.90624319091797,21.197236984558106Q60.85364919091797,21.248846984558106,60.79624919091797,21.295056984558105Q60.73885019091797,21.341276984558107,60.677197190917965,21.381636984558106Q60.615544190917966,21.421996984558106,60.55023219091797,21.456126984558104Q60.48492019091797,21.490256984558105,60.41657719091797,21.517816984558106Q60.34823519091797,21.545376984558104,60.27752019091797,21.566096984558108Q60.20680519091797,21.586826984558105,60.13439919091797,21.600526984558105Q60.06199319091797,21.614226984558105,59.98859319091797,21.620756984558106Q59.91519309091797,21.627286984558104,59.84150609091797,21.626596984558105Q59.76781909091797,21.625906984558107,59.69455419091797,21.617996984558104Q59.62129019091797,21.610086984558105,59.54915419091797,21.595036984558106Q59.47701819091797,21.579976984558105,59.40670419091797,21.557926984558108Q59.33639119091797,21.535876984558108,59.26857819091797,21.507036984558106Q59.200764190917965,21.478196984558103,59.13610419091797,21.442856984558105Q59.071444190917965,21.407506984558104,59.01056019091797,21.365996984558105Q58.94967519091797,21.324476984558103,58.89315319091797,21.277196984558106Q58.83663319091797,21.229916984558105,58.785013190917965,21.177326984558107Q58.73340319091797,21.124736984558105,58.68718319091797,21.067336984558104Q58.64097319091797,21.009936984558106,58.60061319091797,20.948276984558106Q58.56025319091797,20.886626984558106,58.52612319091797,20.821316984558106Q58.49199319091797,20.756006984558105,58.464433190917966,20.687656984558107Q58.43687319091797,20.619316984558104,58.41615319091797,20.548606984558106Q58.39542319091797,20.477886984558104,58.38172319091797,20.405486984558106Q58.36802319091797,20.333076984558105,58.36149319091797,20.259676984558105Q58.35495319091797,20.186276984558106,58.35565319091797,20.112586984558106Q58.35634319091797,20.038906984558103,58.36425319091797,19.965636984558106Q58.372163190917966,19.892376984558105,58.38721319091797,19.820236984558107Q58.40227319091797,19.748096984558106,58.42432319091797,19.677786984558104ZM61.35558319091797,20.126666984558106Q61.35558319091797,20.200356984558105,61.34836319091797,20.273696984558107Q61.34113319091797,20.347026984558106,61.326763190917966,20.419296984558105Q61.31238319091797,20.491576984558105,61.290993190917966,20.562096984558107Q61.26960319091797,20.632606984558105,61.24140319091797,20.700686984558104Q61.213203190917966,20.768776984558105,61.17846319091797,20.833756984558107Q61.14372319091797,20.898746984558105,61.10278319091797,20.960016984558106Q61.06184319091797,21.021296984558106,61.01510319091797,21.078256984558106Q60.968353190917966,21.135216984558106,60.91624319091797,21.187326984558105Q60.86413319091797,21.239436984558104,60.80717319091797,21.286186984558107Q60.75021019091797,21.332926984558107,60.688938190917966,21.373866984558106Q60.62766719091797,21.414806984558105,60.56267819091797,21.449546984558104Q60.49768919091797,21.484286984558103,60.42960819091797,21.512486984558105Q60.36152719091797,21.540686984558107,60.291010190917966,21.562076984558104Q60.22049319091797,21.583466984558108,60.148218190917966,21.597846984558103Q60.075944190917966,21.612216984558106,60.002609190917966,21.619446984558106Q59.92927349091797,21.626666984558106,59.85558319091797,21.626666984558106Q59.781892890917966,21.626666984558106,59.70855719091797,21.619446984558106Q59.63522219091797,21.612216984558106,59.56294819091797,21.597846984558103Q59.49067319091797,21.583466984558108,59.42015619091797,21.562076984558104Q59.34963919091797,21.540686984558107,59.28155819091797,21.512486984558105Q59.21347719091797,21.484286984558103,59.148488190917966,21.449546984558104Q59.08349919091797,21.414806984558105,59.02222819091797,21.373866984558106Q58.96095619091797,21.332926984558107,58.903993190917966,21.286186984558107Q58.84703319091797,21.239436984558104,58.79492319091797,21.187326984558105Q58.74281319091797,21.135216984558106,58.69606319091797,21.078256984558106Q58.64932319091797,21.021296984558106,58.60838319091797,20.960016984558106Q58.56744319091797,20.898746984558105,58.53270319091797,20.833756984558107Q58.49796319091797,20.768776984558105,58.469763190917966,20.700686984558104Q58.44156319091797,20.632606984558105,58.42017319091797,20.562096984558107Q58.39878319091797,20.491576984558105,58.38440319091797,20.419296984558105Q58.370033190917965,20.347026984558106,58.362803190917965,20.273696984558107Q58.35558319091797,20.200356984558105,58.35558319091797,20.126666984558106Q58.35558319091797,20.052976984558107,58.362803190917965,19.979636984558105Q58.370033190917965,19.906306984558107,58.38440319091797,19.834026984558108Q58.39878319091797,19.761756984558104,58.42017319091797,19.691236984558106Q58.44156319091797,19.620716984558104,58.469763190917966,19.552636984558106Q58.49796319091797,19.484556984558104,58.53270319091797,19.419566984558106Q58.56744319091797,19.354586984558104,58.60838319091797,19.293306984558107Q58.64932319091797,19.232036984558107,58.69606319091797,19.175076984558103Q58.74281319091797,19.118116984558107,58.79492319091797,19.066006984558104Q58.84703319091797,19.013896984558105,58.903993190917966,18.967146984558106Q58.96095619091797,18.920406984558106,59.02222819091797,18.879466984558107Q59.08349919091797,18.838526984558104,59.148488190917966,18.803786984558105Q59.21347719091797,18.769046984558106,59.28155819091797,18.740846984558104Q59.34963919091797,18.712646984558106,59.42015619091797,18.691256984558105Q59.49067319091797,18.669866984558105,59.56294819091797,18.655486984558106Q59.63522219091797,18.641116984558106,59.70855719091797,18.633886984558107Q59.781892890917966,18.626666984558106,59.85558319091797,18.626666984558106Q59.92927349091797,18.626666984558106,60.002609190917966,18.633886984558107Q60.075944190917966,18.641116984558106,60.148218190917966,18.655486984558106Q60.22049319091797,18.669866984558105,60.291010190917966,18.691256984558105Q60.36152719091797,18.712646984558106,60.42960819091797,18.740846984558104Q60.49768919091797,18.769046984558106,60.56267819091797,18.803786984558105Q60.62766719091797,18.838526984558104,60.688938190917966,18.879466984558107Q60.75021019091797,18.920406984558106,60.80717319091797,18.967146984558106Q60.86413319091797,19.013896984558105,60.91624319091797,19.066006984558104Q60.968353190917966,19.118116984558107,61.01510319091797,19.175076984558103Q61.06184319091797,19.232036984558107,61.10278319091797,19.293306984558107Q61.14372319091797,19.354586984558104,61.17846319091797,19.419576984558105Q61.213203190917966,19.484556984558104,61.24140319091797,19.552636984558106Q61.26960319091797,19.620726984558104,61.290993190917966,19.691236984558106Q61.31238319091797,19.761756984558104,61.326763190917966,19.834026984558108Q61.34113319091797,19.906306984558107,61.34836319091797,19.979636984558105Q61.35558319091797,20.052976984558107,61.35558319091797,20.126666984558106ZM79.64558319091796,14.376666984558106Q79.64558319091796,14.450356984558105,79.63838319091798,14.523696984558105Q79.63118319091797,14.597026984558106,79.61678319091797,14.669306984558105Q79.60238319091798,14.741576984558105,79.58098319091798,14.812096984558105Q79.55958319091798,14.882606984558105,79.53138319091796,14.950696984558105Q79.50318319091797,15.018776984558105,79.46848319091796,15.083766984558105Q79.43368319091798,15.148746984558105,79.39278319091797,15.210026984558105Q79.35188319091797,15.271296984558106,79.30508319091797,15.328256984558106Q79.25838319091797,15.385216984558106,79.20628319091797,15.437326984558105Q79.15418319091796,15.489436984558106,79.09718319091797,15.536186984558105Q79.04018319091797,15.582926984558105,78.97898319091797,15.623866984558106Q78.91768319091797,15.664806984558105,78.85268319091797,15.699546984558106Q78.78768319091796,15.734286984558105,78.71958319091797,15.762486984558105Q78.65148319091797,15.790686984558105,78.58098319091798,15.812076984558106Q78.51048319091797,15.833466984558106,78.43818319091797,15.847846984558105Q78.36598319091797,15.862216984558106,78.29258319091797,15.869446984558106Q78.21928319091796,15.876666984558106,78.14558319091796,15.876666984558106Q78.07188319091797,15.876666984558106,77.99858319091797,15.869446984558106Q77.92518319091798,15.862216984558106,77.85298319091797,15.847846984558105Q77.78068319091797,15.833466984558106,77.71018319091797,15.812076984558106Q77.63968319091796,15.790686984558105,77.57158319091798,15.762486984558105Q77.50348319091796,15.734286984558105,77.43848319091796,15.699546984558106Q77.37348319091797,15.664806984558105,77.31218319091798,15.623866984558106Q77.25098319091796,15.582926984558105,77.19398319091798,15.536186984558105Q77.13698319091797,15.489436984558106,77.08488319091796,15.437326984558105Q77.03278319091797,15.385216984558106,76.98608319091797,15.328256984558106Q76.93928319091796,15.271296984558106,76.89838319091797,15.210026984558105Q76.85748319091797,15.148746984558105,76.82268319091797,15.083766984558105Q76.78798319091797,15.018776984558105,76.75978319091797,14.950696984558105Q76.73158319091797,14.882606984558105,76.71018319091797,14.812096984558105Q76.68878319091797,14.741576984558105,76.67438319091796,14.669306984558105Q76.65998319091797,14.597026984558106,76.65278319091797,14.523696984558105Q76.64558319091796,14.450356984558105,76.64558319091796,14.376666984558106Q76.64558319091796,14.302976984558105,76.65278319091797,14.229640984558106Q76.65998319091797,14.156305984558106,76.67438319091796,14.084031984558106Q76.68878319091797,14.011756984558106,76.71018319091797,13.941239984558106Q76.73158319091797,13.870722984558105,76.75978319091797,13.802641984558106Q76.78798319091797,13.734560984558106,76.82268319091797,13.669571984558106Q76.85748319091797,13.604582984558105,76.89838319091797,13.543311984558105Q76.93928319091796,13.482040384558106,76.98608319091797,13.425077064558106Q77.03278319091797,13.368113684558105,77.08488319091796,13.316006984558106Q77.13698319091797,13.263899984558105,77.19398319091798,13.217150984558106Q77.25098319091796,13.170402984558105,77.31218319091798,13.129462984558106Q77.37348319091797,13.088522984558105,77.43848319091796,13.053784984558105Q77.50348319091796,13.019047984558105,77.57158319091798,12.990847984558105Q77.63968319091796,12.962647984558105,77.71018319091797,12.941256984558105Q77.78068319091797,12.919864984558105,77.85298319091797,12.905488984558106Q77.92518319091798,12.891112984558106,77.99858319091797,12.883889984558106Q78.07188319091797,12.876666984558106,78.14558319091796,12.876666984558106Q78.21928319091796,12.876666984558106,78.29258319091797,12.883889984558106Q78.36598319091797,12.891112984558106,78.43818319091797,12.905488984558106Q78.51048319091797,12.919864984558105,78.58098319091798,12.941256984558105Q78.65148319091797,12.962647984558105,78.71958319091797,12.990847984558105Q78.78768319091796,13.019047984558105,78.85268319091797,13.053784984558105Q78.91768319091797,13.088521984558106,78.97898319091797,13.129462984558106Q79.04018319091797,13.170402984558105,79.09718319091797,13.217150984558106Q79.15418319091796,13.263899984558105,79.20628319091797,13.316006984558106Q79.25838319091797,13.368113684558105,79.30508319091797,13.425077054558106Q79.35188319091797,13.482040384558106,79.39278319091797,13.543311984558105Q79.43368319091798,13.604582984558105,79.46848319091796,13.669571984558106Q79.50318319091797,13.734560984558106,79.53138319091796,13.802641984558106Q79.55958319091798,13.870722984558105,79.58098319091798,13.941239984558106Q79.60238319091798,14.011756984558106,79.61678319091797,14.084031984558106Q79.63118319091797,14.156305984558106,79.63838319091798,14.229640984558106Q79.64558319091796,14.302976984558105,79.64558319091796,14.376666984558106Z" fill="#FFFFFF" fill-opacity="1"/></g></g></g></svg>