<svg xmlns="http://www.w3.org/2000/svg" xmlns:xlink="http://www.w3.org/1999/xlink" fill="none" version="1.1" width="58" height="58" viewBox="0 0 58 58"><defs><mask id="master_svg0_0_1356"><g style="mix-blend-mode:passthrough"><path d="M0 0C0 0 0 0 0 0L58 0C58 0 58 0 58 0L58 58C58 58 58 58 58 58L0 58C0 58 0 58 0 58Z" fill="#FFFFFF" fill-opacity="1"/></g></mask></defs><g style="mix-blend-mode:passthrough"><g><g style="mix-blend-mode:passthrough"></g></g><g mask="url(#master_svg0_0_1356)"><g style="mix-blend-mode:passthrough"><path d="M48.33666698455811,28.996666984558104C48.33666698455811,18.326666984558106,39.67666698455811,9.666666984558105,28.996666984558104,9.666666984558105C18.326666984558106,9.666666984558105,9.666666984558105,18.326666984558106,9.666666984558105,28.996666984558104C9.666666984558105,39.67666698455811,18.326666984558106,48.33666698455811,28.996666984558104,48.33666698455811C39.67666698455811,48.33666698455811,48.33666698455811,39.67666698455811,48.33666698455811,28.996666984558104Z" fill-rule="evenodd" fill="#D8D8D8" fill-opacity="0.009999999776482582"/><path d="M28.996666984558104,45.83666698455811Q32.4238669845581,45.83666698455811,35.5501669845581,44.5141669845581Q38.57176698455811,43.23606698455811,40.90386698455811,40.90386698455811Q43.23606698455811,38.57176698455811,44.5141669845581,35.5501669845581Q45.83666698455811,32.4238669845581,45.83666698455811,28.996666984558104Q45.83666698455811,25.573366984558106,44.51436698455811,22.449466984558107Q43.23626698455811,19.429686984558103,40.9041669845581,17.098496984558103Q38.571866984558106,14.766996984558105,35.55036698455811,13.489036984558105Q32.42376698455811,12.166666984558105,28.996666984558104,12.166666984558105Q25.573466984558106,12.166666984558105,22.449266984558108,13.488826984558106Q19.429586984558107,14.766776984558106,17.098186984558104,17.098186984558104Q14.766776984558106,19.429596984558106,13.488816984558106,22.449266984558108Q12.166666984558105,25.573466984558106,12.166666984558105,28.996666984558104Q12.166666984558105,32.42376698455811,13.489036984558105,35.55036698455811Q14.766996984558105,38.571866984558106,17.098496984558103,40.9041669845581Q19.429706984558106,43.23626698455811,22.449466984558107,44.51436698455811Q25.573366984558106,45.83666698455811,28.996666984558104,45.83666698455811ZM28.996666984558104,50.83666698455811Q24.558666984558105,50.83666698455811,20.500466984558106,49.11896698455811Q16.582846984558106,47.4606669845581,13.562336984558105,44.4390669845581Q10.541667984558105,41.4173669845581,8.883984984558106,37.497966984558104Q7.1666669845581055,33.437666984558106,7.1666669845581055,28.996666984558104Q7.1666669845581055,24.558966984558104,8.884195984558106,20.500566984558105Q10.542024984558106,16.583276984558104,13.562646984558105,13.562646984558105Q16.583266984558104,10.542027984558105,20.500566984558105,8.884197984558105Q24.558966984558104,7.1666669845581055,28.996666984558104,7.1666669845581055Q33.437666984558106,7.1666669845581055,37.497966984558104,8.883983984558105Q41.4173669845581,10.541667984558105,44.439166984558106,13.562336984558105Q47.4606669845581,16.582836984558107,49.11896698455811,20.500466984558106Q50.83666698455811,24.558766984558105,50.83666698455811,28.996666984558104Q50.83666698455811,33.4379669845581,49.119166984558106,37.498166984558104Q47.46106698455811,41.41776698455811,44.4394669845581,44.4394669845581Q41.41776698455811,47.46106698455811,37.498166984558104,49.119166984558106Q33.4379669845581,50.83666698455811,28.996666984558104,50.83666698455811Z" fill="#FFFFFF" fill-opacity="1"/></g><g style="mix-blend-mode:passthrough"><path d="M11.075765498275757,30.131108758544922Q7.943905498275757,32.21900875854492,6.541635498275757,34.16670875854492Q5.5090354982757574,35.60100875854492,5.734605498275757,36.44680875854492Q5.946175498275757,37.23070875854492,7.3967054982757565,37.92720875854492Q9.384615498275757,38.881908758544924,12.829525498275757,39.18170875854492Q16.484445498275758,39.49980875854492,21.036545498275757,39.00040875854492Q25.813145498275755,38.476508758544924,30.851845498275758,37.12620875854492Q35.89084549827576,35.77590875854492,40.29064549827576,33.840808758544924Q44.48414549827576,31.996608758544923,47.49124549827576,29.89350875854492Q50.32574549827576,27.911238758544922,51.56934549827576,26.09154875854492Q52.47534549827576,24.765848758544923,52.264245498275756,23.97808875854492Q52.05174549827576,23.183658758544922,50.60294549827576,22.485888758544924Q48.615445498275754,21.52865875854492,45.174145498275756,21.23175875854492Q45.05174549827576,21.221198758544922,44.93104549827576,21.19869875854492Q44.810245498275755,21.17619875854492,44.692345498275756,21.141978758544923Q44.574345498275754,21.107748758544922,44.46034549827576,21.062128758544922Q44.34634549827576,21.016508758544923,44.23734549827576,20.959928758544923Q44.128345498275756,20.903348758544922,44.025345498275755,20.83635875854492Q43.922445498275756,20.76935875854492,43.826545498275756,20.69260875854492Q43.730645498275756,20.61584875854492,43.64274549827576,20.53005875854492Q43.55494549827576,20.444268758544922,43.47584549827576,20.35028875854492Q43.396745498275756,20.256298758544922,43.327345498275754,20.155008758544923Q43.257845498275756,20.05372875854492,43.19864549827576,19.946118758544923Q43.139445498275755,19.83851875854492,43.091045498275754,19.72562475854492Q43.04274549827576,19.612733758544923,43.005645498275754,19.49564575854492Q42.96854549827576,19.378557758544922,42.943145498275754,19.258399758544922Q42.91774549827576,19.138241758544922,42.904245498275756,19.016170758544924Q42.89064549827576,18.89409975854492,42.889245498275756,18.771291458544923Q42.887745498275756,18.648483358544922,42.898245498275756,18.526120758544923Q42.90884549827576,18.403757758544923,42.93134549827575,18.28301975854492Q42.953845498275754,18.16228075854492,42.98804549827576,18.04432875854492Q43.02224549827576,17.926376758544922,43.067945498275755,17.812347758544924Q43.113545498275755,17.69831875854492,43.170045498275755,17.589308758544924Q43.22664549827576,17.480298758544922,43.29364549827576,17.37736875854492Q43.36064549827576,17.27442875854492,43.43744549827576,17.17854875854492Q43.51414549827576,17.082678758544922,43.59994549827576,16.99478875854492Q43.68574549827576,16.906898758544923,43.77974549827576,16.82783875854492Q43.87374549827576,16.748778758544923,43.975045498275755,16.67930875854492Q44.07634549827576,16.60984875854492,44.183945498275754,16.55063875854492Q44.29154549827576,16.491438758544923,44.404445498275756,16.44306875854492Q44.517245498275756,16.394698758544923,44.634345498275756,16.357628758544923Q44.75144549827576,16.320548758544923,44.871645498275754,16.295128758544923Q44.991745498275755,16.269718758544922,45.11384549827576,16.256198758544922Q45.235945498275754,16.242678758544923,45.35874549827576,16.241188758544922Q45.48154549827576,16.23970875854492,45.603945498275756,16.250258758544923Q49.95884549827576,16.62598875854492,52.772545498275754,17.981131758544922Q56.289045498275755,19.674756758544923,57.093845498275755,22.683928758544923Q57.89944549827576,25.69044875854492,55.697445498275755,28.91260875854492Q53.93904549827576,31.485708758544924,50.35674549827576,33.99100875854492Q46.946845498275756,36.37560875854492,42.30354549827576,38.41770875854492Q37.554045498275755,40.50660875854492,32.14614549827576,41.95580875854492Q26.738245498275756,43.40500875854492,21.581745498275758,43.97060875854493Q16.540745498275754,44.523608758544924,12.396005498275757,44.16280875854493Q8.042405498275757,43.783908758544925,5.232265498275757,42.43450875854492Q1.7160354982757569,40.74590875854492,0.9034354982757566,37.73520875854492Q0.06772549827575691,34.60120875854492,2.483901498275757,31.245308758544923Q4.415965498275757,28.561758758544922,8.302265498275757,25.97087875854492Q8.404455498275757,25.90275875854492,8.512835498275756,25.844978758544922Q8.621205498275756,25.78718875854492,8.734725498275758,25.74030875854492Q8.848245498275757,25.693428758544922,8.965805498275756,25.657898758544924Q9.083375498275757,25.622368758544923,9.203855498275757,25.598538758544922Q9.324335498275758,25.574698758544923,9.446575498275756,25.562788758544922Q9.568815498275757,25.550878758544922,9.691635498275756,25.55100875854492Q9.814445498275756,25.551138758544923,9.936665498275758,25.56330875854492Q10.058875498275757,25.575468758544922,10.179305498275756,25.599558758544923Q10.299745498275758,25.62363875854492,10.417235498275756,25.659418758544923Q10.534725498275757,25.695188758544923,10.648145498275756,25.742308758544922Q10.761565498275758,25.789428758544922,10.869815498275756,25.84743875854492Q10.978065498275758,25.90544875854492,11.080115498275756,25.97378875854492Q11.182165498275758,26.042128758544923,11.277025498275757,26.120138758544922Q11.371875498275758,26.19815875854492,11.458635498275758,26.285088758544923Q11.545385498275756,26.37202875854492,11.623205498275757,26.467048758544923Q11.701015498275757,26.56206875854492,11.769145498275757,26.66425875854492Q11.837275498275757,26.76644875854492,11.895055498275758,26.874828758544922Q11.952835498275757,26.983198758544923,11.999715498275757,27.096718758544924Q12.046595498275757,27.21023875854492,12.082125498275756,27.327798758544922Q12.117655498275758,27.445368758544923,12.141485498275756,27.565848758544924Q12.165325498275758,27.686328758544924,12.177235498275756,27.808568758544922Q12.189145498275757,27.93080875854492,12.189015498275756,28.053628758544924Q12.188885498275758,28.176438758544922,12.176725498275756,28.298658758544924Q12.164555498275757,28.42086875854492,12.140465498275757,28.541298758544922Q12.116385498275756,28.66172875854492,12.080605498275757,28.77920875854492Q12.044835498275758,28.89670875854492,11.997715498275756,29.010108758544924Q11.950595498275757,29.123508758544922,11.892585498275757,29.231808758544922Q11.834575498275758,29.340108758544922,11.766235498275757,29.442108758544922Q11.697895498275757,29.544108758544922,11.619885498275757,29.63900875854492Q11.541875498275758,29.73390875854492,11.454935498275757,29.82060875854492Q11.367995498275757,29.90740875854492,11.272975498275757,29.98520875854492Q11.177955498275757,30.06300875854492,11.075765498275757,30.131108758544922ZM12.189015498275756,28.051008758544924Q12.189015498275756,28.17382875854492,12.176975498275757,28.29604875854492Q12.164945498275756,28.418278758544922,12.140975498275758,28.538738758544923Q12.117015498275757,28.65918875854492,12.081365498275757,28.77670875854492Q12.045715498275756,28.89420875854492,11.998715498275757,29.007708758544922Q11.951715498275757,29.121208758544924,11.893815498275757,29.229508758544924Q11.835925498275756,29.337808758544924,11.767695498275756,29.439908758544924Q11.699455498275757,29.542008758544924,11.621545498275756,29.637008758544923Q11.543625498275757,29.73190875854492,11.456785498275757,29.81880875854492Q11.369945498275756,29.905608758544922,11.275005498275757,29.98350875854492Q11.180065498275756,30.06140875854492,11.077945498275756,30.129708758544922Q10.975825498275757,30.19790875854492,10.867505498275758,30.255808758544923Q10.759195498275757,30.31370875854492,10.645725498275757,30.360708758544924Q10.532255498275756,30.40770875854492,10.414725498275757,30.443408758544923Q10.297195498275757,30.47900875854492,10.176745498275757,30.503008758544922Q10.056285498275756,30.52690875854492,9.934065498275757,30.539008758544924Q9.811835498275757,30.551008758544924,9.689015498275758,30.551008758544924Q9.566205498275757,30.551008758544924,9.443975498275757,30.539008758544924Q9.321745498275757,30.52690875854492,9.201295498275757,30.503008758544922Q9.080835498275757,30.47900875854492,8.963305498275757,30.443308758544923Q8.845775498275756,30.40770875854492,8.732305498275757,30.360708758544924Q8.618835498275757,30.31370875854492,8.510525498275758,30.255808758544923Q8.402215498275757,30.19790875854492,8.300095498275756,30.129708758544922Q8.197975498275756,30.06140875854492,8.103035498275757,29.98350875854492Q8.008095498275758,29.905608758544922,7.921255498275757,29.81880875854492Q7.834405498275757,29.73190875854492,7.756495498275757,29.637008758544923Q7.678575498275757,29.542008758544924,7.610345498275757,29.439908758544924Q7.542105498275757,29.337808758544924,7.4842154982757565,29.229508758544924Q7.426315498275756,29.121208758544924,7.379315498275757,29.007708758544922Q7.332315498275757,28.89420875854492,7.296665498275757,28.77670875854492Q7.261015498275757,28.65918875854492,7.2370554982757564,28.538738758544923Q7.213095498275757,28.418278758544922,7.201055498275757,28.29604875854492Q7.189015498275757,28.17382875854492,7.189015498275757,28.051008758544924Q7.189015498275757,27.92818875854492,7.201055498275757,27.80596875854492Q7.213095498275757,27.68373875854492,7.2370554982757564,27.56327875854492Q7.261015498275757,27.44282875854492,7.296665498275757,27.32529875854492Q7.332315498275757,27.207768758544923,7.379315498275757,27.094298758544923Q7.426315498275756,26.980828758544924,7.4842154982757565,26.87251875854492Q7.542105498275757,26.76419875854492,7.610345498275757,26.662078758544922Q7.678575498275757,26.559968758544922,7.756495498275757,26.46502875854492Q7.834405498275757,26.370088758544924,7.921255498275757,26.283238758544922Q8.008095498275758,26.196398758544923,8.103035498275757,26.11847875854492Q8.197975498275756,26.04056875854492,8.300095498275756,25.97233875854492Q8.402215498275757,25.904098758544922,8.510525498275758,25.846208758544922Q8.618835498275757,25.78830875854492,8.732305498275757,25.74130875854492Q8.845775498275756,25.69430875854492,8.963305498275757,25.658658758544924Q9.080835498275757,25.62300875854492,9.201295498275757,25.59904875854492Q9.321745498275757,25.575088758544922,9.443975498275757,25.563048758544923Q9.566205498275757,25.55100875854492,9.689015498275758,25.55100875854492Q9.811835498275757,25.55100875854492,9.934065498275757,25.563048758544923Q10.056285498275756,25.575088758544922,10.176745498275757,25.59904875854492Q10.297195498275757,25.62300875854492,10.414725498275757,25.658658758544924Q10.532255498275756,25.69430875854492,10.645725498275757,25.74130875854492Q10.759195498275757,25.78830875854492,10.867505498275758,25.846208758544922Q10.975825498275757,25.904098758544922,11.077945498275756,25.97233875854492Q11.180065498275756,26.04056875854492,11.275005498275757,26.11847875854492Q11.369945498275756,26.196398758544923,11.456785498275757,26.283238758544922Q11.543625498275757,26.370088758544924,11.621545498275756,26.46502875854492Q11.699455498275757,26.559968758544922,11.767695498275756,26.662078758544922Q11.835925498275756,26.76419875854492,11.893825498275756,26.87251875854492Q11.951715498275757,26.980828758544924,11.998715498275757,27.094298758544923Q12.045715498275756,27.207768758544923,12.081365498275757,27.32529875854492Q12.117015498275757,27.44282875854492,12.140975498275758,27.56327875854492Q12.164945498275756,27.68373875854492,12.176975498275757,27.80596875854492Q12.189015498275756,27.92818875854492,12.189015498275756,28.051008758544924ZM47.889045498275756,18.741008758544922Q47.889045498275756,18.863825758544923,47.87694549827576,18.98605175854492Q47.86494549827576,19.108277758544922,47.84094549827576,19.22873475854492Q47.81704549827575,19.349191758544922,47.781345498275755,19.466720758544923Q47.74574549827576,19.584248758544923,47.698745498275755,19.69771675854492Q47.65174549827576,19.811188758544922,47.593845498275755,19.919498758544922Q47.53594549827576,20.02781875854492,47.46764549827576,20.12993875854492Q47.39944549827576,20.23204875854492,47.32154549827575,20.32698875854492Q47.243645498275754,20.421928758544922,47.156745498275754,20.50877875854492Q47.06994549827576,20.595618758544923,46.97494549827576,20.67353875854492Q46.880045498275756,20.75144875854492,46.777945498275756,20.81967875854492Q46.675845498275756,20.88791875854492,46.567545498275756,20.94580875854492Q46.45914549827576,21.00370875854492,46.345745498275754,21.05070875854492Q46.23224549827576,21.097708758544922,46.11474549827576,21.133358758544922Q45.99724549827576,21.169008758544923,45.87674549827576,21.19296875854492Q45.75624549827576,21.21692875854492,45.63404549827575,21.228968758544923Q45.511845498275754,21.241008758544922,45.389045498275756,21.241008758544922Q45.26624549827576,21.241008758544922,45.143945498275755,21.228968758544923Q45.021745498275756,21.21692875854492,44.901245498275756,21.19296875854492Q44.78084549827576,21.169008758544923,44.66334549827576,21.133358758544922Q44.54574549827576,21.097708758544922,44.43234549827576,21.05070875854492Q44.318845498275756,21.00370875854492,44.210545498275756,20.94580875854492Q44.10224549827576,20.88791875854492,44.00004549827576,20.81967875854492Q43.89794549827576,20.75144875854492,43.80304549827576,20.67353875854492Q43.70804549827576,20.595618758544923,43.621245498275755,20.50877875854492Q43.53444549827576,20.421928758544922,43.456445498275755,20.32698875854492Q43.378545498275756,20.23204875854492,43.31034549827576,20.12993875854492Q43.242145498275754,20.02781875854492,43.18424549827576,19.919498758544922Q43.126345498275754,19.811188758544922,43.07934549827576,19.69771675854492Q43.03234549827576,19.584248758544923,42.996645498275754,19.466720758544923Q42.96104549827576,19.349191758544922,42.93704549827576,19.22873475854492Q42.91304549827576,19.108277758544922,42.90104549827576,18.98605175854492Q42.889045498275756,18.863825758544923,42.889045498275756,18.741008758544922Q42.889045498275756,18.61819175854492,42.90104549827576,18.495965758544923Q42.91304549827576,18.37373975854492,42.93704549827576,18.253282758544923Q42.96104549827576,18.13282575854492,42.996645498275754,18.01529675854492Q43.03234549827576,17.89776875854492,43.07934549827576,17.784300758544923Q43.126345498275754,17.67082875854492,43.18424549827576,17.562518758544922Q43.242145498275754,17.454198758544923,43.31034549827576,17.352078758544923Q43.378545498275756,17.249968758544924,43.456445498275755,17.155028758544923Q43.53444549827576,17.06008875854492,43.621245498275755,16.973238758544923Q43.70804549827576,16.88639875854492,43.80304549827576,16.808478758544922Q43.89794549827576,16.730568758544923,44.00004549827576,16.662338758544923Q44.10224549827576,16.594098758544924,44.210545498275756,16.536208758544923Q44.318845498275756,16.478308758544923,44.43234549827576,16.431308758544922Q44.54574549827576,16.384308758544922,44.66334549827576,16.34865875854492Q44.78084549827576,16.31300875854492,44.901245498275756,16.289048758544922Q45.021745498275756,16.265088758544923,45.143945498275755,16.25304875854492Q45.26624549827576,16.241008758544922,45.389045498275756,16.241008758544922Q45.511845498275754,16.241008758544922,45.63404549827575,16.25304875854492Q45.75624549827576,16.265088758544923,45.87674549827576,16.289048758544922Q45.99724549827576,16.31300875854492,46.11474549827576,16.34865875854492Q46.23224549827576,16.384308758544922,46.345745498275754,16.431308758544922Q46.45914549827576,16.478308758544923,46.567545498275756,16.536208758544923Q46.675845498275756,16.594098758544924,46.777945498275756,16.662338758544923Q46.880045498275756,16.730568758544923,46.97494549827576,16.808478758544922Q47.06994549827576,16.88639875854492,47.156745498275754,16.973238758544923Q47.243645498275754,17.06008875854492,47.32154549827575,17.155028758544923Q47.39944549827576,17.249968758544924,47.46764549827576,17.352078758544923Q47.53594549827576,17.454198758544923,47.593845498275755,17.562518758544922Q47.65174549827576,17.67082875854492,47.698745498275755,17.784300758544923Q47.74574549827576,17.89776875854492,47.781345498275755,18.01529675854492Q47.81704549827575,18.13282575854492,47.84094549827576,18.253282758544923Q47.86494549827576,18.37373975854492,47.87694549827576,18.495965758544923Q47.889045498275756,18.61819175854492,47.889045498275756,18.741008758544922Z" fill="#FFFFFF" fill-opacity="1"/></g></g></g></svg>